<?xml version="1.0" encoding="UTF-8" standalone="no"?>
<svg
   xmlns:dc="http://purl.org/dc/elements/1.1/"
   xmlns:cc="http://creativecommons.org/ns#"
   xmlns:rdf="http://www.w3.org/1999/02/22-rdf-syntax-ns#"
   xmlns:svg="http://www.w3.org/2000/svg"
   xmlns="http://www.w3.org/2000/svg"
   xmlns:sodipodi="http://sodipodi.sourceforge.net/DTD/sodipodi-0.dtd"
   xmlns:inkscape="http://www.inkscape.org/namespaces/inkscape"
   sodipodi:docname="sample.svg"
   inkscape:version="1.0 (4035a4fb49, 2020-05-01)"
   id="svg8"
   version="1.1"
   viewBox="0 0 297 210"
   height="210mm"
   width="297mm">
  <defs
     id="defs2" />
  <sodipodi:namedview
     inkscape:window-maximized="1"
     inkscape:window-y="-8"
     inkscape:window-x="-8"
     inkscape:window-height="1009"
     inkscape:window-width="1920"
     showgrid="false"
     inkscape:document-rotation="0"
     inkscape:current-layer="layer1"
     inkscape:document-units="mm"
     inkscape:cy="394.2291"
     inkscape:cx="550.25713"
     inkscape:zoom="3.8541421"
     inkscape:pageshadow="2"
     inkscape:pageopacity="0.0"
     borderopacity="1.0"
     bordercolor="#666666"
     pagecolor="#ffffff"
     id="base" />
  <metadata
     id="metadata5">
    <rdf:RDF>
      <cc:Work
         rdf:about="">
        <dc:format>image/svg+xml</dc:format>
        <dc:type
           rdf:resource="http://purl.org/dc/dcmitype/StillImage" />
        <dc:title></dc:title>
      </cc:Work>
    </rdf:RDF>
  </metadata>
  <g
     id="layer1"
     inkscape:groupmode="layer"
     inkscape:label="Layer 1">
    <path
       id="path24"
       d="m 125.55872,114.55724 h -0.74494 l 0.0528,-0.10417 0.0528,-0.10417 0.0685,-0.0104 0.0685,-0.0104 0.45216,-0.0148 0.45215,-0.0148 0.10926,-0.002 0.10927,-0.002 0.0204,-0.021 0.0204,-0.021 0.10764,-0.19898 0.10765,-0.19899 0.0238,-0.0147 0.0238,-0.0147 0.0964,-0.0159 0.0964,-0.0159 0.0631,-0.003 0.0631,-0.003 0.32597,-0.0277 0.32598,-0.0276 0.10515,-0.0644 0.10515,-0.0644 0.12982,-0.13966 0.12982,-0.13966 0.17513,-0.0255 0.17512,-0.0254 0.37855,-0.0213 0.37854,-0.0213 0.0841,-0.004 0.0841,-0.004 0.10515,-0.0616 0.10515,-0.0616 0.14722,-0.10866 0.14721,-0.10866 0.12618,-0.0292 0.12619,-0.0292 1.25131,-0.002 1.25132,-0.002 0.27339,-0.0246 0.2734,-0.0246 0.19979,-0.0219 0.19979,-0.0219 0.14721,-0.0325 0.14721,-0.0325 0.18928,-0.0915 0.18927,-0.0915 0.0631,-0.0243 0.0631,-0.0243 0.13706,-0.0386 0.13707,-0.0386 0.21742,-0.0223 0.21742,-0.0223 0.81271,-8e-5 0.8127,-9e-5 0.33649,-0.0312 0.33649,-0.0312 0.14721,-0.0201 0.14721,-0.0201 0.11744,-0.0206 0.11744,-0.0206 0.26346,-0.11659 0.26346,-0.11658 0.18157,-0.0526 0.18156,-0.0526 0.27294,-0.0256 0.27295,-0.0256 0.79445,0.0253 0.79446,0.0253 0.93586,-10e-4 0.93585,-0.001 0.44613,-0.0194 0.44612,-0.0193 0.332,-0.0339 0.33201,-0.0339 0.16824,-0.029 0.16825,-0.029 0.11567,-0.0309 0.11566,-0.0309 0.11567,-0.0517 0.11567,-0.0517 0.26569,-0.0863 0.2657,-0.0863 0.18646,-0.0223 0.18646,-0.0223 0.68349,-0.0196 0.68349,-0.0196 0.0841,-0.0125 0.0841,-0.0125 0.14721,-0.0212 0.14721,-0.0213 0.14722,-0.0294 0.14721,-0.0294 0.24185,-0.0825 0.24185,-0.0825 0.19979,-0.0773 0.19979,-0.0772 0.16825,-0.0388 0.16824,-0.0389 0.26288,-0.023 0.26288,-0.023 0.71504,-0.0211 0.71504,-0.0211 0.37854,-0.0317 0.37855,-0.0317 0.49422,-0.0533 0.49422,-0.0533 0.29442,-0.0416 0.29443,-0.0416 0.22082,-0.0433 0.22082,-0.0433 0.42681,-0.0927 0.42681,-0.0927 0.4258,-0.11428 0.42579,-0.11427 0.17789,-0.062 0.17789,-0.062 0.18833,-0.0763 0.18833,-0.0763 0.22983,-0.12714 0.22983,-0.12714 0.19504,-0.14468 0.19503,-0.14468 0.18077,-0.16084 0.18078,-0.16083 0.47982,-0.51889 0.47983,-0.51888 0.29095,-0.30494 0.29095,-0.30494 0.16153,-0.17996 0.16154,-0.17996 0.13318,-0.16705 0.13319,-0.16704 0.17316,-0.26288 0.17316,-0.26288 0.13745,-0.26288 0.13743,-0.26289 0.15991,-0.36803 0.15991,-0.36803 0.019,-0.0421 0.0191,-0.0421 0.0946,-0.24353 0.0946,-0.24353 0.11492,-0.30326 0.11492,-0.30327 0.0868,-0.25167 0.0868,-0.25167 0.0925,-0.30564 0.0925,-0.30563 0.0529,-0.21031 0.0529,-0.2103 0.0516,-0.28391 0.0516,-0.28392 0.0347,-0.35751 0.0347,-0.35752 0.0314,-0.29443 0.0314,-0.29443 0.0521,-0.259672 0.0522,-0.25967 0.0728,-0.22403 0.0728,-0.22403 0.0824,-0.12338 0.0824,-0.12338 0.2489,-0.13208 0.24891,-0.13207 0.121,-0.10866 0.121,-0.10865 0.0908,-0.14062 0.0908,-0.14062 0.0575,-0.10516 0.0575,-0.10515 0.23116,-0.25236 0.23116,-0.25237 0.0704,-0.1367 0.0704,-0.1367 0.0876,-0.27339 0.0876,-0.2734 0.0322,-0.15773 0.0322,-0.15773 -0.002,-0.0315 -0.002,-0.0316 -8.4e-4,-0.10515 -8.4e-4,-0.10515 -0.075,-0.049 -0.075,-0.049 -0.0968,-0.0291 -0.0968,-0.0291 -0.14323,0.0559 -0.14322,0.0559 -0.0612,0.0958 -0.0612,0.0958 -0.0149,0.0631 -0.015,0.0631 -0.0287,0.057 -0.0287,0.057 -0.063,0.37414 -0.0629,0.37415 -0.0507,0.10515 -0.0507,0.10516 -0.024,0.0533 -0.024,0.0533 -0.13505,0.0256 -0.13504,0.0256 h -0.0597 -0.0597 l -0.0532,-0.0578 -0.0532,-0.0578 -0.0453,-0.0759 -0.0453,-0.0759 0.051,-0.34471 0.051,-0.34471 0.0214,-0.0841 0.0214,-0.0841 0.0409,-0.13865 0.0409,-0.13866 0.0363,-0.0717 0.0363,-0.0716 0.10999,-0.16824 0.11,-0.16824 0.0679,-0.11438 0.0679,-0.11437 0.0491,-0.15902 0.0491,-0.15903 0.0229,-0.11144 0.0228,-0.11145 v -0.10528 -0.10412 h 0.69401 0.69401 l -2.1e-4,0.0368 -2.1e-4,0.0368 -0.0196,0.33649 -0.0196,0.33649 0.0176,0.1367 0.0176,0.1367 0.0351,0.0946 0.0351,0.0946 0.0545,0.11566 0.0545,0.11567 0.02,0.0736 0.02,0.0736 0.0157,0.14722 0.0157,0.14721 -0.0295,0.16824 -0.0296,0.16825 -0.0606,0.14721 -0.0606,0.14721 -0.0811,0.14722 -0.0811,0.14721 -0.0864,0.12618 -0.0865,0.12619 -0.0737,0.11567 -0.0737,0.11566 -0.12782,0.26288 -0.12781,0.26289 -0.1003,0.16111 -0.1003,0.16111 -0.17457,0.25677 -0.17456,0.25677 -0.0964,0.19195 -0.0964,0.19195 -0.0713,0.18475 -0.0714,0.18476 -0.0563,0.225392 -0.0563,0.22539 2.1e-4,0.31546 2.3e-4,0.31546 0.0582,0.24185 0.0582,0.24185 0.0224,0.17876 0.0224,0.17876 -0.025,0.18927 -0.025,0.18928 -0.0513,0.19312 -0.0513,0.19312 -0.12572,0.39573 -0.12572,0.39573 -0.20879,0.6204 -0.20878,0.6204 -0.1082,0.28928 -0.10821,0.28928 -0.11628,0.27855 -0.11629,0.27854 -0.22876,0.46357 -0.22876,0.46356 -0.16784,0.25148 -0.16784,0.25147 -0.16961,0.20304 -0.16961,0.20303 -0.16326,0.15162 -0.16326,0.15162 -0.28185,0.22368 -0.28185,0.22368 -0.31752,0.25105 -0.31752,0.25104 -0.49422,0.4978 -0.49421,0.49781 -0.12619,0.10471 -0.12618,0.10471 -0.16824,0.11655 -0.16825,0.11655 -0.25236,0.12605 -0.25237,0.12605 -0.15404,0.0554 -0.15404,0.0554 -0.24554,0.0638 -0.24554,0.0638 -0.25309,0.0412 -0.25309,0.0412 -0.47169,0.0635 -0.4717,0.0635 -0.32674,0.0303 -0.32674,0.0303 -0.41009,0.0219 -0.4101,0.0219 -0.53628,0.02 -0.53627,0.0201 -0.4837,0.0122 -0.48371,0.0122 -0.91165,0.009 -0.91166,0.009 -0.12935,0.0129 -0.12935,0.0129 -0.15364,0.0324 -0.15363,0.0324 -0.3511,0.13522 -0.3511,0.13521 -0.11567,0.0319 -0.11566,0.0319 -0.16825,0.0288 -0.16824,0.0288 -0.23134,0.0238 -0.23133,0.0238 -0.76762,0.0189 -0.76761,0.0189 -0.10515,0.0221 -0.10515,0.0221 -0.16825,0.054 -0.16824,0.054 -0.19979,0.0904 -0.19979,0.0904 -0.14721,0.0327 -0.14722,0.0327 -0.15773,0.0226 -0.15772,0.0226 -0.24186,0.0209 -0.24185,0.0209 -0.57833,0.0237 -0.57834,0.0237 -1.43008,-0.0182 -1.43007,-0.0182 -0.43621,0.003 -0.43622,0.003 -0.12109,0.0242 -0.1211,0.0242 -0.1556,0.0512 -0.1556,0.0512 -0.11773,0.0681 -0.11773,0.0681 -0.11573,0.0502 -0.11574,0.0502 -0.11566,0.0172 -0.11567,0.0172 -0.30494,0.0345 -0.30494,0.0345 -1.1672,0.0158 -1.16719,0.0158 -0.17876,0.0443 -0.17876,0.0444 -0.1367,0.0757 -0.13669,0.0757 -0.11567,0.0717 -0.11567,0.0717 -0.0757,8.2e-4 -0.0757,8.2e-4 -0.061,0.0203 -0.061,0.0203 -0.46267,0.035 -0.46267,0.035 -1.30389,0.004 -1.30389,0.004 -0.0982,0.017 -0.0982,0.017 -0.10159,0.0831 -0.10159,0.0831 -0.0775,0.0641 -0.0775,0.0641 -0.07,0.0498 -0.07,0.0498 -0.50449,0.0207 -0.50448,0.0207 -0.155,0.0138 -0.15501,0.0138 -0.0343,0.0624 -0.0343,0.0624 -0.0578,0.0745 -0.0578,0.0745 v 0.052 0.052 l -0.05,-0.0125 -0.05,-0.0126 -0.0791,0.0628 -0.0791,0.0629 -0.19164,6e-5 -0.19164,6e-5 -0.33045,0.0137 -0.33046,0.0137 0.0108,0.0175 0.0108,0.0175 -0.0556,0.0949 -0.0556,0.0949 h -0.74493 z m 2.98276,-0.005 -0.86684,0.005 v -0.024 -0.024 l 0.0447,-0.0724 0.0447,-0.0724 0.0486,-0.0185 0.0486,-0.0185 0.66641,-0.004 0.66641,-0.004 0.19193,-0.18699 0.19193,-0.18698 0.0817,-0.0568 0.0817,-0.0568 1.53764,-0.004 1.53765,-0.004 0.26948,-0.0227 0.26948,-0.0227 0.17216,-0.0135 0.17216,-0.0135 0.1367,-0.0974 0.1367,-0.0974 0.11567,-0.0778 0.11567,-0.0778 0.14721,-0.0365 0.14721,-0.0365 1.07256,-0.004 1.07255,-0.004 0.35752,-0.0236 0.35752,-0.0236 0.15773,-0.022 0.15773,-0.022 0.0946,-0.0326 0.0946,-0.0325 0.0526,-0.0134 0.0526,-0.0134 0.11567,-0.0906 0.11567,-0.0906 0.14721,-0.0486 0.14722,-0.0486 0.0631,-0.0179 0.0631,-0.0178 2.45005,-0.002 2.45006,-0.001 0.36803,-0.0363 0.36803,-0.0363 0.14722,-0.0207 0.14721,-0.0207 0.10515,-0.0171 0.10515,-0.0171 0.22086,-0.11864 0.22086,-0.11863 0.13666,-0.0419 0.13666,-0.0419 0.1367,-0.0237 0.1367,-0.0237 0.86225,-0.0182 0.86225,-0.0182 0.15773,-0.0211 0.15773,-0.0211 0.13669,-0.0221 0.1367,-0.0222 0.10515,-0.0199 0.10516,-0.0199 0.25517,-0.11514 0.25517,-0.11514 0.17469,-0.0552 0.17469,-0.0552 0.20105,-0.0196 0.20106,-0.0196 1.15667,-6.4e-4 1.15668,-6.4e-4 1.26183,-0.0205 1.26183,-0.0205 0.63091,-0.0222 0.63092,-0.0222 0.51525,-0.0306 0.51524,-0.0305 0.19979,-0.0115 0.19979,-0.0115 0.18928,-0.0222 0.18927,-0.0222 0.17986,-0.0394 0.17985,-0.0394 0.17804,-0.0628 0.17804,-0.0628 0.24147,-0.12755 0.24148,-0.12755 0.15038,-0.13121 0.15038,-0.1312 0.18787,-0.23134 0.18786,-0.23133 0.12443,-0.11401 0.12442,-0.114 0.15404,-0.10082 0.15404,-0.10082 0.25605,-0.12509 0.25606,-0.12509 0.33256,-0.15886 0.33257,-0.15886 0.21144,-0.13854 0.21145,-0.13855 0.15,-0.12718 0.14999,-0.12718 0.17617,-0.19239 0.17618,-0.19239 0.16031,-0.21591 0.16032,-0.21592 0.2162,-0.34139 0.2162,-0.34139 0.24211,-0.41509 0.24211,-0.41509 0.1045,-0.2238 0.10451,-0.2238 0.0752,-0.22022 0.0753,-0.22021 0.0911,-0.46582 0.0911,-0.46581 0.0534,-0.19979 0.0534,-0.19979 0.0555,-0.1367 0.0555,-0.1367 0.0822,-0.16504 0.0822,-0.16504 0.0908,-0.1399 0.0908,-0.1399 0.13177,-0.1634 0.13177,-0.1634 0.13673,-0.116 0.13673,-0.116 0.12916,-0.0652 0.12915,-0.0652 0.26495,-0.0797 0.26495,-0.0797 0.16643,-0.0642 0.16642,-0.0642 0.18294,-0.10489 0.18294,-0.1049 0.24815,-0.16513 0.24815,-0.16513 0.11795,-0.0654 0.11795,-0.0654 0.30266,-0.1201 0.30266,-0.1201 0.11566,-0.0565 0.11567,-0.0565 0.10515,-0.0674 0.10516,-0.0675 0.12618,-0.10872 0.12618,-0.10871 0.12349,-0.14248 0.12348,-0.14248 0.0937,-0.13191 0.0937,-0.13191 0.13686,-0.22933 0.13686,-0.22933 0.0377,-0.0546 0.0377,-0.0546 0.14266,-0.22082 0.14265,-0.22082 0.17189,-0.2734 0.17189,-0.2734 0.13764,-0.28391 0.13765,-0.28391 0.0445,-0.19979 0.0445,-0.19979 0.0215,-0.12863 0.0215,-0.12864 -0.0102,-0.0291 -0.0102,-0.0291 -0.0102,-0.12043 -0.0102,-0.12044 -0.0126,-0.0688 -0.0126,-0.0688 0.0315,-0.25236 0.0315,-0.25237 0.0309,-0.1367 0.0309,-0.1367 0.0647,-0.18181 0.0647,-0.18181 0.053,-0.19674 0.053,-0.19673 0.0521,-0.23134 0.0521,-0.23133 0.042,-0.23134 0.0419,-0.23134 3.2e-4,-0.13144 3.2e-4,-0.13144 h 1.25132 1.25131 l -2.1e-4,0.0683 -2.1e-4,0.0684 -0.0218,0.24866 -0.0218,0.24866 -0.0487,0.19298 -0.0487,0.19298 -0.047,0.21031 -0.0471,0.2103 -0.0276,0.0841 -0.0276,0.0841 -0.11658,0.31597 -0.11658,0.31597 -0.15873,0.28967 -0.15873,0.28968 -0.10826,0.16197 -0.10827,0.16197 -0.0967,0.11209 -0.0967,0.11209 -0.0841,0.10263 -0.0841,0.10263 -0.18582,0.21191 -0.18583,0.21191 -0.33993,0.36223 -0.33994,0.36224 -0.10515,0.11431 -0.10516,0.11431 -0.0631,0.0644 -0.0631,0.0644 -0.17946,0.21014 -0.17946,0.210132 -0.085,0.11567 -0.085,0.11567 -0.0748,0.13669 -0.0748,0.1367 -0.0636,0.17876 -0.0636,0.17876 -0.0647,0.20512 -0.0647,0.20512 -0.0508,0.0998 -0.0508,0.0998 -0.10756,0.14721 -0.10757,0.14722 -0.19422,0.19739 -0.19422,0.1974 -0.25083,0.21002 -0.25083,0.21002 -0.19951,0.14735 -0.19951,0.14734 -0.26469,0.17412 -0.2647,0.17412 -0.44431,0.25309 -0.4443,0.2531 -0.1789,0.11541 -0.1789,0.11541 -0.18787,0.15763 -0.18788,0.15763 -0.11889,0.13299 -0.11889,0.133 -0.0806,0.10515 -0.0806,0.10516 -0.0658,0.11576 -0.0658,0.11577 -0.0521,0.14711 -0.0521,0.14712 -0.0144,0.13153 -0.0144,0.13154 0.026,0.11031 0.026,0.11032 0.0421,0.0837 0.0421,0.0837 0.0655,0.0839 0.0654,0.0839 0.0421,0.0373 0.0421,0.0373 0.11316,0.034 0.11316,0.034 0.12571,-0.0267 0.1257,-0.0267 0.17123,-0.11601 0.17123,-0.11601 0.0973,-0.0752 0.0973,-0.0752 0.40746,-0.3281 0.40747,-0.32811 0.53627,-0.39482 0.53628,-0.39482 0.24185,-0.20219 0.24185,-0.2022 0.2652,-0.26502 0.2652,-0.26503 0.3828,-0.45023 0.38281,-0.45024 0.12209,-0.13735 0.12209,-0.13735 0.0445,-0.0872 0.0445,-0.0872 0.12069,-0.025 0.12068,-0.0251 0.0544,0.0651 0.0544,0.0651 0.133,0.0425 0.13301,0.0425 0.0972,-5.1e-4 0.0971,-5.1e-4 0.0913,-0.0211 0.0913,-0.0211 0.11954,-0.0812 0.11954,-0.0812 0.16289,-0.16739 0.16289,-0.16738 0.14968,-0.18727 0.14968,-0.18728 0.0969,-0.14491 0.0969,-0.14492 0.0682,-0.11462 0.0682,-0.11463 0.0324,-0.0953 0.0324,-0.0953 0.0502,-0.0868 0.0502,-0.0868 0.0528,-0.2103 0.0528,-0.21031 0.0134,-0.0631 0.0134,-0.0631 0.0846,-0.18927 0.0846,-0.18928 0.0544,-0.10515 0.0544,-0.10515 0.0974,-0.14721 0.0974,-0.14722 0.0663,-0.10515 0.0663,-0.10515 0.0773,-0.14722 0.0773,-0.14721 0.11968,-0.15773 0.11968,-0.15773 0.22975,-0.31255 0.22975,-0.31255 0.14722,-0.18357 0.14721,-0.18358 0.1367,-0.15749 0.1367,-0.15749 0.37877,-0.41894 0.37877,-0.41894 0.16308,-0.18465 0.16308,-0.18465 0.1134,-0.15333 0.11339,-0.15333 0.11663,-0.18078 0.11662,-0.18078 0.0545,-0.12958 0.0545,-0.12958 0.0149,-0.11927 0.0149,-0.11927 1.52988,-0.005 1.52988,-0.005 v 1.08151 1.08152 l -0.0999,0.0327 -0.0999,0.0327 -0.14721,0.0337 -0.14721,0.0337 -0.0656,0.0404 -0.0656,0.0404 h -0.034 -0.034 l -0.1528,0.0789 -0.1528,0.0789 -0.0737,0.0564 -0.0737,0.0564 -0.17865,0.0988 -0.17866,0.0988 -0.10121,0.0762 -0.10121,0.0762 -0.15116,0.12806 -0.15115,0.12806 -0.0946,0.059 -0.0946,0.059 -0.1367,0.1064 -0.1367,0.1064 -0.35752,0.28382 -0.35752,0.28382 -0.22271,0.17984 -0.22272,0.17983 -0.20841,0.18091 -0.20841,0.18092 -0.3787,0.36588 -0.37871,0.365872 -0.19963,0.18032 -0.19964,0.18033 -0.17464,0.13513 -0.17464,0.13514 -0.10297,0.0736 -0.10298,0.0736 -0.0966,0.0841 -0.0966,0.0841 -0.12828,0.11567 -0.12828,0.11566 -0.17052,0.17064 -0.17052,0.17064 -0.17133,0.19739 -0.17132,0.1974 -0.18919,0.22082 -0.18918,0.22082 -0.1177,0.10091 -0.1177,0.1009 -0.13167,0.075 -0.13168,0.075 -0.19979,0.082 -0.19978,0.082 -0.15681,0.0967 -0.1568,0.0967 -0.12522,0.10809 -0.12521,0.10808 -0.1643,0.2054 -0.16429,0.20539 -0.20369,0.3414 -0.2037,0.3414 -0.0525,0.0946 -0.0525,0.0946 -0.0825,0.12207 -0.0825,0.12208 -0.15591,0.18583 -0.15592,0.18583 -0.2053,0.19448 -0.20529,0.19447 -0.29443,0.2352 -0.29442,0.23521 -0.22082,0.15793 -0.22082,0.15793 -0.18928,0.12006 -0.18927,0.12006 -0.23134,0.11424 -0.23133,0.11425 -0.23134,0.0669 -0.23133,0.0669 -0.2734,-5e-5 -0.2734,-4e-5 -0.19979,-0.0365 -0.19979,-0.0366 -0.12036,-0.0112 -0.12037,-0.0112 -0.14251,0.0381 -0.14252,0.0381 -0.13527,0.0822 -0.13528,0.0822 -0.20121,0.15966 -0.20121,0.15966 -0.24942,0.24306 -0.24941,0.24305 -0.16189,0.18928 -0.16189,0.18927 -0.0955,0.12619 -0.0955,0.12618 -0.21644,0.31546 -0.21644,0.31545 -0.14596,0.18382 -0.14596,0.18381 -0.19946,0.1872 -0.19946,0.1872 -0.21468,0.14746 -0.21468,0.14747 -0.25188,0.12608 -0.25188,0.12608 -0.28081,0.097 -0.28082,0.097 -0.39216,0.0957 -0.39216,0.0957 -0.14721,0.0429 -0.14721,0.0429 -0.18585,0.0723 -0.18585,0.0723 -0.083,0.0524 -0.083,0.0524 -0.0814,0.0814 -0.0814,0.0814 -0.11858,0.15755 -0.11857,0.15754 -0.0855,0.0566 -0.0854,0.0565 -0.1082,0.0299 -0.1082,0.0299 -0.15772,0.041 -0.15773,0.041 -0.19979,0.0326 -0.19979,0.0326 -0.32598,0.0319 -0.32597,0.0319 -0.94637,0.0208 -0.94637,0.0208 -1.50368,0.0201 -1.50368,0.0201 -1.55626,7.7e-4 -1.55626,7.8e-4 -0.18504,0.0212 -0.18505,0.0212 -0.18064,0.0626 -0.18065,0.0626 -0.0234,0.0191 -0.0234,0.0191 -0.17431,0.0876 -0.17431,0.0876 -0.1096,0.0191 -0.10961,0.0191 -0.23133,0.0314 -0.23134,0.0314 -0.37855,0.0211 -0.37855,0.0211 -0.56782,-9.2e-4 -0.56782,-9.3e-4 -0.1367,0.0225 -0.1367,0.0224 -0.12906,0.0395 -0.12906,0.0395 -0.0918,0.0621 -0.0918,0.0621 -0.12594,0.0711 -0.12594,0.0711 -0.1054,0.0164 -0.10539,0.0164 -0.29443,0.0314 -0.29442,0.0314 -0.66247,0.0231 -0.66246,0.0231 -2.02944,-0.007 -2.02944,-0.007 -0.18604,0.0526 -0.18604,0.0526 -0.12344,0.13144 -0.12344,0.13144 h -0.0506 -0.0506 l -0.0921,0.0402 -0.0921,0.0402 -0.45216,0.0246 -0.45215,0.0246 -1.04101,-0.001 -1.04101,-0.001 -0.24081,0.0222 -0.24081,0.0222 -0.12723,0.10826 -0.12722,0.10826 -0.1195,0.10856 -0.11951,0.10856 -0.28007,0.0158 -0.28008,0.0158 -1.81914,0.004 -1.81913,0.004 -0.0359,0.0165 -0.0359,0.0165 -0.0173,0.0875 -0.0173,0.0875 -0.86685,0.005 z m 7.45075,0.005 h -2.0679 l 0.0153,-0.0573 0.0153,-0.0573 0.0933,-0.0261 0.0933,-0.0262 0.0401,-0.0239 0.0401,-0.024 1.7307,-0.007 1.7307,-0.007 0.0461,-0.0247 0.0461,-0.0247 0.0925,0.0104 0.0925,0.0104 0.0542,-0.10792 0.0542,-0.10793 0.0706,-0.087 0.0706,-0.087 0.15304,-0.0392 0.15303,-0.0392 2.12408,0.007 2.12408,0.007 0.7571,-0.024 0.75709,-0.024 0.23134,-0.0251 0.23133,-0.0251 0.0965,-0.0577 0.0965,-0.0577 h 0.0244 0.0244 v -0.0176 -0.0177 l 0.12136,-0.0942 0.12136,-0.0943 0.14678,-0.0386 0.14678,-0.0386 1.04101,-0.0161 1.04101,-0.0161 0.0421,-0.0108 0.0421,-0.0107 0.26288,-0.0244 0.26289,-0.0244 0.13669,-0.0551 0.1367,-0.0551 0.11559,-0.0842 0.11559,-0.0842 0.13124,-0.0476 0.13124,-0.0476 0.13917,-0.0222 0.13916,-0.0222 2.91579,-0.01 2.9158,-0.01 1.34595,-0.0205 1.34595,-0.0205 0.29443,-0.0211 0.29442,-0.0211 0.21031,-0.0236 0.2103,-0.0236 0.15709,-0.0305 0.15708,-0.0305 0.0656,-0.0405 0.0656,-0.0405 0.12682,-0.1427 0.12682,-0.1427 0.17627,-0.068 0.17628,-0.068 0.15773,-0.0206 0.15773,-0.0206 0.31545,-0.022 0.31546,-0.022 0.32597,-0.0313 0.32598,-0.0313 0.29442,-0.0425 0.29443,-0.0425 0.2103,-0.0517 0.21031,-0.0517 0.23134,-0.0745 0.23133,-0.0745 0.23632,-0.11508 0.23632,-0.11507 0.20532,-0.13828 0.20532,-0.13828 0.15262,-0.15034 0.15262,-0.15035 0.11267,-0.16862 0.11267,-0.16862 0.16,-0.24474 0.16,-0.24475 0.15896,-0.16898 0.15896,-0.16898 0.18336,-0.13637 0.18337,-0.13638 0.16405,-0.0969 0.16406,-0.0969 0.14523,-0.0731 0.14523,-0.0731 0.20596,-0.0819 0.20596,-0.0819 0.19979,-0.0669 0.19979,-0.0669 0.46267,-0.12582 0.46267,-0.12582 0.2734,-0.0921 0.2734,-0.0921 0.25236,-0.10785 0.25237,-0.10785 0.22024,-0.11735 0.22024,-0.11735 0.24243,-0.14793 0.24243,-0.14793 0.25237,-0.16847 0.25236,-0.16848 0.42061,-0.29591 0.42061,-0.2959 0.12618,-0.0896 0.12619,-0.0896 0.15773,-0.0773 0.15772,-0.0773 0.10516,-0.0144 0.10515,-0.0144 0.0219,0.0173 0.0219,0.0174 0.20945,0.0565 0.20944,0.0565 0.23134,10e-4 0.23133,0.001 0.21031,-0.0687 0.2103,-0.0687 0.33601,-0.16943 0.33601,-0.16943 0.11389,-0.0392 0.11389,-0.0392 0.29668,-0.0312 0.29669,-0.0312 0.10949,-0.0325 0.10949,-0.0326 0.10081,-0.047 0.10082,-0.047 0.18927,-0.13009 0.18927,-0.13009 0.15591,-0.1326 0.15591,-0.13261 0.13432,-0.13974 0.13433,-0.13974 0.0931,-0.13365 0.093,-0.13366 0.0115,-0.0841 0.0116,-0.0841 -0.0295,-0.0841 -0.0295,-0.0841 -0.0814,-0.0456 -0.0814,-0.0456 -0.12619,-0.002 -0.12618,-0.001 -0.10515,0.049 -0.10515,0.049 -0.0301,0.0364 -0.0301,0.0364 -0.0797,0.0407 -0.0798,0.0407 -0.11092,0.0952 -0.11093,0.0952 -0.021,0.0161 -0.021,0.0161 -0.26903,0.21451 -0.26903,0.21451 h -0.0185 -0.0185 l -0.095,0.0725 -0.095,0.0725 -0.12568,0.026 -0.12568,0.026 -0.0847,-0.0254 -0.0847,-0.0254 -0.0953,-0.0953 -0.0953,-0.0953 -0.0243,-0.0811 -0.0243,-0.0811 0.0494,-0.1193 0.0495,-0.1193 0.17941,-0.156 0.1794,-0.15601 0.21879,-0.14962 0.21879,-0.14962 0.24388,-0.14186 0.24388,-0.14187 0.1367,-0.0689 0.1367,-0.0689 0.0631,-0.0476 0.0631,-0.0476 0.12859,-0.0749 0.12859,-0.075 0.033,-0.048 0.033,-0.048 0.0908,-0.0968 0.0908,-0.0968 0.0736,-0.12928 0.0736,-0.12929 0.1367,-0.22072 0.1367,-0.22073 0.23133,-0.2118 0.23134,-0.21181 0.26288,-0.20588 0.26288,-0.20588 0.14721,-0.0941 0.14722,-0.0941 0.23155,-0.13855 0.23155,-0.13854 0.10567,-0.0417 0.10568,-0.0416 0.12475,-0.0752 0.12476,-0.0751 0.11636,-0.0228 0.11635,-0.0228 0.10694,-0.0419 0.10694,-0.0419 0.18749,-0.0518 0.18749,-0.0518 0.21556,-0.0134 0.21556,-0.0134 v 1.47533 1.47533 h -0.0737 -0.0738 l -0.20529,0.0308 -0.20529,0.0308 -0.22091,0.0522 -0.22092,0.0522 -0.23097,0.0928 -0.23097,0.0928 -0.13658,0.0688 -0.13659,0.0688 -0.17401,0.11447 -0.174,0.11447 -0.20569,0.20339 -0.20569,0.20339 -0.10401,0.143 -0.10401,0.143 -0.0736,0.10197 -0.0736,0.10196 -0.0736,0.0902 -0.0736,0.0901 -0.15773,0.15992 -0.15773,0.15993 -0.1194,0.0881 -0.11939,0.0881 -0.0126,0.0204 -0.0126,0.0204 -0.23601,0.14585 -0.23601,0.14585 -0.12618,0.063 -0.12618,0.063 -0.3672,0.16315 -0.3672,0.16314 -0.23217,0.14081 -0.23217,0.1408 -0.23134,0.14394 -0.23133,0.14393 -0.26288,0.14529 -0.26289,0.14529 -0.53627,0.27053 -0.53628,0.27052 -0.25237,0.14106 -0.25236,0.14105 -0.53628,0.3186 -0.53628,0.31859 -0.25582,0.1414 -0.25582,0.1414 -0.34355,0.16569 -0.34355,0.16568 -0.27942,0.11726 -0.27943,0.11726 -0.61437,0.22986 -0.61437,0.22985 -0.50473,0.16127 -0.50473,0.16127 -0.35752,0.11709 -0.35752,0.11708 -0.1842,0.0795 -0.1842,0.0795 -0.15643,0.0991 -0.15643,0.0991 -0.11436,0.12946 -0.11437,0.12946 -0.0731,0.14623 -0.0731,0.14623 -0.0264,0.0841 -0.0264,0.0841 -0.0732,0.13746 -0.0732,0.13746 -0.0663,0.0391 -0.0663,0.0391 -0.17317,0.0908 -0.17317,0.0908 -0.23692,0.0734 -0.23693,0.0734 -0.1367,0.031 -0.1367,0.0311 -0.2103,0.0213 -0.21031,0.0213 -0.347,0.0129 -0.347,0.0129 -0.45216,0.0295 -0.45215,0.0295 -0.56783,0.004 -0.56782,0.004 -0.28299,0.0211 -0.28299,0.0211 -0.12711,0.0471 -0.1271,0.0471 -0.10931,0.14485 -0.10931,0.14485 -0.0169,3.2e-4 -0.0169,3.1e-4 -0.11566,0.0456 -0.11567,0.0456 -0.30494,0.0223 -0.30495,0.0223 -0.5573,0.0231 -0.55731,0.0231 -4.13249,0.0164 -4.1325,0.0164 -0.13669,0.0479 -0.1367,0.0479 -0.0841,0.0742 -0.0841,0.0742 -0.0389,0.0594 -0.0389,0.0594 h -0.0624 -0.0624 l -0.0459,0.0251 -0.0459,0.0251 -0.23134,0.0281 -0.23133,0.0281 -1.19874,0.0187 -1.19874,0.0187 -0.0882,0.0196 -0.0882,0.0196 -0.11502,0.10294 -0.11502,0.10294 -0.0143,0.0794 -0.0143,0.0795 -0.067,-0.0126 -0.067,-0.0126 -0.0591,0.0465 -0.0591,0.0465 -1.16009,0.0198 -1.16008,0.0198 -1.92629,-0.013 -1.92628,-0.013 -0.17196,0.0143 -0.17197,0.0143 -0.0749,0.10209 -0.0749,0.10209 h -2.06789 z m 10.80284,0 h -1.78029 l 0.1104,-0.11041 0.1104,-0.11041 1.49818,-0.007 1.49819,-0.007 0.02,-0.0195 0.02,-0.0195 h 0.10827 0.10827 l 0.0388,-0.0894 0.0388,-0.0894 0.0882,-0.10578 0.0882,-0.10578 0.11274,-0.0286 0.11274,-0.0286 4.63723,-0.0148 4.63722,-0.0149 0.3991,-0.0262 0.39911,-0.0262 0.0571,-0.0295 0.0571,-0.0295 0.0495,0.0188 0.0495,0.0188 0.12346,-0.19517 0.12345,-0.19517 0.12793,-0.0368 0.12793,-0.0368 0.74658,-0.009 0.74658,-0.009 1.13565,-0.019 1.13564,-0.019 0.42061,-0.0419 0.42061,-0.0419 0.19979,-0.0229 0.19979,-0.0229 0.11944,-0.11806 0.11944,-0.11806 0.036,-0.13314 0.036,-0.13315 0.0956,-0.12515 0.0956,-0.12514 0.12746,-0.0519 0.12746,-0.0519 0.14722,-0.0326 0.14721,-0.0326 0.22082,-0.0341 0.22082,-0.0341 0.2734,-0.0527 0.27339,-0.0527 0.25237,-0.06 0.25236,-0.06 0.44164,-0.13901 0.44164,-0.13901 0.74659,-0.24933 0.74658,-0.24934 0.347,-0.13645 0.34701,-0.13645 0.28756,-0.1276 0.28757,-0.12761 0.21716,-0.1089 0.21717,-0.10891 0.33517,-0.18837 0.33518,-0.18837 0.24316,-0.15408 0.24317,-0.15408 0.25236,-0.18682 0.25237,-0.18683 0.23133,-0.19643 0.23134,-0.19644 0.55731,-0.56189 0.55731,-0.56188 0.22082,-0.20517 0.22082,-0.20517 0.21015,-0.16001 0.21016,-0.16001 0.23148,-0.12497 0.23149,-0.12496 0.30494,-0.12441 0.30494,-0.12441 0.2734,-0.0922 0.27339,-0.0922 0.10516,-0.0332 0.10515,-0.0332 0.17876,-0.0507 0.17876,-0.0507 0.15773,-0.0312 0.15772,-0.0312 0.39958,-0.074 0.39958,-0.074 0.16825,-0.0211 0.16824,-0.0211 0.19979,-0.012 0.19979,-0.012 0.13144,-0.0116 0.13144,-0.0116 v 1.14521 1.14521 l -0.0657,0.0131 -0.0657,0.0131 -0.0867,1.5e-4 -0.0867,1.5e-4 -0.2734,0.0426 -0.27339,0.0426 -0.22082,0.0384 -0.22082,0.0384 -0.0159,-0.0269 -0.0159,-0.0269 -0.061,-0.0134 -0.061,-0.0134 -0.0546,-0.0788 -0.0546,-0.0788 v -0.0344 -0.0344 l -0.0232,-0.0143 -0.0232,-0.0143 -0.0456,-0.0973 -0.0456,-0.0973 -0.1106,-0.16299 -0.1106,-0.16298 h -0.0188 -0.0188 l -0.0619,-0.0521 -0.0619,-0.0521 -0.17634,-0.0663 -0.17634,-0.0662 -0.25237,5e-4 -0.25236,5e-4 -0.18928,0.0439 -0.18927,0.0439 -0.0946,0.0294 -0.0946,0.0294 -0.15218,0.0742 -0.15218,0.0742 -0.14038,0.11652 -0.14038,0.11652 -0.0958,0.12191 -0.0958,0.1219 -0.18005,0.26288 -0.18005,0.26289 -0.097,0.15772 -0.097,0.15773 -0.0965,0.19313 -0.0965,0.19312 -0.15058,0.238 -0.15058,0.238 -0.15744,0.25237 -0.15743,0.25237 -0.0743,0.11566 -0.0743,0.11567 -0.15968,0.16472 -0.15968,0.16473 -0.17876,0.13258 -0.17875,0.13257 -0.22083,0.13528 -0.22082,0.13528 -0.2249,0.11998 -0.2249,0.11999 -0.23777,0.10672 -0.23777,0.10672 -0.347,0.13688 -0.347,0.13689 -0.35752,0.12448 -0.35752,0.12449 -0.50544,0.14484 -0.50543,0.14484 -0.53558,0.11862 -0.53557,0.11863 -0.29815,0.0505 -0.29815,0.0505 -0.24864,0.032 -0.24864,0.032 -0.23134,0.0216 -0.23134,0.0216 -0.66246,0.0209 -0.66246,0.0209 -0.16043,0.0231 -0.16042,0.0231 -0.1049,0.0918 -0.1049,0.0918 -0.0144,0.12719 -0.0144,0.1272 -0.10934,0.0568 -0.10935,0.0568 -0.0946,0.005 -0.0946,0.005 -0.17876,0.0101 -0.17876,0.0101 -0.4837,0.0222 -0.4837,0.0222 -1.73502,0.0113 -1.73501,0.0113 -0.14325,0.0126 -0.14324,0.0126 -0.0364,0.0391 -0.0364,0.0391 -0.10126,0.19525 -0.10127,0.19524 -0.10814,0.007 -0.10814,0.007 -4.9632,0.008 -4.96319,0.008 -0.19417,0.0133 -0.19416,0.0133 -0.0758,0.10321 -0.0758,0.10322 h -1.7803 z m 15.39988,0 h -2.82984 l 0.0155,-0.0263 0.0155,-0.0263 0.0476,-0.0766 0.0476,-0.0765 -0.01,-0.01 -0.01,-0.01 2.52963,-0.0152 2.52963,-0.0152 0.12291,0.002 0.12292,0.002 0.0629,-0.0529 0.0629,-0.0529 0.0165,0.0102 0.0165,0.0102 0.0263,0.0635 0.0263,0.0635 h 0.0185 0.0185 v 0.10515 0.10515 z m 13.52239,0 h -0.34356 l 0.0126,-0.11041 0.0126,-0.11041 0.0687,-0.1367 0.0687,-0.13669 0.14419,-0.15773 0.1442,-0.15773 0.0865,-0.11567 0.0865,-0.11567 0.13401,-0.13908 0.134,-0.13909 0.15635,-0.0787 0.15634,-0.0787 0.27202,-0.0932 0.27203,-0.0932 0.0658,-0.0342 0.0659,-0.0342 0.14721,-0.0383 0.14721,-0.0383 0.48371,2e-5 0.4837,1e-5 0.19979,0.0327 0.19979,0.0327 0.16244,0.0117 0.16245,0.0117 0.22661,-0.0352 0.22662,-0.0352 0.0473,-0.01 0.0473,-0.01 v 0.2738 0.27379 h -0.0788 -0.0788 l -0.3937,0.0235 -0.3937,0.0235 -0.18473,-0.023 -0.18473,-0.023 -0.2202,-0.0321 -0.22019,-0.0321 -0.14784,0.009 -0.14784,0.009 -0.11567,0.0216 -0.11567,0.0216 -0.23897,0.0859 -0.23898,0.0859 -0.0975,0.0557 -0.0975,0.0557 -0.1652,0.11732 -0.16521,0.11731 -0.14621,0.1451 -0.14622,0.1451 -0.0619,0.13646 -0.0619,0.13647 -3e-4,0.0444 -2.9e-4,0.0444 -0.0127,0.0473 -0.0127,0.0473 h -0.34355 z m 1.21597,-7.6e-4 -0.32071,7.6e-4 1e-5,-0.005 2e-5,-0.005 0.0399,-0.10515 0.0399,-0.10516 0.0961,-0.0631 0.0961,-0.0631 0.21622,-0.14414 0.21622,-0.14413 0.0979,-0.0685 0.0979,-0.0685 0.13347,-0.0169 0.13348,-0.0169 0.11567,0.005 0.11567,0.004 0.28749,0.0516 0.2875,0.0516 0.34342,-0.0294 0.34341,-0.0293 0.25237,0.0134 0.25237,0.0135 0.006,0.23496 0.006,0.23497 -0.048,0.0174 -0.048,0.0174 -0.51405,-0.005 -0.51404,-0.005 -0.1785,0.0181 -0.1785,0.0181 -0.24331,-0.0395 -0.24331,-0.0395 -0.15773,-3e-4 -0.15773,-3.1e-4 -0.0653,0.0398 -0.0653,0.0398 -0.0609,0.096 -0.0609,0.0961 -0.32072,7.6e-4 z m -54.9001,-0.21884 -2.35016,0.0161 v -0.25329 -0.25329 l 2.05573,-0.0108 2.05573,-0.0108 0.31546,-0.0243 0.31546,-0.0243 0.0681,-0.03 0.0681,-0.03 0.0581,0.0115 0.0581,0.0115 0.13162,-0.17794 0.13161,-0.17794 0.0738,-0.035 0.0738,-0.035 0.20465,-0.0287 0.20464,-0.0287 0.21031,-0.0252 0.2103,-0.0252 0.14398,-0.0478 0.14397,-0.0478 0.13166,-0.14417 0.13165,-0.14417 0.11343,-0.035 0.11344,-0.035 0.1367,-0.0231 0.1367,-0.0231 0.14721,-0.0206 0.14721,-0.0206 0.10774,-0.0177 0.10774,-0.0177 0.10257,-0.0596 0.10256,-0.0596 0.11567,-0.0878 0.11567,-0.0878 0.10515,-0.0375 0.10515,-0.0375 0.45216,-0.0394 0.45215,-0.0394 0.11981,-0.0192 0.1198,-0.0192 0.21368,-0.11717 0.21368,-0.11716 0.16073,-0.0478 0.16074,-0.0478 1.12513,-0.002 1.12513,-0.002 0.2734,-0.0256 0.27339,-0.0256 0.16825,-0.0206 0.16824,-0.0206 0.19504,-0.032 0.19504,-0.032 0.15196,-0.0524 0.15197,-0.0524 0.18927,-0.0621 0.18928,-0.0621 0.12618,-0.0317 0.12618,-0.0317 0.10516,-0.0226 0.10515,-0.0226 0.9674,-0.017 0.9674,-0.017 0.28391,-0.0351 0.28392,-0.0351 0.16824,-0.0291 0.16824,-0.0291 0.11567,-0.0325 0.11567,-0.0325 0.30494,-0.10388 0.30494,-0.10389 0.16825,-0.0422 0.16824,-0.0422 0.31546,-0.0225 0.31546,-0.0224 0.56782,0.0205 0.56782,0.0205 1.12513,3.4e-4 1.12514,3.4e-4 0.35751,-0.0213 0.35752,-0.0213 0.28355,-0.0325 0.28354,-0.0325 0.20016,-0.0403 0.20016,-0.0403 0.30494,-0.0921 0.30494,-0.0921 0.18927,-0.0673 0.18928,-0.0673 0.16824,-0.029 0.16825,-0.029 0.29968,-0.0223 0.29969,-0.0223 0.29968,-0.022 0.29969,-0.022 0.18927,-0.0315 0.18927,-0.0315 0.19979,-0.053 0.19979,-0.053 0.17337,-0.0631 0.17337,-0.0631 0.36291,-0.20212 0.36291,-0.20213 0.23133,-0.10954 0.23134,-0.10954 0.26333,-0.0856 0.26333,-0.0856 0.20985,-0.0525 0.20986,-0.0525 0.30494,-0.0631 0.30495,-0.0631 0.43112,-0.0945 0.43113,-0.0945 0.60988,-0.14943 0.60988,-0.14942 0.39233,-0.11369 0.39233,-0.11369 0.29116,-0.11039 0.29117,-0.1104 0.26288,-0.13474 0.26288,-0.13474 0.22082,-0.14797 0.22082,-0.14798 0.15773,-0.12694 0.15773,-0.12695 0.27339,-0.2751 0.2734,-0.27509 0.25762,-0.3257 0.25761,-0.3257 0.26385,-0.37775 0.26385,-0.37775 0.16203,-0.25867 0.16202,-0.25868 0.0336,-0.0576 0.0336,-0.0576 0.14887,-0.26531 0.14888,-0.26531 0.19362,-0.38664 0.19363,-0.38663 0.19885,-0.43112 0.19884,-0.43113 0.18997,-0.44164 0.18997,-0.44164 0.16703,-0.43112 0.16703,-0.43113 0.11477,-0.36803 0.11476,-0.368042 0.062,-0.25236 0.062,-0.25237 0.042,-0.26288 0.042,-0.26288 0.0235,-0.2734 0.0235,-0.27339 -0.0139,-0.29443 -0.0139,-0.29443 0.0226,-0.25236 0.0226,-0.25237 0.0521,-0.22082 0.0521,-0.22082 0.0544,-0.18927 0.0543,-0.18928 0.0499,-0.36803 0.0498,-0.36804 0.0439,-0.25711 0.0439,-0.25711 0.0134,-0.26339 0.0133,-0.2634 h 0.29447 0.29447 l -0.0139,0.33672 -0.0139,0.33672 -0.0637,0.30997 -0.0637,0.30997 -0.0405,0.21478 -0.0405,0.21478 -0.023,0.36356 -0.023,0.36356 -0.0198,0.17876 -0.0198,0.17876 -2.1e-4,0.14318 -2.1e-4,0.14319 0.023,0.14796 0.023,0.14797 0.0532,0.15049 0.0532,0.15049 0.0621,0.17876 0.0621,0.17875 0.0117,0.23215 0.0117,0.23214 -0.0249,0.22001 -0.0249,0.22002 -0.0525,0.31545 -0.0525,0.315462 -0.0516,0.25033 -0.0516,0.25032 -0.10634,0.40162 -0.10633,0.40162 -0.14376,0.43113 -0.14376,0.43112 -0.16732,0.43113 -0.16733,0.43112 -0.18349,0.43113 -0.18349,0.43112 -0.21798,0.44164 -0.21798,0.44164 -0.13346,0.22082 -0.13347,0.22082 -0.16191,0.24185 -0.1619,0.24185 -0.27475,0.35752 -0.27474,0.35752 -0.32791,0.39567 -0.32791,0.39567 -0.2644,0.27443 -0.26439,0.27444 -0.20051,0.16789 -0.2005,0.16789 -0.20723,0.13709 -0.20723,0.13709 -0.17132,0.0911 -0.17132,0.0911 -0.21328,0.0945 -0.21327,0.0945 -0.323,0.10826 -0.32301,0.10827 -0.46692,0.12357 -0.46693,0.12357 -0.61614,0.13603 -0.61615,0.13602 -0.56782,0.10557 -0.56782,0.10557 -0.12619,0.0214 -0.12618,0.0214 -0.4837,0.0542 -0.4837,0.0542 -0.23676,0.0421 -0.23675,0.0421 -0.28525,0.0834 -0.28525,0.0834 -0.23509,0.0972 -0.2351,0.0972 -0.28391,0.0896 -0.28391,0.0896 -0.15773,0.0328 -0.15773,0.0328 -0.23133,0.0219 -0.23134,0.0219 -0.53628,0.0207 -0.53627,0.0207 -0.1586,0.0204 -0.1586,0.0204 -0.0938,0.0215 -0.0938,0.0214 -0.44164,0.14905 -0.44164,0.14905 -0.10515,0.0193 -0.10515,0.0193 -0.31546,0.0409 -0.31546,0.0409 -0.39022,0.0249 -0.39022,0.0249 -1.05036,0.003 -1.05037,0.003 -0.88329,-0.0182 -0.88328,-0.0182 -0.18927,0.0223 -0.18928,0.0223 -0.22237,0.0643 -0.22237,0.0643 -0.20875,0.0842 -0.20876,0.0842 -0.17875,0.0405 -0.17876,0.0405 -0.16825,0.023 -0.16824,0.0229 -0.18928,0.0229 -0.18927,0.0229 -1.03049,0.0164 -1.0305,0.0164 -0.15773,0.0354 -0.15773,0.0354 -0.18927,0.0645 -0.18928,0.0645 -0.12032,0.0601 -0.12033,0.0601 h -0.0356 -0.0356 l -0.107,0.03 -0.107,0.03 -0.15773,0.0223 -0.15773,0.0223 -0.38906,0.0346 -0.38906,0.0346 -1.17771,0.002 -1.17771,0.002 -0.1367,0.0385 -0.1367,0.0385 -0.15772,0.10051 -0.15773,0.10051 -0.0736,0.0386 -0.0736,0.0386 -0.11566,0.0168 -0.11567,0.0168 -0.14722,0.0114 -0.14721,0.0114 -0.28391,0.0216 -0.28391,0.0216 -0.0841,0.0222 -0.0841,0.0222 -0.0266,0.004 -0.0266,0.004 -0.14652,0.13117 -0.14651,0.13118 -0.0897,0.0513 -0.0897,0.0513 -0.068,2.6e-4 -0.068,2.5e-4 -0.14234,0.0213 -0.14235,0.0213 -0.22235,0.0294 -0.22234,0.0294 -0.0752,0.0314 -0.0752,0.0314 -0.0893,0.1334 -0.0892,0.1334 -0.0405,0.045 -0.0405,0.045 -0.0412,-0.0108 -0.0412,-0.0108 -0.0888,0.0324 -0.0888,0.0324 -0.32598,0.0242 -0.32597,0.0242 -0.11514,0.0102 -0.11514,0.0102 -0.0522,0.0252 -0.0522,0.0252 -0.12056,0.21031 -0.12056,0.2103 -0.15376,0.0136 -0.15375,0.0136 -2.35016,0.0161 z m 43.07769,-0.0202 -0.0926,0.0149 0.0143,-0.0821 0.0143,-0.0821 0.0131,-0.17179 0.013,-0.17179 0.0942,-0.036 0.0943,-0.036 0.27604,-0.007 0.27604,-0.007 0.84122,-0.0121 0.84122,-0.0121 0.7571,-0.0309 0.75709,-0.0309 0.36804,-0.0213 0.36803,-0.0213 0.25237,-0.0217 0.25236,-0.0217 0.3359,-0.0423 0.33589,-0.0423 0.31605,-0.053 0.31605,-0.053 0.4101,-0.10443 0.41009,-0.10443 0.37855,-0.12753 0.37855,-0.12753 0.34355,-0.13586 0.34355,-0.13586 0.27685,-0.12249 0.27685,-0.12249 0.18927,-0.0675 0.18928,-0.0675 0.42182,-0.006 0.42182,-0.006 0.11913,-0.0346 0.11913,-0.0346 0.20563,-0.0954 0.20563,-0.0955 0.15391,-0.0503 0.1539,-0.0503 0.21413,-0.0342 0.21413,-0.0342 0.35752,-0.0645 0.35752,-0.0645 0.694,0.005 0.69401,0.005 0.347,0.0246 0.34701,0.0247 0.006,0.25763 0.006,0.25762 -0.12158,0.002 -0.12157,0.002 -0.347,-7.8e-4 -0.347,-7.8e-4 -0.34701,-0.0346 -0.347,-0.0346 -0.17876,0.0135 -0.17876,0.0135 -0.36951,0.0514 -0.36951,0.0514 -0.23768,0.0753 -0.23768,0.0753 -0.213,0.10037 -0.213,0.10036 -0.2103,0.0884 -0.21031,0.0884 -0.14721,0.10022 -0.14722,0.10022 -0.11185,0.13529 -0.11187,0.1353 -0.0747,0.11567 -0.0747,0.11567 -0.12887,0.1337 -0.12886,0.1337 -0.12917,0.0589 -0.12917,0.0589 -0.15474,0.0421 -0.15474,0.0421 -0.22082,0.0332 -0.22082,0.0332 -0.32598,0.0314 -0.32597,0.0314 -0.29443,0.0213 -0.29442,0.0213 -1.05153,0.0313 -1.05152,0.0313 -1.81914,0.0219 -1.81914,0.0219 -0.80967,-0.002 -0.80968,-0.002 -0.0927,0.0149 z m -43.4983,-0.98638 -1.92955,0.011 v -0.24151 -0.24151 l 0.0657,-0.0131 0.0657,-0.0132 1.55889,-2.8e-4 1.55888,-2.9e-4 0.40365,-0.0204 0.40364,-0.0204 0.25882,-0.0326 0.25881,-0.0326 0.10515,-0.0172 0.10516,-0.0172 0.10963,-0.0524 0.10963,-0.0524 0.13222,-0.11584 0.13222,-0.11583 0.0657,-0.0338 0.0657,-0.0338 0.15513,-0.0336 0.15513,-0.0336 0.16824,-0.0302 0.16825,-0.0301 0.11566,-0.0287 0.11567,-0.0287 0.11567,-0.0585 0.11567,-0.0585 0.11567,-0.0882 0.11566,-0.0882 0.1367,-0.0551 0.1367,-0.0551 0.2734,-0.0544 0.27339,-0.0544 0.21031,-0.0646 0.2103,-0.0646 0.12619,-0.0673 0.12618,-0.0674 0.12618,-0.0448 0.12618,-0.0448 0.14722,-0.0217 0.14721,-0.0217 0.21031,-0.0217 0.2103,-0.0217 0.16825,-0.0241 0.16824,-0.0241 0.21783,-0.0806 0.21782,-0.0806 0.20279,-0.0675 0.20278,-0.0675 1.19874,-0.0149 1.19874,-0.015 0.0526,-0.0118 0.0526,-0.0118 0.28391,-0.0329 0.28391,-0.0328 0.16824,-0.0338 0.16825,-0.0338 0.23335,-0.0694 0.23335,-0.0694 0.32396,-0.0761 0.32396,-0.0761 0.14721,-0.0207 0.14721,-0.0207 0.85174,-0.0191 0.85173,-0.0191 0.23134,-0.0319 0.23133,-0.0319 0.11567,-0.0198 0.11567,-0.0198 0.1367,-0.0353 0.13669,-0.0353 0.43113,-0.1268 0.43112,-0.1268 0.17649,-0.0403 0.17649,-0.0404 0.34928,-0.0155 0.34927,-0.0155 0.8938,0.0201 0.89379,0.0201 0.86225,-0.0238 0.86225,-0.0239 0.25237,-0.0336 0.25236,-0.0336 0.34701,-0.0853 0.347,-0.0853 0.15773,-0.0531 0.15773,-0.0531 0.44164,-0.19406 0.44164,-0.19406 0.36803,-0.1402 0.36804,-0.1402 0.19979,-0.0763 0.19979,-0.0763 0.23133,-0.10866 0.23134,-0.10866 0.19979,-0.12379 0.19979,-0.12378 0.37854,-0.27586 0.37855,-0.27587 0.17113,-0.11775 0.17112,-0.11775 0.30206,-0.17654 0.30207,-0.17655 0.29442,-0.15008 0.29443,-0.15009 0.18999,-0.0941 0.18999,-0.0942 0.17804,-0.073 0.17805,-0.073 0.13536,-0.0563 0.13536,-0.0563 0.15792,-0.0302 0.15791,-0.0302 0.22197,0.005 0.22197,0.005 0.35752,7.3e-4 0.35752,7.4e-4 0.15773,-0.0491 0.15772,-0.0491 0.21031,-0.10125 0.2103,-0.10124 0.19979,-0.14147 0.19979,-0.14146 0.20224,-0.17584 0.20223,-0.17583 0.15653,-0.17376 0.15653,-0.17375 0.11213,-0.1367 0.11213,-0.1367 0.0181,-0.007 0.0181,-0.007 v -0.0209 -0.0209 l 0.0916,-0.11933 0.0916,-0.11932 0.16758,-0.25237 0.16757,-0.25236 0.1696,-0.28392 0.16961,-0.28391 0.42262,-0.74052 0.42262,-0.74052 0.32328,-0.53182 0.32328,-0.53183 0.2906,-0.47318 0.2906,-0.473192 0.15589,-0.28391 0.15589,-0.28391 0.1056,-0.22082 0.1056,-0.22082 0.23807,-0.52143 0.23807,-0.52143 0.17135,-0.30835 0.17135,-0.30835 0.16448,-0.38999 0.16447,-0.38999 0.075,-0.24185 0.075,-0.24185 0.0303,-0.17876 0.0303,-0.17876 0.0456,-0.347 0.0456,-0.34701 0.0103,-0.0894 0.0103,-0.0894 h 0.2616 0.26159 v 0.0514 0.0514 l -0.0506,0.3745 -0.0506,0.3745 -0.0247,0.19979 -0.0247,0.19979 -0.0421,0.16824 -0.0421,0.16825 -0.0627,0.21711 -0.0627,0.21712 -0.10276,0.26872 -0.10276,0.26873 -0.062,0.23971 -0.062,0.23971 -0.0775,0.34701 -0.0775,0.347 -0.0616,0.23543 -0.0616,0.23543 -0.11309,0.34291 -0.11308,0.34291 -0.12639,0.29442 -0.12638,0.294432 -0.21204,0.44572 -0.21202,0.44571 -0.27635,0.53221 -0.27635,0.5322 -0.24209,0.46267 -0.24208,0.46267 -0.13692,0.25236 -0.13692,0.25237 -0.16864,0.29443 -0.16863,0.29442 -0.1671,0.2734 -0.16709,0.2734 -0.0188,0.007 -0.0188,0.007 v 0.0216 0.0216 l -0.16154,0.23431 -0.16155,0.2343 -0.14195,0.19035 -0.14196,0.19034 -0.15902,0.1819 -0.15903,0.1819 -0.17601,0.17601 -0.17601,0.17601 -0.17639,0.14214 -0.1764,0.14214 -0.18735,0.1243 -0.18734,0.12429 -0.20613,0.10588 -0.20613,0.10588 -0.19501,0.0753 -0.19501,0.0753 -0.12656,0.0386 -0.12655,0.0386 -0.16824,0.0424 -0.16825,0.0424 -0.59177,0.12584 -0.59178,0.12584 -0.43872,0.11875 -0.43871,0.11876 -0.29443,0.0942 -0.29443,0.0943 -0.0421,0.019 -0.0421,0.019 -0.15773,0.0615 -0.15773,0.0615 -0.21849,0.097 -0.2185,0.097 -0.1916,0.10847 -0.1916,0.10846 -0.22082,0.15098 -0.22082,0.15098 -0.22082,0.1534 -0.22082,0.1534 -0.22956,0.11515 -0.22956,0.11515 -0.11745,0.0404 -0.11743,0.0404 -0.16825,0.0396 -0.16824,0.0396 -0.21031,0.0324 -0.2103,0.0324 -0.28105,0.0452 -0.28105,0.0452 -0.22368,0.0588 -0.22369,0.0588 -0.2103,0.0777 -0.21031,0.0777 -0.36757,0.10323 -0.36758,0.10323 -0.17921,0.0301 -0.17922,0.0301 -0.18928,0.0214 -0.18927,0.0214 -0.39958,0.0249 -0.39958,0.0249 -1.75639,-0.0137 -1.75638,-0.0137 -0.22048,0.031 -0.22048,0.0311 -0.4939,0.14969 -0.49389,0.1497 -0.0124,0.008 -0.0124,0.008 -0.25082,0.0439 -0.25082,0.0439 -0.28391,0.0327 -0.28391,0.0327 -0.74658,0.007 -0.74659,0.007 -0.14721,0.0133 -0.14721,0.0133 -0.23593,0.0506 -0.23592,0.0506 -0.18469,0.0522 -0.18468,0.0522 -0.15773,0.0547 -0.15773,0.0547 -0.11567,0.0208 -0.11567,0.0208 -0.18927,0.0296 -0.18927,0.0296 -0.37855,0.0342 -0.37855,0.0342 -0.97208,-0.002 -0.97207,-0.002 -0.14254,0.0222 -0.14254,0.0222 -0.13521,0.0444 -0.13521,0.0444 -0.20006,0.0929 -0.20006,0.0928 -0.16946,0.0285 -0.16947,0.0285 -0.2103,0.0133 -0.21031,0.0133 -0.15773,0.0227 -0.15773,0.0227 -0.13617,0.0428 -0.13618,0.0427 -0.109,0.0697 -0.109,0.0697 -0.1196,0.0529 -0.11961,0.0529 -0.0769,0.0207 -0.0769,0.0207 -0.33648,0.0621 -0.33649,0.0621 -0.10515,0.0466 -0.10516,0.0466 -0.13669,0.12021 -0.1367,0.12022 -0.10257,0.045 -0.10257,0.0451 -0.0446,2e-5 -0.0447,10e-6 -0.14721,0.029 -0.14722,0.029 -0.18927,0.0268 -0.18928,0.0268 -0.10938,0.0399 -0.10939,0.0399 -0.14771,0.15817 -0.14771,0.15816 -0.0208,-0.0129 -0.0208,-0.0129 -0.0796,0.04 -0.0796,0.04 -0.0799,0.0145 -0.0799,0.0145 -0.38274,0.0322 -0.38274,0.0322 z m -1.48266,-0.99764 -0.4469,0.005 v -0.24711 l 10e-6,-0.24711 0.005,-0.004 0.005,-0.004 1.80862,-0.0143 1.80862,-0.0143 0.28391,-0.0335 0.28391,-0.0335 0.17876,-0.0328 0.17876,-0.0328 0.10789,-0.0296 0.1079,-0.0296 0.0603,-0.0316 0.0603,-0.0316 0.17163,-0.12292 0.17163,-0.12292 0.17537,-0.0574 0.17538,-0.0574 0.30494,-0.0862 0.30494,-0.0861 0.14721,-0.0621 0.14722,-0.0621 0.0315,-0.0195 0.0316,-0.0195 0.10515,-0.0615 0.10515,-0.0615 0.22939,-0.0768 0.22939,-0.0769 0.28586,-0.0635 0.28586,-0.0635 0.11567,-0.033 0.11566,-0.033 0.11567,-0.0515 0.11567,-0.0515 0.12618,-0.0387 0.12618,-0.0387 0.16825,-0.0322 0.16824,-0.0322 0.16825,-0.0232 0.16824,-0.0232 0.23134,-0.0419 0.23133,-0.0419 0.16825,-0.0432 0.16824,-0.0432 0.19393,-0.0606 0.19393,-0.0606 0.19241,-0.0218 0.19242,-0.0218 0.80188,0.002 0.80188,0.002 0.24185,-0.0228 0.24185,-0.0228 0.0946,-0.0119 0.0946,-0.0119 0.25237,-0.0423 0.25236,-0.0423 0.10516,-0.0296 0.10515,-0.0296 0.4837,-0.11666 0.4837,-0.11667 0.10515,-0.0212 0.10516,-0.0213 0.17875,-0.0199 0.17876,-0.0199 0.66246,-0.0203 0.66247,-0.0203 0.24342,-0.0309 0.24343,-0.0309 0.16667,-0.0418 0.16666,-0.0418 0.24186,-0.066 0.24185,-0.066 0.36803,-0.12352 0.36803,-0.12352 0.24185,-0.0638 0.24185,-0.0638 0.17876,-0.0333 0.17876,-0.0333 1.08441,-0.0186 1.08442,-0.0186 0.26153,-0.024 0.26155,-0.024 0.17876,-0.0304 0.17875,-0.0304 0.22864,-0.0644 0.22863,-0.0644 0.17094,-0.0652 0.17095,-0.0652 0.25263,-0.12966 0.25262,-0.12965 0.19953,-0.12327 0.19953,-0.12326 0.95689,-0.64111 0.95689,-0.64112 0.26288,-0.18995 0.26288,-0.18995 0.30494,-0.24512 0.30495,-0.24512 0.18927,-0.16173 0.18927,-0.16174 0.28439,-0.26665 0.28437,-0.26665 0.0837,-0.0973 0.0836,-0.0973 0.15784,-0.18661 0.15784,-0.18662 0.43372,-0.5573 0.43372,-0.55731 0.17786,-0.2734 0.17785,-0.27339 0.0395,-0.0683 0.0395,-0.0684 h 0.0165 0.0165 v -0.0251 -0.0251 l 0.10979,-0.16947 0.1098,-0.16946 0.12312,-0.15275 0.12311,-0.15275 0.40595,-0.4185 0.40595,-0.4185 0.13081,-0.19556 0.13081,-0.19557 0.11128,-0.22188 0.11128,-0.221892 0.0906,-0.13643 0.0906,-0.13643 0.24298,-0.24409 0.24298,-0.24409 0.16223,-0.1275 0.16222,-0.12751 0.37405,-0.20508 0.37405,-0.20509 0.0841,-0.0563 0.0841,-0.0563 0.47318,-0.28925 0.47319,-0.28925 0.16824,-0.10589 0.16825,-0.10588 0.31208,-0.19167 0.31209,-0.19166 0.35107,-0.26289 0.35107,-0.26288 0.15883,-0.12996 0.15883,-0.12997 0.11054,-0.12094 0.11053,-0.12094 0.0995,-0.14867 0.0995,-0.14868 0.0667,-0.1179 0.0667,-0.1179 0.0751,-0.20756 0.0751,-0.20757 0.0288,-0.15823 0.0288,-0.15824 0.014,-0.13144 0.014,-0.13144 h 0.25157 0.25158 l -0.0132,0.15247 -0.0132,0.15247 -0.0187,0.14786 -0.0187,0.14785 -0.041,0.12554 -0.041,0.12555 -0.0768,0.2103 -0.0768,0.21031 -0.13936,0.24056 -0.13936,0.24057 -0.19042,0.20889 -0.19041,0.2089 -0.20571,0.18508 -0.2057,0.18508 -0.21507,0.15239 -0.21507,0.1524 -0.23133,0.18337 -0.23134,0.18337 -0.39189,0.26221 -0.39189,0.26221 -0.24067,0.20036 -0.24067,0.20036 -0.38742,0.35678 -0.38741,0.35678 -0.26333,0.27133 -0.26332,0.27133 -0.11698,0.147222 -0.11697,0.14721 -0.11118,0.15608 -0.11118,0.15608 -0.25199,0.42226 -0.25199,0.42226 -0.13751,0.19979 -0.13752,0.19979 -0.14951,0.17871 -0.14951,0.17872 -0.2392,0.26292 -0.2392,0.26293 -0.15207,0.18927 -0.15207,0.18928 -0.0778,0.12306 -0.0778,0.12307 -0.092,0.18187 -0.092,0.18188 -0.1178,0.32638 -0.1178,0.32638 -0.0678,0.12964 -0.0678,0.12964 -0.0688,0.11517 -0.0688,0.11517 -0.19304,0.20396 -0.19304,0.20398 -0.21133,0.17269 -0.21134,0.1727 -0.38906,0.28227 -0.38907,0.28226 -0.38906,0.3043 -0.38907,0.30429 -0.19979,0.14959 -0.19979,0.1496 -0.15773,0.10532 -0.15772,0.10533 -0.15773,0.0952 -0.15773,0.0952 -0.38907,0.20547 -0.38906,0.20548 -0.2103,0.11696 -0.21031,0.11696 -0.41009,0.24559 -0.4101,0.24559 -0.25438,0.12751 -0.25438,0.12751 -0.2188,0.0732 -0.21881,0.0732 -0.25237,0.0531 -0.25236,0.0531 -0.25237,0.0225 -0.25236,0.0225 -0.5468,0.0203 -0.54679,0.0203 -0.9674,-0.013 -0.96741,-0.013 -0.25236,0.0262 -0.25237,0.0262 -0.15773,0.0297 -0.15773,0.0297 -0.22082,0.0722 -0.22082,0.0721 -0.29379,0.0772 -0.2938,0.0772 -0.0499,0.019 -0.0499,0.019 -0.15074,0.0311 -0.15074,0.0311 -0.22061,0.0323 -0.22061,0.0323 -0.78864,0.021 -0.78865,0.021 -0.16824,0.0191 -0.16824,0.0191 -0.42061,0.097 -0.42061,0.097 -0.26288,0.0725 -0.26289,0.0725 -0.28391,0.0421 -0.28391,0.0421 -0.38242,0.0323 -0.38243,0.0323 -0.84786,-0.006 -0.84786,-0.006 -0.12618,0.0281 -0.12618,0.0281 -0.26288,0.0835 -0.26289,0.0835 -0.19643,0.0513 -0.19644,0.0513 -0.33984,0.0428 -0.33984,0.0428 -0.11567,0.019 -0.11567,0.019 -0.12439,0.0449 -0.1244,0.0449 -0.10491,0.0532 -0.10492,0.0532 -0.11769,0.0319 -0.11769,0.0318 -0.39958,0.10125 -0.39958,0.10126 -0.12608,0.0456 -0.12608,0.0457 -0.10453,0.0769 -0.10454,0.0769 -0.18999,0.0798 -0.19,0.0798 -0.25237,0.0596 -0.25236,0.0596 -0.0781,0.0139 -0.0781,0.0139 -0.1186,0.0524 -0.1186,0.0525 -0.16085,0.12234 -0.16086,0.12234 -0.0736,0.0384 -0.0736,0.0385 -0.0946,0.0162 -0.0946,0.0162 -0.2103,0.032 -0.21031,0.032 -0.24185,0.0237 -0.24185,0.0237 -1.38801,0.009 -1.38801,0.009 z m 55.08413,-0.78482 -0.12618,-10e-4 -0.0965,-0.0322 -0.0965,-0.0322 -0.0382,-0.0647 -0.0382,-0.0647 -0.0276,-0.13158 -0.0276,-0.13157 0.0614,-0.13295 0.0614,-0.13294 0.0799,-0.0545 0.0799,-0.0546 0.0946,-0.0281 0.0946,-0.0281 0.14721,-10e-4 0.14722,-0.001 0.0946,0.0348 0.0946,0.0348 0.14237,0.0465 0.14237,0.0465 0.13103,0.0105 0.13102,0.0105 0.29201,-0.0775 0.29201,-0.0775 0.35994,-0.0187 0.35993,-0.0187 0.17876,-0.0519 0.17876,-0.052 0.25237,-0.0944 0.25237,-0.0944 0.2103,-0.0956 0.21031,-0.0956 0.25851,-0.0734 0.25853,-0.0734 0.15835,-0.022 0.15835,-0.022 h 0.0511 0.0511 v 0.57088 0.57088 l -0.21556,-0.0137 -0.21556,-0.0137 -0.35752,-0.0129 -0.35752,-0.0129 -0.3163,0.0446 -0.31631,0.0446 -0.33564,0.0212 -0.33564,0.0212 -0.14721,0.023 -0.14722,0.023 -0.25324,0.0595 -0.25325,0.0595 -0.23046,0.0243 -0.23045,0.0243 -0.19979,0.0409 -0.19979,0.0409 -0.16824,0.0308 -0.16825,0.0308 -0.12618,-10e-4 z m -54.01157,-0.22415 -1.51946,0.005 v -0.24425 l 10e-6,-0.24425 0.0976,-0.0134 0.0976,-0.0134 1.45343,-1.9e-4 1.45343,-1.9e-4 0.29442,-0.0207 0.29443,-0.0207 0.24185,-0.0335 0.24185,-0.0335 0.19723,-0.0503 0.19724,-0.0503 0.21645,-0.11559 0.21646,-0.11559 0.0705,-0.0478 0.0705,-0.0478 0.0836,-0.0351 0.0836,-0.035 0.23134,-0.083 0.23133,-0.0829 0.23134,-0.0673 0.23133,-0.0673 0.14721,-0.0718 0.14722,-0.0718 0.19374,-0.0838 0.19375,-0.0838 0.13223,-0.0437 0.13222,-0.0437 0.29443,-0.0625 0.29443,-0.0625 0.25236,-0.0829 0.25237,-0.0829 0.31546,-0.0856 0.31545,-0.0856 0.2734,-0.0417 0.2734,-0.0417 0.19699,-0.0327 0.197,-0.0327 0.18155,-0.0538 0.18155,-0.0538 0.0946,-0.0197 0.0946,-0.0197 0.10515,-0.0212 0.10515,-0.0212 0.93586,-0.0175 0.93586,-0.0175 0.18979,-0.0334 0.1898,-0.0334 0.47287,-0.11348 0.47286,-0.11347 0.2732,-0.084 0.27319,-0.084 0.34701,-0.0856 0.347,-0.0856 0.23133,-0.0315 0.23134,-0.0315 0.25237,-0.0337 0.25236,-0.0337 0.15773,-0.0315 0.15773,-0.0315 0.22082,-0.0743 0.22082,-0.0743 0.23583,-0.11506 0.23583,-0.11506 0.44215,-0.29266 0.44216,-0.29267 0.21581,-0.13019 0.21581,-0.13019 0.46469,-0.23647 0.46469,-0.23647 0.12417,-0.038 0.12416,-0.038 0.0494,-0.0372 0.0494,-0.0371 0.0768,0.0395 0.0768,0.0394 0.0759,0.0318 0.0759,0.0318 0.12321,0.10036 0.12322,0.10036 0.14588,0.0613 0.14589,0.0613 0.20181,0.0109 0.20181,0.0109 0.18927,-0.0357 0.18928,-0.0357 0.19979,-0.0743 0.19979,-0.0743 0.24185,-0.12308 0.24185,-0.12308 0.1929,-0.12507 0.19291,-0.12508 0.1975,-0.1478 0.19749,-0.14779 0.55597,-0.44508 0.55597,-0.44509 0.0316,-0.0123 0.0316,-0.0123 0.021,-0.0256 0.021,-0.0256 0.39958,-0.30961 0.39958,-0.30961 0.19979,-0.17464 0.19979,-0.17463 0.24442,-0.24853 0.24442,-0.24853 0.2799,-0.31546 0.2799,-0.31545 0.48705,-0.5468 0.48706,-0.54679 0.1453,-0.12751 0.1453,-0.12751 0.0946,-0.0643 0.0946,-0.0643 0.17876,-0.0927 0.17876,-0.0927 0.29443,-0.13128 0.29443,-0.13128 0.11856,-0.0881 0.11857,-0.0881 0.0226,-0.13756 0.0226,-0.13757 -0.0509,-0.145332 -0.0509,-0.14533 -0.0692,-0.0722 -0.0692,-0.0722 -0.0919,-0.0638 -0.0919,-0.0638 -0.12726,0.0133 -0.12726,0.0133 -0.24353,0.0969 -0.24352,0.0969 -0.30405,0.14978 -0.30405,0.14979 -0.11656,0.0865 -0.11656,0.0865 -0.23395,0.21079 -0.23394,0.2108 -0.36542,0.28367 -0.36543,0.28367 -0.16394,0.15318 -0.16393,0.15318 -0.15178,0.18106 -0.15178,0.18105 -0.0728,0.0946 -0.0728,0.0946 -0.17408,0.20373 -0.17408,0.20373 -0.14194,0.12667 -0.14194,0.12667 -0.14721,0.11728 -0.14721,0.11727 -0.43883,0.30698 -0.43884,0.30697 -0.21275,0.1695 -0.21276,0.1695 -0.20854,0.19046 -0.20854,0.19047 -0.17257,0.14721 -0.17256,0.14722 -0.0504,0.0413 -0.0504,0.0413 -0.15364,0.11041 -0.15364,0.11041 -0.21439,0.13091 -0.2144,0.1309 -0.57834,0.29263 -0.57834,0.29263 -0.10515,0.0367 -0.10515,0.0367 -0.087,-0.0296 -0.087,-0.0295 -0.0132,-0.0658 -0.0132,-0.0658 -0.0332,-0.0367 -0.0332,-0.0367 -0.0114,-0.20728 -0.0114,-0.20727 0.0361,-0.12422 0.0361,-0.12422 0.0647,-0.0959 0.0647,-0.0959 0.14915,-0.1453 0.14915,-0.1453 0.16825,-0.11013 0.16824,-0.11012 0.26288,-0.14191 0.26288,-0.1419 0.20472,-0.12636 0.20472,-0.12636 0.151,-0.13601 0.151,-0.136 0.0773,-0.0978 0.0773,-0.0978 0.13037,-0.19686 0.13036,-0.19687 0.076,-0.0927 0.076,-0.0927 0.17033,-0.11317 0.17034,-0.11317 0.16824,-0.0725 0.16825,-0.0725 0.28391,-0.11092 0.28391,-0.11093 0.13765,-0.0688 0.13765,-0.0688 0.15678,-0.11812 0.15678,-0.11812 0.11063,-0.13089 0.11065,-0.13089 0.1512,-0.26288 0.1512,-0.26288 0.0888,-0.1367 0.0888,-0.1367 0.1331,-0.13012 0.13309,-0.13012 0.1367,-0.0787 0.13669,-0.0787 0.0973,-0.0484 0.0973,-0.0484 0.16561,-0.0623 0.16561,-0.0623 0.25236,-0.10324 0.25237,-0.10324 0.15773,-0.0791 0.15773,-0.0791 0.19979,-0.13142 0.19979,-0.13143 0.25236,-0.11615 0.25237,-0.11615 0.15773,-0.0372 0.15772,-0.0372 0.26289,-0.006 0.26288,-0.006 0.33649,0.0181 0.33648,0.0181 0.21031,0.0566 0.2103,0.0566 0.15773,0.0269 0.15773,0.0269 0.14721,-0.0116 0.14722,-0.0116 0.10532,-0.0461 0.10533,-0.0461 0.0995,-0.1033 0.0995,-0.10331 2.6e-4,-0.0802 2.5e-4,-0.0802 -0.034,-0.10384 -0.034,-0.10385 -0.0134,0.002 -0.0134,10e-4 -0.0421,0.0165 -0.0421,0.0165 -0.0461,-0.0301 -0.0461,-0.0301 -0.27985,-0.0107 -0.27986,-0.0107 -0.24185,0.0244 -0.24185,0.0244 -0.12618,-0.002 -0.12618,-0.002 -0.25991,-0.0459 -0.2599,-0.0459 -0.37101,0.0255 -0.37101,0.0255 -0.18928,0.0328 -0.18927,0.0328 -0.19597,0.0956 -0.19597,0.0956 -0.15803,0.10316 -0.15803,0.10317 -0.23485,0.10621 -0.23486,0.10622 -0.15773,0.0491 -0.15773,0.0491 -0.24185,0.0637 -0.24185,0.0637 -0.1367,0.0517 -0.1367,0.0517 -0.12582,0.0665 -0.12583,0.0665 -0.11603,0.0702 -0.11602,0.0702 -0.15463,0.0467 -0.15464,0.0467 -0.13227,-0.0106 -0.13228,-0.0106 -0.0996,-0.0497 -0.0996,-0.0497 -0.0788,-0.0896 -0.0789,-0.0896 h -0.0352 -0.0352 l -0.0617,-0.0319 -0.0617,-0.0319 -0.28948,-0.0126 -0.28948,-0.0126 -0.5573,0.0347 -0.55731,0.0347 -0.29443,-0.0221 -0.29443,-0.0221 -0.31545,-0.0333 -0.31546,-0.0333 -0.38907,0.0112 -0.38906,0.0112 -0.19979,0.0334 -0.19979,0.0334 -0.1672,0.0417 -0.1672,0.0417 -0.2138,0.0836 -0.2138,0.0836 -0.33936,0.16657 -0.33936,0.166582 -0.19447,0.0745 -0.19446,0.0745 -0.12618,0.0355 -0.12619,0.0355 -0.20738,0.0822 -0.20738,0.0822 -0.3289,0.16487 -0.32889,0.16488 -0.14069,0.0554 -0.14069,0.0553 -0.1958,0.0503 -0.1958,0.0503 -0.24185,0.0566 -0.24185,0.0566 -0.26025,0.12415 -0.26026,0.12415 -0.0973,0.0598 -0.0973,0.0598 -0.11488,0.0382 -0.11489,0.0382 -0.10551,-0.004 -0.10551,-0.004 -0.0688,-0.0667 -0.0688,-0.0667 v -0.0343 -0.0343 l -0.0473,-0.0425 -0.0473,-0.0425 -0.1367,-0.095 -0.1367,-0.095 -0.0841,-0.016 -0.0841,-0.0159 -0.14722,-0.0144 -0.14721,-0.0144 -0.39958,0.0154 -0.39958,0.0154 -0.18927,0.0241 -0.18928,0.0241 -0.52576,0.0953 -0.52576,0.0953 -0.23134,0.0604 -0.23133,0.0604 -0.37855,0.10569 -0.37855,0.10569 -0.19979,0.0435 -0.19979,0.0435 -0.7571,0.0178 -0.7571,0.0178 -0.13669,0.0238 -0.1367,0.0238 -0.14722,0.0333 -0.14721,0.0333 -0.23914,0.0924 -0.23914,0.0924 -0.32868,0.14887 -0.32869,0.14887 -0.15772,0.0629 -0.15773,0.0629 -0.12619,0.0391 -0.12618,0.0392 -0.18119,0.043 -0.18119,0.043 -0.21839,0.0296 -0.21839,0.0296 -0.2103,0.0134 -0.21031,0.0134 -0.37855,0.0309 -0.37855,0.0309 -0.347,0.043 -0.347,0.043 -0.36804,0.0601 -0.36803,0.0601 -0.44164,0.0535 -0.44164,0.0535 -0.41104,0.0323 -0.41104,0.0323 h -0.19359 -0.19359 v -0.58555 -0.58556 l 0.34175,-0.0135 0.34174,-0.0135 0.22082,-0.022 0.22082,-0.022 0.70452,-0.0824 0.70452,-0.0824 0.34701,-0.0237 0.347,-0.0238 0.60317,0.0246 0.60318,0.0246 0.26864,-0.0243 0.26863,-0.0243 0.15869,-0.0384 0.15868,-0.0384 0.19979,-0.0566 0.19979,-0.0566 0.31546,-0.10125 0.31545,-0.10126 0.4101,-0.0955 0.41009,-0.0955 0.21031,-0.0356 0.2103,-0.0356 0.92534,-0.0156 0.92535,-0.0157 0.18927,-0.0353 0.18927,-0.0353 0.24186,-0.0702 0.24185,-0.0702 0.10454,-0.0248 0.10454,-0.0248 0.45571,-0.0931 0.45572,-0.0931 0.35457,-0.0413 0.35457,-0.0413 0.31538,-0.0248 0.31538,-0.0248 0.34708,0.0129 0.34708,0.0129 0.11567,0.03 0.11567,0.03 0.0943,0.0344 0.0943,0.0344 0.0513,0.0336 0.0513,0.0336 0.10678,0.0284 0.10679,0.0284 0.16824,-1.1e-4 0.16825,-1e-4 0.14721,-0.0383 0.14721,-0.0383 0.066,-0.0342 0.066,-0.0342 0.21794,-0.0722 0.21795,-0.0722 0.17876,-0.0422 0.17875,-0.0422 0.26289,-0.0554 0.26288,-0.0554 0.11566,-0.0451 0.11567,-0.0451 0.2734,-0.141492 0.27339,-0.14148 0.15773,-0.053 0.15773,-0.053 0.19469,-0.0537 0.19469,-0.0537 0.24695,-0.095 0.24695,-0.095 0.0736,-0.0375 0.0736,-0.0375 0.10515,-0.0563 0.10515,-0.0563 0.19249,-0.0827 0.19248,-0.0827 0.11641,-0.0338 0.1164,-0.0338 0.19673,-0.0405 0.19673,-0.0405 0.29354,-0.0341 0.29354,-0.0341 0.29443,-10e-6 h 0.29442 l 0.32598,0.0332 0.32597,0.0332 0.32597,0.0123 0.32597,0.0124 0.41104,-0.0339 0.41104,-0.0339 0.24091,1.7e-4 0.2409,1.7e-4 0.1367,0.0216 0.1367,0.0216 0.10515,0.0328 0.10516,0.0328 0.18927,0.0698 0.18927,0.0698 0.14013,0.0114 0.14013,0.0114 0.13341,-0.0382 0.1334,-0.0382 0.11553,-0.058 0.11553,-0.058 0.11567,-0.0708 0.11567,-0.0708 0.17876,-0.0502 0.17876,-0.0502 0.22082,-0.0458 0.22082,-0.0458 0.25236,-0.0965 0.25237,-0.0965 0.1367,-0.089 0.1367,-0.089 0.2103,-0.10786 0.21031,-0.10787 0.11566,-0.0318 0.11567,-0.0318 0.21031,-0.0449 0.2103,-0.0449 0.35752,-0.002 0.35752,-0.002 0.16824,0.0284 0.16825,0.0284 0.23133,-1e-4 0.23134,-1.1e-4 0.24185,-0.0375 0.24185,-0.0375 0.22082,6.2e-4 0.22082,6.2e-4 0.1551,0.0541 0.15511,0.0541 0.0499,0.0469 0.0499,0.0469 v 0.0331 0.0331 l 0.0741,0.0591 0.0741,0.0591 0.0773,0.0323 0.0773,0.0323 0.12856,-0.0138 0.12856,-0.0138 0.0845,-0.10916 0.0845,-0.10917 0.0369,-0.0636 0.0369,-0.0636 0.14024,-0.0575 0.14024,-0.0575 0.0801,1.7e-4 0.0801,1.7e-4 0.15124,-0.0229 0.15124,-0.0229 0.1367,-0.0648 0.1367,-0.0648 0.11567,-0.11058 0.11567,-0.11058 0.13669,-0.053 0.1367,-0.053 0.12199,-0.0344 0.12199,-0.0344 0.13756,-0.0624 0.13755,-0.0624 0.15055,-0.1149 0.15055,-0.1149 0.23134,-0.1128 0.23133,-0.11281 0.28391,-0.17347 0.28392,-0.17347 0.2397,-0.14584 0.23971,-0.14584 0.0757,-0.0562 0.0757,-0.0563 0.16824,-0.13902 0.16825,-0.13903 0.12995,-0.13908 0.12995,-0.13909 0.0792,-0.1416 0.0792,-0.1416 0.0485,-0.13357 0.0485,-0.13358 2.9e-4,-0.0674 2.9e-4,-0.0674 0.0127,-0.0473 0.0127,-0.0473 h 0.24892 0.24892 l -0.0109,0.11041 -0.0109,0.11041 -0.0331,0.14721 -0.0331,0.14722 -0.11135,0.24699 -0.11136,0.24698 -0.12488,0.15259 -0.12489,0.1526 -0.1447,0.12736 -0.1447,0.12737 -0.16825,0.12582 -0.16824,0.12581 -0.21031,0.14933 -0.2103,0.14933 -0.30494,0.17318 -0.30494,0.17317 -0.0631,0.0461 -0.0631,0.0461 -0.36803,0.20694 -0.36804,0.20694 -0.24239,0.14264 -0.24239,0.14264 -0.27286,0.10967 -0.27285,0.10966 -0.16824,0.11583 -0.16825,0.11582 -0.0841,0.0564 -0.0841,0.0564 -0.14721,0.0455 -0.14722,0.0455 -0.2103,0.0409 -0.21031,0.0409 -0.10699,0.11826 -0.10699,0.11826 -0.10215,0.25308 -0.10215,0.25308 -0.0981,0.12917 -0.0981,0.12917 -0.15149,0.13128 -0.15148,0.13127 -0.27735,0.196432 -0.27735,0.19643 -0.0946,0.0552 -0.0946,0.0552 -0.10978,0.12499 -0.10978,0.12499 -0.0306,0.081 -0.0306,0.081 -0.0654,0.17704 -0.0654,0.17704 -0.0729,0.13842 -0.0729,0.13841 -0.1169,0.13096 -0.1169,0.13096 -0.34153,0.28211 -0.34153,0.2821 -0.19055,0.20134 -0.19055,0.20134 -0.26038,0.34248 -0.26038,0.34249 -0.15748,0.18927 -0.15749,0.18928 -0.24229,0.25003 -0.24228,0.25002 -0.21031,0.18865 -0.2103,0.18865 -0.0631,0.0576 -0.0631,0.0576 -0.24186,0.19797 -0.24185,0.19797 -1.04101,0.7799 -1.041,0.7799 -0.18928,0.12602 -0.18927,0.12601 -0.23134,0.12768 -0.23133,0.12768 -0.20259,0.0855 -0.20258,0.0855 -0.15604,0.0509 -0.15604,0.0509 -0.16714,0.0335 -0.16714,0.0335 -0.22279,0.0205 -0.22279,0.0205 -0.28194,-0.0201 -0.28194,-0.0201 -0.31546,-0.0134 -0.31546,-0.0134 -0.22095,0.0241 -0.22096,0.0241 -0.17862,0.0423 -0.17863,0.0423 -0.19979,0.0644 -0.19979,0.0644 -0.29442,0.13711 -0.29443,0.13711 -0.12173,0.0711 -0.12174,0.0711 -0.25681,0.11888 -0.25682,0.11887 -0.14406,0.049 -0.14406,0.049 -0.21514,0.0519 -0.21514,0.0518 -0.18759,0.0318 -0.18759,0.0318 -0.28391,0.0211 -0.28392,0.0211 -0.27339,0.0127 -0.2734,0.0127 -0.28391,0.0312 -0.28391,0.0312 -0.24185,0.0612 -0.24185,0.0612 -0.16825,0.0424 -0.16824,0.0424 -0.39958,0.0938 -0.39958,0.0938 -0.0631,0.0122 -0.0631,0.0122 -0.23134,0.0332 -0.23133,0.0332 -1.04101,0.0169 -1.04101,0.0169 -0.12619,0.0349 -0.12618,0.0349 -0.12618,0.0382 -0.12619,0.0382 -0.14721,0.0339 -0.14721,0.0339 -0.2734,0.0441 -0.2734,0.0441 -0.27339,0.0519 -0.2734,0.0519 -0.15773,0.0428 -0.15773,0.0428 -0.15772,0.0599 -0.15773,0.0599 -0.10516,0.0315 -0.10515,0.0315 -0.28285,0.0564 -0.28285,0.0563 -0.22399,0.0802 -0.224,0.0802 -0.23916,0.11995 -0.23916,0.11994 -0.10573,0.0303 -0.10573,0.0303 -0.42775,0.13828 -0.42776,0.13828 -0.098,0.0699 -0.098,0.0699 -0.16825,0.0926 -0.16824,0.0926 -0.10515,0.0339 -0.10516,0.0339 -0.17875,0.0315 -0.17876,0.0316 -0.15773,0.0203 -0.15773,0.0203 -0.37855,0.0229 -0.37855,0.0229 -1.51946,0.005 z m -0.97791,-1.01719 -0.54154,0.002 v -0.24943 -0.24944 l 0.11041,-0.0133 0.11041,-0.0133 1.46162,-2.6e-4 1.46162,-2.5e-4 0.24185,-0.0219 0.24185,-0.022 0.18927,-0.0315 0.18928,-0.0315 0.15149,-0.0419 0.1515,-0.0419 0.22705,-0.10823 0.22706,-0.10822 0.1072,-0.0683 0.10721,-0.0683 0.25031,-0.11599 0.25031,-0.11599 0.17876,-0.0558 0.17876,-0.0558 0.34701,-0.13709 0.347,-0.1371 0.11706,-0.0589 0.11707,-0.0589 0.37715,-0.12651 0.37715,-0.12651 0.29443,-0.0845 0.29443,-0.0845 0.44164,-0.14953 0.44164,-0.14953 0.44164,-0.11338 0.44164,-0.11339 0.12558,-0.0435 0.12558,-0.0435 0.33709,-0.092 0.33709,-0.092 0.12618,-0.0235 0.12618,-0.0235 0.40652,-0.0529 0.40652,-0.0529 0.15079,-0.0315 0.15079,-0.0315 0.28264,-0.0956 0.28264,-0.0957 0.51901,-0.23876 0.51901,-0.23876 0.26039,-0.10564 0.26039,-0.10564 0.43113,-0.17093 0.43112,-0.17092 0.2769,-0.13275 0.27691,-0.13274 0.2016,-0.11865 0.2016,-0.11865 0.20981,-0.15805 0.20982,-0.15805 0.24754,-0.24808 0.24753,-0.24808 0.3702,-0.45014 0.37019,-0.45014 0.21093,-0.23133 0.21093,-0.23134 0.40731,-0.3712 0.40731,-0.3712 0.19979,-0.17177 0.19979,-0.17178 0.19979,-0.13249 0.19979,-0.13249 0.11414,-0.0576 0.11414,-0.0576 0.23746,-0.0918 0.23746,-0.0918 0.17416,-0.0445 0.17416,-0.0445 0.17171,-0.0177 0.1717,-0.0177 0.11821,0.0275 0.11821,0.0275 0.0438,0.0394 0.0438,0.0394 0.0659,0.0946 0.0659,0.0946 v 0.18033 0.18033 l -0.0893,0.11839 -0.0893,0.11838 -0.14653,0.087 -0.14652,0.0871 -0.37403,0.16355 -0.37404,0.16354 -0.2103,0.12141 -0.2103,0.1214 -0.12619,0.096 -0.12618,0.096 -0.13397,0.12706 -0.13397,0.12706 -0.12234,0.14922 -0.12235,0.14922 -0.24623,0.37654 -0.24622,0.37655 -0.018,0.007 -0.018,0.007 v 0.0212 0.0212 l -0.15112,0.20308 -0.15112,0.20308 -0.33784,0.33786 -0.33784,0.33785 -0.22082,0.17933 -0.22082,0.17934 -0.18932,0.13637 -0.18932,0.13636 -0.22077,0.12722 -0.22078,0.12722 -0.22082,0.0959 -0.22082,0.0959 -0.14721,0.0522 -0.14722,0.0522 -0.58885,0.17914 -0.58885,0.17914 -0.32598,0.13528 -0.32597,0.13527 -0.39958,0.16923 -0.39958,0.16922 -0.18927,0.0525 -0.18928,0.0526 -0.16824,0.0329 -0.16824,0.0329 -0.18928,0.023 -0.18927,0.023 -0.63092,0.0179 -0.63091,0.0179 -0.23134,0.043 -0.23133,0.043 -0.34149,0.0853 -0.34148,0.0853 -0.31046,0.0529 -0.31046,0.0529 -0.14722,0.0299 -0.14721,0.0299 -0.12618,0.044 -0.12619,0.044 -0.42061,0.12316 -0.42061,0.12315 -0.30918,0.0755 -0.30919,0.0755 -0.36379,0.15963 -0.36379,0.15962 -0.13457,0.0508 -0.13456,0.0508 -0.12832,0.0331 -0.12831,0.0331 -0.19907,0.0744 -0.19906,0.0744 -0.17948,0.0895 -0.17949,0.0895 -0.16824,0.0976 -0.16825,0.0976 -0.15992,0.0618 -0.15993,0.0618 -0.15553,0.0331 -0.15553,0.0331 -0.21031,0.033 -0.2103,0.033 -1.25132,0.0171 -1.25131,0.0171 -0.54153,0.002 z m 55.77812,-0.14178 -0.11566,0.0105 -0.10872,-0.008 -0.10871,-0.008 -0.11555,-0.11647 -0.11555,-0.11648 -0.0118,-0.0469 -0.0118,-0.0469 0.0274,-0.13522 0.0274,-0.13523 0.17885,-0.15822 0.17886,-0.15823 0.0978,-0.0519 0.0978,-0.0519 0.0581,0.0356 0.0581,0.0356 -0.006,0.0616 -0.006,0.0616 0.10942,0.0708 0.10943,0.0708 0.0889,0.0581 0.0889,0.0581 0.12028,0.0222 0.12028,0.0222 0.13982,-0.0582 0.13982,-0.0582 0.1367,-0.0945 0.1367,-0.0945 0.24985,-0.24831 0.24985,-0.24831 h 0.0239 0.0239 l 0.1018,-0.0841 0.1018,-0.0841 0.0345,-2.8e-4 0.0345,-2.9e-4 0.0457,-0.0123 0.0457,-0.0123 0.0349,0.0675 0.0349,0.0675 0.0304,0.11659 0.0304,0.11659 -0.0307,0.0966 -0.0307,0.0966 -0.0147,0.0736 -0.0147,0.0736 -0.0597,0.10471 -0.0597,0.10471 -0.15629,0.13714 -0.15629,0.13714 -0.19668,0.0983 -0.19669,0.0983 -0.16824,0.0594 -0.16825,0.0594 -0.49421,0.002 -0.49422,0.002 -0.11567,0.0105 z m -54.63196,-0.91472 -1.6877,0.01 v -0.27494 -0.27493 l 1.49842,-2e-5 1.49843,-2e-5 0.23133,-0.0216 0.23134,-0.0216 0.16407,-0.0307 0.16406,-0.0307 0.14088,-0.0557 0.14087,-0.0557 0.15138,-0.0711 0.15138,-0.0712 0.0589,-0.0494 0.0589,-0.0494 0.52369,-0.35313 0.52368,-0.35313 0.20187,-0.1616 0.20186,-0.16159 0.29979,-0.2897 0.29978,-0.2897 0.16289,-0.13616 0.16289,-0.13616 0.26288,-0.17519 0.26288,-0.17518 0.27749,-0.14976 0.2775,-0.14975 0.30084,-0.13209 0.30085,-0.13209 0.2421,-0.087 0.24209,-0.087 0.21006,-0.065 0.21006,-0.065 0.57834,-0.14775 0.57833,-0.14774 0.28477,-0.0816 0.28477,-0.0816 0.75624,-0.23297 0.75624,-0.23297 0.23134,-0.0757 0.23133,-0.0757 0.20881,-0.0826 0.2088,-0.0826 0.16975,-0.0844 0.16974,-0.0844 0.19979,-0.13284 0.19979,-0.13284 0.18491,-0.1732 0.18492,-0.17319 0.25978,-0.31931 0.25978,-0.31931 0.11262,-0.10154 0.11261,-0.10154 0.16218,-0.11388 0.16219,-0.11388 0.24791,-0.1492 0.24791,-0.14919 0.2103,-0.14161 0.21031,-0.14162 0.14721,-0.10935 0.14721,-0.10934 0.17451,-0.10541 0.1745,-0.1054 0.45995,-0.20642 0.45995,-0.20642 0.37501,-0.19959 0.37501,-0.19959 0.26288,-0.0999 0.26288,-0.0999 0.10516,-0.0283 0.10515,-0.0283 0.2103,-0.0357 0.21031,-0.0357 0.37855,9.7e-4 0.37855,9.8e-4 0.26288,0.034 0.26288,0.034 0.20625,0.0324 0.20624,0.0324 0.8558,-0.01 0.85579,-0.01 0.0946,0.0259 0.0946,0.0259 0.10867,0.0399 0.10866,0.0399 0.0253,0.0903 0.0253,0.0903 -0.0142,0.11353 -0.0142,0.11352 -0.10649,0.11949 -0.1065,0.11948 -0.10695,0.0542 -0.10695,0.0542 -0.13766,0.0375 -0.13767,0.0375 -0.17102,0.0145 -0.17103,0.0145 -0.23907,-0.024 -0.23907,-0.024 -0.11567,-0.0213 -0.11566,-0.0213 -0.11567,-0.0221 -0.11567,-0.0221 -0.14721,-0.0492 -0.14722,-0.0492 -0.27339,-0.0847 -0.2734,-0.0847 -0.18927,-0.045 -0.18928,-0.045 -0.25236,0.0105 -0.25237,0.0105 -0.16824,0.0358 -0.16825,0.0358 -0.19979,0.0637 -0.19979,0.0637 -0.0994,0.0502 -0.0994,0.0502 -0.15769,0.10294 -0.15768,0.10293 -0.34616,0.28876 -0.34616,0.28875 -0.24848,0.17661 -0.24848,0.17661 -0.23133,0.16515 -0.23134,0.16515 -0.21769,0.1738 -0.21769,0.17379 -0.2533,0.24406 -0.2533,0.24407 -0.34074,0.37855 -0.34074,0.37855 -0.14965,0.14086 -0.14964,0.14086 -0.11118,0.088 -0.11118,0.088 -0.15479,0.10457 -0.15479,0.10457 -0.21324,0.11483 -0.21324,0.11483 -0.2734,0.12721 -0.2734,0.12721 -0.33649,0.14677 -0.33648,0.14677 -0.3602,0.14317 -0.36019,0.14316 -0.35484,0.11643 -0.35485,0.11643 -0.36803,0.0956 -0.36803,0.0956 -0.49793,0.11468 -0.49793,0.11469 -0.29887,0.0858 -0.29887,0.0857 -0.27313,0.10756 -0.27313,0.10757 -0.23396,0.1205 -0.23397,0.12049 -0.35751,0.1991 -0.35752,0.1991 -0.76762,0.38482 -0.76761,0.38482 -0.35752,0.14687 -0.35752,0.14688 -0.14952,0.0601 -0.14953,0.0601 -0.20799,0.11916 -0.20799,0.11916 -0.14722,0.0906 -0.14721,0.0906 -0.23133,0.0988 -0.23134,0.0988 -0.12618,0.029 -0.12619,0.029 -0.2103,0.0332 -0.21031,0.0333 -1.68769,0.01 z m 54.7266,-0.20576 -0.0421,-7.4e-4 -0.0527,-0.0668 -0.0527,-0.0668 0.012,-0.17876 0.012,-0.17876 0.0777,-0.11286 0.0777,-0.11286 0.0786,-0.0567 0.0786,-0.0567 0.15773,-0.0644 0.15773,-0.0644 0.15436,-0.0369 0.15436,-0.0369 0.12955,0.0116 0.12956,0.0116 0.14721,0.0633 0.14721,0.0633 0.0289,0.0744 0.0289,0.0744 -0.0709,0.1368 -0.0709,0.13679 -0.0631,0.0131 -0.0631,0.0131 -0.0856,0.0492 -0.0856,0.0492 -0.33499,0.14011 -0.33498,0.1401 -0.1367,0.0287 -0.1367,0.0287 -0.0421,-7.5e-4 z m -55.49422,-0.94516 -0.92008,0.001 v -0.49422 -0.49421 h 0.39843 0.39842 l 0.58247,0.0226 0.58248,0.0226 0.25179,-0.023 0.25179,-0.023 0.13955,-0.0345 0.13955,-0.0345 0.27048,-0.10282 0.27047,-0.10282 0.1935,-0.0935 0.1935,-0.0935 0.16239,-0.0415 0.16239,-0.0415 0.1081,0.0205 0.1081,0.0205 0.002,0.005 0.002,0.005 0.0439,0.0631 0.0438,0.0631 0.0168,0.0946 0.0168,0.0946 -0.005,0.17639 -0.005,0.17639 -0.0582,0.14477 -0.0582,0.14478 -0.12411,0.12921 -0.12412,0.12921 -0.10516,0.0463 -0.10516,0.0463 -0.11857,0.0343 -0.11858,0.0343 -0.16533,0.033 -0.16534,0.033 -0.67298,0.0186 -0.67297,0.0186 -0.92009,0.001 z m 3.55087,-2.0638 -0.002,-0.004 -0.11296,-0.008 -0.11296,-0.008 -0.0553,-0.0351 -0.0553,-0.0351 -0.13438,-0.10173 -0.13439,-0.10173 -0.14953,-0.0719 -0.14952,-0.0719 -0.16824,-0.0447 -0.16825,-0.0447 -0.26288,6.7e-4 -0.26288,6.7e-4 -0.52576,0.0748 -0.52577,0.0748 -0.24185,0.0214 -0.24185,0.0214 -0.58359,0.0139 -0.5836,0.0138 v -0.66584 -0.66584 h 0.18507 0.18507 l 0.28286,-0.022 0.28286,-0.022 0.68349,-0.0714 0.68349,-0.0714 0.35752,-0.0215 0.35752,-0.0215 0.27339,-0.0122 0.2734,-0.0122 0.25236,-0.021 0.25237,-0.021 0.26288,-0.0419 0.26288,-0.0419 0.25237,-0.0649 0.25236,-0.0649 0.33649,-0.1228 0.33649,-0.1228 0.36803,-0.16082 0.36804,-0.16082 0.30494,-0.12459 0.30494,-0.12459 0.19979,-0.0641 0.19979,-0.0641 0.21454,-0.0507 0.21454,-0.0507 0.19555,-0.0309 0.19556,-0.0309 0.42061,-0.0431 0.42061,-0.0431 0.22318,-0.0419 0.22318,-0.0419 0.28155,-0.0825 0.28155,-0.0825 0.50474,-0.1827 0.50473,-0.18271 0.33686,-0.11138 0.33686,-0.11139 0.16787,-0.0377 0.16787,-0.0377 0.79008,-0.003 0.79009,-0.003 0.025,-0.0155 0.025,-0.0155 0.0121,0.0314 0.012,0.0314 0.0593,0.0207 0.0593,0.0207 0.0222,0.10333 0.0222,0.10332 -0.0308,0.13194 -0.0308,0.13193 -0.0968,0.12318 -0.0968,0.12318 -0.13857,0.0903 -0.13857,0.0903 -0.0784,0.0351 -0.0784,0.0351 -0.15576,0.0427 -0.15576,0.0427 -0.3136,0.0431 -0.31359,0.0431 -0.24414,0.0435 -0.24413,0.0435 -0.38678,0.1333 -0.38678,0.13329 -0.36673,0.12872 -0.36672,0.12871 -0.2011,0.0509 -0.2011,0.0509 -0.55731,0.11717 -0.55731,0.11718 -0.31545,0.0822 -0.31546,0.0822 -0.29443,0.0988 -0.29442,0.0988 -0.28392,0.12509 -0.28391,0.12509 -0.0421,0.0122 -0.0421,0.0122 -0.0105,0.0149 -0.0105,0.0149 -0.157,0.0788 -0.15699,0.0788 -0.28465,0.17273 -0.28464,0.17273 -0.42061,0.27308 -0.42061,0.27309 -0.14721,0.0854 -0.14722,0.0854 -0.1366,0.0686 -0.13661,0.0686 -0.11379,0.0392 -0.1138,0.0391 -0.002,-0.004 z m 47.62605,-0.27131 -0.015,-0.002 -0.0606,-0.0181 -0.0606,-0.0181 -0.0519,-0.0484 -0.0519,-0.0484 -0.0496,-0.0975 -0.0497,-0.0975 -0.0213,-0.13221 -0.0213,-0.13221 0.0329,-0.15931 0.0329,-0.15931 0.0762,-0.1367 0.0762,-0.1367 0.016,-0.021 0.016,-0.021 0.11013,-0.13669 0.11013,-0.1367 0.45234,-0.46267 0.45234,-0.46267 0.24249,-0.23928 0.24248,-0.23928 0.23707,-0.20236 0.23707,-0.20236 0.0994,-0.0699 0.0994,-0.0699 0.0631,-0.059 0.0631,-0.059 0.13719,-0.0855 0.13718,-0.0855 0.14673,-0.0693 0.14673,-0.0693 0.15299,0.004 0.15301,0.004 0.0606,0.0431 0.0605,0.0431 h 0.0226 0.0226 l 0.0425,0.0833 0.0425,0.0833 v 0.0846 0.0846 l -0.0663,0.11072 -0.0663,0.11073 -0.12824,0.13338 -0.12824,0.13339 -0.14721,0.10315 -0.14722,0.10314 -0.0526,0.0393 -0.0526,0.0393 -0.37855,0.23322 -0.37855,0.23322 -0.1459,0.12972 -0.1459,0.12971 -0.078,0.12936 -0.078,0.12936 -0.0358,0.18875 -0.0358,0.18875 -0.008,0.0786 -0.008,0.0786 -0.0616,0.12119 -0.0616,0.1212 -0.20757,0.19979 -0.20757,0.19979 -0.12563,0.10667 -0.12563,0.10668 -0.11567,0.0739 -0.11566,0.0739 -0.0282,0.0342 -0.0282,0.0342 -0.11454,0.0429 -0.11454,0.0429 -0.015,-0.002 z m -20.41745,-0.53651 -0.12329,0.0111 -0.0592,-0.0189 -0.0592,-0.0189 -0.0718,-0.0547 -0.0718,-0.0547 -0.0583,-0.0992 -0.0583,-0.0992 5.7e-4,-0.14721 5.6e-4,-0.14722 0.047,-0.11752 0.047,-0.11753 0.12254,-0.16639 0.12255,-0.16638 0.39948,-0.41009 0.39948,-0.4101 0.0932,-0.10558 0.0932,-0.10558 0.1389,-0.17833 0.1389,-0.17833 0.17946,-0.2734 0.17947,-0.27339 0.25635,-0.44164 0.25635,-0.44165 0.19585,-0.29442 0.19585,-0.29443 0.17845,-0.22082 0.17845,-0.22082 0.26665,-0.294432 0.26666,-0.29442 0.50717,-0.57834 0.50718,-0.57834 0.2011,-0.20072 0.2011,-0.20072 0.35752,-0.30648 0.35752,-0.30648 0.21056,-0.21872 0.21057,-0.21871 0.16927,-0.20994 0.16927,-0.20994 0.10709,-0.17876 0.10708,-0.17876 0.0437,-0.0946 0.0437,-0.0946 0.11931,-0.34701 0.11931,-0.347 0.0266,-0.13833 0.0266,-0.13834 0.0151,-0.24547 0.0151,-0.24547 h 0.24951 0.2495 l -1e-5,0.12092 -2e-5,0.12093 -0.0216,0.23133 -0.0216,0.23134 -0.10592,0.37855 -0.10592,0.37855 -0.0546,0.14721 -0.0546,0.14721 -0.22252,0.38907 -0.22252,0.38906 -0.10572,0.14067 -0.10572,0.14068 -0.19013,0.21684 -0.19014,0.21685 -0.12661,0.16824 -0.12662,0.16825 -0.40054,0.59937 -0.40055,0.59937 -0.22895,0.30494 -0.22894,0.30494 -0.21184,0.273402 -0.21185,0.27339 -0.16995,0.24185 -0.16996,0.24185 -0.1876,0.29443 -0.18761,0.29443 -0.38507,0.65194 -0.38508,0.65195 -0.19919,0.30494 -0.19919,0.30494 -0.12742,0.16825 -0.12742,0.16824 -0.15257,0.17876 -0.15257,0.17876 -0.10128,0.10541 -0.10129,0.10541 -0.17876,0.16547 -0.17876,0.16547 -0.15773,0.11949 -0.15773,0.1195 -0.12922,0.0777 -0.12923,0.0777 -0.11552,0.0511 -0.11551,0.0511 z m 19.39719,-3.18619 -0.0252,-0.002 -0.0825,-0.0193 -0.0825,-0.0193 -0.0274,-0.0227 -0.0274,-0.0227 -0.0135,-0.0717 -0.0135,-0.0717 -0.0399,-0.0508 -0.0399,-0.0507 -0.0208,-0.10967 -0.0208,-0.10967 0.001,-0.0865 0.001,-0.0865 0.0462,-0.1165 0.0462,-0.1165 0.0841,-0.1326 0.0841,-0.13259 0.20433,-0.24795 0.20432,-0.24795 0.22285,-0.20988 0.22284,-0.209882 0.046,-0.0218 0.046,-0.0218 0.13924,-0.0645 0.13925,-0.0645 0.11312,0.013 0.11312,0.013 0.0594,0.0494 0.0594,0.0494 h 0.0194 0.0194 v 0.0908 0.0908 l -0.0318,0.10694 -0.0318,0.10693 -0.0839,0.10155 -0.0839,0.10154 v 0.0242 0.0242 l -0.20141,0.24956 -0.2014,0.24955 -0.21395,0.23903 -0.21395,0.23904 -0.0786,0.10554 -0.0786,0.10554 -0.0802,0.059 -0.0802,0.0589 -0.0369,0.11697 -0.0369,0.11698 -0.0252,-0.002 z m -6.12058,-0.16634 -0.12966,-2.1e-4 -0.10653,-0.0496 -0.10653,-0.0496 -0.0748,-0.0657 -0.0748,-0.0657 -0.0486,-0.11056 -0.0486,-0.11057 0.001,-0.18927 0.001,-0.18927 0.0453,-0.18901 0.0453,-0.18901 0.0931,-0.289 0.0931,-0.28901 0.0722,-0.279092 0.0722,-0.27908 0.0866,-0.36242 0.0866,-0.36242 0.0955,-0.2235 0.0955,-0.2235 0.24392,-0.48663 0.24392,-0.48664 0.1361,-0.30494 0.13609,-0.30495 0.0819,-0.19978 0.0818,-0.19979 0.0405,-0.0742 0.0405,-0.0742 0.10891,-0.27278 0.10891,-0.27278 0.0614,-0.15339 0.0613,-0.15338 0.0619,-0.25909 0.0619,-0.25909 0.014,-0.15009 0.014,-0.15009 h 1.01695 1.01696 v 0.0999 0.0999 l -0.0312,0.16293 -0.0312,0.16293 -0.0764,0.2051 -0.0764,0.20511 -0.0744,0.13396 -0.0744,0.13396 -0.12041,0.16047 -0.12042,0.16046 -0.12347,0.11796 -0.12347,0.11797 -0.17916,0.10659 -0.17916,0.10659 -0.1163,0.0435 -0.11629,0.0435 -0.0936,0.0633 -0.0936,0.0633 -0.11772,0.0892 -0.11771,0.0892 -0.12492,0.1367 -0.12492,0.1367 -0.11683,0.18927 -0.11683,0.18928 -0.0847,0.18927 -0.0847,0.18928 -0.10628,0.31545 -0.10627,0.31546 -0.0734,0.26288 -0.0734,0.26288 -0.0254,0.13082 -0.0254,0.13082 0.0102,0.24773 0.0102,0.24773 0.0673,0.273402 0.0673,0.27339 -2.3e-4,0.1367 -2.3e-4,0.1367 -0.0331,0.12618 -0.0331,0.12619 -0.12461,0.25236 -0.12462,0.25237 -0.12641,0.14721 -0.12641,0.14722 -0.12877,0.0683 -0.12877,0.0684 -0.12967,-2.1e-4 z m -44.55132,-0.86158 -0.40484,-4.6e-4 v -0.29443 -0.29443 l 0.0368,-0.002 0.0368,-0.002 1.39852,-0.009 1.39853,-0.009 0.78865,0.0245 0.78864,0.0245 0.28391,-0.0246 0.28391,-0.0246 0.12619,-0.0228 0.12618,-0.0228 0.23133,-0.0698 0.23134,-0.0698 0.36803,-0.0939 0.36804,-0.0939 0.16824,-0.0324 0.16824,-0.0324 0.17876,-0.0228 0.17876,-0.0228 0.24185,-0.0204 0.24185,-0.0204 0.80465,-1.9e-4 0.80464,-1.9e-4 0.20352,-0.0328 0.20352,-0.0327 0.0127,-0.008 0.0127,-0.008 0.52488,-0.13642 0.52489,-0.13642 0.19979,-0.0329 0.19979,-0.0329 0.6204,-0.0645 0.6204,-0.0645 0.24185,-0.0218 0.24185,-0.0218 0.16824,0.0134 0.16825,0.0134 0.31545,0.0606 0.31546,0.0606 0.22082,0.0253 0.22082,0.0253 0.24427,-0.0122 0.24427,-0.0122 0.13428,-0.0441 0.13428,-0.0441 0.0995,-0.0528 0.0995,-0.0528 0.11084,-0.0308 0.11085,-0.0308 0.29693,-0.0507 0.29694,-0.0507 0.0921,-0.0238 0.0921,-0.0238 0.14721,-0.0559 0.14721,-0.0559 0.1367,-0.085 0.1367,-0.0851 0.12618,-0.0563 0.12619,-0.0563 0.25236,-0.0722 0.25237,-0.0722 0.24185,-0.0682 0.24185,-0.0682 0.32597,-0.17392 0.32597,-0.17392 0.15773,-0.043 0.15773,-0.043 0.19243,-0.0334 0.19243,-0.0334 0.22818,-0.0321 0.22818,-0.0321 0.42061,-0.012 0.42061,-0.012 0.39633,0.0338 0.39634,0.0338 0.38179,-1.9e-4 0.3818,-1.9e-4 0.26288,-0.031 0.26288,-0.031 0.24185,-0.013 0.24185,-0.013 0.19979,0.0433 0.19979,0.0433 0.1367,0.0302 0.1367,0.0302 0.19979,0.0259 0.19979,0.0259 0.23761,-0.0146 0.23761,-0.0146 0.13042,-0.0622 0.13042,-0.0622 0.11819,-0.0847 0.11819,-0.0847 0.12366,-0.0321 0.12367,-0.0321 0.26288,-0.0591 0.26288,-0.0591 0.0631,-0.0208 0.0631,-0.0208 0.0841,-0.0229 0.0841,-0.0229 0.21031,-0.13811 0.2103,-0.13812 0.10516,-0.0514 0.10515,-0.0514 0.15773,-0.0429 0.15773,-0.0429 0.25236,-0.0541 0.25237,-0.0541 0.26288,-2.7e-4 0.26288,-2.7e-4 0.21031,0.0358 0.2103,0.0358 0.25237,1e-5 0.25236,2e-5 0.23762,-0.0541 0.23762,-0.0541 0.16386,-0.0137 0.16386,-0.0137 0.13631,0.0237 0.13631,0.0237 0.18777,0.0613 0.18776,0.0613 0.19979,0.0343 0.19979,0.0343 0.0942,0.0183 0.0942,0.0183 0.0334,-0.0178 0.0334,-0.0179 0.0905,0.0203 0.0905,0.0203 0.028,-0.0375 0.028,-0.0375 0.10095,-0.19428 0.10095,-0.19427 0.11567,-0.004 0.11567,-0.004 0.0315,0.003 0.0316,0.003 0.2219,0.0138 0.22191,0.0138 0.0462,-0.0247 0.0462,-0.0247 v -0.0301 -0.0301 l 0.0662,-0.0754 0.0662,-0.0754 0.0232,-0.13036 0.0232,-0.13036 0.11561,-0.0105 0.11561,-0.0105 0.12618,0.0105 0.12619,0.0105 0.12618,-0.0139 0.12618,-0.0139 0.10864,-0.11903 0.10864,-0.11902 0.0137,-0.0995 0.0137,-0.0995 0.0148,-0.024 0.0148,-0.024 0.2414,-0.0214 0.2414,-0.0214 0.0833,-0.043 0.0833,-0.043 h 0.0337 0.0337 l 0.0534,-0.0578 0.0534,-0.0578 0.0691,-0.10516 0.0691,-0.10515 0.0303,-0.0245 0.0302,-0.0245 0.10021,-0.0138 0.10021,-0.0138 0.13026,-0.10667 0.13025,-0.10668 0.0342,-0.12314 0.0342,-0.12311 h 0.26995 0.26994 v 0.02 0.02 l -0.0312,0.11997 -0.0312,0.11997 -0.15147,0.19801 -0.15146,0.19802 -0.11497,0.10508 -0.11498,0.10508 -0.12529,0.0851 -0.1253,0.0851 -0.13558,0.0615 -0.13557,0.0615 -0.11355,0.0925 -0.11356,0.0925 -0.12236,0.0831 -0.12236,0.0831 -0.14048,0.0421 -0.14048,0.0422 -0.13235,0.0742 -0.13234,0.0742 -0.0974,0.1131 -0.0974,0.11311 -0.14446,0.0564 -0.14446,0.0564 -0.12619,0.014 -0.12618,0.014 -0.10142,0.0394 -0.10143,0.0394 -0.0167,-0.0103 -0.0167,-0.0103 -0.11529,0.173 -0.11528,0.173 -0.11362,0.0293 -0.11361,0.0293 -0.21031,0.0183 -0.2103,0.0183 -0.021,5.8e-4 -0.021,5.9e-4 -0.0534,-0.013 -0.0534,-0.013 -0.0938,0.10417 -0.0938,0.10418 -0.0423,0.0709 -0.0423,0.0709 -0.10155,0.068 -0.10154,0.068 -0.0349,-0.0179 -0.0349,-0.0179 -0.11557,-0.0147 -0.11557,-0.0147 -0.0342,-0.031 -0.0342,-0.031 -0.10258,-0.0398 -0.10257,-0.0398 -0.19979,-0.0798 -0.19979,-0.0798 -0.23134,0.002 -0.23133,0.002 -0.37134,0.0558 -0.37134,0.0558 -0.13339,-7e-5 -0.1334,-6e-5 -0.25236,-0.0419 -0.25237,-0.0419 -0.16312,-6e-5 -0.16313,-7e-5 -0.21542,0.0317 -0.21543,0.0317 -0.14721,0.0319 -0.14721,0.0319 -0.1367,0.0462 -0.1367,0.0462 -0.19979,0.11526 -0.19979,0.11526 -0.14721,0.0797 -0.14722,0.0797 -0.23077,0.0741 -0.23077,0.0741 -0.21087,0.044 -0.21087,0.044 -0.0859,0.0148 -0.0859,0.0148 -0.0823,0.0493 -0.0823,0.0493 -0.0421,0.0348 -0.0421,0.0348 -0.14721,0.066 -0.14721,0.066 -0.18928,0.0139 -0.18927,0.0139 -0.16825,-0.0254 -0.16824,-0.0254 -0.29443,-0.0731 -0.29442,-0.0731 -0.21031,-0.0117 -0.2103,-0.0117 -0.36804,0.0383 -0.36803,0.0383 -0.42061,-5.3e-4 -0.42061,-5.3e-4 -0.36379,-0.0351 -0.3638,-0.0351 -0.27763,2e-5 -0.27764,2e-5 -0.28391,0.0329 -0.28391,0.0329 -0.28392,0.0518 -0.28391,0.0518 -0.13127,0.0431 -0.13127,0.0431 -0.34772,0.17532 -0.34771,0.17532 -0.23605,0.0743 -0.23605,0.0743 -0.24687,0.0747 -0.24687,0.0747 h -0.0348 -0.0348 l -0.30718,0.16689 -0.30719,0.16689 -0.0631,0.0247 -0.0631,0.0247 -0.12619,0.0305 -0.12618,0.0305 -0.29443,0.0506 -0.29442,0.0506 -0.10515,0.029 -0.10516,0.029 -0.0631,0.0325 -0.0631,0.0325 -0.17876,0.0627 -0.17876,0.0627 -0.17901,0.0264 -0.17901,0.0264 -0.18902,-0.0248 -0.18903,-0.0248 -0.28391,-0.0609 -0.28391,-0.061 -0.1367,-0.0251 -0.1367,-0.0252 -0.28391,0.001 -0.28391,0.001 -0.63091,0.0643 -0.63092,0.0643 -0.16824,0.0246 -0.16825,0.0246 -0.53314,0.12454 -0.53315,0.12455 -0.0553,0.021 -0.0553,0.021 -0.16867,0.0385 -0.16867,0.0385 -0.16825,0.0161 -0.16824,0.0161 -0.8307,0.003 -0.83071,0.003 -0.2103,0.0259 -0.21031,0.026 -0.16824,0.0306 -0.16825,0.0306 -0.35752,0.0863 -0.35751,0.0863 -0.22082,0.0637 -0.22082,0.0637 -0.1367,0.0394 -0.1367,0.0394 -0.17876,0.0302 -0.17876,0.0302 -0.26288,0.0218 -0.26288,0.0218 -0.6204,-0.0246 -0.6204,-0.0246 -1.18822,0.0254 -1.18823,0.0254 -0.40483,-4.6e-4 z m 46.83543,-0.23297 -0.12145,-10e-4 -0.0886,-0.036 -0.0886,-0.036 -0.0758,-0.0733 -0.0758,-0.0733 -0.0459,-0.0736 -0.0459,-0.0736 0.002,-0.17876 0.002,-0.17876 0.0494,-0.189282 0.0494,-0.18927 0.006,-0.18434 0.006,-0.18434 -0.0218,-0.0573 -0.0218,-0.0573 -0.0324,-0.16846 -0.0324,-0.16845 0.0121,-0.14825 0.0121,-0.14825 0.0481,-0.12515 0.0481,-0.12515 0.08,-0.14992 0.08,-0.14992 0.17974,-0.23914 0.17975,-0.23914 0.11867,-0.12265 0.11868,-0.12266 0.1367,-0.0673 0.13669,-0.0673 0.0571,0.007 0.0571,0.007 0.0597,0.0775 0.0597,0.0775 0.0346,0.0911 0.0346,0.0911 -0.0411,0.10418 -0.0411,0.10417 v 0.0395 0.0395 l -0.076,0.14328 -0.076,0.14328 -0.0413,0.053 -0.0413,0.053 -0.18316,0.31546 -0.18316,0.31545 -0.0453,0.11567 -0.0453,0.11567 -0.0123,0.12618 -0.0123,0.12618 0.0478,0.0828 0.0478,0.0828 0.10516,0.0373 0.10515,0.0373 0.0946,2.9e-4 0.0946,2.8e-4 0.12612,-0.0678 0.12612,-0.0678 0.10168,-0.14721 0.10168,-0.14721 0.0684,-0.1367 0.0684,-0.1367 0.0442,-0.12618 0.0442,-0.12619 0.0766,-0.25236 0.0766,-0.25237 0.0405,-0.10556 0.0405,-0.10556 v -0.0346 -0.0346 l 0.0399,-0.0911 0.0399,-0.0911 0.12307,-0.11876 0.12306,-0.11876 0.12252,-0.0348 0.12252,-0.0348 0.0983,0.0141 0.0983,0.0141 0.0631,0.0632 0.0631,0.0632 0.0215,0.10772 0.0215,0.10771 -0.0388,0.1367 -0.0388,0.13669 -0.0935,0.29094 -0.0935,0.29094 -0.0301,0.0583 -0.0301,0.0583 -0.0824,0.21922 -0.0823,0.21923 -0.0851,0.17816 -0.0851,0.17815 -0.10178,0.13917 -0.10177,0.13916 -0.11567,0.0988 -0.11567,0.0988 -0.16824,0.112982 -0.16825,0.11297 -0.16824,0.1372 -0.16824,0.1372 -0.17456,0.13951 -0.17454,0.13952 -0.1141,0.0401 -0.11409,0.0401 -0.12145,-0.001 z m -42.83438,-0.875662 -0.18928,0.005 -0.36803,-0.0136 -0.36803,-0.0136 -1.74028,-0.003 -1.74027,-0.003 v -0.26453 -0.26453 l 1.92955,0.0158 1.92955,0.0158 0.46267,0.001 0.46267,10e-4 0.18325,-0.0258 0.18325,-0.0258 0.28994,-0.0848 0.28993,-0.0849 0.23134,-0.0742 0.23133,-0.0742 0.10515,-0.0185 0.10516,-0.0185 0.30494,-0.0421 0.30494,-0.0421 0.2588,-0.0217 0.25881,-0.0217 0.85581,0.001 0.85581,0.001 0.15773,-0.0222 0.15773,-0.0222 0.26933,-0.0744 0.26934,-0.0744 0.20385,-0.07 0.20385,-0.07 0.1367,-0.0228 0.1367,-0.0228 0.14721,-0.0214 0.14722,-0.0214 0.65194,-0.0678 0.65195,-0.0678 0.44164,-2.5e-4 0.44164,-2.4e-4 0.23133,0.0455 0.23134,0.0455 0.238,0.0229 0.238,0.0229 0.28395,-0.003 0.28396,-0.003 0.14051,-0.0455 0.1405,-0.0455 0.11991,-0.078 0.11992,-0.078 0.0273,-9.2e-4 0.0273,-9.2e-4 0.0841,-0.0309 0.0841,-0.0309 0.39392,-0.0726 0.39391,-0.0726 0.0625,-0.0323 0.0624,-0.0323 0.0484,-9e-5 0.0484,-10e-5 0.12712,-0.11341 0.12712,-0.1134 0.14503,-0.0658 0.14502,-0.0658 0.32723,-0.0633 0.32722,-0.0633 0.15773,-0.0453 0.15773,-0.0453 0.22734,-0.1553 0.22734,-0.1553 0.10915,-0.0302 0.10914,-0.0301 0.16825,-0.0314 0.16824,-0.0314 0.25237,-0.0306 0.25236,-0.0306 0.31546,-0.025 0.31546,-0.025 0.41009,0.013 0.4101,0.013 0.39958,0.0223 0.39958,0.0223 0.22082,-0.0121 0.22082,-0.0121 0.37855,-0.0333 0.37855,-0.0333 0.19978,0.0113 0.19979,0.0113 0.15773,0.0313 0.15773,0.0313 0.16825,0.0273 0.16824,0.0273 0.38906,-2.8e-4 0.38907,-2.9e-4 0.11171,-0.043 0.11171,-0.043 0.11221,-0.13518 0.1122,-0.13518 0.12309,-0.0395 0.12308,-0.0395 0.0946,-0.007 0.0946,-0.007 0.2103,-0.0301 0.21031,-0.0301 0.0557,-0.0216 0.0557,-0.0216 0.0111,0.0111 0.0111,0.0111 0.0484,-0.0154 0.0484,-0.0154 0.17924,-0.17234 0.17924,-0.17233 0.0478,-0.0255 0.0477,-0.0255 0.0199,0.0123 0.0199,0.0123 0.14265,-0.0405 0.14264,-0.0405 0.1955,-0.0348 0.1955,-0.0348 0.23049,-0.0241 0.2305,-0.0241 0.26801,0.0281 0.26802,0.0281 0.28919,0.009 0.2892,0.009 0.26811,-0.0338 0.26811,-0.0338 0.23134,-0.0175 0.23133,-0.0175 0.16825,0.016 0.16824,0.016 0.1367,0.0415 0.1367,0.0415 0.16249,0.0263 0.1625,0.0263 0.20554,-0.0144 0.20553,-0.0144 0.0631,-0.006 0.0631,-0.006 0.0707,-0.0368 0.0707,-0.0368 0.0545,-0.12628 0.0545,-0.12627 0.12021,-0.0607 0.1202,-0.0607 0.072,0.003 0.072,0.003 0.0218,-0.0135 0.0218,-0.0135 0.2495,-0.0219 0.2495,-0.0219 0.0267,0.0366 0.0268,0.0366 0.0637,-0.0637 0.0637,-0.0637 -0.0192,-0.0512 -0.0192,-0.0512 0.0288,-0.0946 0.0288,-0.0946 0.0578,-0.0678 0.0578,-0.0678 0.12535,-0.0321 0.12534,-0.0321 h 0.0825 0.0825 l 0.13156,0.0242 0.13156,0.0242 0.0267,0.0809 0.0267,0.0809 0.0124,1.4e-4 0.0124,1.3e-4 0.006,0.15234 0.006,0.15233 -0.0173,0.0946 -0.0174,0.0946 -0.0264,-0.0781 -0.0264,-0.0781 -0.097,0.0604 -0.097,0.0604 -0.0541,-0.0208 -0.0541,-0.0208 -0.14553,-1.8e-4 -0.14552,-1.7e-4 -0.0502,-0.0329 -0.0502,-0.0329 -0.0934,0.0917 -0.0934,0.0917 v 0.10197 0.10198 l -0.0229,0.0987 -0.0229,0.0987 -0.0103,0.0315 -0.0103,0.0315 -0.049,-0.061 -0.049,-0.061 -0.0737,0.0435 -0.0737,0.0435 -0.0746,-0.0168 -0.0746,-0.0168 -0.19932,0.006 -0.19933,0.006 -0.0895,0.0496 -0.0895,0.0496 -0.0463,0.11552 -0.0463,0.11552 -0.0903,0.0778 -0.0903,0.0778 -0.0176,-0.0108 -0.0176,-0.0109 -0.39379,-0.007 -0.39378,-0.007 -0.14722,-0.0525 -0.14721,-0.0525 -0.0946,-0.0362 -0.0946,-0.0362 -0.17876,-5.5e-4 -0.17876,-5.6e-4 -0.224,0.0446 -0.224,0.0446 -0.29125,0.0234 -0.29125,0.0234 -0.15773,-0.0139 -0.15772,-0.0139 -0.17626,-0.03 -0.17626,-0.03 h -0.18431 -0.18431 l -0.3755,0.074 -0.3755,0.074 -0.15195,0.0469 -0.15196,0.0469 -0.17402,0.14441 -0.17401,0.1444 -0.0631,0.0267 -0.0631,0.0267 -0.0946,0.024 -0.0946,0.024 -0.29443,0.0525 -0.29443,0.0525 -0.10756,0.0312 -0.10756,0.0312 -0.13751,0.12601 -0.13751,0.12601 h -0.0239 -0.0239 l -0.0879,0.0448 -0.0879,0.0448 -0.3056,-8e-4 -0.30559,-8e-4 -0.22082,-0.0246 -0.22082,-0.0246 -0.2103,-0.0509 -0.21031,-0.0509 -0.23133,3.8e-4 -0.23134,3.8e-4 -0.27339,0.0309 -0.2734,0.0309 -0.31546,0.0135 -0.31546,0.0135 -0.50323,-0.0368 -0.50323,-0.0368 -0.44314,0.0108 -0.44314,0.0108 -0.33649,0.0445 -0.33649,0.0445 -0.20475,0.042 -0.20475,0.042 -0.10041,0.0396 -0.10041,0.0396 -0.12644,0.0741 -0.12645,0.0741 -0.11204,0.0754 -0.11204,0.0754 h -0.0381 -0.0381 l -0.11228,0.0398 -0.11228,0.0398 -0.26288,0.0572 -0.26288,0.0572 -0.1367,0.052 -0.1367,0.052 -0.0786,0.0295 -0.0786,0.0295 -0.12121,0.0934 -0.12122,0.0934 -0.12618,0.0444 -0.12618,0.0444 -0.12619,0.0325 -0.12618,0.0325 -0.27339,0.0485 -0.2734,0.0485 -0.0592,0.0233 -0.0592,0.0233 -0.046,7e-5 -0.046,6e-5 -0.12541,0.0756 -0.12542,0.0756 -0.13747,0.044 -0.13746,0.044 -0.37855,-0.002 -0.37855,-0.001 -0.19979,-0.0333 -0.19979,-0.0333 -0.24185,-0.044 -0.24185,-0.044 -0.347,0.009 -0.347,0.009 -0.60989,0.0656 -0.60988,0.0656 -0.24185,0.0318 -0.24185,0.0318 -0.14722,0.039 -0.14721,0.039 -0.43113,0.12084 -0.43112,0.12083 -0.14721,0.0219 -0.14722,0.0219 -0.94637,0.003 -0.94637,0.003 -0.29443,0.0368 -0.29443,0.0368 -0.17875,0.029 -0.17876,0.029 -0.12619,0.0306 -0.12618,0.0306 -0.38035,0.10673 -0.38034,0.10673 -0.058,0.022 -0.058,0.022 -0.15053,0.0304 -0.15053,0.0304 -0.19979,0.0121 -0.19979,0.0121 -0.18927,0.005 z m -0.0736,-1.04285 -0.68349,0.0103 -0.0105,-0.0102 -0.0105,-0.0102 -1.18822,-0.0126 -1.18823,-0.0126 -0.62565,-3.8e-4 -0.62566,-3.9e-4 v -0.25527 -0.25527 l 1.87697,0.0173 1.87697,0.0173 0.59937,6.2e-4 0.59937,6.3e-4 0.12618,-0.0279 0.12619,-0.0279 0.16824,-0.0524 0.16825,-0.0524 0.23133,-0.0895 0.23134,-0.0895 0.14721,-0.0336 0.14721,-0.0336 0.2734,-0.0318 0.2734,-0.0318 0.26288,-0.0245 0.26288,-0.0245 1.04101,-0.003 1.04101,-0.003 0.14721,-0.0378 0.14721,-0.0378 0.10516,-0.0332 0.10515,-0.0332 0.24781,-0.10321 0.24782,-0.1032 0.20434,-0.0294 0.20434,-0.0294 0.347,-0.0324 0.34701,-0.0324 0.37855,-0.0308 0.37854,-0.0308 0.29443,-0.0138 0.29443,-0.0138 0.27389,0.0237 0.2739,0.0237 0.0521,0.0104 0.0521,0.0104 0.3241,0.0314 0.32409,0.0314 0.28579,-5.6e-4 0.28579,-5.5e-4 0.14722,-0.0389 0.14721,-0.0389 0.0841,-0.0723 0.0841,-0.0723 0.0987,-0.0673 0.0988,-0.0672 0.16413,-0.0295 0.16413,-0.0295 0.24185,-0.0247 0.24185,-0.0247 0.11228,-0.0402 0.11228,-0.0402 h 0.0381 0.0381 l 0.11148,-0.14618 0.11147,-0.14617 0.10616,-0.045 0.10616,-0.045 0.30495,-0.0394 0.30494,-0.0394 0.10515,-0.0132 0.10515,-0.0132 0.10516,-0.0329 0.10515,-0.0328 0.14721,-0.12968 0.14722,-0.12968 0.10515,-0.0608 0.10515,-0.0608 0.11567,-0.0153 0.11567,-0.0153 0.347,-0.0326 0.347,-0.0326 0.4837,-0.019 0.4837,-0.019 0.43113,0.0174 0.43112,0.0174 0.38907,0.002 0.38906,0.001 0.579,-0.0253 0.57899,-0.0253 0.49356,0.0462 0.49356,0.0462 0.30368,-2e-4 0.30368,-1.9e-4 0.12426,-0.0257 0.12426,-0.0257 0.0704,-0.13733 0.0704,-0.13732 0.0428,-0.0631 0.0429,-0.0631 0.10022,-0.004 0.10021,-0.004 0.37855,-0.0317 0.37855,-0.0317 0.0902,-0.0131 0.0902,-0.0131 0.0618,-0.0985 0.0618,-0.0985 4e-4,-0.0231 4e-4,-0.0231 0.12103,-0.11543 0.12102,-0.11544 0.23124,-0.0161 0.23124,-0.0161 1.44058,-0.0123 1.44059,-0.0123 0.19852,0.003 0.19853,0.003 0.14813,0.023 0.14813,0.023 0.32632,-0.0123 0.32632,-0.0123 0.14722,0.0166 0.14721,0.0166 -0.004,0.11567 -0.004,0.11566 -0.0172,0.11509 -0.0172,0.11509 -0.083,0.0464 -0.083,0.0464 -0.0399,-0.0214 -0.0399,-0.0214 -0.0505,0.0127 -0.0505,0.0127 -0.41552,-0.0325 -0.41551,-0.0325 -0.23133,-0.0334 -0.23134,-0.0334 -0.2103,0.0134 -0.21031,0.0134 -0.12618,0.0187 -0.12618,0.0187 -0.45216,0.002 -0.45216,0.002 -0.31076,-0.0249 -0.31076,-0.0249 -0.39376,0.0462 -0.39376,0.0462 -0.0897,0.0205 -0.0897,0.0205 h -0.0703 -0.0703 l -0.0908,0.0719 -0.0908,0.0719 -0.0762,0.11066 -0.0762,0.11066 -0.054,0.0403 -0.054,0.0403 -0.0711,0.006 -0.0711,0.006 -0.2103,0.025 -0.21031,0.025 -0.1586,0.0168 -0.1586,0.0168 -0.0449,0.024 -0.0449,0.024 -0.0333,-0.0128 -0.0333,-0.0128 -0.0349,0.0286 -0.0349,0.0286 -0.0909,0.14021 -0.0909,0.1402 -0.13165,0.0438 -0.13165,0.0438 -0.41,-0.009 -0.41,-0.009 -0.20887,-0.0328 -0.20888,-0.0328 -0.24,-0.0223 -0.24001,-0.0223 -0.47646,0.0356 -0.47647,0.0356 -0.65194,-0.0183 -0.65195,-0.0183 -0.4837,9.8e-4 -0.4837,9.8e-4 -0.29443,0.0264 -0.29442,0.0264 -0.25806,0.031 -0.25806,0.031 -0.0535,0.0203 -0.0535,0.0203 h -0.054 -0.054 l -0.0761,0.0467 -0.0761,0.0467 -0.16825,0.12929 -0.16824,0.12928 -0.14721,0.0435 -0.14722,0.0435 -0.1367,0.0222 -0.13669,0.0222 -0.22082,0.0338 -0.22083,0.0338 -0.0946,0.0343 -0.0946,0.0343 -0.16007,0.15289 -0.16006,0.15289 -0.0292,-1e-5 h -0.0292 l -0.12618,0.0414 -0.12618,0.0414 -0.18928,0.0231 -0.18927,0.0232 -0.1367,0.023 -0.1367,0.023 -0.14382,0.0593 -0.14381,0.0593 -0.1079,0.0793 -0.10789,0.0793 -0.0953,0.0272 -0.0953,0.0272 -0.16824,0.0179 -0.16824,0.0178 -0.33289,-0.0185 -0.33288,-0.0185 -0.29803,-0.0469 -0.29803,-0.0469 -0.45216,-6.7e-4 -0.45215,-6.6e-4 -0.49422,0.0491 -0.49422,0.0491 -0.347,0.0408 -0.347,0.0408 -0.10516,0.0172 -0.10515,0.0172 -0.22082,0.084 -0.22082,0.084 -0.14909,0.045 -0.14908,0.045 -0.15586,0.0368 -0.15585,0.0368 -0.98844,0.003 -0.98843,0.003 -0.26288,0.0246 -0.26288,0.0246 -0.16825,0.0208 -0.16824,0.0208 -0.14721,0.0222 -0.14722,0.0222 -0.12618,0.0317 -0.12618,0.0317 -0.30495,0.10283 -0.30494,0.10284 -0.19979,0.0556 -0.19979,0.0556 -0.68349,0.0103 z m 37.81283,-0.43112 -0.0736,0.0331 -0.13669,-0.0629 -0.1367,-0.0629 -0.0596,-0.0713 -0.0596,-0.0713 -0.0273,-0.12125 -0.0273,-0.12125 -0.0118,-0.32614 -0.0118,-0.32614 -0.0572,-0.23117 -0.0572,-0.23116 -10e-4,-0.24186 -0.001,-0.24185 0.0995,-0.29483 0.0995,-0.29484 0.032,-0.15732 0.032,-0.15732 0.013,-0.4469 0.013,-0.44689 h 0.39649 0.39649 l -4.4e-4,0.0263 -4.2e-4,0.0263 -0.0301,0.30494 -0.0301,0.30494 -0.034,0.17672 -0.034,0.17671 -0.0627,0.1808 -0.0627,0.18081 -0.0606,0.18927 -0.0606,0.18928 -0.0354,0.13669 -0.0354,0.1367 3.2e-4,0.18928 3.1e-4,0.18927 0.0532,0.11821 0.0532,0.1182 0.1275,0.11089 0.1275,0.1109 0.0211,0.0759 0.0211,0.0758 2.1e-4,0.0946 2.1e-4,0.0946 -0.0308,0.16085 -0.0308,0.16086 -0.0412,0.0915 -0.0412,0.0915 -0.0239,0.0653 -0.0239,0.0653 -0.0566,-6.4e-4 -0.0566,-6.4e-4 -0.0736,0.0331 z m -37.82334,-0.57679 -0.37855,-0.003 -0.39958,-0.0145 -0.39958,-0.0145 -1.57203,-0.003 -1.57203,-0.003 v -0.25525 -0.25525 l 2.01367,0.0173 2.01367,0.0173 0.45216,-1e-5 0.45215,-2e-5 0.14711,-0.0264 0.14711,-0.0264 0.12629,-0.0425 0.12628,-0.0425 0.23622,-0.11746 0.23621,-0.11746 0.11079,-0.0164 0.11079,-0.0164 0.24185,-0.0312 0.24185,-0.0312 0.31546,-0.0256 0.31546,-0.0256 1.11461,-0.003 1.11462,-0.003 0.11567,-0.0275 0.11566,-0.0275 0.14555,-0.0515 0.14554,-0.0515 0.10617,-0.078 0.10617,-0.078 0.0953,-0.0278 0.0953,-0.0278 0.11567,-0.0189 0.11567,-0.0189 0.2103,-0.0208 0.21031,-0.0208 0.4837,-0.0333 0.4837,-0.0333 0.50473,-0.0122 0.50473,-0.0122 0.60726,0.0468 0.60725,0.0468 0.31809,-0.0115 0.31809,-0.0115 0.0637,-0.008 0.0637,-0.008 0.0333,-0.0194 0.0333,-0.0194 0.10818,-0.12431 0.10818,-0.12431 0.0788,-0.0543 0.0788,-0.0543 0.0946,-0.004 0.0946,-0.004 0.28391,-0.0224 0.28392,-0.0224 0.10515,-0.025 0.10515,-0.025 0.0402,-0.003 0.0402,-0.003 0.0965,-0.17857 0.0965,-0.17858 0.0232,-0.0378 0.0232,-0.0378 0.0476,0.0255 0.0476,0.0255 0.0764,-0.0327 0.0764,-0.0327 0.38907,-0.023 0.38906,-0.023 0.1136,-0.0198 0.1136,-0.0198 0.0262,-0.0369 0.0262,-0.0369 0.064,-0.0802 0.064,-0.0802 0.0353,-0.10613 0.0352,-0.10613 0.082,0.0131 0.082,0.0131 0.047,-0.0302 0.047,-0.0302 0.57834,-0.007 0.57834,-0.007 2.73396,0.004 2.73397,0.004 -0.0391,-0.0288 -0.0391,-0.0288 0.05,-0.0906 0.05,-0.0906 0.69557,-0.005 0.69557,-0.006 -0.0149,0.0984 -0.0149,0.0984 -0.0384,0.0281 -0.0384,0.0281 -0.0748,2.1e-4 -0.0749,2.1e-4 -0.39433,0.007 -0.39432,0.007 -0.0138,0.0138 -0.0138,0.0138 -0.10968,-0.0129 -0.10969,-0.0129 -0.1188,0.24155 -0.1188,0.24156 -0.10996,0.0132 -0.10996,0.0132 -0.38907,-5.3e-4 -0.38906,-5.2e-4 -0.22082,-0.0214 -0.22082,-0.0214 -0.70452,0.005 -0.70452,0.005 -1.45111,9.8e-4 -1.4511,9.9e-4 -0.37855,0.0286 -0.37855,0.0286 -0.0994,0.0603 -0.0994,0.0603 -0.0318,-0.0122 -0.0318,-0.0122 -0.0146,0.039 -0.0146,0.039 -0.11417,0.12991 -0.11417,0.12992 -0.0977,0.0234 -0.0977,0.0234 -0.0945,0.009 -0.0944,0.009 -0.22082,0.0255 -0.22082,0.0255 -0.0841,0.003 -0.0841,0.003 -0.0991,0.0382 -0.0991,0.0382 -0.0294,-0.0113 -0.0294,-0.0113 -0.0713,0.11574 -0.0713,0.11574 -0.0441,0.0665 -0.0441,0.0665 -0.0246,-0.005 -0.0246,-0.005 -0.0785,0.0343 -0.0785,0.0343 -0.30494,0.0284 -0.30495,0.0284 -0.12618,0.0174 -0.12618,0.0174 -0.0526,0.0281 -0.0526,0.0281 -0.16364,0.15555 -0.16363,0.15554 -0.0199,-0.0123 -0.0199,-0.0123 -0.087,0.0234 -0.087,0.0234 -0.13961,0.004 -0.1396,0.005 -0.35979,-0.0153 -0.35979,-0.0153 -0.30267,-0.0351 -0.30267,-0.0351 -0.63092,0.012 -0.63091,0.012 -0.46268,0.0416 -0.46267,0.0416 -0.25236,0.0253 -0.25237,0.0253 -0.1367,0.0452 -0.13669,0.0452 -0.11567,0.066 -0.11567,0.066 -0.13219,0.0443 -0.1322,0.0443 -0.1412,0.0357 -0.1412,0.0357 -1.1041,0.002 -1.1041,0.002 -0.35752,0.0354 -0.35752,0.0354 -0.15773,0.0219 -0.15773,0.0219 -0.14721,0.0298 -0.14722,0.0298 -0.23133,0.10366 -0.23134,0.10365 -0.18927,0.0552 -0.18928,0.0552 -0.19978,0.0198 -0.19979,0.0198 -0.37855,-0.003 z m 0.0631,-1.00953 -0.0421,-0.003 -0.55731,-0.0144 -0.55731,-0.0144 -1.61409,-0.003 -1.61409,-0.003 v -0.25524 -0.25525 l 2.59201,0.008 2.59201,0.008 0.16329,-0.0529 0.1633,-0.0529 0.12446,-0.10956 0.12447,-0.10955 h 0.0338 0.0338 l 0.0825,-0.0421 0.0824,-0.0421 h 0.0629 0.0629 l 0.10093,-0.02 0.10093,-0.02 0.4101,-0.0256 0.41009,-0.0255 1.25132,-0.002 1.25131,-0.002 0.18746,-0.0526 0.18746,-0.0526 0.12495,-0.15151 0.12495,-0.1515 0.058,0.0116 0.058,0.0116 0.0623,-0.0322 0.0623,-0.0322 0.52421,-0.0258 0.52422,-0.0258 1.01998,-0.002 1.01997,-0.002 0.73607,0.0105 0.73607,0.0105 0.0526,-0.0154 0.0526,-0.0153 0.0465,-0.0726 0.0465,-0.0726 0.0128,-0.051 0.0128,-0.051 0.1089,-0.10656 0.10889,-0.10655 0.56605,-0.0121 0.56605,-0.0121 0.0114,-0.0114 0.0114,-0.0114 -0.0464,-0.0121 -0.0464,-0.0121 v -0.0111 -0.0111 l 0.0578,-0.0915 0.0578,-0.0915 0.76235,-4e-5 0.76236,-4e-5 v 0.0124 0.0124 l -0.073,0.0853 -0.073,0.0853 0.0102,0.0165 0.0102,0.0165 -0.0161,0.01 -0.0161,0.01 -0.51525,0.007 -0.51525,0.007 -0.0254,0.0184 -0.0255,0.0184 -0.10046,-0.0214 -0.10047,-0.0214 -0.001,0.004 -0.001,0.004 -0.0992,0.21031 -0.0991,0.2103 4e-5,0.0368 5e-5,0.0368 -0.0158,0.002 -0.0158,0.002 -0.0526,0.005 -0.0526,0.005 -0.1367,0.0148 -0.1367,0.0148 -0.22082,0.012 -0.22082,0.012 -0.10515,0.003 -0.10515,0.003 -0.0976,0.0703 -0.0976,0.0703 -0.0636,0.098 -0.0636,0.098 -0.0505,0.0474 -0.0505,0.0474 -0.0932,0.0106 -0.0932,0.0106 -0.41009,-9e-5 -0.4101,-1e-4 -0.32597,-0.0248 -0.32597,-0.0248 -0.67298,9.8e-4 -0.67297,9.9e-4 -0.45216,0.0239 -0.45216,0.0239 -0.33648,0.0239 -0.33649,0.0239 -0.0809,0.0405 -0.0809,0.0405 -0.0314,-0.0121 -0.0314,-0.0121 -0.13127,0.11524 -0.13126,0.11525 -0.15597,0.0528 -0.15597,0.0528 -0.2734,0.0237 -0.27339,0.0237 -0.74659,-0.0144 -0.74658,-0.0144 -0.45023,0.0235 -0.45023,0.0235 -0.29635,0.031 -0.29635,0.031 -0.10516,0.0167 -0.10515,0.0167 -0.10361,0.0464 -0.1036,0.0464 -0.12906,0.0815 -0.12905,0.0815 -0.17744,0.0562 -0.17743,0.0562 -0.35752,0.0191 -0.35751,0.019 -0.0421,-0.003 z m -1.79282,-1.03659 h -2.59197 l -4e-5,-0.24504 -3e-5,-0.24505 0.13144,-0.0154 0.13144,-0.0154 2.49211,0.008 2.49212,0.008 0.11567,-0.0183 0.11566,-0.0183 0.0896,-0.0972 0.0896,-0.0972 0.0449,-0.11585 0.0449,-0.11586 0.11783,-0.005 0.11783,-0.005 0.90431,-0.0205 0.90431,-0.0204 0.90431,0.0123 0.90431,0.0123 0.20619,-0.0155 0.2062,-0.0155 0.0754,-0.11362 0.0754,-0.11361 h 2.57589 2.57589 l -0.0131,0.0657 -0.0131,0.0657 -3.2e-4,0.0237 -3.2e-4,0.0237 -0.0199,0.0316 -0.0199,0.0315 -2.27732,0.001 -2.27731,0.002 -0.22468,0.017 -0.22468,0.017 -0.0258,0.0622 -0.0258,0.0622 -0.0832,0.12952 -0.0832,0.12953 -0.007,0.008 -0.007,0.008 -0.13258,0.0312 -0.13258,0.0312 -1.4511,0.005 -1.4511,0.005 -0.4204,0.0264 -0.4204,0.0264 -0.079,0.0403 -0.079,0.0403 -0.0481,-0.0121 -0.0481,-0.0121 -0.0452,0.08 -0.0452,0.08 -0.0908,0.0748 -0.0908,0.0748 -0.14721,0.0409 -0.14721,0.0409 z m 32.04047,-0.91848 -0.0761,0.0843 -0.0384,-0.0291 -0.0384,-0.0291 -0.13338,-6.7e-4 -0.13339,-6.7e-4 -0.1336,-0.13359 -0.13359,-0.1336 0.0118,-0.0452 0.0118,-0.0452 h 0.38609 0.3861 l -0.021,0.0552 -0.021,0.0552 0.005,0.0691 0.005,0.0691 z m -2.6477,-0.0174 h -0.0185 v -0.0404 -0.0404 l -0.065,-0.0143 -0.065,-0.0143 0.0121,-0.0452 0.0121,-0.0452 2.9e-4,-0.0578 2.9e-4,-0.0578 h 0.5038 0.5038 l -0.0312,0.0883 -0.0312,0.0883 -0.0313,0.0346 -0.0313,0.0346 -0.11013,0.0236 -0.11013,0.0236 -0.15314,0.0101 -0.15313,0.0101 -0.0821,-0.029 -0.0821,-0.0289 -0.025,0.0301 -0.025,0.0301 z m -29.23833,-0.07359 h -2.74644 l -2e-5,-0.12093 -2e-5,-0.12092 h 2.84055 2.84055 l -0.0424,0.0578 -0.0424,0.0578 -0.0517,0.0631 -0.0517,0.0631 z"
       style="fill:none;stroke-width:0.0210305;stroke:#000000;stroke-opacity:1" />
  </g>
</svg>
