<?xml version="1.0" encoding="UTF-8" standalone="no"?> <!-- Created with Vectornator for iOS (http://vectornator.io/) --><!DOCTYPE svg PUBLIC "-//W3C//DTD SVG 1.1//EN" "http://www.w3.org/Graphics/SVG/1.1/DTD/svg11.dtd">
<svg style="fill-rule:nonzero;clip-rule:evenodd;stroke-linecap:round;stroke-linejoin:round;" version="1.1" viewBox="0 0 595.35 841.995" xml:space="preserve" xmlns="http://www.w3.org/2000/svg" xmlns:vectornator="http://vectornator.io" xmlns:xlink="http://www.w3.org/1999/xlink">
<metadata>
<vectornator:setting key="IsTimeLapseWatermarkDisabled" value="false"/>
<vectornator:setting key="UndoHistoryDisabled" value="true"/>
<vectornator:setting key="VNDimensionsVisible" value="true"/>
<vectornator:setting key="VNSnapToGuides" value="true"/>
<vectornator:setting key="WDCMYKEnabledKey" value="false"/>
<vectornator:setting key="WDDisplayWhiteBackground" value="false"/>
<vectornator:setting key="WDDynamicGuides" value="false"/>
<vectornator:setting key="WDGuidesVisible" value="true"/>
<vectornator:setting key="WDIsolateActiveLayer" value="false"/>
<vectornator:setting key="WDOutlineMode" value="false"/>
<vectornator:setting key="WDRulersVisible" value="true"/>
<vectornator:setting key="WDSnapToEdges" value="false"/>
<vectornator:setting key="WDSnapToGrid" value="false"/>
<vectornator:setting key="WDSnapToPoints" value="false"/>
<vectornator:setting key="WDUnits" value="Millimeters"/>
</metadata>
<defs/>
<g id="Layer 1" vectornator:layerName="Layer 1">
<path d="M152.779 286.508L146.995 223.559L129.743 284.374L135.625 221.434L107.492 278.043L124.839 217.255L86.7837 267.731L115.005 211.166L68.3223 253.79L106.457 203.373L52.737 236.693L99.4859 194.143L40.5585 217.024L94.3301 183.788L32.2015 195.452L91.1646 172.663L27.9506 172.712L90.0973 161.145L27.9506 149.578L91.1646 149.628L32.2015 126.838L94.3301 138.502L40.5585 105.266L99.4859 128.148L52.737 85.5972L106.457 118.917L68.3223 68.5009L115.005 111.124L86.7837 54.5595L124.839 105.035L107.492 44.2478L135.625 100.857L129.743 37.9168L146.995 98.7311L152.779 35.7823L158.562 98.7311L175.814 37.9168L169.932 100.857L198.065 44.2478L180.718 105.035L218.774 54.5595L190.553 111.124L237.235 68.5009L199.101 118.917L252.821 85.5972L206.072 128.148L264.999 105.266L211.228 138.502L273.356 126.838L214.393 149.628L277.607 149.578L215.46 161.145L277.607 172.712L214.393 172.663L273.356 195.452L211.228 183.788L264.999 217.024L206.072 194.143L252.821 236.693L199.101 203.373L237.235 253.79L190.553 211.166L218.774 267.731L180.718 217.255L198.065 278.043L169.932 221.434L175.814 284.374L158.562 223.559L152.779 286.508Z" fill="#000000" opacity="1" stroke="#0000cd" stroke-linecap="butt" stroke-linejoin="miter" stroke-width="1"/>
</g>
</svg>
