<?xml version="1.0" encoding="UTF-8" standalone="no"?>
<svg
   xmlns:dc="http://purl.org/dc/elements/1.1/"
   xmlns:cc="http://creativecommons.org/ns#"
   xmlns:rdf="http://www.w3.org/1999/02/22-rdf-syntax-ns#"
   xmlns:svg="http://www.w3.org/2000/svg"
   xmlns="http://www.w3.org/2000/svg"
   xmlns:sodipodi="http://sodipodi.sourceforge.net/DTD/sodipodi-0.dtd"
   xmlns:inkscape="http://www.inkscape.org/namespaces/inkscape"
   sodipodi:docname="25percent_uniform.svg"
   inkscape:version="1.0 (4035a4fb49, 2020-05-01)"
   id="svg8"
   version="1.1"
   viewBox="0 0 297 210"
   height="210mm"
   width="297mm">
  <defs
     id="defs2" />
  <sodipodi:namedview
     inkscape:window-maximized="1"
     inkscape:window-y="-4"
     inkscape:window-x="-8"
     inkscape:window-height="1009"
     inkscape:window-width="1920"
     showgrid="false"
     inkscape:document-rotation="0"
     inkscape:current-layer="layer1"
     inkscape:document-units="mm"
     inkscape:cy="560"
     inkscape:cx="400"
     inkscape:zoom="0.34066125"
     inkscape:pageshadow="2"
     inkscape:pageopacity="0.0"
     borderopacity="1.0"
     bordercolor="#666666"
     pagecolor="#ffffff"
     id="base" />
  <metadata
     id="metadata5">
    <rdf:RDF>
      <cc:Work
         rdf:about="">
        <dc:format>image/svg+xml</dc:format>
        <dc:type
           rdf:resource="http://purl.org/dc/dcmitype/StillImage" />
        <dc:title></dc:title>
      </cc:Work>
    </rdf:RDF>
  </metadata>
  <g
     id="layer1"
     inkscape:groupmode="layer"
     inkscape:label="Layer 1">
    <path
       d="m 220.72461,92.424415 h -2.84437 L 192.93446,117.4039 h 2.84437 z m 0.70908,2.108161 -22.84046,22.871324 h 2.84436 l 19.9961,-20.023116 z m -6.36784,-2.10816 h -2.84437 L 187.2757,117.4039 h 2.84437 z m 6.36784,7.774564 -17.1817,17.20492 h 2.84364 l 14.33806,-14.35744 z m -12.0266,-7.774564 -2.84438,-10e-7 -24.94577,24.979485 h 2.84436 z m 12.0266,13.440244 -11.52367,11.53924 h 2.84437 l 8.6793,-8.69103 z m -17.68537,-13.440244 -2.84363,1e-6 -24.94578,24.979483 h 2.84363 z m 17.68537,19.106654 -5.8649,5.87283 h 2.84436 l 3.02054,-3.02462 z m -23.3434,-19.106654 -2.84436,-10e-7 -24.94579,24.979485 h 2.84437 z m 23.3434,24.773064 -0.20615,0.20642 h 0.20615 z m -29.00216,-24.773063 -2.84437,-2e-6 -24.94578,24.979485 h 2.84436 z m -5.65876,0 H 183.9284 L 158.98261,117.4039 h 2.84437 z m -5.65877,-1e-6 -2.84436,1e-6 -24.94579,24.979483 h 2.84436 z m -5.65876,1e-6 -2.84364,-1e-6 -24.94578,24.979484 h 2.84363 z m -5.65804,-2e-6 -2.84436,2e-6 -24.94579,24.979483 h 2.84437 z m -5.65876,2e-6 h -2.84437 L 136.34829,117.4039 h 2.84437 z m -5.65876,0 H 155.6353 L 130.68952,117.4039 h 2.84437 z m -5.65877,-1e-6 -2.84437,1e-6 -24.94577,24.979483 h 2.84436 z m -5.65876,1e-6 -2.84363,-1e-6 -24.94579,24.979484 h 2.84364 z m -5.65803,-1e-6 h -2.84437 L 113.71397,117.4039 h 2.84437 z m -5.65876,5e-6 h -2.84437 L 108.05521,117.4039 h 2.84436 z m -5.65878,-7e-6 h -2.84436 l -24.94577,24.979476 h 2.84436 z m -5.65875,0 h -2.84437 L 96.737684,117.4039 h 2.844365 z m -5.65876,0 -2.84364,7e-6 -24.945779,24.979479 h 2.843635 z m -5.65803,0 h -2.84438 L 85.420878,117.4039 h 2.844375 z m -5.65877,0 h -2.84436 L 79.762125,117.4039 h 2.844365 z m -5.65876,7e-6 H 99.049136 L 74.103362,117.4039 h 2.844365 z m -5.658762,0 -2.844375,-7e-6 -21.936204,21.965836 1e-5,2.84822 z m -5.628795,-7e-6 -2.843635,7e-6 -16.308139,16.330169 v 2.84748 z m -5.658032,0 h -2.844366 l -10.649376,10.663766 -1e-5,2.84821 z m -5.658764,0 h -2.844365 l -4.990613,4.997361 v 2.848205 z m -5.658753,0 h -2.176225 v 2.179166 z"
       style="fill:#010101;stroke:none;stroke-width:0.0211848"
       id="path847" />
    <path
       d="m 71.454179,92.424424 v 1.536466 l 23.431858,23.46351 h 2.844366 L 72.764151,92.424424 Z m 4.12364,0 24.966251,24.999966 h 2.84437 L 78.422184,92.424424 Z m -4.12363,4.354656 v 2.848208 l 17.773095,17.797102 h 2.844366 z m 9.782393,-4.354656 24.966238,24.999976 h 2.84437 L 84.080949,92.424434 Z M 71.454179,102.4455 v 2.84821 l 12.114332,12.13069 h 2.844366 z M 86.895357,92.424414 111.8616,117.42439 h 2.84436 L 89.739722,92.424414 Z M 71.454189,108.1119 v 2.8482 l 6.455567,6.46429 h 2.844366 z M 92.524132,92.424424 117.49038,117.4244 h 2.84437 L 95.368497,92.424434 Z m -21.069963,21.353886 1e-5,2.84821 0.796794,0.79788 h 2.844366 z M 98.182905,92.424414 123.14915,117.42439 h 2.84437 L 101.02727,92.424414 Z m 5.658035,0 24.96625,24.999976 h 2.84436 L 106.6853,92.424414 Z m 5.65876,1e-5 24.96624,24.999976 h 2.84436 L 112.34407,92.424424 Z m 5.65875,1e-5 24.96625,24.999966 2.84437,10e-6 -24.96625,-24.999976 z m 5.65878,-2e-5 24.96624,24.999976 h 2.84437 L 123.66159,92.424424 Z m 5.65875,1e-5 24.96625,24.999976 h 2.84436 L 129.32034,92.424424 Z m 5.65803,0 24.96625,24.999976 h 2.84437 L 134.97838,92.424424 Z m 5.65875,1e-5 24.96625,24.999976 h 2.84437 L 140.63713,92.424434 Z m 5.65879,-1e-5 24.96624,24.999966 2.84436,1e-5 -24.96624,-24.999976 z m 5.65875,0 24.96625,24.999976 h 2.84436 L 151.95467,92.424434 Z m 5.65877,-1e-5 24.96625,24.999976 h 2.84437 L 157.61344,92.424414 Z m 5.65802,2e-5 24.96624,24.999976 2.84439,-2e-5 -24.96625,-24.999976 z m 5.65877,-1e-5 24.96625,24.999976 h 2.84436 L 168.93022,92.424424 Z m 5.65875,1e-5 24.96625,24.999966 2.84437,10e-6 -24.96625,-24.999976 z m 5.65877,-2e-5 24.96625,24.999976 H 205.214 L 180.24775,92.424424 Z m 5.65877,1e-5 24.96625,24.999976 h 2.84436 L 185.90651,92.424424 Z m 5.65803,0 24.96625,24.999976 h 2.84436 L 191.56455,92.424424 Z m 5.65875,1e-5 24.96625,24.999976 2.10898,-10e-6 1e-5,-0.7364 -24.23085,-24.263586 z m 5.65878,-1e-5 21.41645,21.445386 V 111.0216 L 202.88207,92.424424 Z m 5.65875,0 15.75769,15.778986 v -2.8482 L 208.54082,92.424434 Z m 5.65877,-1e-5 10.09893,10.112576 v -2.848212 l -7.25456,-7.264364 z m 5.65804,0 4.4409,4.446895 v -2.848208 l -1.59653,-1.598687 z"
       style="fill:#010101;stroke:none;stroke-width:0.0211848"
       id="path847-4" />
    <rect
       y="92.466599"
       x="71.496353"
       height="24.915636"
       width="149.91563"
       id="rect872"
       style="fill:none;stroke:#000000;stroke-width:0.0843634" />
    <rect
       y="69.900818"
       x="49.707249"
       height="71.454163"
       width="198.05231"
       id="rect874"
       style="fill:none;stroke:#000000;stroke-width:0.121" />
  </g>
</svg>
