<?xml version="1.0" encoding="UTF-8" standalone="no"?>
<svg
   xmlns:dc="http://purl.org/dc/elements/1.1/"
   xmlns:cc="http://creativecommons.org/ns#"
   xmlns:rdf="http://www.w3.org/1999/02/22-rdf-syntax-ns#"
   xmlns:svg="http://www.w3.org/2000/svg"
   xmlns="http://www.w3.org/2000/svg"
   xmlns:sodipodi="http://sodipodi.sourceforge.net/DTD/sodipodi-0.dtd"
   xmlns:inkscape="http://www.inkscape.org/namespaces/inkscape"
   sodipodi:docname="40percet_uniform.svg"
   inkscape:version="1.0 (4035a4fb49, 2020-05-01)"
   id="svg8"
   version="1.1"
   viewBox="0 0 297 210"
   height="210mm"
   width="297mm">
  <defs
     id="defs2" />
  <sodipodi:namedview
     inkscape:window-maximized="1"
     inkscape:window-y="-4"
     inkscape:window-x="-8"
     inkscape:window-height="1009"
     inkscape:window-width="1920"
     showgrid="false"
     inkscape:document-rotation="0"
     inkscape:current-layer="layer1"
     inkscape:document-units="mm"
     inkscape:cy="547.50029"
     inkscape:cx="359.45726"
     inkscape:zoom="0.68132251"
     inkscape:pageshadow="2"
     inkscape:pageopacity="0.0"
     borderopacity="1.0"
     bordercolor="#666666"
     pagecolor="#ffffff"
     id="base" />
  <metadata
     id="metadata5">
    <rdf:RDF>
      <cc:Work
         rdf:about="">
        <dc:format>image/svg+xml</dc:format>
        <dc:type
           rdf:resource="http://purl.org/dc/dcmitype/StillImage" />
        <dc:title></dc:title>
      </cc:Work>
    </rdf:RDF>
  </metadata>
  <g
     id="layer1"
     inkscape:groupmode="layer"
     inkscape:label="Layer 1">
    <path
       d="m 216.73358,91.476598 -24.31382,24.333922 h 1.79591 l 22.51791,-22.536522 z m -1.19216,-0.54499 h -1.7959 l -24.85837,24.878912 h 1.79591 z m 1.19216,4.08052 -20.78121,20.798392 h 1.79591 l 18.9853,-19.000992 z m -4.72404,-4.08052 h -1.79663 l -24.85837,24.878912 h 1.79664 z m 4.72404,7.61606 -17.24859,17.262852 h 1.7959 l 15.45269,-15.46547 z m -8.25665,-7.61606 h -1.79663 l -24.85837,24.878912 h 1.79664 z m 8.25665,11.151572 -13.71598,13.72734 h 1.79589 l 11.92009,-11.92994 z M 204.94433,90.931608 h -1.79663 l -24.85837,24.878912 h 1.79664 z m 11.78925,14.716372 -10.15415,10.16254 h 1.79664 l 8.35751,-8.36442 z M 201.41173,90.931608 h -1.79591 l -24.85837,24.878912 h 1.79592 z m 15.32185,18.251902 -6.62154,6.62701 h 1.79664 l 4.8249,-4.82889 z M 197.87912,90.931608 h -1.79591 l -24.85837,24.878912 h 1.79592 z m 18.85446,21.787432 -3.08893,3.09148 h 1.79664 l 1.29229,-1.29336 z M 194.31654,90.931608 h -1.79591 l -24.85836,24.878912 h 1.7959 z m -3.53261,0 h -1.79591 l -24.85836,24.878912 h 1.7959 z m -3.5326,0 h -1.79592 l -24.85836,24.878912 h 1.7959 z m -3.53188,0 h -1.79665 l -24.85836,24.878912 h 1.79664 z m -3.53262,0 h -1.79663 l -24.85836,24.878912 h 1.79662 z m -3.5326,0 h -1.79664 l -24.85836,24.878912 h 1.79664 z m -3.53261,0 h -1.7959 l -24.85837,24.878912 h 1.79591 z m -3.53261,0 h -1.7959 l -24.85837,24.878912 h 1.79591 z m -3.53261,0 h -1.7959 l -24.85837,24.878912 h 1.79591 z m -3.56257,0 h -1.79592 l -24.85835,24.878912 h 1.7959 z m -3.53261,0 h -1.79591 l -24.85837,24.878912 h 1.7959 z m -3.53188,0 h -1.79663 l -24.85837,24.878912 h 1.79663 z m -3.5326,0 h -1.79664 l -24.85837,24.878912 h 1.79664 z m -3.53261,0 h -1.79664 l -24.85837,24.878912 h 1.79664 z m -3.53261,0 h -1.79591 l -24.85837,24.878912 h 1.7959 z m -3.53261,0 H 139.503 l -24.85837,24.878912 h 1.79591 z m -3.53261,0 h -1.79591 l -24.85837,24.878912 h 1.79591 z m -3.53262,0 h -1.7959 l -24.85836,24.878912 h 1.79591 z m -3.56257,0 h -1.7959 l -24.85837,24.878912 h 1.79591 z m -3.53187,0 h -1.79664 l -24.85836,24.878912 h 1.79664 z m -3.53261,-1e-5 -1.79664,1e-5 -24.858358,24.878912 h 1.796624 z m -3.53262,1e-5 h -1.79663 l -24.858358,24.878922 1.796635,-1e-5 z m -3.5326,0 h -1.79592 L 89.887144,115.81052 h 1.795904 z m -3.53261,0 h -1.7959 L 86.354535,115.81052 h 1.795904 z m -3.53261,0 h -1.7959 L 82.821926,115.81053 h 1.795904 z m -3.53261,-1e-5 h -1.7959 L 79.289307,115.81052 h 1.795914 z m -3.5326,0 h -1.79591 L 75.756708,115.81052 h 1.795905 z m -3.561848,1e-5 -1.796634,-1e-5 -24.858374,24.878922 h 1.796644 z m -3.532608,0 H 93.519879 L 68.661525,115.81052 h 1.796635 z m -3.532609,0 H 89.98728 L 66.854649,114.08335 v 1.72717 h 0.07091 z m -3.53261,-1e-5 H 86.455401 L 66.854649,110.54856 v 1.79739 z m -3.532608,1e-5 -1.795904,-1e-5 -16.068144,16.081432 v 1.79739 z m -3.532609,0 H 79.390183 L 66.854649,103.4775 v 1.79739 z m -3.532609,0 h -1.795905 l -9.002925,9.01037 v 1.797382 z m -3.532599,0 h -1.795914 l -5.470317,5.47484 v 1.7974 z m -3.53189,0 h -1.796624 l -1.937717,1.93931 v 1.79812 z m -3.562573,0 h -0.171768 v 0.1719 z"
       style="fill:none;stroke:#000000;stroke-width:0.12107;stroke-miterlimit:4;stroke-dasharray:none;stroke-opacity:1"
       id="path847" />
    <path
       d="m 66.8546,91.772739 v 1.79563 l 22.249638,22.242211 h 1.79622 z m 0.89446,-0.84082 24.886958,24.878661 h 1.79623 L 69.545279,90.931919 Z m -0.89446,4.37144 v 1.7949 l 18.718578,18.712321 h 1.79548 z m 4.426253,-4.37144 24.886965,24.878661 h 1.79622 L 73.077072,90.931919 Z m -4.426253,7.90205 v 1.794901 l 15.186778,15.18171 h 1.79549 z m 7.958046,-7.90205 24.886962,24.878661 h 1.795502 L 76.608135,90.931919 Z M 66.8546,102.36458 v 1.7949 l 11.654988,11.6511 h 1.79549 z M 78.344429,90.931919 103.2314,115.81058 h 1.7955 L 80.139928,90.931919 Z M 66.8546,105.8952 v 1.79489 l 8.123195,8.12049 h 1.795489 z M 81.906188,90.931919 106.79315,115.81058 h 1.7955 L 83.701678,90.931919 Z M 66.8546,109.45503 v 1.79563 l 4.561444,4.55992 h 1.796219 z M 85.437978,90.931919 110.32494,115.81058 h 1.79551 L 87.233468,90.931919 Z M 66.8546,112.98565 v 1.79562 l 1.029651,1.02931 H 69.68047 Z M 88.969778,90.931919 113.85675,115.81058 h 1.7955 L 90.765268,90.931919 Z m 3.53106,0 24.886972,24.878661 h 1.79623 L 94.297058,90.931919 Z m 3.53178,0 24.886982,24.878661 h 1.79622 L 97.828838,90.931919 Z m 3.5318,0 24.886972,24.878661 h 1.79622 L 101.36064,90.931919 Z m 3.531792,0 24.88698,24.878661 h 1.79622 L 104.89244,90.931919 Z m 3.53179,0 24.88698,24.878661 h 1.79549 L 108.42349,90.931919 Z m 3.5318,0 24.88697,24.878661 h 1.79549 L 111.95529,90.931919 Z m 3.56176,0 24.88696,24.878661 h 1.79549 L 115.51705,90.931919 Z m 3.53179,0 24.88696,24.878661 h 1.7955 L 119.04885,90.931919 Z m 3.53106,0 24.88697,24.878661 h 1.79622 L 122.58063,90.931919 Z m 3.53179,0 24.88697,24.878661 h 1.79622 L 126.11242,90.931919 Z m 3.5318,0 24.88696,24.878661 h 1.79622 L 129.64422,90.931919 Z m 3.53179,0 24.88696,24.878661 h 1.79622 L 133.17601,90.931919 Z m 3.53179,0 24.88697,24.878661 h 1.79549 L 136.70707,90.931919 Z m 3.53179,0 24.88697,24.878661 h 1.79549 L 140.23886,90.931919 Z m 3.53143,-3.7e-4 24.88732,24.879031 h 1.79549 L 143.77029,90.931549 Z m 3.56176,0 24.88731,24.879031 h 1.79549 L 147.33205,90.931549 Z m 3.53105,0 24.88734,24.879031 h 1.79621 L 150.86384,90.931549 Z m 3.53179,0 24.88734,24.879031 h 1.79622 L 154.39563,90.931549 Z m 3.53179,0 24.88734,24.879031 h 1.79622 L 157.92741,90.931549 Z m 3.5318,0 24.88733,24.879031 h 1.79549 L 161.45848,90.931549 Z m 3.53179,0 24.88733,24.879031 h 1.79549 L 164.99027,90.931549 Z m 3.53179,0 24.88733,24.879031 h 1.7955 L 168.52205,90.931549 Z m 3.53178,0 24.88735,24.879031 h 1.79549 L 172.05384,90.931549 Z m 3.53181,0 24.88732,24.879031 h 1.7955 L 175.58565,90.931549 Z m 3.53179,0 24.88732,24.879031 h 1.7955 L 179.11744,90.931549 Z m 3.56102,0 24.88733,24.879031 h 1.79622 L 182.67919,90.931549 Z m 3.53179,0 24.88733,24.879031 h 1.79623 L 186.21098,90.931549 Z m 3.53179,0 24.88733,24.879031 h 1.79623 L 189.74277,90.931549 Z m 3.5318,0 24.88732,24.879031 h 0.36758 v -1.42745 L 193.27384,90.931549 Z m 3.53179,0 21.72311,21.715871 v -1.7949 L 196.80563,90.931549 Z m 3.53179,0 18.19132,18.185251 v -1.79489 L 200.33742,90.931549 Z m 3.53179,0 14.65953,14.654641 V 103.7913 L 203.86921,90.931549 Z m 3.5318,0 11.1281,11.124401 v -1.7949 l -9.33261,-9.329501 z m 3.53105,0 7.59705,7.59451 v -1.79563 l -5.80082,-5.79888 z m 3.56176,0 4.03529,4.03394 v -1.79562 l -2.23907,-2.23832 z m 3.53179,0 0.5035,0.50333 v -0.50333 z"
       style="fill:none;stroke:#000000;stroke-width:0.120972;stroke-miterlimit:4;stroke-dasharray:none;stroke-opacity:1"
       id="path847-7" />
    <rect
       y="90.961479"
       x="66.884529"
       height="24.819172"
       width="149.81917"
       id="rect872"
       style="fill:none;stroke:#000000;stroke-width:0.180829;stroke-miterlimit:4;stroke-dasharray:none;stroke-opacity:1" />
    <rect
       y="74.949211"
       x="42.328827"
       height="60.580708"
       width="197.66399"
       id="rect874"
       style="fill:none;stroke:#000000;stroke-width:0.121;stroke-miterlimit:4;stroke-dasharray:none;stroke-opacity:1" />
  </g>
</svg>
