<?xml version="1.0" encoding="UTF-8" standalone="no"?>
<svg
   xmlns:dc="http://purl.org/dc/elements/1.1/"
   xmlns:cc="http://creativecommons.org/ns#"
   xmlns:rdf="http://www.w3.org/1999/02/22-rdf-syntax-ns#"
   xmlns:svg="http://www.w3.org/2000/svg"
   xmlns="http://www.w3.org/2000/svg"
   xmlns:sodipodi="http://sodipodi.sourceforge.net/DTD/sodipodi-0.dtd"
   xmlns:inkscape="http://www.inkscape.org/namespaces/inkscape"
   sodipodi:docname="042mm_25percent.svg"
   inkscape:version="1.0 (4035a4fb49, 2020-05-01)"
   id="svg8"
   version="1.1"
   viewBox="0 0 297 210"
   height="210mm"
   width="297mm">
  <defs
     id="defs2" />
  <sodipodi:namedview
     inkscape:window-maximized="1"
     inkscape:window-y="-8"
     inkscape:window-x="-8"
     inkscape:window-height="1009"
     inkscape:window-width="1920"
     showgrid="false"
     inkscape:document-rotation="0"
     inkscape:current-layer="layer1"
     inkscape:document-units="mm"
     inkscape:cy="413.75014"
     inkscape:cx="593.34702"
     inkscape:zoom="0.68132251"
     inkscape:pageshadow="2"
     inkscape:pageopacity="0.0"
     borderopacity="1.0"
     bordercolor="#666666"
     pagecolor="#ffffff"
     id="base" />
  <metadata
     id="metadata5">
    <rdf:RDF>
      <cc:Work
         rdf:about="">
        <dc:format>image/svg+xml</dc:format>
        <dc:type
           rdf:resource="http://purl.org/dc/dcmitype/StillImage" />
        <dc:title></dc:title>
      </cc:Work>
    </rdf:RDF>
  </metadata>
  <g
     id="layer1"
     inkscape:groupmode="layer"
     inkscape:label="Layer 1">
    <path
       id="path847"
       d="m 58.102483,60.263294 v 1.67196 H 238.08132 v -1.67196 H 58.102483 m 0,3.34392 v 1.67195 H 238.08132 v -1.67195 H 58.102483 m 0,3.36508 v 1.67195 H 238.08132 v -1.67195 H 58.102483 m 0,3.36508 v 1.67195 H 238.08132 v -1.67195 H 58.102483 m 0,3.34391 v 1.67196 l 179.978837,0.0212 v -1.67195 l -179.978837,-0.0212 m 0,3.36508 v 1.67196 H 238.08132 v -1.67196 H 58.102483 m 0,3.36508 v 1.67196 H 238.08132 v -1.67196 H 58.102483 m 0,3.36508 v 1.67196 H 238.08132 v -1.67196 H 58.102483 m 0,3.34392 v 1.67195 l 179.978837,0.0212 v -1.67195 l -179.978837,-0.0212 m 0,3.36507 v 1.67196 H 238.08132 v -1.67197 H 58.102483 m 0,3.36508 v 1.67196 H 238.08132 v -1.67196 H 58.102483 m 0,3.36508 v 1.67196 H 238.08132 v -1.67196 H 58.102483 m 0,3.343926 v 1.67196 l 179.978837,0.0212 V 100.5808 L 58.102483,100.5596 m 0,3.36508 v 1.67196 H 238.08132 v -1.67196 H 58.102483 m 0,3.36508 v 1.67196 H 238.08132 v -1.67196 H 58.102483 m 0,3.36508 v 1.67196 H 238.08132 v -1.67196 H 58.102483 m 0,3.34391 v 1.67196 H 238.08132 v -1.67196 H 58.102483 m 0,3.36508 v 1.67196 H 238.08132 v -1.67196 H 58.102483 m 0,3.36508 v 1.67196 H 238.08132 v -1.67196 H 58.102483 m 0,3.36508 v 1.67196 H 238.08132 v -1.67196 H 58.102483 m 0,3.34391 v 1.67196 H 238.08132 V 127.4379 H 58.102483 m 0,3.36508 v 1.67196 H 238.08132 v -1.67196 H 58.102483 m 0,3.36508 v 1.67196 H 238.08132 v -1.67196 H 58.102483 m 0,3.36508 v 0.8254 c 0,0.0703 -0.02859,0.22497 0.03393,0.2745 0.116901,0.0927 0.516887,0.0218 0.664479,0.0218 h 1.862434 7.238095 32.253969 137.92593 v -1.1217 z"
       style="fill:none;stroke:#ff0000;stroke-width:0.121;stroke-miterlimit:4;stroke-dasharray:none;stroke-opacity:1" />
    <path
       id="path863"
       d="m 58.102483,60.263294 v 79.978836 h 1.67195 V 60.263294 h -1.67195 m 3.34391,0 v 79.978836 h 1.67196 V 60.263294 h -1.67196 m 3.36508,0 v 79.978836 h 1.67196 V 60.263294 h -1.67196 m 3.36508,0 v 79.978836 h 1.67196 V 60.263294 h -1.67196 m 3.36508,0 v 79.978836 h 1.67196 V 60.263294 h -1.67196 m 3.34392,0 v 79.978836 h 1.67195 V 60.263294 h -1.67195 m 3.36507,0 v 79.978836 h 1.67196 V 60.263294 h -1.67196 m 3.36508,0 v 79.978836 h 1.67196 V 60.263294 h -1.67196 m 3.36508,0 v 79.978836 h 1.67196 V 60.263294 h -1.67196 m 3.34392,0 v 79.978836 h 1.67196 V 60.263294 h -1.67196 m 3.36508,0 v 79.978836 h 1.67196 V 60.263294 h -1.67196 m 3.36508,0 v 79.978836 h 1.67196 V 60.263294 h -1.67196 m 3.36508,0 v 79.978836 h 1.671947 V 60.263294 h -1.671947 m 3.343907,0 v 79.978836 h 1.67196 V 60.263294 h -1.67196 m 3.36508,0 v 79.978836 h 1.67196 V 60.263294 h -1.67196 m 3.36508,0 v 79.978836 h 1.67196 V 60.263294 h -1.67196 m 3.36508,0 v 79.978836 h 1.67196 V 60.263294 h -1.67196 m 3.34392,0 v 79.978836 h 1.67195 V 60.263294 h -1.67195 m 3.36508,0 v 79.978836 h 1.67195 V 60.263294 h -1.67195 m 3.36507,0 v 79.978836 h 1.67196 V 60.263294 h -1.67196 m 3.34392,0 v 79.978836 h 1.67196 V 60.263294 h -1.67196 m 3.36508,0 v 79.978836 h 1.67196 V 60.263294 h -1.67196 m 3.36508,0 v 79.978836 h 1.67196 V 60.263294 h -1.67196 m 3.36508,0 v 79.978836 h 1.67196 V 60.263294 h -1.67196 m 3.34391,0 v 79.978836 h 1.67196 V 60.263294 h -1.67196 m 3.36508,0 v 79.978836 h 1.67196 V 60.263294 h -1.67196 m 3.36508,0 v 79.978836 h 1.67196 V 60.263294 h -1.67196 m 3.36508,0 v 79.978836 h 1.67196 V 60.263294 h -1.67196 m 3.34392,0 v 79.978836 h 1.67195 V 60.263294 h -1.67195 m 3.36508,0 v 79.978836 h 1.67195 V 60.263294 h -1.67195 m 3.36508,0 v 79.978836 h 1.67195 V 60.263294 h -1.67195 m 3.36507,0 v 79.978836 h 1.67196 V 60.263294 h -1.67196 m 3.34392,0 v 79.978836 h 1.67196 V 60.263294 h -1.67196 m 3.36508,0 v 79.978836 h 1.67196 V 60.263294 h -1.67196 m 3.36508,0 v 79.978836 h 1.67196 V 60.263294 h -1.67196 m 3.36508,0 v 79.978836 h 1.67196 V 60.263294 h -1.67196 m 3.34391,0 v 79.978836 h 1.67196 V 60.263294 h -1.67196 m 3.36508,0 v 79.978836 h 1.67196 V 60.263294 h -1.67196 m 3.36508,0 v 79.978836 h 1.67196 V 60.263294 h -1.67196 m 3.36508,0 v 79.978836 h 1.67196 V 60.263294 h -1.67196 m 3.34392,0 v 79.978836 h 1.67195 V 60.263294 h -1.67195 m 3.36508,0 v 79.978836 h 1.67195 V 60.263294 h -1.67195 m 3.36508,0 v 79.978836 h 1.67195 V 60.263294 h -1.67195 m 3.34391,0 v 79.978836 h 1.67196 V 60.263294 h -1.67196 m 3.36508,0 v 79.978836 h 1.67196 V 60.263294 H 205.912 m 3.36508,0 v 79.978836 h 1.67196 V 60.263294 h -1.67196 m 3.36508,0 v 79.978836 h 1.67196 V 60.263294 h -1.67196 m 3.34391,0 v 79.978836 h 1.67196 V 60.263294 h -1.67196 m 3.36508,0 v 79.978836 h 1.67196 V 60.263294 h -1.67196 m 3.36508,0 v 79.978836 h 1.67196 V 60.263294 h -1.67196 m 3.36508,0 v 79.978836 h 1.67196 V 60.263294 h -1.67196 m 3.34392,0 v 79.978836 h 1.67196 V 60.263294 h -1.67196 m 3.36508,0 v 79.978836 h 1.67196 V 60.263294 h -1.67196 m 3.36508,0 v 79.978836 h 1.18518 V 60.263294 Z"
       style="fill:none;stroke:#0000ff;stroke-width:0.121;stroke-miterlimit:4;stroke-dasharray:none;stroke-opacity:1" />
    <rect
       y="42.717167"
       x="39.610462"
       height="115.33634"
       width="220.18758"
       id="rect865"
       style="fill:none;stroke:#0000ff;stroke-width:0.121;stroke-miterlimit:4;stroke-dasharray:none;stroke-opacity:1" />
  </g>
</svg>
