<?xml version="1.0" encoding="UTF-8" standalone="no"?>
<svg
   xmlns:dc="http://purl.org/dc/elements/1.1/"
   xmlns:cc="http://creativecommons.org/ns#"
   xmlns:rdf="http://www.w3.org/1999/02/22-rdf-syntax-ns#"
   xmlns:svg="http://www.w3.org/2000/svg"
   xmlns="http://www.w3.org/2000/svg"
   xmlns:sodipodi="http://sodipodi.sourceforge.net/DTD/sodipodi-0.dtd"
   xmlns:inkscape="http://www.inkscape.org/namespaces/inkscape"
   sodipodi:docname="042mm_90percent.svg"
   inkscape:version="1.0 (4035a4fb49, 2020-05-01)"
   id="svg8"
   version="1.1"
   viewBox="0 0 297 210"
   height="210mm"
   width="297mm">
  <defs
     id="defs2" />
  <sodipodi:namedview
     inkscape:window-maximized="1"
     inkscape:window-y="-8"
     inkscape:window-x="-8"
     inkscape:window-height="1009"
     inkscape:window-width="1920"
     showgrid="false"
     inkscape:document-rotation="0"
     inkscape:current-layer="layer1"
     inkscape:document-units="mm"
     inkscape:cy="410.01197"
     inkscape:cx="688.85628"
     inkscape:zoom="0.68132251"
     inkscape:pageshadow="2"
     inkscape:pageopacity="0.0"
     borderopacity="1.0"
     bordercolor="#666666"
     pagecolor="#ffffff"
     id="base" />
  <metadata
     id="metadata5">
    <rdf:RDF>
      <cc:Work
         rdf:about="">
        <dc:format>image/svg+xml</dc:format>
        <dc:type
           rdf:resource="http://purl.org/dc/dcmitype/StillImage" />
        <dc:title></dc:title>
      </cc:Work>
    </rdf:RDF>
  </metadata>
  <g
     id="layer1"
     inkscape:groupmode="layer"
     inkscape:label="Layer 1">
    <path
       id="path847"
       d="m 60.663322,64.92572 v 0.465609 H 240.64215 V 64.92572 H 60.663322 m 0,0.952381 V 66.34371 H 240.64215 V 65.878101 H 60.663322 m 0,0.931217 v 0.465609 H 240.64215 V 66.809318 H 60.663322 m 0,0.952381 v 0.465609 H 240.64215 V 67.761699 H 60.663322 m 0,0.931218 v 0.465608 H 240.64215 V 68.692917 H 60.663322 m 0,0.931217 v 0.465608 H 240.64215 V 69.624134 H 60.663322 m 0,0.952381 v 0.465608 H 240.64215 V 70.576515 H 60.663322 m 0,0.931217 V 71.97334 H 240.64215 V 71.507732 H 60.663322 m 0,0.952381 v 0.465608 H 240.64215 V 72.460113 H 60.663322 m 0,0.931217 v 0.465608 H 240.64215 V 73.39133 H 60.663322 m 0,0.931217 v 0.465608 l 179.978828,0.02116 V 74.343711 L 60.663322,74.322547 m 0,0.952381 v 0.465608 H 240.64215 V 75.274928 H 60.663322 m 0,0.931217 v 0.465608 H 240.64215 V 76.206145 H 60.663322 m 0,0.952381 v 0.465608 H 240.64215 V 77.158526 H 60.663322 m 0,0.931217 v 0.465608 H 240.64215 V 78.089743 H 60.663322 m 0,0.931217 v 0.465608 l 179.978828,0.02116 V 79.042124 L 60.663322,79.02096 m 0,0.952381 v 0.465608 H 240.64215 V 79.973341 H 60.663322 m 0,0.931217 v 0.465608 H 240.64215 V 80.904558 H 60.663322 m 0,0.952381 v 0.465609 H 240.64215 V 81.856939 H 60.663322 m 0,0.931217 v 0.465609 H 240.64215 V 82.788156 H 60.663322 m 0,0.952381 v 0.444445 l 179.978828,0.02116 V 83.740537 H 60.663322 m 0,0.931217 v 0.465609 H 240.64215 V 84.671754 H 60.663322 m 0,0.931217 V 86.06858 H 240.64215 V 85.602971 H 60.663322 m 0,0.952381 v 0.465609 H 240.64215 V 86.555352 H 60.663322 m 0,0.931217 v 0.465609 H 240.64215 V 87.486569 H 60.663322 m 0,0.952381 v 0.465609 H 240.64215 V 88.43895 H 60.663322 m 0,0.931217 v 0.465609 H 240.64215 V 89.370167 H 60.663322 m 0,0.931218 v 0.46561 H 240.64215 v -0.46561 H 60.663322 m 0,0.95238 v 0.46561 H 240.64215 v -0.46561 H 60.663322 m 0,0.93122 v 0.46561 H 240.64215 v -0.46561 H 60.663322 m 0,0.95238 v 0.46561 H 240.64215 v -0.46561 H 60.663322 m 0,0.93122 v 0.4656 H 240.64215 v -0.4656 H 60.663322 m 0,0.93121 v 0.46561 l 179.978828,0.0212 v -0.4656 l -179.978828,-0.0212 m 0,0.95238 v 0.46561 H 240.64215 v -0.46561 H 60.663322 m 0,0.93122 v 0.46561 H 240.64215 v -0.46561 H 60.663322 m 0,0.95238 v 0.46561 H 240.64215 v -0.46561 H 60.663322 m 0,0.93122 v 0.465609 H 240.64215 V 98.767005 H 60.663322 m 0,0.931219 v 0.465596 l 179.978828,0.0212 v -0.465596 l -179.978828,-0.0212 m 0,0.952376 v 0.46561 H 240.64215 V 100.6506 H 60.663322 m 0,0.93121 v 0.46561 H 240.64215 v -0.46561 H 60.663322 m 0,0.95239 v 0.4656 H 240.64215 v -0.4656 H 60.663322 m 0,0.93121 v 0.46561 H 240.64215 v -0.46561 H 60.663322 m 0,0.95238 v 0.44445 l 179.978828,0.0212 v -0.46562 H 60.663322 m 0,0.93122 v 0.46561 H 240.64215 v -0.46561 H 60.663322 m 0,0.93122 v 0.46561 H 240.64215 v -0.46561 H 60.663322 m 0,0.95238 v 0.46557 H 240.64215 V 107.2326 H 60.663322 m 0,0.93122 v 0.46561 H 240.64215 v -0.46561 H 60.663322 m 0,0.95238 v 0.46561 H 240.64215 V 109.1162 H 60.663322 m 0,0.93122 v 0.4656 H 240.64215 v -0.4656 H 60.663322 m 0,0.93121 v 0.46561 H 240.64215 V 110.9998 L 60.663322,110.9786 m 0,0.95238 v 0.46561 H 240.64215 v -0.46561 H 60.663322 m 0,0.93122 v 0.46561 H 240.64215 V 112.8622 H 60.663322 m 0,0.95238 v 0.46561 H 240.64215 v -0.46561 H 60.663322 m 0,0.93122 v 0.46561 H 240.64215 V 114.7458 H 60.663322 m 0,0.93122 v 0.4656 l 179.978828,0.0212 v -0.46561 l -179.978828,-0.0212 m 0,0.95238 V 117.095 H 240.64215 v -0.46561 H 60.663322 m 0,0.93121 v 0.46561 H 240.64215 V 117.5606 H 60.663322 m 0,0.95239 v 0.4656 H 240.64215 v -0.4656 H 60.663322 m 0,0.93121 v 0.46561 H 240.64215 V 119.4442 H 60.663322 m 0,0.93122 v 0.46561 l 179.978828,0.0212 v -0.46561 l -179.978828,-0.0212 m 0,0.95238 v 0.46561 H 240.64215 V 121.3278 H 60.663322 m 0,0.93122 v 0.46561 H 240.64215 v -0.46561 H 60.663322 m 0,0.95238 v 0.46561 H 240.64215 V 123.2114 H 60.663322 m 0,0.93122 v 0.4656 H 240.64215 v -0.4656 H 60.663322 m 0,0.95238 v 0.44444 l 179.978828,0.0212 v -0.46561 H 60.663322 m 0,0.93121 v 0.46561 H 240.64215 v -0.46561 H 60.663322 m 0,0.93122 v 0.46561 H 240.64215 v -0.46561 H 60.663322 m 0,0.95238 v 0.46561 H 240.64215 v -0.46561 H 60.663322 m 0,0.93122 v 0.46561 H 240.64215 v -0.46561 H 60.663322 m 0,0.95238 v 0.46561 H 240.64215 v -0.46561 H 60.663322 m 0,0.93122 v 0.46561 H 240.64215 v -0.46561 H 60.663322 m 0,0.93121 v 0.46561 H 240.64215 v -0.44444 l -179.978828,-0.0212 m 0,0.95238 v 0.46561 H 240.64215 v -0.46561 H 60.663322 m 0,0.93122 v 0.46561 H 240.64215 v -0.46561 H 60.663322 m 0,0.95238 v 0.46561 H 240.64215 v -0.46561 H 60.663322 m 0,0.93122 v 0.46561 H 240.64215 v -0.46561 H 60.663322 m 0,0.93122 v 0.46561 l 179.978828,0.0212 v -0.46561 l -179.978828,-0.0212 m 0,0.95238 v 0.46561 H 240.64215 v -0.46561 H 60.663322 m 0,0.93122 v 0.4656 H 240.64215 v -0.4656 H 60.663322 m 0,0.95238 v 0.4656 H 240.64215 v -0.4656 H 60.663322 m 0,0.93121 v 0.46561 H 240.64215 v -0.46557 H 60.663322 m 0,0.93122 v 0.46561 l 179.978828,0.0212 v -0.46561 l -179.978828,-0.0212 m 0,0.95238 v 0.46561 H 240.64215 v -0.46561 H 60.663322 m 0,0.93122 v 0.46561 H 240.64215 v -0.46561 H 60.663322 m 0,0.95238 v 0.46561 H 240.64215 v -0.46561 z"
       style="fill:none;stroke:#ff0000;stroke-width:0.121;stroke-opacity:1;stroke-miterlimit:4;stroke-dasharray:none" />
    <path
       id="path863"
       d="m 60.663322,64.92572 v 79.97884 h 0.10582 V 64.92572 h -0.10582 m 0.571429,0 v 79.97884 h 0.465608 V 64.92572 h -0.465608 m 0.952381,0 v 79.97884 H 62.65274 V 64.92572 h -0.465608 m 0.931216,0 v 79.97884 h 0.465609 V 64.92572 h -0.465609 m 0.931217,0 v 79.97884 h 0.465609 V 64.92572 h -0.465609 m 0.952381,0 v 79.97884 h 0.465609 V 64.92572 h -0.465609 m 0.931217,0 v 79.97884 h 0.465609 V 64.92572 h -0.465609 m 0.952381,0 v 79.97884 h 0.465609 V 64.92572 h -0.465609 m 0.931217,0 v 79.97884 H 68.28237 V 64.92572 h -0.465609 m 0.931217,0 v 79.97884 h 0.465609 V 64.92572 h -0.465609 m 0.952381,0 v 79.97884 h 0.465609 V 64.92572 h -0.465609 m 0.931217,0 v 79.97884 h 0.465608 V 64.92572 h -0.465608 m 0.952381,0 v 79.97884 h 0.465608 V 64.92572 h -0.465608 m 0.931217,0 v 79.97884 h 0.465608 V 64.92572 h -0.465608 m 0.931217,0 v 79.97884 h 0.465608 V 64.92572 h -0.465608 m 0.952381,0 v 79.97884 H 74.86438 V 64.92572 h -0.465608 m 0.931217,0 v 79.97884 h 0.465608 V 64.92572 h -0.465608 m 0.952381,0 v 79.97884 h 0.465608 V 64.92572 H 76.28237 m 0.931217,0 v 79.97884 h 0.465608 V 64.92572 h -0.465608 m 0.931217,0 v 79.97884 h 0.465608 V 64.92572 h -0.465608 m 0.95238,0 v 79.97884 h 0.465609 V 64.92572 h -0.465609 m 0.931216,0 v 79.97884 h 0.465609 V 64.92572 H 80.0284 m 0.952382,0 v 79.97884 H 81.44639 V 64.92572 h -0.465608 m 0.931217,0 v 79.97884 h 0.465608 V 64.92572 h -0.465608 m 0.952381,0 v 79.97884 h 0.465608 V 64.92572 H 82.86438 m 0.931217,0 v 79.97884 h 0.465608 V 64.92572 h -0.465608 m 0.931217,0 v 79.97884 h 0.465608 V 64.92572 h -0.465608 m 0.95238,0 v 79.97884 h 0.465609 V 64.92572 h -0.465609 m 0.931217,0 v 79.97884 H 87.07602 V 64.92572 h -0.465609 m 0.952381,0 v 79.97884 h 0.465609 V 64.92572 h -0.465609 m 0.931217,0 v 79.97884 h 0.465609 V 64.92572 h -0.465609 m 0.931217,0 v 79.97884 h 0.465609 V 64.92572 h -0.465609 m 0.952381,0 v 79.97884 h 0.465609 V 64.92572 h -0.465609 m 0.931217,0 v 79.97884 h 0.465609 V 64.92572 h -0.465609 m 0.952381,0 v 79.97884 h 0.465609 V 64.92572 h -0.465609 m 0.931217,0 v 79.97884 H 93.65803 V 64.92572 h -0.465608 m 0.931217,0 v 79.97884 h 0.465608 V 64.92572 h -0.465608 m 0.952381,0 v 79.97884 h 0.465608 V 64.92572 H 95.07602 m 0.931217,0 v 79.97884 h 0.465608 V 64.92572 h -0.465608 m 0.952381,0 v 79.97884 h 0.465608 V 64.92572 h -0.465608 m 0.931217,0 v 79.97884 h 0.465608 V 64.92572 h -0.465608 m 0.931217,0 v 79.97884 H 99.28766 V 64.92572 h -0.465608 m 0.952381,0 v 79.97884 h 0.465607 V 64.92572 h -0.465607 m 0.931217,0 v 79.97884 h 0.46561 V 64.92572 h -0.46561 m 0.95238,0 v 79.97884 h 0.46561 V 64.92572 h -0.46561 m 0.93122,0 v 79.97884 h 0.46561 V 64.92572 h -0.46561 m 0.95238,0 v 79.97884 h 0.46561 V 64.92572 h -0.46561 m 0.93122,0 v 79.97884 h 0.4656 V 64.92572 h -0.4656 m 0.93121,0 v 79.97884 h 0.46561 V 64.92572 h -0.46561 m 0.95238,0 v 79.97884 h 0.46561 V 64.92572 h -0.46561 m 0.93122,0 v 79.97884 h 0.46561 V 64.92572 h -0.46561 m 0.95238,0 v 79.97884 h 0.46561 V 64.92572 h -0.46561 m 0.93122,0 v 79.97884 h 0.46561 V 64.92572 h -0.46561 m 0.93122,0 v 79.97884 h 0.4656 V 64.92572 h -0.4656 m 0.95238,0 v 79.97884 h 0.46561 V 64.92572 h -0.46561 m 0.93121,0 v 79.97884 h 0.46561 V 64.92572 h -0.46561 m 0.95238,0 v 79.97884 h 0.46561 V 64.92572 h -0.46561 m 0.93122,0 v 79.97884 h 0.46561 V 64.92572 h -0.46561 m 0.93122,0 v 79.97884 h 0.46561 V 64.92572 h -0.46561 m 0.95238,0 v 79.97884 h 0.46561 V 64.92572 h -0.46561 m 0.93122,0 v 79.97884 h 0.46561 V 64.92572 h -0.46561 m 0.95238,0 v 79.97884 h 0.46561 V 64.92572 h -0.46561 m 0.93121,0 v 79.97884 h 0.46561 V 64.92572 h -0.46561 m 0.93122,0 v 79.97884 h 0.46561 V 64.92572 h -0.46561 m 0.95238,0 v 79.97884 h 0.46561 V 64.92572 h -0.46561 m 0.93122,0 v 79.97884 h 0.46561 V 64.92572 h -0.46561 m 0.95238,0 v 79.97884 h 0.46561 V 64.92572 h -0.46561 m 0.93122,0 v 79.97884 h 0.46561 V 64.92572 h -0.46561 m 0.95238,0 v 79.97884 h 0.46561 V 64.92572 h -0.46561 m 0.93121,0 v 79.97884 h 0.46561 V 64.92572 h -0.46561 m 0.93122,0 v 79.97884 h 0.46561 V 64.92572 h -0.46561 m 0.95238,0 v 79.97884 h 0.46561 V 64.92572 h -0.46561 m 0.93122,0 v 79.97884 h 0.46561 V 64.92572 h -0.46561 m 0.95238,0 v 79.97884 h 0.46561 V 64.92572 h -0.46561 m 0.93122,0 v 79.97884 h 0.46561 V 64.92572 h -0.46561 m 0.93121,0 v 79.97884 h 0.46561 V 64.92572 h -0.46561 m 0.95238,0 v 79.97884 h 0.46561 V 64.92572 h -0.46561 m 0.93122,0 v 79.97884 h 0.46561 V 64.92572 h -0.46561 m 0.95239,0 v 79.97884 h 0.4656 V 64.92572 h -0.4656 m 0.93121,0 v 79.97884 h 0.46561 V 64.92572 h -0.46561 m 0.93122,0 v 79.97884 h 0.46561 V 64.92572 h -0.46561 m 0.95238,0 v 79.97884 h 0.46561 V 64.92572 h -0.46561 m 0.93122,0 v 79.97884 h 0.46561 V 64.92572 h -0.46561 m 0.95238,0 v 79.97884 h 0.46561 V 64.92572 h -0.46561 m 0.93122,0 v 79.97884 h 0.4656 V 64.92572 h -0.4656 m 0.93121,0 v 79.97884 h 0.46561 V 64.92572 h -0.46561 m 0.95238,0 v 79.97884 h 0.46561 V 64.92572 h -0.46561 m 0.93122,0 v 79.97884 h 0.46561 V 64.92572 h -0.46561 m 0.95238,0 v 79.97884 h 0.46561 V 64.92572 h -0.46561 m 0.93122,0 v 79.97884 h 0.46561 V 64.92572 h -0.46561 m 0.95238,0 v 79.97884 h 0.46561 V 64.92572 h -0.46561 m 0.93122,0 v 79.97884 h 0.4656 V 64.92572 h -0.4656 m 0.93121,0 v 79.97884 h 0.46561 V 64.92572 h -0.46561 m 0.95238,0 v 79.97884 h 0.46561 V 64.92572 h -0.46561 m 0.93122,0 v 79.97884 h 0.46561 V 64.92572 h -0.46561 m 0.95238,0 v 79.97884 h 0.46561 V 64.92572 h -0.46561 m 0.93122,0 v 79.97884 h 0.46561 V 64.92572 h -0.46561 m 0.93122,0 v 79.97884 h 0.4656 V 64.92572 h -0.4656 m 0.95238,0 v 79.97884 h 0.4656 V 64.92572 h -0.4656 m 0.93121,0 v 79.97884 h 0.46561 V 64.92572 h -0.46561 m 0.95238,0 v 79.97884 h 0.46561 V 64.92572 h -0.46561 m 0.93122,0 v 79.97884 h 0.46561 V 64.92572 h -0.46561 m 0.93122,0 v 79.97884 H 156.621 V 64.92572 h -0.46561 m 0.95238,0 v 79.97884 h 0.46561 V 64.92572 h -0.46561 m 0.93122,0 v 79.97884 h 0.4656 V 64.92572 h -0.4656 m 0.95238,0 v 79.97884 h 0.46561 V 64.92572 h -0.46561 m 0.93121,0 v 79.97884 h 0.46561 V 64.92572 h -0.46561 m 0.93122,0 v 79.97884 h 0.46561 V 64.92572 h -0.46561 m 0.95238,0 v 79.97884 h 0.46561 V 64.92572 h -0.46561 m 0.93122,0 v 79.97884 h 0.46561 V 64.92572 h -0.46561 m 0.95238,0 v 79.97884 h 0.46561 V 64.92572 h -0.46561 m 0.93122,0 v 79.97884 h 0.4656 V 64.92572 h -0.4656 m 0.95238,0 v 79.97884 h 0.46561 V 64.92572 h -0.46561 m 0.93121,0 v 79.97884 h 0.46561 V 64.92572 h -0.46561 m 0.93122,0 v 79.97884 h 0.46561 V 64.92572 h -0.46561 m 0.95238,0 v 79.97884 h 0.46561 V 64.92572 h -0.46561 m 0.93122,0 v 79.97884 h 0.46561 V 64.92572 h -0.46561 m 0.95238,0 v 79.97884 h 0.46561 V 64.92572 h -0.46561 m 0.93122,0 v 79.97884 h 0.46561 V 64.92572 h -0.46561 m 0.93121,0 v 79.97884 h 0.46561 V 64.92572 h -0.46561 m 0.95238,0 v 79.97884 h 0.46561 V 64.92572 h -0.46561 m 0.93122,0 v 79.97884 h 0.46561 V 64.92572 h -0.46561 m 0.95238,0 v 79.97884 h 0.46561 V 64.92572 h -0.46561 m 0.93122,0 v 79.97884 h 0.46561 V 64.92572 h -0.46561 m 0.93122,0 v 79.97884 h 0.46561 V 64.92572 h -0.46561 m 0.95238,0 v 79.97884 h 0.46561 V 64.92572 h -0.46561 m 0.93121,0 v 79.97884 h 0.46561 V 64.92572 h -0.46561 m 0.95239,0 v 79.97884 h 0.4656 V 64.92572 h -0.4656 m 0.93121,0 v 79.97884 h 0.46561 V 64.92572 h -0.46561 m 0.93122,0 v 79.97884 h 0.46561 V 64.92572 h -0.46561 m 0.95238,0 v 79.97884 h 0.46561 V 64.92572 h -0.46561 m 0.93122,0 v 79.97884 h 0.46561 V 64.92572 h -0.46561 m 0.95238,0 v 79.97884 h 0.46561 V 64.92572 h -0.46561 m 0.93122,0 v 79.97884 h 0.4656 V 64.92572 h -0.4656 m 0.95238,0 v 79.97884 h 0.4656 V 64.92572 h -0.4656 m 0.93121,0 v 79.97884 h 0.46561 V 64.92572 h -0.46561 m 0.93122,0 v 79.97884 h 0.46561 V 64.92572 h -0.46561 m 0.95238,0 v 79.97884 h 0.46561 V 64.92572 h -0.46561 m 0.93122,0 v 79.97884 h 0.46561 V 64.92572 h -0.46561 m 0.95238,0 v 79.97884 h 0.46561 V 64.92572 h -0.46561 m 0.93122,0 v 79.97884 h 0.4656 V 64.92572 h -0.4656 m 0.93121,0 v 79.97884 h 0.46561 V 64.92572 h -0.46561 m 0.95238,0 v 79.97884 h 0.46561 V 64.92572 h -0.46561 m 0.93122,0 v 79.97884 h 0.46561 V 64.92572 h -0.46561 m 0.95238,0 v 79.97884 h 0.46561 V 64.92572 h -0.46561 m 0.93122,0 v 79.97884 h 0.46561 V 64.92572 h -0.46561 m 0.93122,0 v 79.97884 h 0.4656 V 64.92572 h -0.4656 m 0.95238,0 v 79.97884 h 0.46561 V 64.92572 h -0.46561 m 0.93121,0 v 79.97884 h 0.46561 V 64.92572 h -0.46561 m 0.95238,0 v 79.97884 h 0.46561 V 64.92572 h -0.46561 m 0.93122,0 v 79.97884 h 0.46561 V 64.92572 h -0.46561 m 0.93122,0 v 79.97884 h 0.46561 V 64.92572 h -0.46561 m 0.95238,0 v 79.97884 h 0.46561 V 64.92572 h -0.46561 m 0.93122,0 v 79.97884 h 0.4656 V 64.92572 h -0.4656 m 0.95238,0 v 79.97884 h 0.46561 V 64.92572 h -0.46561 m 0.93121,0 v 79.97884 h 0.46561 V 64.92572 h -0.46561 m 0.95239,0 v 79.97884 h 0.4656 V 64.92572 h -0.4656 m 0.93121,0 v 79.97884 h 0.46561 V 64.92572 h -0.46561 m 0.93122,0 v 79.97884 h 0.46561 V 64.92572 h -0.46561 m 0.95238,0 v 79.97884 h 0.46561 V 64.92572 h -0.46561 m 0.93122,0 v 79.97884 h 0.46561 V 64.92572 h -0.46561 m 0.95238,0 v 79.97884 h 0.46561 V 64.92572 h -0.46561 m 0.93121,0 v 79.97884 h 0.46561 V 64.92572 h -0.46561 m 0.93122,0 v 79.97884 h 0.46561 V 64.92572 h -0.46561 m 0.95238,0 v 79.97884 h 0.46561 V 64.92572 h -0.46561 m 0.93122,0 v 79.97884 h 0.46561 V 64.92572 h -0.46561 m 0.95238,0 v 79.97884 h 0.46561 V 64.92572 h -0.46561 m 0.93122,0 v 79.97884 h 0.46561 V 64.92572 h -0.46561 m 0.93121,0 v 79.97884 h 0.46561 V 64.92572 h -0.46561 m 0.95239,0 v 79.97884 h 0.4656 V 64.92572 h -0.4656 m 0.93121,0 v 79.97884 h 0.46561 V 64.92572 h -0.46561 m 0.95238,0 v 79.97884 h 0.46561 V 64.92572 h -0.46561 m 0.93122,0 v 79.97884 h 0.46561 V 64.92572 h -0.46561 m 0.93122,0 v 79.97884 h 0.46561 V 64.92572 h -0.46561 m 0.95238,0 v 79.97884 h 0.46561 V 64.92572 h -0.46561 m 0.93122,0 v 79.97884 h 0.4656 V 64.92572 h -0.4656 m 0.95238,0 v 79.97884 h 0.4656 V 64.92572 h -0.4656 m 0.93121,0 v 79.97884 h 0.46561 V 64.92572 h -0.46561 m 0.95238,0 v 79.97884 h 0.46561 V 64.92572 h -0.46561 m 0.93122,0 v 79.97884 h 0.46561 V 64.92572 h -0.46561 m 0.93122,0 v 79.97884 h 0.46561 V 64.92572 h -0.46561 m 0.95238,0 v 79.97884 h 0.46561 V 64.92572 h -0.46561 m 0.93122,0 v 79.97884 h 0.4656 V 64.92572 h -0.4656 m 0.95238,0 v 79.97884 h 0.46561 V 64.92572 h -0.46561 m 0.93121,0 v 79.97884 h 0.46561 V 64.92572 h -0.46561 m 0.93122,0 v 79.97884 h 0.46561 V 64.92572 h -0.46561 m 0.95238,0 v 79.97884 h 0.46561 V 64.92572 h -0.46561 m 0.93122,0 v 79.97884 h 0.46561 V 64.92572 h -0.46561 m 0.95238,0 v 79.97884 h 0.46561 V 64.92572 h -0.46561 m 0.93122,0 v 79.97884 h 0.4656 V 64.92572 h -0.4656 m 0.93121,0 v 79.97884 h 0.46561 V 64.92572 h -0.46561 m 0.95238,0 v 79.97884 h 0.46561 V 64.92572 Z"
       style="fill:none;stroke:#0000ff;stroke-width:0.121;stroke-miterlimit:4;stroke-dasharray:none;stroke-opacity:1" />
    <rect
       y="57.085667"
       x="45.435528"
       height="95.142776"
       width="205.43074"
       id="rect865"
       style="fill:none;stroke:#0000ff;stroke-width:0.121;stroke-miterlimit:4;stroke-dasharray:none;stroke-opacity:1" />
  </g>
</svg>
