<?xml version="1.0" encoding="UTF-8" standalone="no"?>
<svg
   xmlns:dc="http://purl.org/dc/elements/1.1/"
   xmlns:cc="http://creativecommons.org/ns#"
   xmlns:rdf="http://www.w3.org/1999/02/22-rdf-syntax-ns#"
   xmlns:svg="http://www.w3.org/2000/svg"
   xmlns="http://www.w3.org/2000/svg"
   xmlns:sodipodi="http://sodipodi.sourceforge.net/DTD/sodipodi-0.dtd"
   xmlns:inkscape="http://www.inkscape.org/namespaces/inkscape"
   sodipodi:docname="042mm_50percent.svg"
   inkscape:version="1.0 (4035a4fb49, 2020-05-01)"
   id="svg8"
   version="1.1"
   viewBox="0 0 297 210"
   height="210mm"
   width="297mm">
  <defs
     id="defs2" />
  <sodipodi:namedview
     inkscape:window-maximized="1"
     inkscape:window-y="-8"
     inkscape:window-x="-8"
     inkscape:window-height="1009"
     inkscape:window-width="1920"
     showgrid="false"
     inkscape:document-rotation="0"
     inkscape:current-layer="layer1"
     inkscape:document-units="mm"
     inkscape:cy="486.90892"
     inkscape:cx="324.62277"
     inkscape:zoom="0.68132251"
     inkscape:pageshadow="2"
     inkscape:pageopacity="0.0"
     borderopacity="1.0"
     bordercolor="#666666"
     pagecolor="#ffffff"
     id="base" />
  <metadata
     id="metadata5">
    <rdf:RDF>
      <cc:Work
         rdf:about="">
        <dc:format>image/svg+xml</dc:format>
        <dc:type
           rdf:resource="http://purl.org/dc/dcmitype/StillImage" />
        <dc:title></dc:title>
      </cc:Work>
    </rdf:RDF>
  </metadata>
  <g
     id="layer1"
     inkscape:groupmode="layer"
     inkscape:label="Layer 1">
    <path
       id="path847"
       d="m 62.304376,57.605966 v 0.84656 H 242.28321 v -0.84656 H 62.304376 m 0,1.67195 v 0.84656 l 179.978834,0.0212 v -0.84655 l -179.978834,-0.0212 m 0,1.69313 v 0.84656 H 242.28321 v -0.84656 H 62.304376 m 0,1.67195 v 0.84656 H 242.28321 v -0.84656 H 62.304376 m 0,1.67196 v 0.84656 l 179.978834,0.0212 v -0.84656 l -179.978834,-0.0212 m 0,1.69312 v 0.84656 H 242.28321 v -0.84656 H 62.304376 m 0,1.67196 v 0.84656 H 242.28321 v -0.8254 l -179.978834,-0.0212 m 0,1.69312 v 0.84656 H 242.28321 v -0.84656 H 62.304376 m 0,1.67196 v 0.84656 H 242.28321 v -0.84656 H 62.304376 m 0,1.67196 v 0.84656 l 179.978834,0.0212 v -0.84656 l -179.978834,-0.0212 m 0,1.69312 v 0.84656 H 242.28321 v -0.84656 H 62.304376 m 0,1.67196 v 0.84656 H 242.28321 v -0.84656 H 62.304376 m 0,1.67195 v 0.84657 l 179.978834,0.0212 v -0.84656 l -179.978834,-0.0212 m 0,1.69313 v 0.84656 H 242.28321 v -0.84656 H 62.304376 m 0,1.67195 v 0.84656 H 242.28321 v -0.84654 H 62.304376 m 0,1.69313 v 0.84656 H 242.28321 v -0.84656 H 62.304376 m 0,1.67195 v 0.846559 H 242.28321 V 84.484266 H 62.304376 m 0,1.671959 v 0.84656 l 179.978834,0.0212 v -0.84656 l -179.978834,-0.0212 m 0,1.69312 v 0.84656 H 242.28321 v -0.84656 H 62.304376 m 0,1.67196 v 0.84656 H 242.28321 v -0.84656 H 62.304376 m 0,1.671957 v 0.84656 l 179.978834,0.0212 v -0.84656 l -179.978834,-0.0212 m 0,1.69312 v 0.84656 H 242.28321 v -0.84656 H 62.304376 m 0,1.67196 v 0.846564 H 242.28321 V 94.558342 H 62.304376 m 0,1.671954 v 0.84656 l 179.978834,0.0212 v -0.84656 l -179.978834,-0.0212 m 0,1.69313 v 0.84656 H 242.28321 v -0.84656 H 62.304376 m 0,1.67195 v 0.846564 l 179.978834,0.0212 v -0.846564 l -179.978834,-0.0212 m 0,1.693124 v 0.84657 H 242.28321 V 101.2885 H 62.304376 m 0,1.67196 v 0.84656 H 242.28321 v -0.84656 H 62.304376 m 0,1.67196 v 0.84656 l 179.978834,0.0212 v -0.84656 l -179.978834,-0.0212 m 0,1.69312 v 0.84656 H 242.28321 v -0.84656 H 62.304376 m 0,1.67196 v 0.84656 H 242.28321 V 107.9975 H 62.304376 m 0,1.67196 v 0.84656 l 179.978834,0.0212 v -0.84656 l -179.978834,-0.0212 m 0,1.69312 v 0.84656 H 242.28321 v -0.84656 H 62.304376 m 0,1.67196 v 0.84656 H 242.28321 v -0.84656 H 62.304376 m 0,1.69312 v 0.84656 H 242.28321 v -0.84656 H 62.304376 m 0,1.67196 v 0.84656 H 242.28321 v -0.84656 H 62.304376 m 0,1.67195 v 0.84656 l 179.978834,0.0212 v -0.84656 l -179.978834,-0.0212 m 0,1.69312 v 0.84657 H 242.28321 v -0.84657 H 62.304376 m 0,1.67196 v 0.84656 H 242.28321 v -0.84656 H 62.304376 m 0,1.67196 v 0.84656 l 179.978834,0.0212 V 123.1298 L 62.304376,123.1086 m 0,1.69312 v 0.84656 H 242.28321 v -0.84656 H 62.304376 m 0,1.67196 v 0.84656 H 242.28321 v -0.84656 H 62.304376 m 0,1.69312 v 0.84656 H 242.28321 V 128.1668 H 62.304376 m 0,1.67196 v 0.84656 H 242.28321 v -0.84656 H 62.304376 m 0,1.67196 v 0.84656 l 179.978834,0.0212 v -0.84656 l -179.978834,-0.0212 m 0,1.69312 v 0.84656 H 242.28321 v -0.84655 H 62.304376 m 0,1.67196 v 0.84656 H 242.28321 v -0.84656 H 62.304376 m 0,1.67195 c 0,0.0743 -0.0314,0.24402 0.0339,0.29567 0.10808,0.0857 0.46532,0.0218 0.60099,0.0218 h 1.65079 7.55556 32.275134 137.86243 v -0.29629 z"
       style="fill:none;stroke:#ff0000;stroke-width:0.121;stroke-miterlimit:4;stroke-dasharray:none;stroke-opacity:1" />
    <path
       id="path863"
       d="m 62.304376,57.605966 v 79.978844 h 0.8254 V 57.605966 h -0.8254 m 1.67196,0 v 79.978844 h 0.8254 V 57.605966 h -0.8254 m 1.67196,0 v 79.978844 h 0.8254 V 57.605966 h -0.8254 m 1.69312,0 v 79.978844 h 0.8254 V 57.605966 h -0.8254 m 1.67196,0 v 79.978844 h 0.8254 V 57.605966 h -0.8254 m 1.69312,0 v 79.978844 h 0.8254 V 57.605966 h -0.8254 m 1.67196,0 v 79.978844 h 0.8254 V 57.605966 h -0.8254 m 1.67196,0 v 79.978844 h 0.82539 V 57.605966 h -0.82539 m 1.69312,0 v 79.978844 h 0.8254 V 57.605966 h -0.8254 m 1.67196,0 v 79.978844 h 0.82539 V 57.605966 h -0.82539 m 1.67195,0 v 79.978844 h 0.8254 V 57.605966 h -0.8254 m 1.69313,0 v 79.978844 h 0.82539 V 57.605966 h -0.82539 m 1.67195,0 v 79.978844 h 0.8254 V 57.605966 h -0.8254 m 1.67196,0 v 79.978844 h 0.8254 V 57.605966 h -0.8254 m 1.69312,0 v 79.978844 h 0.8254 V 57.605966 h -0.8254 m 1.67196,0 v 79.978844 h 0.8254 V 57.605966 h -0.8254 m 1.69312,0 v 79.978844 h 0.8254 V 57.605966 h -0.8254 m 1.67196,0 v 79.978844 h 0.8254 V 57.605966 h -0.8254 m 1.67196,0 v 79.978844 h 0.82539 V 57.605966 h -0.82539 m 1.69312,0 v 79.978844 h 0.8254 V 57.605966 h -0.8254 m 1.67196,0 v 79.978844 h 0.82539 V 57.605966 h -0.82539 m 1.67195,0 v 79.978844 h 0.8254 V 57.605966 h -0.8254 m 1.69313,0 v 79.978844 h 0.825394 V 57.605966 h -0.825394 m 1.671954,0 v 79.978844 h 0.8254 V 57.605966 h -0.8254 m 1.69313,0 v 79.978844 h 0.82539 V 57.605966 h -0.82539 m 1.67195,0 v 79.978844 h 0.8254 V 57.605966 h -0.8254 m 1.67196,0 v 79.978844 h 0.8254 V 57.605966 h -0.8254 m 1.69312,0 v 79.978844 h 0.8254 V 57.605966 h -0.8254 m 1.67196,0 v 79.978844 h 0.8254 V 57.605966 h -0.8254 m 1.67196,0 v 79.978844 h 0.82539 V 57.605966 h -0.82539 m 1.69312,0 v 79.978844 h 0.8254 V 57.605966 h -0.8254 m 1.67196,0 v 79.978844 h 0.82539 V 57.605966 h -0.82539 m 1.67195,0 v 79.978844 h 0.8254 V 57.605966 h -0.8254 m 1.69313,0 v 79.978844 h 0.82539 V 57.605966 h -0.82539 m 1.67195,0 v 79.978844 h 0.8254 V 57.605966 h -0.8254 m 1.69313,0 v 79.978844 h 0.82539 V 57.605966 h -0.82539 m 1.67195,0 v 79.978844 h 0.8254 V 57.605966 h -0.8254 m 1.67196,0 v 79.978844 h 0.8254 V 57.605966 h -0.8254 m 1.69312,0 v 79.978844 h 0.8254 V 57.605966 h -0.8254 m 1.67196,0 v 79.978844 h 0.8254 V 57.605966 h -0.8254 m 1.67196,0 v 79.978844 h 0.82539 V 57.605966 h -0.82539 m 1.69312,0 v 79.978844 h 0.8254 V 57.605966 h -0.8254 m 1.67196,0 v 79.978844 h 0.82539 V 57.605966 h -0.82539 m 1.69312,0 v 79.978844 h 0.8254 V 57.605966 h -0.8254 m 1.67196,0 v 79.978844 h 0.82539 V 57.605966 h -0.82539 m 1.67195,0 v 79.978844 h 0.8254 V 57.605966 h -0.8254 m 1.69313,0 v 79.978844 h 0.82539 V 57.605966 h -0.82539 m 1.67195,0 v 79.978844 h 0.8254 V 57.605966 h -0.8254 m 1.67196,0 v 79.978844 h 0.8254 V 57.605966 h -0.8254 m 1.69312,0 v 79.978844 h 0.8254 V 57.605966 h -0.8254 m 1.67196,0 v 79.978844 h 0.8254 V 57.605966 h -0.8254 m 1.69312,0 v 79.978844 h 0.8254 V 57.605966 h -0.8254 m 1.67196,0 v 79.978844 h 0.8254 V 57.605966 h -0.8254 m 1.67196,0 v 79.978844 h 0.82539 V 57.605966 h -0.82539 m 1.69312,0 v 79.978844 h 0.8254 V 57.605966 h -0.8254 m 1.67196,0 v 79.978844 h 0.82539 V 57.605966 h -0.82539 m 1.67195,0 v 79.978844 h 0.8254 V 57.605966 h -0.8254 m 1.69313,0 v 79.978844 h 0.82539 V 57.605966 h -0.82539 m 1.67195,0 v 79.978844 h 0.8254 V 57.605966 h -0.8254 m 1.67196,0 v 79.978844 h 0.8254 V 57.605966 h -0.8254 m 1.69312,0 v 79.978844 h 0.8254 V 57.605966 h -0.8254 m 1.67196,0 v 79.978844 h 0.8254 V 57.605966 h -0.8254 m 1.69312,0 v 79.978844 h 0.8254 V 57.605966 h -0.8254 m 1.67196,0 v 79.978844 h 0.8254 V 57.605966 h -0.8254 m 1.67196,0 v 79.978844 h 0.8254 V 57.605966 h -0.8254 m 1.69312,0 v 79.978844 h 0.8254 V 57.605966 h -0.8254 m 1.67196,0 v 79.978844 h 0.82539 V 57.605966 h -0.82539 m 1.67196,0 v 79.978844 h 0.82539 V 57.605966 h -0.82539 m 1.69312,0 V 137.58481 H 177.352 V 57.605966 h -0.82539 m 1.67195,0 v 79.978844 h 0.8254 V 57.605966 h -0.8254 m 1.69313,0 v 79.978844 h 0.82539 V 57.605966 h -0.82539 m 1.67195,0 v 79.978844 h 0.8254 V 57.605966 h -0.8254 m 1.67196,0 v 79.978844 h 0.8254 V 57.605966 h -0.8254 m 1.69312,0 v 79.978844 h 0.8254 V 57.605966 h -0.8254 m 1.67196,0 v 79.978844 h 0.8254 V 57.605966 h -0.8254 m 1.67196,0 v 79.978844 h 0.8254 V 57.605966 h -0.8254 m 1.69312,0 v 79.978844 h 0.8254 V 57.605966 h -0.8254 m 1.67196,0 v 79.978844 h 0.82539 V 57.605966 h -0.82539 m 1.69312,0 v 79.978844 h 0.8254 V 57.605966 h -0.8254 m 1.67196,0 v 79.978844 h 0.82539 V 57.605966 h -0.82539 m 1.67196,0 v 79.978844 h 0.82539 V 57.605966 h -0.82539 m 1.69312,0 v 79.978844 h 0.82539 V 57.605966 h -0.82539 m 1.67195,0 v 79.978844 h 0.8254 V 57.605966 h -0.8254 m 1.67196,0 v 79.978844 h 0.8254 V 57.605966 h -0.8254 m 1.69312,0 v 79.978844 h 0.8254 V 57.605966 h -0.8254 m 1.67196,0 v 79.978844 h 0.8254 V 57.605966 h -0.8254 m 1.67196,0 v 79.978844 h 0.8254 V 57.605966 h -0.8254 m 1.69312,0 v 79.978844 h 0.8254 V 57.605966 h -0.8254 m 1.67196,0 v 79.978844 h 0.8254 V 57.605966 h -0.8254 m 1.69312,0 v 79.978844 h 0.8254 V 57.605966 h -0.8254 m 1.67196,0 v 79.978844 h 0.82539 V 57.605966 h -0.82539 m 1.67196,0 v 79.978844 h 0.82539 V 57.605966 h -0.82539 m 1.69312,0 v 79.978844 h 0.82539 V 57.605966 h -0.82539 m 1.67195,0 v 79.978844 h 0.8254 V 57.605966 h -0.8254 m 1.67196,0 v 79.978844 h 0.8254 V 57.605966 h -0.8254 m 1.69312,0 v 79.978844 h 0.8254 V 57.605966 h -0.8254 m 1.67196,0 v 79.978844 h 0.8254 V 57.605966 h -0.8254 m 1.69312,0 v 79.978844 h 0.8254 V 57.605966 h -0.8254 m 1.67196,0 v 79.978844 h 0.8254 V 57.605966 h -0.8254 m 1.67196,0 v 79.978844 h 0.8254 V 57.605966 h -0.8254 m 1.69312,0 v 79.978844 h 0.8254 V 57.605966 h -0.8254 m 1.67196,0 v 79.978844 h 0.8254 V 57.605966 h -0.8254 m 1.67196,0 v 79.978844 h 0.82539 V 57.605966 h -0.82539 m 1.69312,0 v 79.978844 h 0.82539 V 57.605966 h -0.82539 m 1.67196,0 v 79.978844 h 0.82539 V 57.605966 h -0.82539 m 1.67195,0 v 79.978844 h 0.8254 V 57.605966 h -0.8254 m 1.69312,0 v 79.978844 h 0.8254 V 57.605966 Z"
       style="fill:none;stroke:#0000ff;stroke-width:0.121;stroke-miterlimit:4;stroke-dasharray:none;stroke-opacity:1" />
    <rect
       y="50.095585"
       x="52.037273"
       height="98.637817"
       width="199.994"
       id="rect865"
       style="fill:none;stroke:#0000ff;stroke-width:0.121;stroke-miterlimit:4;stroke-dasharray:none;stroke-opacity:1" />
  </g>
</svg>
