<?xml version="1.0" encoding="UTF-8" standalone="no"?>
<svg
   xmlns:dc="http://purl.org/dc/elements/1.1/"
   xmlns:cc="http://creativecommons.org/ns#"
   xmlns:rdf="http://www.w3.org/1999/02/22-rdf-syntax-ns#"
   xmlns:svg="http://www.w3.org/2000/svg"
   xmlns="http://www.w3.org/2000/svg"
   xmlns:sodipodi="http://sodipodi.sourceforge.net/DTD/sodipodi-0.dtd"
   xmlns:inkscape="http://www.inkscape.org/namespaces/inkscape"
   sodipodi:docname="042mm_75percent.svg"
   inkscape:version="1.0 (4035a4fb49, 2020-05-01)"
   id="svg8"
   version="1.1"
   viewBox="0 0 297 210"
   height="210mm"
   width="297mm">
  <defs
     id="defs2" />
  <sodipodi:namedview
     inkscape:window-maximized="1"
     inkscape:window-y="-8"
     inkscape:window-x="-8"
     inkscape:window-height="1009"
     inkscape:window-width="1920"
     showgrid="false"
     inkscape:document-rotation="0"
     inkscape:current-layer="layer1"
     inkscape:document-units="mm"
     inkscape:cy="326.61363"
     inkscape:cx="286.06657"
     inkscape:zoom="0.68132251"
     inkscape:pageshadow="2"
     inkscape:pageopacity="0.0"
     borderopacity="1.0"
     bordercolor="#666666"
     pagecolor="#ffffff"
     id="base" />
  <metadata
     id="metadata5">
    <rdf:RDF>
      <cc:Work
         rdf:about="">
        <dc:format>image/svg+xml</dc:format>
        <dc:type
           rdf:resource="http://purl.org/dc/dcmitype/StillImage" />
        <dc:title></dc:title>
      </cc:Work>
    </rdf:RDF>
  </metadata>
  <g
     id="layer1"
     inkscape:groupmode="layer"
     inkscape:label="Layer 1">
    <path
       id="path847"
       d="M 59.10997,67.177485 H 239.08881 V 66.606057 H 101.20521 68.930076 61.416848 59.744891 c -0.135674,0 -0.492913,-0.06384 -0.600987,0.02175 -0.0924,0.07318 -0.03393,0.437848 -0.03393,0.549676 m 0,1.121693 H 239.08881 V 67.72775 H 101.20521 68.930076 61.416848 59.744891 c -0.135674,0 -0.492914,-0.06384 -0.600987,0.02175 -0.0924,0.07318 -0.03393,0.437848 -0.03393,0.549676 m 0,1.10053 179.978836,0.02116 v -0.571429 h -137.8836 c -10.759575,0 -21.515998,-0.02116 -32.27513,-0.02116 h -7.513228 -1.671957 c -0.135674,0 -0.492911,-0.06385 -0.600987,0.02176 -0.0924,0.07318 -0.03393,0.437841 -0.03393,0.549672 m 0,1.121693 179.978842,0.02116 v -0.571429 c -45.96297,0 -91.92085,-0.02116 -137.8836,-0.02116 H 68.930076 61.416848 59.744891 c -0.135677,0 -0.492911,-0.06385 -0.600987,0.02176 -0.0924,0.07318 -0.03393,0.437841 -0.03393,0.549672 m 0,1.121693 H 239.08881 V 71.071665 H 101.20521 68.930076 61.416848 59.744891 c -0.135677,0 -0.492911,-0.06385 -0.600987,0.02176 -0.0924,0.07318 -0.03393,0.437841 -0.03393,0.549672 m 0,1.121693 H 239.08881 V 72.193359 H 101.20521 68.930076 61.416848 59.744891 c -0.135677,0 -0.49291,-0.06385 -0.600987,0.02176 -0.0924,0.07319 -0.03393,0.437842 -0.03393,0.549672 m 0,1.121694 H 239.08881 V 73.315052 H 101.20521 68.930076 61.416848 59.744891 c -0.135677,0 -0.492909,-0.06385 -0.600987,0.02176 -0.0924,0.07318 -0.03393,0.437841 -0.03393,0.549672 m 0,1.121693 H 239.08881 V 74.436745 H 101.20521 68.930076 61.416848 59.744891 c -0.135674,0 -0.492914,-0.06385 -0.600987,0.02176 -0.0924,0.07318 -0.03393,0.437841 -0.03393,0.549672 m 0,1.121693 H 239.08881 V 75.558438 H 101.20521 68.930076 61.416848 59.744891 c -0.135677,0 -0.492911,-0.06385 -0.600987,0.02176 -0.0924,0.07318 -0.03393,0.437841 -0.03393,0.549672 m 0,1.12169 H 239.08881 V 76.68013 H 101.20521 68.930076 61.416848 59.744891 c -0.135677,0 -0.492911,-0.0639 -0.600987,0.0218 -0.0924,0.0732 -0.03393,0.43784 -0.03393,0.54967 m 0,1.1217 H 239.08881 V 77.80187 H 101.20521 68.930076 61.416848 59.744891 c -0.135674,0 -0.492912,-0.0639 -0.600987,0.0218 -0.0924,0.0732 -0.03393,0.43784 -0.03393,0.54967 m 0,1.12169 H 239.08881 V 78.9236 H 101.20521 68.930076 61.416848 59.744891 c -0.135677,0 -0.492911,-0.0638 -0.600987,0.0218 -0.0924,0.0732 -0.03393,0.43784 -0.03393,0.54967 m 0,1.12169 H 239.08881 V 80.04533 H 101.20521 68.930076 61.416848 59.744891 c -0.135677,0 -0.49291,-0.0638 -0.600987,0.0218 -0.0924,0.0732 -0.03393,0.43784 -0.03393,0.54967 m 0,1.1217 H 239.08881 V 81.16707 H 101.20521 68.930076 61.416848 59.744891 c -0.135677,0 -0.492909,-0.0639 -0.600987,0.0218 -0.0924,0.0732 -0.03393,0.43784 -0.03393,0.54967 m 0,1.10053 179.978836,0.0212 v -0.57143 c -45.96191,0 -91.92381,-0.0212 -137.8836,-0.0212 H 68.930076 61.416848 59.744891 c -0.135677,0 -0.49291,-0.0639 -0.600987,0.0218 -0.0924,0.0732 -0.03393,0.43784 -0.03393,0.54967 m 0,1.12169 179.978836,0.0212 v -0.57142 c -45.96149,0 -91.92106,-0.0212 -137.8836,-0.0212 H 68.930076 61.416848 59.744891 c -0.135677,0 -0.492911,-0.0638 -0.600987,0.0218 -0.0924,0.0732 -0.03393,0.43784 -0.03393,0.54967 m 0,1.12169 H 239.08881 V 84.5111 H 101.20521 68.930076 61.416848 59.744891 c -0.135677,0 -0.49291,-0.0639 -0.600987,0.0218 -0.0924,0.0732 -0.03393,0.43784 -0.03393,0.54967 m 0,1.1217 H 239.08881 V 85.63283 H 101.20521 68.930076 61.416848 59.744891 c -0.135674,0 -0.492912,-0.0638 -0.600987,0.0218 -0.0924,0.0732 -0.03393,0.43784 -0.03393,0.54968 m 0,1.12169 H 239.08881 V 86.75457 H 101.20521 68.930076 61.416848 59.744891 c -0.135674,0 -0.492913,-0.0639 -0.600987,0.0218 -0.0924,0.0732 -0.03393,0.43784 -0.03393,0.54967 m 0,1.12169 H 239.08881 V 87.8763 H 101.20521 68.930076 61.416848 59.744891 c -0.135674,0 -0.492912,-0.0639 -0.600987,0.0218 -0.0924,0.0732 -0.03393,0.43788 -0.03393,0.54963 m 0,1.12169 H 239.08881 V 88.99759 H 101.20521 68.930076 61.416848 59.744891 c -0.135674,0 -0.492912,-0.0639 -0.600987,0.0218 -0.0924,0.0732 -0.03393,0.43789 -0.03393,0.54963 m 0,1.1217 H 239.08881 V 90.11929 H 101.20521 68.930076 61.416848 59.744891 c -0.135677,0 -0.49291,-0.0639 -0.600987,0.0218 -0.0924,0.0732 -0.03393,0.43788 -0.03393,0.54963 m 0,1.12169 H 239.08881 V 91.24098 H 101.20521 68.930076 61.416848 59.744891 c -0.135674,0 -0.492911,-0.0639 -0.600987,0.0218 -0.0924,0.0732 -0.03393,0.43788 -0.03393,0.54963 m 0,1.12169 H 239.08881 V 92.36267 H 101.20521 68.930076 61.416848 59.744891 c -0.135677,0 -0.492911,-0.0639 -0.600987,0.0218 -0.0924,0.0732 -0.03393,0.43789 -0.03393,0.54963 m 0,1.1217 H 239.08881 V 93.48437 H 101.20521 68.930076 61.416848 59.744891 c -0.135677,0 -0.492911,-0.0639 -0.600987,0.0218 -0.0924,0.0732 -0.03393,0.43788 -0.03393,0.54963 m 0,1.10053 179.978836,0.0212 V 94.6061 h -137.8836 c -10.759575,0 -21.515998,-0.0212 -32.27513,-0.0212 h -7.513228 -1.671957 c -0.135677,0 -0.49291,-0.0639 -0.600987,0.0218 -0.0924,0.0732 -0.03393,0.43788 -0.03393,0.54963 m 0,1.12169 179.978842,0.0212 v -0.57143 c -45.96297,0 -91.92085,-0.0212 -137.8836,-0.0212 H 68.930076 61.416848 59.744891 c -0.135677,0 -0.49291,-0.0639 -0.600987,0.0218 -0.0924,0.0732 -0.03393,0.43789 -0.03393,0.54963 m 0,1.12169 H 239.08881 v -0.55026 c -45.95958,0 -91.92233,-0.0212 -137.8836,-0.0212 H 68.930076 61.416848 59.744891 c -0.135674,0 -0.492912,-0.0639 -0.600987,0.0218 -0.0924,0.0732 -0.03393,0.43788 -0.03393,0.54963 m 0,1.12169 H 239.08881 V 97.94994 H 101.20521 68.930076 61.416848 59.744891 c -0.135674,0 -0.492911,-0.0639 -0.600987,0.0218 -0.0924,0.0732 -0.03393,0.43788 -0.03393,0.54963 m 0,1.12169 H 239.08881 V 99.07163 H 101.20521 68.930076 61.416848 59.744891 c -0.135677,0 -0.49291,-0.0639 -0.600987,0.0218 -0.0924,0.0732 -0.03393,0.43788 -0.03393,0.54963 m 0,1.12169 H 239.08881 v -0.57143 H 101.20521 68.930076 61.416848 59.744891 c -0.135677,0 -0.492909,-0.0639 -0.600987,0.0218 -0.0924,0.0732 -0.03393,0.43789 -0.03393,0.54963 m 0,1.12169 H 239.08881 v -0.57142 H 101.20521 68.930076 61.416848 59.744891 c -0.135674,0 -0.492912,-0.0639 -0.600987,0.0218 -0.0924,0.0732 -0.03393,0.43788 -0.03393,0.54962 m 0,1.1217 H 239.08881 v -0.57143 H 101.20521 68.930076 61.416848 59.744891 c -0.135674,0 -0.492911,-0.0639 -0.600987,0.0218 -0.0924,0.0732 -0.03393,0.43788 -0.03393,0.54963 m 0,1.12169 H 239.08881 V 103.5584 H 101.20521 68.930076 61.416848 59.744891 c -0.135672,0 -0.492913,-0.0639 -0.600987,0.0218 -0.0924,0.0732 -0.03393,0.43789 -0.03393,0.54963 m 0,1.12169 H 239.08881 v -0.57143 H 101.20521 68.930076 61.416848 59.744891 c -0.135672,0 -0.492913,-0.0639 -0.600987,0.0218 -0.0924,0.0732 -0.03393,0.43789 -0.03393,0.54963 m 0,1.1217 H 239.08881 v -0.57143 H 101.20521 68.930076 61.416848 59.744891 c -0.135672,0 -0.492915,-0.0639 -0.600987,0.0218 -0.0924,0.0732 -0.03393,0.43788 -0.03393,0.54963 m 0,1.12169 H 239.08881 v -0.57143 H 101.20521 68.930076 61.416848 59.744891 c -0.135672,0 -0.492913,-0.0639 -0.600987,0.0218 -0.0924,0.0732 -0.03393,0.43788 -0.03393,0.54963 m 0,1.10053 179.978836,0.0212 v -0.57143 c -45.96191,0 -91.92381,-0.0212 -137.8836,-0.0212 H 68.930076 61.416848 59.744891 c -0.135672,0 -0.492913,-0.0639 -0.600987,0.0218 -0.0924,0.0732 -0.03393,0.43789 -0.03393,0.54963 m 0,1.1217 179.978836,0.0212 v -0.57143 c -45.96149,0 -91.92106,-0.0212 -137.8836,-0.0212 H 68.930076 61.416848 59.744891 c -0.135672,0 -0.492913,-0.0639 -0.600987,0.0218 -0.0924,0.0732 -0.03393,0.43788 -0.03393,0.54963 m 0,1.12169 H 239.08881 V 110.2674 H 101.20521 68.930076 61.416848 59.744891 c -0.135672,0 -0.492914,-0.0639 -0.600987,0.0218 -0.0924,0.0732 -0.03393,0.43788 -0.03393,0.54963 m 0,1.12169 H 239.08881 v -0.57143 H 101.20521 68.930076 61.416848 59.744891 c -0.135672,0 -0.492914,-0.0639 -0.600987,0.0218 -0.0924,0.0732 -0.03393,0.43788 -0.03393,0.54963 m 0,1.12169 H 239.08881 v -0.57143 H 101.20521 68.930076 61.416848 59.744891 c -0.135672,0 -0.492913,-0.0639 -0.600987,0.0218 -0.0924,0.0732 -0.03393,0.43788 -0.03393,0.54963 m 0,1.12169 H 239.08881 v -0.57143 H 101.20521 68.930076 61.416848 59.744891 c -0.135672,0 -0.492914,-0.0639 -0.600987,0.0218 -0.0924,0.0732 -0.03393,0.43788 -0.03393,0.54963 m 0,1.12169 H 239.08881 v -0.57142 H 101.20521 68.930076 61.416848 59.744891 c -0.135672,0 -0.492914,-0.0639 -0.600987,0.0218 -0.0924,0.0732 -0.03393,0.43789 -0.03393,0.54963 m 0,1.1217 H 239.08881 v -0.57143 H 101.20521 68.930076 61.416848 59.744891 c -0.135672,0 -0.492914,-0.0639 -0.600987,0.0218 -0.0924,0.0732 -0.03393,0.43788 -0.03393,0.54963 m 0,1.12169 H 239.08881 v -0.57143 H 101.20521 68.930076 61.416848 59.744891 c -0.135672,0 -0.492914,-0.0639 -0.600987,0.0218 -0.0924,0.0732 -0.03393,0.43788 -0.03393,0.54963 m 0,1.12169 H 239.08881 v -0.57142 H 101.20521 68.930076 61.416848 59.744891 c -0.135672,0 -0.492914,-0.0639 -0.600987,0.0218 -0.0924,0.0732 -0.03393,0.43789 -0.03393,0.54963 m 0,1.1217 H 239.08881 v -0.57143 H 101.20521 68.930076 61.416848 59.744891 c -0.135672,0 -0.492914,-0.0639 -0.600987,0.0218 -0.0924,0.0732 -0.03393,0.43788 -0.03393,0.54963 m 0,1.10053 179.978836,0.0212 v -0.57143 h -137.8836 c -10.759575,0 -21.515998,-0.0212 -32.27513,-0.0212 h -7.513228 -1.671957 c -0.135672,0 -0.492914,-0.0639 -0.600987,0.0218 -0.0924,0.0732 -0.03393,0.43788 -0.03393,0.54963 m 0,1.12169 179.978842,0.0212 v -0.57143 c -45.96297,0 -91.92191,-0.0212 -137.8836,-0.0212 H 68.930076 61.416848 59.744891 c -0.135672,0 -0.492914,-0.0639 -0.600987,0.0218 -0.0924,0.0732 -0.03393,0.43788 -0.03393,0.54963 m 0,1.12169 H 239.08881 v -0.55026 c -45.95958,0 -91.92233,-0.0212 -137.8836,-0.0212 H 68.930076 61.416848 59.744891 c -0.135672,0 -0.492915,-0.0639 -0.600987,0.0218 -0.0924,0.0732 -0.03393,0.43789 -0.03393,0.54963 m 0,1.1217 H 239.08881 v -0.57143 H 101.20521 68.930076 61.416848 59.744891 c -0.135672,0 -0.492914,-0.0639 -0.600987,0.0218 -0.0924,0.0732 -0.03393,0.43788 -0.03393,0.54963 m 0,1.12169 H 239.08881 v -0.57143 H 101.20521 68.930076 61.416848 59.744891 c -0.135674,0 -0.492913,-0.0639 -0.600987,0.0218 -0.0924,0.0732 -0.03393,0.43788 -0.03393,0.54963 m 0,1.12169 H 239.08881 v -0.57142 H 101.20521 68.930076 61.416848 59.744891 c -0.135674,0 -0.492913,-0.0639 -0.600987,0.0218 -0.0924,0.0732 -0.03393,0.43789 -0.03393,0.54963 m 0,1.1217 H 239.08881 v -0.57143 H 101.20521 68.930076 61.416848 59.744891 c -0.135674,0 -0.492913,-0.0639 -0.600987,0.0218 -0.0924,0.0732 -0.03393,0.43788 -0.03393,0.54963 m 0,1.12169 H 239.08881 v -0.57143 H 101.20521 68.930076 61.416848 59.744891 c -0.135674,0 -0.492913,-0.0639 -0.600987,0.0218 -0.0924,0.0732 -0.03393,0.43788 -0.03393,0.54963 m 0,1.12169 H 239.08881 v -0.57143 H 101.20521 68.930076 61.416848 59.744891 c -0.135674,0 -0.492913,-0.0639 -0.600987,0.0218 -0.0924,0.0732 -0.03393,0.43789 -0.03393,0.54963 m 0,1.1217 H 239.08881 v -0.57143 H 101.20521 68.930076 61.416848 59.744891 c -0.135674,0 -0.492914,-0.0639 -0.600987,0.0218 -0.0924,0.0732 -0.03393,0.43788 -0.03393,0.54963 m 0,1.12169 H 239.08881 V 131.5584 H 101.20521 68.930076 61.416848 59.744891 c -0.135674,0 -0.492912,-0.0639 -0.600987,0.0218 -0.0924,0.0732 -0.03393,0.43788 -0.03393,0.54963 m 0,1.12169 H 239.08881 v -0.57143 H 101.20521 68.930076 61.416848 59.744891 c -0.135674,0 -0.492913,-0.0639 -0.600987,0.0218 -0.0924,0.0732 -0.03393,0.43789 -0.03393,0.54963 m 0,1.10053 179.978836,0.0212 v -0.57143 c -45.96191,0 -91.92381,-0.0212 -137.8836,-0.0212 H 68.930076 61.416848 59.744891 c -0.135674,0 -0.492912,-0.0639 -0.600987,0.0218 -0.0924,0.0732 -0.03393,0.43788 -0.03393,0.54963 m 0,1.12169 179.978836,0.0212 v -0.57143 c -45.96149,0 -91.92106,-0.0212 -137.8836,-0.0212 H 68.930076 61.416848 59.744891 c -0.135674,0 -0.492913,-0.0639 -0.600987,0.0218 -0.0924,0.0732 -0.03393,0.43789 -0.03393,0.54963 m 0,1.1217 H 239.08881 v -0.57143 H 101.20521 68.930076 61.416848 59.744891 c -0.135674,0 -0.492912,-0.0639 -0.600987,0.0218 -0.0924,0.0732 -0.03393,0.43788 -0.03393,0.54963 m 0,1.12169 H 239.08881 V 137.1457 H 101.20521 68.930076 61.416848 59.744891 c -0.135674,0 -0.492912,-0.0639 -0.600987,0.0218 -0.0924,0.0732 -0.03393,0.43788 -0.03393,0.54963 m 0,1.12169 H 239.08881 V 138.2674 H 101.20521 68.930076 61.416848 59.744891 c -0.135674,0 -0.492912,-0.0639 -0.600987,0.0218 -0.0924,0.0732 -0.03393,0.43789 -0.03393,0.54963 m 0,1.1217 H 239.08881 V 139.3891 H 101.20521 68.930076 61.416848 59.744891 c -0.135674,0 -0.492912,-0.0639 -0.600987,0.0218 -0.0924,0.0732 -0.03393,0.43788 -0.03393,0.54963 m 0,1.12169 H 239.08881 v -0.57143 H 101.20521 68.930076 61.416848 59.744891 c -0.135674,0 -0.492912,-0.0639 -0.600987,0.0218 -0.0924,0.0732 -0.03393,0.43788 -0.03393,0.54963 m 0,1.12169 H 239.08881 v -0.57142 H 101.20521 68.930076 61.416848 59.744891 c -0.135674,0 -0.492912,-0.0639 -0.600987,0.0218 -0.0924,0.0732 -0.03393,0.43789 -0.03393,0.54963 m 0,1.1217 H 239.08881 v -0.57143 H 101.20521 68.930076 61.416848 59.744891 c -0.135674,0 -0.492912,-0.0639 -0.600987,0.0218 -0.0924,0.0732 -0.03393,0.43788 -0.03393,0.54963 m 0,1.12169 H 239.08881 v -0.57143 H 101.20521 68.930076 61.416848 59.744891 c -0.135674,0 -0.492912,-0.0639 -0.600987,0.0218 -0.0924,0.0732 -0.03393,0.43788 -0.03393,0.54963 m 0,1.12169 H 239.08881 v -0.57143 H 101.20521 68.930076 61.416848 59.744891 c -0.135674,0 -0.492912,-0.0639 -0.600987,0.0218 -0.0924,0.0732 -0.03393,0.43789 -0.03393,0.54963 z"
       style="fill:none;stroke:#ff0000;stroke-width:0.121;stroke-opacity:1;stroke-miterlimit:4;stroke-dasharray:none" />
    <path
       id="path863"
       d="m 59.025314,66.119149 v 79.978831 h 0.08466 V 66.119149 h -0.08466 m 0.656085,0 v 79.978831 h 0.550264 V 66.119149 h -0.550264 m 1.100529,0 v 79.978831 h 0.550264 V 66.119149 h -0.550264 m 1.121693,0 v 79.978831 h 0.550264 V 66.119149 h -0.550264 m 1.121693,0 v 79.978831 h 0.550265 V 66.119149 h -0.550265 m 1.121693,0 v 79.978831 h 0.550265 V 66.119149 h -0.550265 m 1.121693,0 v 79.978831 h 0.550265 V 66.119149 H 65.2687 m 1.121693,0 v 79.978831 h 0.550265 V 66.119149 h -0.550265 m 1.121694,0 v 79.978831 h 0.550264 V 66.119149 h -0.550264 m 1.121693,0 v 79.978831 h 0.550264 V 66.119149 H 68.63378 m 1.121693,0 v 79.978831 h 0.550264 V 66.119149 h -0.550264 m 1.121693,0 V 146.09798 H 71.42743 V 66.119149 h -0.550264 m 1.121693,0 v 79.978831 h 0.550265 V 66.119149 h -0.550265 m 1.121693,0 v 79.978831 h 0.550265 V 66.119149 h -0.550265 m 1.100529,0 v 79.978831 h 0.550265 V 66.119149 h -0.550265 m 1.121693,0 v 79.978831 h 0.550265 V 66.119149 h -0.550265 m 1.121693,0 v 79.978831 h 0.550265 V 66.119149 h -0.550265 m 1.121694,0 v 79.978831 h 0.550264 V 66.119149 h -0.550264 m 1.121693,0 v 79.978831 h 0.550264 V 66.119149 h -0.550264 m 1.121693,0 v 79.978831 h 0.550264 V 66.119149 h -0.550264 m 1.121693,0 v 79.978831 h 0.550264 V 66.119149 H 80.95124 m 1.121693,0 v 79.978831 h 0.550265 V 66.119149 h -0.550265 m 1.121693,0 v 79.978831 h 0.550265 V 66.119149 h -0.550265 m 1.121693,0 v 79.978831 h 0.550265 V 66.119149 h -0.550265 m 1.121693,0 v 79.978831 h 0.550265 V 66.119149 h -0.550265 m 1.10053,0 v 79.978831 h 0.550264 V 66.119149 h -0.550264 m 1.121693,0 v 79.978831 h 0.550264 V 66.119149 h -0.550264 m 1.121693,0 v 79.978831 h 0.550264 V 66.119149 h -0.550264 m 1.121693,0 v 79.978831 h 0.550264 V 66.119149 h -0.550264 m 1.121693,0 v 79.978831 h 0.550265 V 66.119149 h -0.550265 m 1.121693,0 v 79.978831 h 0.550265 V 66.119149 h -0.550265 m 1.121693,0 v 79.978831 h 0.550265 V 66.119149 H 93.2687 m 1.121693,0 v 79.978831 h 0.550265 V 66.119149 h -0.550265 m 1.121694,0 v 79.978831 h 0.550264 V 66.119149 h -0.550264 m 1.121693,0 v 79.978831 h 0.550264 V 66.119149 H 96.63378 m 1.121693,0 v 79.978831 h 0.550264 V 66.119149 h -0.550264 m 1.121693,0 V 146.09798 H 99.42743 V 66.119149 h -0.550264 m 1.100534,0 v 79.978831 h 0.55026 V 66.119149 H 99.9777 m 1.12169,0 v 79.978831 h 0.55027 V 66.119149 h -0.55027 m 1.12169,0 v 79.978831 h 0.55027 V 66.119149 h -0.55026 m 1.12169,0 v 79.978831 h 0.55026 V 66.119149 h -0.55026 m 1.12169,0 v 79.978831 h 0.55027 V 66.119149 h -0.55027 m 1.12169,0 v 79.978831 h 0.55027 V 66.119149 h -0.55027 m 1.1217,0 v 79.978831 h 0.55026 V 66.119149 h -0.55026 m 1.12169,0 v 79.978831 h 0.55027 V 66.119149 h -0.55027 m 1.12169,0 v 79.978831 h 0.55027 V 66.119149 h -0.55027 m 1.1217,0 v 79.978831 h 0.55026 V 66.119149 h -0.55026 m 1.12169,0 v 79.978831 h 0.55026 V 66.119149 h -0.55026 m 1.12169,0 v 79.978831 h 0.55027 V 66.119149 h -0.55027 m 1.10053,0 v 79.978831 h 0.55026 V 66.119149 h -0.55026 m 1.12169,0 v 79.978831 h 0.55026 V 66.119149 h -0.55026 m 1.12169,0 v 79.978831 h 0.55027 V 66.119149 h -0.55027 m 1.1217,0 v 79.978831 h 0.55026 V 66.119149 h -0.55026 m 1.12169,0 v 79.978831 h 0.55026 V 66.119149 h -0.55026 m 1.12169,0 v 79.978831 h 0.55027 V 66.119149 h -0.55027 m 1.1217,0 v 79.978831 h 0.55026 V 66.119149 h -0.55026 m 1.12169,0 v 79.978831 h 0.55026 V 66.119149 h -0.55026 m 1.12169,0 v 79.978831 h 0.55027 V 66.119149 h -0.55027 m 1.1217,0 v 79.978831 h 0.55026 V 66.119149 h -0.55026 m 1.12169,0 v 79.978831 h 0.55026 V 66.119149 h -0.55026 m 1.10053,0 v 79.978831 h 0.55026 V 66.119149 h -0.55026 m 1.12169,0 v 79.978831 h 0.55026 V 66.119149 h -0.55025 m 1.12168,0 v 79.978831 h 0.55027 V 66.119149 h -0.55027 m 1.1217,0 v 79.978831 h 0.55026 V 66.119149 h -0.55026 m 1.12169,0 v 79.978831 h 0.55026 V 66.119149 h -0.55026 m 1.12169,0 v 79.978831 h 0.55028 V 66.119149 h -0.55028 m 1.1217,0 v 79.978831 h 0.55027 V 66.119149 h -0.55027 m 1.12169,0 v 79.978831 h 0.55027 V 66.119149 h -0.55027 m 1.12169,0 v 79.978831 h 0.55028 V 66.119149 h -0.55028 m 1.12171,0 v 79.978831 h 0.55026 V 66.119149 h -0.55026 m 1.12169,0 v 79.978831 h 0.55026 V 66.119149 h -0.55026 m 1.12169,0 v 79.978831 h 0.55027 V 66.119149 h -0.55027 m 1.10053,0 v 79.978831 h 0.55027 V 66.119149 h -0.55027 m 1.12169,0 v 79.978831 h 0.55027 V 66.119149 h -0.55027 m 1.1217,0 v 79.978831 h 0.55026 V 66.119149 h -0.55026 m 1.12169,0 v 79.978831 h 0.55026 V 66.119149 h -0.55026 m 1.12169,0 v 79.978831 h 0.55027 V 66.119149 h -0.55027 m 1.1217,0 v 79.978831 h 0.55026 V 66.119149 h -0.55026 m 1.12169,0 v 79.978831 h 0.55026 V 66.119149 h -0.55026 m 1.12169,0 v 79.978831 h 0.55027 V 66.119149 h -0.55027 m 1.1217,0 v 79.978831 h 0.55026 V 66.119149 h -0.55026 m 1.12169,0 v 79.978831 h 0.55026 V 66.119149 h -0.55026 m 1.12169,0 v 79.978831 h 0.55027 V 66.119149 h -0.55027 m 1.10053,0 v 79.978831 h 0.55027 V 66.119149 h -0.55027 m 1.12169,0 v 79.978831 h 0.55027 V 66.119149 h -0.55027 m 1.1217,0 v 79.978831 h 0.55026 V 66.119149 h -0.55026 m 1.12169,0 v 79.978831 h 0.55026 V 66.119149 H 154.856 m 1.12169,0 v 79.978831 h 0.55027 V 66.119149 h -0.55027 m 1.1217,0 v 79.978831 h 0.55026 V 66.119149 h -0.55026 m 1.12169,0 v 79.978831 h 0.55026 V 66.119149 h -0.55026 m 1.12169,0 v 79.978831 h 0.55028 V 66.119149 h -0.55028 m 1.1217,0 v 79.978831 h 0.55027 V 66.119149 h -0.55027 m 1.12169,0 v 79.978831 h 0.55027 V 66.119149 h -0.55027 m 1.12169,0 v 79.978831 h 0.55028 V 66.119149 h -0.55028 m 1.12171,0 v 79.978831 h 0.55026 V 66.119149 h -0.55026 m 1.10051,0 v 79.978831 h 0.55028 V 66.119149 h -0.55028 m 1.1217,0 v 79.978831 h 0.55027 V 66.119149 h -0.55027 m 1.12169,0 v 79.978831 h 0.55028 V 66.119149 h -0.55028 m 1.12169,0 v 79.978831 h 0.55028 V 66.119149 h -0.55028 m 1.1217,0 v 79.978831 h 0.55027 V 66.119149 h -0.55027 m 1.1217,0 v 79.978831 h 0.55026 V 66.119149 h -0.55026 m 1.12169,0 v 79.978831 h 0.55027 V 66.119149 h -0.55027 m 1.1217,0 v 79.978831 h 0.55026 V 66.119149 h -0.55026 m 1.12169,0 v 79.978831 h 0.55026 V 66.119149 h -0.55026 m 1.12169,0 v 79.978831 h 0.55027 V 66.119149 h -0.55027 m 1.1217,0 v 79.978831 h 0.55026 V 66.119149 h -0.55026 m 1.10052,0 v 79.978831 h 0.55027 V 66.119149 h -0.55027 m 1.1217,0 v 79.978831 h 0.55026 V 66.119149 h -0.55026 m 1.12169,0 v 79.978831 h 0.55027 V 66.119149 h -0.55027 m 1.12169,0 v 79.978831 h 0.55027 V 66.119149 h -0.55027 m 1.1217,0 v 79.978831 h 0.55026 V 66.119149 h -0.55026 m 1.12169,0 v 79.978831 h 0.55026 V 66.119149 H 182.856 m 1.12169,0 v 79.978831 h 0.55027 V 66.119149 h -0.55027 m 1.1217,0 v 79.978831 h 0.55026 V 66.119149 h -0.55026 m 1.12169,0 v 79.978831 h 0.55026 V 66.119149 h -0.55026 m 1.12169,0 v 79.978831 h 0.55028 V 66.119149 h -0.55028 m 1.1217,0 v 79.978831 h 0.55027 V 66.119149 h -0.55027 m 1.12169,0 v 79.978831 h 0.55027 V 66.119149 h -0.55027 m 1.10053,0 v 79.978831 h 0.55026 V 66.119149 h -0.55026 m 1.12169,0 v 79.978831 h 0.55027 V 66.119149 h -0.55027 m 1.12169,0 v 79.978831 h 0.55028 V 66.119149 h -0.55028 m 1.1217,0 v 79.978831 h 0.55027 V 66.119149 h -0.55027 m 1.12169,0 v 79.978831 h 0.55028 V 66.119149 h -0.55028 m 1.12169,0 v 79.978831 h 0.55028 V 66.119149 h -0.55028 m 1.1217,0 v 79.978831 h 0.55027 V 66.119149 h -0.55027 m 1.1217,0 v 79.978831 h 0.55026 V 66.119149 h -0.55026 m 1.12169,0 v 79.978831 h 0.55027 V 66.119149 h -0.55027 m 1.1217,0 v 79.978831 h 0.55026 V 66.119149 h -0.55026 m 1.12169,0 v 79.978831 h 0.55026 V 66.119149 h -0.55026 m 1.10052,0 v 79.978831 h 0.55027 V 66.119149 h -0.55027 m 1.12169,0 v 79.978831 h 0.55028 V 66.119149 h -0.55028 m 1.1217,0 v 79.978831 h 0.55027 V 66.119149 h -0.55027 m 1.1217,0 v 79.978831 h 0.55026 V 66.119149 h -0.55026 m 1.12169,0 v 79.978831 h 0.55027 V 66.119149 h -0.55027 m 1.12169,0 v 79.978831 h 0.55027 V 66.119149 h -0.55027 m 1.1217,0 v 79.978831 h 0.55026 V 66.119149 h -0.55026 m 1.12169,0 v 79.978831 h 0.55026 V 66.119149 H 210.856 m 1.12169,0 v 79.978831 h 0.55027 V 66.119149 h -0.55027 m 1.1217,0 v 79.978831 h 0.55027 V 66.119149 h -0.55027 m 1.12169,0 v 79.978831 h 0.55028 V 66.119149 h -0.55028 m 1.1217,0 v 79.978831 h 0.55027 V 66.119149 h -0.55027 m 1.10053,0 v 79.978831 h 0.55026 V 66.119149 h -0.55026 m 1.12169,0 v 79.978831 h 0.55026 V 66.119149 H 217.565 m 1.12169,0 v 79.978831 h 0.55027 V 66.119149 h -0.55027 m 1.1217,0 v 79.978831 h 0.55026 V 66.119149 h -0.55026 m 1.12169,0 v 79.978831 h 0.55027 V 66.119149 h -0.55027 m 1.12169,0 v 79.978831 h 0.55028 V 66.119149 h -0.55028 m 1.1217,0 v 79.978831 h 0.55027 V 66.119149 h -0.55027 m 1.12169,0 v 79.978831 h 0.55027 V 66.119149 h -0.55027 m 1.12169,0 v 79.978831 h 0.55028 V 66.119149 h -0.55028 m 1.1217,0 v 79.978831 h 0.55027 V 66.119149 h -0.55027 m 1.1217,0 v 79.978831 h 0.55026 V 66.119149 h -0.55026 m 1.10052,0 v 79.978831 h 0.55027 V 66.119149 h -0.55027 m 1.12169,0 v 79.978831 h 0.55027 V 66.119149 h -0.55027 m 1.12169,0 v 79.978831 h 0.55028 V 66.119149 h -0.55028 m 1.12171,0 v 79.978831 h 0.55026 V 66.119149 h -0.55026 m 1.12169,0 v 79.978831 h 0.55026 V 66.119149 h -0.55026 m 1.12169,0 v 79.978831 h 0.55027 V 66.119149 h -0.55027 m 1.1217,0 v 79.978831 h 0.55026 V 66.119149 h -0.55026 m 1.12169,0 v 79.978831 h 0.55026 V 66.119149 h -0.55026 m 1.12169,0 v 79.978831 h 0.55027 V 66.119149 h -0.55027 m 1.12169,0 v 79.978831 h 0.14814 V 66.119149 Z"
       style="fill:none;stroke:#0000ff;stroke-width:0.121;stroke-miterlimit:4;stroke-dasharray:none;stroke-opacity:1" />
    <rect
       y="57.862343"
       x="44.270515"
       height="97.861145"
       width="208.14909"
       id="rect865"
       style="fill:none;stroke:#0000ff;stroke-width:0.121;stroke-miterlimit:4;stroke-dasharray:none;stroke-opacity:1" />
  </g>
</svg>
