<?xml version="1.0" encoding="UTF-8" standalone="no"?>
<svg
   xmlns:dc="http://purl.org/dc/elements/1.1/"
   xmlns:cc="http://creativecommons.org/ns#"
   xmlns:rdf="http://www.w3.org/1999/02/22-rdf-syntax-ns#"
   xmlns:svg="http://www.w3.org/2000/svg"
   xmlns="http://www.w3.org/2000/svg"
   xmlns:sodipodi="http://sodipodi.sourceforge.net/DTD/sodipodi-0.dtd"
   xmlns:inkscape="http://www.inkscape.org/namespaces/inkscape"
   sodipodi:docname="05mm_75percent.svg"
   inkscape:version="1.0 (4035a4fb49, 2020-05-01)"
   id="svg8"
   version="1.1"
   viewBox="0 0 297 210"
   height="210mm"
   width="297mm">
  <defs
     id="defs2" />
  <sodipodi:namedview
     inkscape:window-maximized="1"
     inkscape:window-y="-8"
     inkscape:window-x="-8"
     inkscape:window-height="1009"
     inkscape:window-width="1920"
     showgrid="false"
     inkscape:document-rotation="0"
     inkscape:current-layer="layer1"
     inkscape:document-units="mm"
     inkscape:cy="282.68051"
     inkscape:cx="577.33864"
     inkscape:zoom="0.68132251"
     inkscape:pageshadow="2"
     inkscape:pageopacity="0.0"
     borderopacity="1.0"
     bordercolor="#666666"
     pagecolor="#ffffff"
     id="base" />
  <metadata
     id="metadata5">
    <rdf:RDF>
      <cc:Work
         rdf:about="">
        <dc:format>image/svg+xml</dc:format>
        <dc:type
           rdf:resource="http://purl.org/dc/dcmitype/StillImage" />
        <dc:title></dc:title>
      </cc:Work>
    </rdf:RDF>
  </metadata>
  <g
     id="layer1"
     inkscape:groupmode="layer"
     inkscape:label="Layer 1">
    <path
       id="path861"
       d="m 60.578521,60.443777 v 79.999993 h 0.2328 V 60.443777 h -0.2328 m 0.93122,0 v 79.999993 h 0.65608 V 60.443777 h -0.65608 m 1.33333,0 v 79.999993 h 0.65608 V 60.443777 h -0.65608 m 1.33333,0 v 79.999993 h 0.65609 V 60.443777 h -0.65609 m 1.33334,0 v 79.999993 h 0.65608 V 60.443777 h -0.65608 m 1.35449,0 v 79.999993 h 0.65609 V 60.443777 h -0.65609 m 1.33334,0 v 79.999993 h 0.65608 V 60.443777 h -0.65608 m 1.33333,0 v 79.999993 h 0.65608 V 60.443777 h -0.65608 m 1.3545,0 v 79.999993 h 0.65608 V 60.443777 h -0.65608 m 1.33333,0 v 79.999993 h 0.65608 V 60.443777 h -0.65608 m 1.33333,0 v 79.999993 h 0.65609 V 60.443777 h -0.65609 m 1.3545,0 v 79.999993 h 0.65609 V 60.443777 h -0.65609 m 1.33333,0 v 79.999993 h 0.65609 V 60.443777 h -0.65609 m 1.33334,0 v 79.999993 h 0.65608 V 60.443777 h -0.65608 m 1.35449,0 v 79.999993 h 0.65609 V 60.443777 h -0.65609 m 1.33334,0 v 79.999993 h 0.65608 V 60.443777 h -0.65608 m 1.33333,0 v 79.999993 h 0.65609 V 60.443777 h -0.65609 m 1.3545,0 v 79.999993 h 0.65608 V 60.443777 h -0.65608 m 1.33333,0 v 79.999993 h 0.65609 V 60.443777 h -0.65609 m 1.33334,0 v 79.999993 h 0.65608 V 60.443777 h -0.65608 m 1.33333,0 v 79.999993 h 0.65608 V 60.443777 h -0.65608 m 1.3545,0 v 79.999993 h 0.65608 V 60.443777 h -0.65608 m 1.33333,0 v 79.999993 h 0.65608 V 60.443777 h -0.65608 m 1.33333,0 v 79.999993 h 0.65609 V 60.443777 h -0.65609 m 1.3545,0 v 79.999993 h 0.65608 V 60.443777 h -0.65608 m 1.33333,0 v 79.999993 h 0.65609 V 60.443777 h -0.65609 m 1.33334,0 v 79.999993 h 0.65608 V 60.443777 h -0.65608 m 1.3545,0 v 79.999993 h 0.656076 V 60.443777 h -0.656076 m 1.333326,0 v 79.999993 h 0.65609 V 60.443777 h -0.65609 m 1.33334,0 v 79.999993 h 0.65608 V 60.443777 h -0.65608 m 1.354493,0 v 79.999993 h 0.65609 V 60.443777 h -0.65609 m 1.33334,0 v 79.999993 h 0.65608 V 60.443777 h -0.65608 m 1.33334,0 v 79.999993 h 0.65608 V 60.443777 h -0.65608 m 1.3545,0 v 79.999993 h 0.65608 V 60.443777 h -0.65608 m 1.33333,0 v 79.999993 h 0.65608 V 60.443777 h -0.65608 m 1.33333,0 v 79.999993 h 0.65609 V 60.443777 h -0.65609 m 1.33334,0 v 79.999993 h 0.65608 V 60.443777 h -0.65608 m 1.35449,0 v 79.999993 h 0.65609 V 60.443777 h -0.65609 m 1.33334,0 v 79.999993 h 0.65608 V 60.443777 h -0.65608 m 1.33333,0 v 79.999993 h 0.65609 V 60.443777 h -0.65609 m 1.3545,0 v 79.999993 h 0.65608 V 60.443777 h -0.65608 m 1.33333,0 v 79.999993 h 0.65609 V 60.443777 h -0.65609 m 1.33333,0 v 79.999993 h 0.65609 V 60.443777 h -0.65609 m 1.3545,0 v 79.999993 h 0.65609 V 60.443777 h -0.65609 m 1.33334,0 v 79.999993 h 0.65608 V 60.443777 h -0.65608 m 1.33333,0 v 79.999993 h 0.65608 V 60.443777 h -0.65608 m 1.3545,0 v 79.999993 h 0.65608 V 60.443777 h -0.65608 m 1.33333,0 v 79.999993 h 0.65608 V 60.443777 h -0.65608 m 1.33333,0 v 79.999993 h 0.65609 V 60.443777 h -0.65609 m 1.3545,0 v 79.999993 h 0.65608 V 60.443777 h -0.65608 m 1.33333,0 v 79.999993 h 0.65608 V 60.443777 h -0.65608 m 1.33333,0 v 79.999993 h 0.65608 V 60.443777 h -0.65608 m 1.33333,0 v 79.999993 h 0.65608 V 60.443777 h -0.65608 m 1.3545,0 v 79.999993 h 0.65608 V 60.443777 h -0.65608 m 1.33333,0 v 79.999993 h 0.65609 V 60.443777 h -0.65609 m 1.33333,0 v 79.999993 h 0.65609 V 60.443777 h -0.65609 m 1.3545,0 v 79.999993 h 0.65609 V 60.443777 h -0.65609 m 1.33333,0 v 79.999993 h 0.65609 V 60.443777 h -0.65609 m 1.33334,0 v 79.999993 h 0.65608 V 60.443777 h -0.65608 m 1.3545,0 v 79.999993 h 0.65608 V 60.443777 h -0.65608 m 1.33333,0 v 79.999993 h 0.65608 V 60.443777 h -0.65608 m 1.33333,0 v 79.999993 h 0.65609 V 60.443777 h -0.65609 m 1.3545,0 v 79.999993 h 0.65608 V 60.443777 h -0.65608 m 1.33333,0 v 79.999993 h 0.65609 V 60.443777 h -0.65609 m 1.33334,0 v 79.999993 h 0.65608 V 60.443777 h -0.65608 m 1.35449,0 v 79.999993 h 0.65609 V 60.443777 h -0.65609 m 1.33334,0 v 79.999993 h 0.65608 V 60.443777 h -0.65608 m 1.33333,0 v 79.999993 h 0.65609 V 60.443777 h -0.65609 m 1.33333,0 v 79.999993 h 0.65609 V 60.443777 h -0.65609 m 1.3545,0 v 79.999993 h 0.65609 V 60.443777 h -0.65609 m 1.33333,0 v 79.999993 h 0.65609 V 60.443777 h -0.65609 m 1.33334,0 v 79.999993 h 0.65608 V 60.443777 h -0.65608 m 1.3545,0 v 79.999993 h 0.65608 V 60.443777 h -0.65608 m 1.33333,0 v 79.999993 h 0.65608 V 60.443777 h -0.65608 m 1.33333,0 v 79.999993 h 0.65609 V 60.443777 h -0.65609 m 1.3545,0 v 79.999993 h 0.65608 V 60.443777 h -0.65608 m 1.33333,0 v 79.999993 h 0.65609 V 60.443777 h -0.65609 m 1.33334,0 v 79.999993 h 0.65608 V 60.443777 h -0.65608 m 1.35449,0 v 79.999993 h 0.65609 V 60.443777 h -0.65609 m 1.33334,0 v 79.999993 h 0.65608 V 60.443777 h -0.65608 m 1.33333,0 v 79.999993 h 0.65608 V 60.443777 h -0.65608 m 1.3545,0 v 79.999993 h 0.65608 V 60.443777 h -0.65608 m 1.33333,0 v 79.999993 h 0.65609 V 60.443777 h -0.65609 m 1.33333,0 v 79.999993 h 0.65609 V 60.443777 h -0.65609 m 1.33334,0 v 79.999993 h 0.65608 V 60.443777 h -0.65608 m 1.35449,0 v 79.999993 h 0.65609 V 60.443777 H 174.06 m 1.33334,0 v 79.999993 h 0.65608 V 60.443777 h -0.65608 m 1.33333,0 v 79.999993 h 0.65609 V 60.443777 h -0.65609 m 1.3545,0 v 79.999993 h 0.65608 V 60.443777 h -0.65608 m 1.33333,0 v 79.999993 h 0.65609 V 60.443777 h -0.65609 m 1.33334,0 v 79.999993 h 0.65608 V 60.443777 h -0.65608 m 1.35449,0 v 79.999993 h 0.65609 V 60.443777 h -0.65609 m 1.33334,0 v 79.999993 h 0.65608 V 60.443777 h -0.65608 m 1.33333,0 v 79.999993 h 0.65608 V 60.443777 H 184.769 m 1.3545,0 v 79.999993 h 0.65608 V 60.443777 h -0.65608 m 1.33333,0 v 79.999993 h 0.65608 V 60.443777 h -0.65608 m 1.33333,0 v 79.999993 h 0.65609 V 60.443777 h -0.65609 m 1.3545,0 v 79.999993 h 0.65609 V 60.443777 h -0.65609 m 1.33333,0 v 79.999993 h 0.65609 V 60.443777 h -0.65609 m 1.33334,0 v 79.999993 h 0.65608 V 60.443777 h -0.65608 m 1.33333,0 v 79.999993 h 0.65609 V 60.443777 h -0.65609 m 1.3545,0 v 79.999993 h 0.65608 V 60.443777 h -0.65608 m 1.33333,0 v 79.999993 h 0.65609 V 60.443777 h -0.65609 m 1.33333,0 v 79.999993 h 0.65609 V 60.443777 h -0.65609 m 1.3545,0 v 79.999993 h 0.65609 V 60.443777 h -0.65609 m 1.33334,0 v 79.999993 h 0.65608 V 60.443777 h -0.65608 m 1.33333,0 v 79.999993 h 0.65608 V 60.443777 h -0.65608 m 1.3545,0 v 79.999993 h 0.65608 V 60.443777 h -0.65608 m 1.33333,0 v 79.999993 h 0.65608 V 60.443777 h -0.65608 m 1.33333,0 v 79.999993 h 0.65609 V 60.443777 h -0.65609 m 1.3545,0 v 79.999993 h 0.65608 V 60.443777 h -0.65608 m 1.33333,0 v 79.999993 h 0.65609 V 60.443777 h -0.65609 m 1.33334,0 v 79.999993 h 0.65608 V 60.443777 h -0.65608 m 1.35449,0 v 79.999993 h 0.65609 V 60.443777 h -0.65609 m 1.33334,0 v 79.999993 h 0.65608 V 60.443777 h -0.65608 m 1.33333,0 v 79.999993 h 0.65609 V 60.443777 h -0.65609 m 1.33333,0 v 79.999993 h 0.65609 V 60.443777 h -0.65609 m 1.3545,0 v 79.999993 h 0.65609 V 60.443777 h -0.65609 m 1.33333,0 v 79.999993 h 0.65609 V 60.443777 h -0.65609 m 1.33334,0 v 79.999993 h 0.65608 V 60.443777 h -0.65608 m 1.3545,0 v 79.999993 h 0.65608 V 60.443777 h -0.65608 m 1.33333,0 v 79.999993 h 0.65608 V 60.443777 h -0.65608 m 1.33333,0 v 79.999993 h 0.65609 V 60.443777 h -0.65609 m 1.3545,0 v 79.999993 h 0.65608 V 60.443777 h -0.65608 m 1.33333,0 v 79.999993 h 0.65609 V 60.443777 h -0.65609 m 1.33334,0 v 79.999993 h 0.65608 V 60.443777 h -0.65608 m 1.35449,0 v 79.999993 h 0.65609 V 60.443777 h -0.65609 m 1.33334,0 v 79.999993 h 0.65608 V 60.443777 h -0.65608 m 1.33333,0 v 79.999993 h 0.65608 V 60.443777 h -0.65608 m 1.3545,0 v 79.999993 h 0.65608 V 60.443777 h -0.65608 m 1.33333,0 v 79.999993 h 0.65609 V 60.443777 h -0.65609 m 1.33333,0 v 79.999993 h 0.65609 V 60.443777 h -0.65609 m 1.33334,0 v 79.999993 h 0.65608 V 60.443777 h -0.65608 m 1.35449,0 v 79.999993 h 0.65609 V 60.443777 h -0.65609 m 1.33334,0 v 79.999993 h 0.65608 V 60.443777 Z"
       style="fill:none;stroke:#ff0000;stroke-width:0.121;stroke-miterlimit:4;stroke-dasharray:none;stroke-opacity:1" />
    <path
       id="path877"
       d="m 60.811321,60.443777 v 0.65609 H 240.79016 v -0.65609 H 60.811321 m 0,1.33333 v 0.67725 H 240.79016 v -0.67725 H 60.811321 m 0,1.33334 v 0.67725 H 240.79016 v -0.67725 H 60.811321 m 0,1.33333 v 0.67725 H 240.79016 v -0.67725 H 60.811321 m 0,1.3545 v 0.65608 H 240.79016 v -0.65608 H 60.811321 m 0,1.33333 v 0.67725 H 240.79016 v -0.67725 H 60.811321 m 0,1.33333 v 0.67725 H 240.79016 v -0.67725 H 60.811321 m 0,1.3545 v 0.65609 H 240.79016 v -0.65609 H 60.811321 m 0,1.33334 v 0.67724 H 240.79016 v -0.67724 H 60.811321 m 0,1.33333 v 0.67725 H 240.79016 v -0.67725 H 60.811321 m 0,1.3545 v 0.65608 H 240.79016 v -0.65608 H 60.811321 m 0,1.33333 v 0.67725 H 240.79016 v -0.67725 H 60.811321 m 0,1.33333 v 0.67725 H 240.79016 v -0.67725 H 60.811321 m 0,1.33334 v 0.67724 H 240.79016 v -0.65608 l -179.978839,-0.0212 m 0,1.35449 v 0.65609 H 240.79016 v -0.65609 H 60.811321 m 0,1.33334 v 0.67725 H 240.79016 v -0.67725 H 60.811321 m 0,1.33333 v 0.67729 H 240.79016 v -0.67725 H 60.811321 m 0,1.3545 v 0.65608 H 240.79016 v -0.65608 H 60.811321 m 0,1.33333 v 0.67725 H 240.79016 v -0.67725 H 60.811321 m 0,1.33333 v 0.67725 H 240.79016 v -0.67725 H 60.811321 m 0,1.3545 v 0.65609 H 240.79016 v -0.65609 H 60.811321 m 0,1.33333 v 0.67725 H 240.79016 v -0.67725 H 60.811321 m 0,1.33334 v 0.67725 H 240.79016 v -0.67725 H 60.811321 m 0,1.3545 v 0.65608 H 240.79016 v -0.65608 H 60.811321 m 0,1.33333 v 0.67725 H 240.79016 v -0.67725 H 60.811321 m 0,1.33333 v 0.67725 H 240.79016 v -0.67725 H 60.811321 m 0,1.33334 v 0.67724 H 240.79016 v -0.65608 l -179.978839,-0.0212 m 0,1.35449 v 0.65609 H 240.79016 v -0.65609 H 60.811321 m 0,1.333335 v 0.67724 H 240.79016 v -0.67724 H 60.811321 m 0,1.33333 v 0.67725 H 240.79016 v -0.67725 H 60.811321 m 0,1.354498 v 0.65608 H 240.79016 v -0.65608 H 60.811321 m 0,1.33333 v 0.67725 H 240.79016 v -0.67725 H 60.811321 m 0,1.33333 v 0.67725 H 240.79016 v -0.67721 H 60.811321 m 0,1.3545 v 0.65609 H 240.79016 v -0.65609 H 60.811321 m 0,1.33333 v 0.67725 H 240.79016 v -0.67725 H 60.811321 m 0,1.33334 v 0.67725 H 240.79016 v -0.67725 H 60.811321 m 0,1.33333 v 0.67725 H 240.79016 v -0.65609 l -179.978839,-0.0212 m 0,1.3545 v 0.67725 H 240.79016 v -0.67725 H 60.811321 m 0,1.33333 v 0.67725 H 240.79016 V 111.3432 H 60.811321 m 0,1.33333 v 0.67725 H 240.79016 V 112.6977 L 60.811321,112.6765 m 0,1.3545 v 0.65609 H 240.79016 V 114.031 H 60.811321 m 0,1.33334 v 0.67724 H 240.79016 v -0.67721 H 60.811321 m 0,1.33333 v 0.67725 H 240.79016 V 116.6977 H 60.811321 m 0,1.3545 v 0.65608 H 240.79016 V 118.0522 H 60.811321 m 0,1.33333 v 0.67725 H 240.79016 v -0.67725 H 60.811321 m 0,1.33333 v 0.67725 H 240.79016 V 120.7189 H 60.811321 m 0,1.3545 v 0.65608 H 240.79016 V 122.0734 H 60.811321 m 0,1.33333 v 0.67725 H 240.79016 v -0.67725 H 60.811321 m 0,1.33334 v 0.67725 H 240.79016 v -0.67725 H 60.811321 m 0,1.33333 v 0.67725 H 240.79016 v -0.65609 l -179.978839,-0.0212 m 0,1.3545 v 0.67725 H 240.79016 v -0.67725 H 60.811321 m 0,1.33333 v 0.67725 H 240.79016 v -0.67725 H 60.811321 m 0,1.33333 v 0.67725 H 240.79016 v -0.65608 l -179.978839,-0.0212 m 0,1.3545 v 0.65609 H 240.79016 v -0.65609 H 60.811321 m 0,1.33333 v 0.67725 H 240.79016 v -0.67725 H 60.811321 m 0,1.33334 v 0.67725 H 240.79016 v -0.67725 H 60.811321 m 0,1.3545 v 0.65608 H 240.79016 v -0.65608 H 60.811321 m 0,1.33333 v 0.67725 H 240.79016 v -0.67725 H 60.811321 m 0,1.33333 v 0.67725 H 240.79016 v -0.67725 H 60.811321 m 0,1.3545 v 0.42328 h 137.862429 32.2963 7.53439 1.6508 c 0.13566,0 0.49291,0.0639 0.60105,-0.0218 0.0775,-0.0614 0.0339,-0.3109 0.0339,-0.40148 z"
       style="fill:none;stroke:#0000ff;stroke-width:0.121;stroke-miterlimit:4;stroke-dasharray:none;stroke-opacity:1" />
    <rect
       y="51.648937"
       x="44.270515"
       height="102.52119"
       width="214.3625"
       id="rect879"
       style="fill:none;stroke:#0000ff;stroke-width:0.121;stroke-miterlimit:4;stroke-dasharray:none;stroke-opacity:1" />
  </g>
</svg>
