<?xml version="1.0" encoding="UTF-8" standalone="no"?>
<svg
   xmlns:dc="http://purl.org/dc/elements/1.1/"
   xmlns:cc="http://creativecommons.org/ns#"
   xmlns:rdf="http://www.w3.org/1999/02/22-rdf-syntax-ns#"
   xmlns:svg="http://www.w3.org/2000/svg"
   xmlns="http://www.w3.org/2000/svg"
   xmlns:sodipodi="http://sodipodi.sourceforge.net/DTD/sodipodi-0.dtd"
   xmlns:inkscape="http://www.inkscape.org/namespaces/inkscape"
   sodipodi:docname="05mm_100percent_uni.svg"
   inkscape:version="1.0 (4035a4fb49, 2020-05-01)"
   id="svg8"
   version="1.1"
   viewBox="0 0 297 210"
   height="210mm"
   width="297mm">
  <defs
     id="defs2" />
  <sodipodi:namedview
     inkscape:window-maximized="1"
     inkscape:window-y="-8"
     inkscape:window-x="-8"
     inkscape:window-height="1009"
     inkscape:window-width="1920"
     showgrid="false"
     inkscape:document-rotation="0"
     inkscape:current-layer="layer1"
     inkscape:document-units="mm"
     inkscape:cy="364.4265"
     inkscape:cx="414.47866"
     inkscape:zoom="0.68132251"
     inkscape:pageshadow="2"
     inkscape:pageopacity="0.0"
     borderopacity="1.0"
     bordercolor="#666666"
     pagecolor="#ffffff"
     id="base" />
  <metadata
     id="metadata5">
    <rdf:RDF>
      <cc:Work
         rdf:about="">
        <dc:format>image/svg+xml</dc:format>
        <dc:type
           rdf:resource="http://purl.org/dc/dcmitype/StillImage" />
        <dc:title></dc:title>
      </cc:Work>
    </rdf:RDF>
  </metadata>
  <g
     id="layer1"
     inkscape:groupmode="layer"
     inkscape:label="Layer 1">
    <path
       id="path847"
       d="m 61.819557,63.930269 v 0.50793 H 241.7984 v -0.50793 H 61.819557 m 0,1.01587 v 0.48677 H 241.7984 v -0.48677 H 61.819557 m 0,0.99471 v 0.50793 H 241.7984 v -0.50793 H 61.819557 m 0,0.99471 v 0.50793 H 241.7984 v -0.50793 H 61.819557 m 0,0.99471 v 0.50793 H 241.7984 v -0.50793 H 61.819557 m 0,1.01587 v 0.48677 H 241.7984 v -0.48677 H 61.819557 m 0,0.99471 v 0.50793 H 241.7984 v -0.50793 H 61.819557 m 0,0.99471 v 0.50793 H 241.7984 v -0.50793 H 61.819557 m 0,0.99471 v 0.50793 H 241.7984 v -0.50793 H 61.819557 m 0,1.01587 v 0.48677 H 241.7984 v -0.48677 H 61.819557 m 0,0.99471 v 0.48677 H 241.7984 v -0.48677 H 61.819557 m 0,0.99471 v 0.50793 H 241.7984 v -0.50793 H 61.819557 m 0,0.99471 v 0.50793 H 241.7984 v -0.50793 H 61.819557 m 0,0.9947 v 0.50794 H 241.7984 v -0.48677 L 61.819557,76.924969 m 0,1.01588 v 0.48677 H 241.7984 v -0.48677 H 61.819557 m 0,0.99471 v 0.50793 H 241.7984 v -0.50793 H 61.819557 m 0,0.99471 v 0.50793 H 241.7984 v -0.50793 H 61.819557 m 0,0.9947 v 0.50794 H 241.7984 v -0.50794 H 61.819557 m 0,1.01588 v 0.48677 H 241.7984 v -0.48677 H 61.819557 m 0,0.99471 v 0.50793 H 241.7984 v -0.50793 H 61.819557 m 0,0.99471 v 0.50793 H 241.7984 v -0.50793 H 61.819557 m 0,0.9947 v 0.50794 H 241.7984 v -0.50794 H 61.819557 m 0,1.01588 v 0.48677 H 241.7984 v -0.48677 H 61.819557 m 0,0.99471 v 0.50793 H 241.7984 v -0.50793 H 61.819557 m 0,0.99471 v 0.50793 H 241.7984 v -0.50793 H 61.819557 m 0,0.9947 v 0.50794 H 241.7984 v -0.50794 H 61.819557 m 0,1.01588 v 0.48677 H 241.7984 v -0.48677 H 61.819557 m 0,0.99471 v 0.50793 H 241.7984 v -0.50793 H 61.819557 m 0,0.99471 v 0.50793 H 241.7984 v -0.50793 H 61.819557 m 0,0.9947 v 0.50794 H 241.7984 v -0.50794 H 61.819557 m 0,1.01588 v 0.48677 H 241.7984 v -0.48677 H 61.819557 m 0,0.99471 v 0.50793 H 241.7984 v -0.50793 H 61.819557 m 0,0.99471 v 0.50793 H 241.7984 v -0.50793 H 61.819557 m 0,0.9947 v 0.50794 H 241.7984 v -0.50794 H 61.819557 m 0,1.01588 v 0.48677 H 241.7984 v -0.48677 H 61.819557 m 0,0.99471 v 0.50793 H 241.7984 v -0.50793 H 61.819557 m 0,0.99471 V 100.4382 H 241.7984 V 99.930269 H 61.819557 m 0,0.994701 v 0.50794 H 241.7984 v -0.50794 H 61.819557 m 0,1.01588 v 0.48677 H 241.7984 v -0.48677 H 61.819557 m 0,0.99471 v 0.50793 H 241.7984 v -0.50793 H 61.819557 m 0,0.99471 v 0.50793 H 241.7984 v -0.50793 H 61.819557 m 0,0.9947 v 0.50794 H 241.7984 v -0.50794 H 61.819557 m 0,1.01588 v 0.48677 H 241.7984 v -0.48677 H 61.819557 m 0,0.99471 v 0.50793 H 241.7984 v -0.50793 H 61.819557 m 0,0.99471 v 0.50793 H 241.7984 v -0.50793 H 61.819557 m 0,0.9947 v 0.50794 H 241.7984 v -0.50794 H 61.819557 m 0,1.01588 v 0.48677 H 241.7984 v -0.48677 H 61.819557 m 0,0.99471 v 0.50793 H 241.7984 v -0.50793 H 61.819557 m 0,0.99471 v 0.50793 H 241.7984 v -0.50793 H 61.819557 m 0,0.9947 v 0.50794 H 241.7984 v -0.50794 H 61.819557 m 0,1.01588 v 0.48677 H 241.7984 v -0.48677 H 61.819557 m 0,0.99471 v 0.48677 H 241.7984 v -0.48677 H 61.819557 m 0,0.99471 v 0.50793 H 241.7984 v -0.50793 H 61.819557 m 0,0.9947 v 0.50794 H 241.7984 v -0.50794 H 61.819557 m 0,0.99471 v 0.50794 H 241.7984 v -0.48677 l -179.978843,-0.0212 m 0,1.01588 v 0.48677 H 241.7984 v -0.48677 H 61.819557 m 0,0.99471 v 0.50793 H 241.7984 v -0.5079 H 61.819557 m 0,0.9947 v 0.50794 H 241.7984 v -0.50794 H 61.819557 m 0,0.99471 v 0.50794 H 241.7984 v -0.48677 l -179.978843,-0.0212 m 0,1.01588 v 0.48677 H 241.7984 v -0.48677 H 61.819557 m 0,0.99471 v 0.50793 H 241.7984 v -0.5079 H 61.819557 m 0,0.9947 v 0.50794 H 241.7984 v -0.50794 H 61.819557 m 0,0.99471 v 0.50794 H 241.7984 v -0.50794 H 61.819557 m 0,1.01588 v 0.48677 H 241.7984 v -0.48677 H 61.819557 m 0,0.99471 v 0.50794 H 241.7984 v -0.50794 H 61.819557 m 0,0.99471 v 0.50793 H 241.7984 v -0.50793 H 61.819557 m 0,0.99471 v 0.50793 H 241.7984 v -0.50793 H 61.819557 m 0,1.01587 v 0.48677 H 241.7984 v -0.48677 H 61.819557 m 0,0.99471 v 0.50794 H 241.7984 v -0.50794 H 61.819557 m 0,0.99471 v 0.50793 H 241.7984 v -0.50793 H 61.819557 m 0,0.99471 v 0.50793 H 241.7984 v -0.50793 H 61.819557 m 0,1.01587 v 0.48677 H 241.7984 v -0.48677 H 61.819557 m 0,0.99471 v 0.50794 H 241.7984 v -0.50794 H 61.819557 m 0,0.99471 v 0.50793 H 241.7984 v -0.50793 H 61.819557 m 0,0.99471 v 0.50793 H 241.7984 v -0.50793 H 61.819557 m 0,1.01587 v 0.48677 H 241.7984 v -0.48677 H 61.819557 m 0,0.99471 v 0.50794 H 241.7984 v -0.50794 H 61.819557 m 0,0.99471 v 0.50793 H 241.7984 v -0.50793 H 61.819557 m 0,0.99471 v 0.50793 H 241.7984 v -0.50793 H 61.819557 m 0,1.01587 v 0.48677 H 241.7984 v -0.48677 z"
       style="fill:none;stroke:#ff0000;stroke-width:0.221;stroke-miterlimit:4;stroke-dasharray:none;stroke-opacity:1" />
    <path
       id="path865"
       d="m 61.819557,63.930299 v 0.50794 H 241.79839 v -0.50794 H 61.819557 m 0,1.01587 v 0.48678 H 241.79839 v -0.48678 H 61.819557 m 0,0.99471 v 0.50794 H 241.79839 v -0.50794 H 61.819557 m 0,0.99471 v 0.50794 H 241.79839 v -0.50794 H 61.819557 m 0,0.99471 v 0.50794 H 241.79839 v -0.50794 H 61.819557 m 0,1.01587 v 0.48678 H 241.79839 v -0.48678 H 61.819557 m 0,0.99471 v 0.50794 H 241.79839 v -0.50794 H 61.819557 m 0,0.99471 v 0.50794 H 241.79839 v -0.50794 H 61.819557 m 0,0.99471 v 0.50794 H 241.79839 v -0.50794 H 61.819557 m 0,1.01587 v 0.48678 H 241.79839 v -0.48678 H 61.819557 m 0,0.99471 v 0.48678 H 241.79839 v -0.48678 H 61.819557 m 0,0.99471 v 0.50794 H 241.79839 v -0.50794 H 61.819557 m 0,0.99471 v 0.50794 H 241.79839 v -0.50794 H 61.819557 m 0,0.99471 v 0.50794 H 241.79839 v -0.48678 l -179.978833,-0.0212 m 0,1.01587 v 0.48678 H 241.79839 v -0.48678 H 61.819557 m 0,0.99471 v 0.50794 H 241.79839 v -0.50794 H 61.819557 m 0,0.99471 v 0.50794 H 241.79839 v -0.50794 H 61.819557 m 0,0.99471 v 0.50794 H 241.79839 v -0.50794 H 61.819557 m 0,1.01587 v 0.48678 H 241.79839 v -0.48678 H 61.819557 m 0,0.99471 v 0.50794 H 241.79839 v -0.50794 H 61.819557 m 0,0.99471 v 0.50794 H 241.79839 v -0.50794 H 61.819557 m 0,0.99471 v 0.50794 H 241.79839 v -0.50794 H 61.819557 m 0,1.01587 v 0.48678 H 241.79839 v -0.48678 H 61.819557 m 0,0.99471 v 0.50794 H 241.79839 v -0.50794 H 61.819557 m 0,0.99471 v 0.50794 H 241.79839 v -0.50794 H 61.819557 m 0,0.99471 v 0.50794 H 241.79839 v -0.50794 H 61.819557 m 0,1.01587 v 0.48678 H 241.79839 v -0.48678 H 61.819557 m 0,0.99471 v 0.50794 H 241.79839 v -0.50794 H 61.819557 m 0,0.99471 v 0.50794 H 241.79839 v -0.50794 H 61.819557 m 0,0.99471 v 0.50794 H 241.79839 v -0.50794 H 61.819557 m 0,1.01587 v 0.48678 H 241.79839 v -0.48678 H 61.819557 m 0,0.99471 v 0.50794 H 241.79839 v -0.50794 H 61.819557 m 0,0.99471 v 0.50794 H 241.79839 v -0.50794 H 61.819557 m 0,0.99471 v 0.50794 H 241.79839 v -0.50794 H 61.819557 m 0,1.01587 v 0.48678 H 241.79839 v -0.48678 H 61.819557 m 0,0.99471 v 0.50794 H 241.79839 v -0.50794 H 61.819557 m 0,0.99471 V 100.4382 H 241.79839 V 99.930259 H 61.819557 m 0,0.994711 v 0.50794 H 241.79839 v -0.50794 H 61.819557 m 0,1.01587 v 0.48678 H 241.79839 v -0.48678 H 61.819557 m 0,0.99471 v 0.50794 H 241.79839 v -0.50794 H 61.819557 m 0,0.99471 v 0.50794 H 241.79839 v -0.50794 H 61.819557 m 0,0.99471 v 0.50794 H 241.79839 v -0.50794 H 61.819557 m 0,1.01587 v 0.48678 H 241.79839 v -0.48678 H 61.819557 m 0,0.99471 v 0.50794 H 241.79839 v -0.50794 H 61.819557 m 0,0.99471 v 0.50794 H 241.79839 v -0.50794 H 61.819557 m 0,0.99471 v 0.50794 H 241.79839 v -0.50794 H 61.819557 m 0,1.01587 v 0.48678 H 241.79839 v -0.48678 H 61.819557 m 0,0.99471 v 0.50794 H 241.79839 v -0.50794 H 61.819557 m 0,0.99471 v 0.50794 H 241.79839 v -0.50794 H 61.819557 m 0,0.99471 v 0.50794 H 241.79839 v -0.50794 H 61.819557 m 0,1.01587 v 0.48678 H 241.79839 v -0.48678 H 61.819557 m 0,0.99471 v 0.48677 H 241.79839 v -0.48677 H 61.819557 m 0,0.99471 v 0.50794 H 241.79839 v -0.50794 H 61.819557 m 0,0.99471 v 0.50794 H 241.79839 v -0.50794 H 61.819557 m 0,0.99471 v 0.50794 H 241.79839 v -0.48678 l -179.978833,-0.0212 m 0,1.01587 v 0.48677 H 241.79839 v -0.48677 H 61.819557 m 0,0.99471 v 0.50794 H 241.79839 v -0.50794 H 61.819557 m 0,0.99471 v 0.50794 H 241.79839 v -0.50794 H 61.819557 m 0,0.99471 v 0.50794 H 241.79839 V 121.9408 L 61.819557,121.9196 m 0,1.01587 v 0.48678 H 241.79839 v -0.48678 H 61.819557 m 0,0.99471 v 0.50794 H 241.79839 v -0.50794 H 61.819557 m 0,0.99471 v 0.50794 H 241.79839 v -0.50794 H 61.819557 m 0,0.99471 v 0.50794 H 241.79839 V 125.9196 H 61.819557 m 0,1.01587 v 0.48678 H 241.79839 v -0.48678 H 61.819557 m 0,0.99471 v 0.50794 H 241.79839 v -0.50794 H 61.819557 m 0,0.99471 v 0.50794 H 241.79839 v -0.50794 H 61.819557 m 0,0.99471 v 0.50794 H 241.79839 V 129.9196 H 61.819557 m 0,1.01587 v 0.48678 H 241.79839 v -0.48678 H 61.819557 m 0,0.99471 v 0.50794 H 241.79839 v -0.50794 H 61.819557 m 0,0.99471 v 0.50794 H 241.79839 v -0.50794 H 61.819557 m 0,0.99471 v 0.50794 H 241.79839 V 133.9196 H 61.819557 m 0,1.01587 v 0.48678 H 241.79839 v -0.48678 H 61.819557 m 0,0.99471 v 0.50794 H 241.79839 v -0.50794 H 61.819557 m 0,0.99471 v 0.50794 H 241.79839 v -0.50794 H 61.819557 m 0,0.99471 v 0.50794 H 241.79839 V 137.9196 H 61.819557 m 0,1.01587 v 0.48678 H 241.79839 v -0.48678 H 61.819557 m 0,0.99471 v 0.50794 H 241.79839 v -0.50794 H 61.819557 m 0,0.99471 v 0.50794 H 241.79839 v -0.50794 H 61.819557 m 0,0.99471 v 0.50794 H 241.79839 V 141.9196 H 61.819557 m 0,1.01587 v 0.48678 H 241.79839 v -0.48678 z"
       style="fill:none;fill-opacity:1;stroke:#0000ff;stroke-width:0.121;stroke-miterlimit:4;stroke-dasharray:none;stroke-opacity:1" />
    <rect
       y="54.367302"
       x="45.435528"
       height="99.414497"
       width="215.52753"
       id="rect867"
       style="fill:none;fill-opacity:1;stroke:#0000ff;stroke-width:0.121;stroke-miterlimit:4;stroke-dasharray:none;stroke-opacity:1" />
  </g>
</svg>
