<?xml version="1.0" encoding="UTF-8" standalone="no"?>
<svg
   xmlns:dc="http://purl.org/dc/elements/1.1/"
   xmlns:cc="http://creativecommons.org/ns#"
   xmlns:rdf="http://www.w3.org/1999/02/22-rdf-syntax-ns#"
   xmlns:svg="http://www.w3.org/2000/svg"
   xmlns="http://www.w3.org/2000/svg"
   xmlns:sodipodi="http://sodipodi.sourceforge.net/DTD/sodipodi-0.dtd"
   xmlns:inkscape="http://www.inkscape.org/namespaces/inkscape"
   sodipodi:docname="05mm_100percent_uni_90.svg"
   inkscape:version="1.0 (4035a4fb49, 2020-05-01)"
   id="svg8"
   version="1.1"
   viewBox="0 0 297 210"
   height="210mm"
   width="297mm">
  <defs
     id="defs2" />
  <sodipodi:namedview
     inkscape:window-maximized="1"
     inkscape:window-y="-4"
     inkscape:window-x="-8"
     inkscape:window-height="1009"
     inkscape:window-width="1920"
     showgrid="false"
     inkscape:document-rotation="0"
     inkscape:current-layer="layer1"
     inkscape:document-units="mm"
     inkscape:cy="442.62957"
     inkscape:cx="424.1807"
     inkscape:zoom="0.91280314"
     inkscape:pageshadow="2"
     inkscape:pageopacity="0.0"
     borderopacity="1.0"
     bordercolor="#666666"
     pagecolor="#ffffff"
     id="base" />
  <metadata
     id="metadata5">
    <rdf:RDF>
      <cc:Work
         rdf:about="">
        <dc:format>image/svg+xml</dc:format>
        <dc:type
           rdf:resource="http://purl.org/dc/dcmitype/StillImage" />
        <dc:title />
      </cc:Work>
    </rdf:RDF>
  </metadata>
  <g
     id="layer1"
     inkscape:groupmode="layer"
     inkscape:label="Layer 1">
    <path
       style="fill:none;stroke:#0000ff;stroke-width:0.221;stroke-miterlimit:4;stroke-dasharray:none;stroke-opacity:1"
       d="m 60.443968,61.034618 v 80.000012 h 0.507937 V 61.034618 h -0.507937 m 0.994709,0 v 80.000012 h 0.507937 V 61.034618 h -0.507937 m 1.015873,0 v 80.000012 h 0.507937 V 61.034618 H 62.45455 m 0.994709,0 v 80.000012 h 0.507937 V 61.034618 h -0.507937 m 0.994709,0 v 80.000012 h 0.507937 V 61.034618 h -0.507937 m 0.994709,0 v 80.000012 h 0.507937 V 61.034618 h -0.507937 m 1.015873,0 v 80.000012 h 0.507937 V 61.034618 H 66.45455 m 0.994709,0 v 80.000012 h 0.507937 V 61.034618 h -0.507937 m 0.994709,0 v 80.000012 h 0.507937 V 61.034618 h -0.507937 m 0.994709,0 v 80.000012 h 0.507937 V 61.034618 h -0.507937 m 0.994709,0 v 80.000012 h 0.507937 V 61.034618 h -0.507937 m 1.015873,0 v 80.000012 h 0.507937 V 61.034618 h -0.507937 m 0.994709,0 v 80.000012 h 0.507937 V 61.034618 h -0.507937 m 0.994709,0 v 80.000012 h 0.507937 V 61.034618 h -0.507937 m 0.994709,0 v 80.000012 h 0.507937 V 61.034618 h -0.507937 m 1.015873,0 v 80.000012 h 0.507937 V 61.034618 h -0.507937 m 0.994709,0 v 80.000012 h 0.507937 V 61.034618 h -0.507937 m 0.994709,0 v 80.000012 h 0.507937 V 61.034618 h -0.507937 m 0.994709,0 v 80.000012 h 0.507937 V 61.034618 h -0.507937 m 1.015873,0 v 80.000012 h 0.507937 V 61.034618 h -0.507937 m 0.994709,0 v 80.000012 h 0.507937 V 61.034618 h -0.507937 m 0.994709,0 v 80.000012 h 0.507937 V 61.034618 h -0.507937 m 0.994709,0 v 80.000012 h 0.507937 V 61.034618 h -0.507937 m 1.015873,0 v 80.000012 h 0.507937 V 61.034618 h -0.507937 m 0.994709,0 v 80.000012 h 0.507937 V 61.034618 h -0.507937 m 0.994709,0 v 80.000012 h 0.507932 V 61.034618 h -0.507932 m 0.994712,0 v 80.000012 h 0.50793 V 61.034618 h -0.50793 m 1.01587,0 v 80.000012 h 0.50794 V 61.034618 h -0.50794 m 0.99471,0 v 80.000012 h 0.50794 V 61.034618 h -0.50794 m 0.99471,0 v 80.000012 h 0.50793 V 61.034618 h -0.50793 m 0.99471,0 v 80.000012 h 0.50793 V 61.034618 h -0.50793 m 1.01587,0 v 80.000012 h 0.50794 V 61.034618 h -0.50794 m 0.99471,0 v 80.000012 h 0.50794 V 61.034618 h -0.50794 m 0.99471,0 v 80.000012 h 0.50793 V 61.034618 h -0.50793 m 0.99471,0 v 80.000012 h 0.50793 V 61.034618 h -0.50793 m 1.01587,0 v 80.000012 h 0.50794 V 61.034618 h -0.50794 m 0.99471,0 v 80.000012 h 0.50794 V 61.034618 h -0.50794 m 0.99471,0 v 80.000012 h 0.50793 V 61.034618 h -0.50793 m 0.99471,0 v 80.000012 h 0.507929 V 61.034618 h -0.507929 m 1.015869,0 v 80.000012 h 0.50794 V 61.034618 h -0.50794 m 0.994712,0 v 80.000012 h 0.50794 V 61.034618 h -0.50794 m 0.99471,0 v 80.000012 h 0.50794 V 61.034618 h -0.50794 m 0.99472,0 v 80.000012 h 0.50793 V 61.034618 h -0.50793 m 1.01587,0 v 80.000012 h 0.50794 V 61.034618 h -0.50794 m 0.99471,0 v 80.000012 h 0.50794 V 61.034618 h -0.50794 m 0.99471,0 v 80.000012 h 0.50793 V 61.034618 h -0.50793 m 0.99471,0 v 80.000012 h 0.50793 V 61.034618 h -0.50793 m 0.99471,0 v 80.000012 h 0.50793 V 61.034618 h -0.50793 m 1.01587,0 v 80.000012 h 0.50794 V 61.034618 h -0.50794 m 0.99471,0 v 80.000012 h 0.50793 V 61.034618 h -0.50793 m 0.99471,0 v 80.000012 h 0.50793 V 61.034618 h -0.50793 m 0.99471,0 v 80.000012 h 0.50793 V 61.034618 h -0.50793 m 1.01587,0 v 80.000012 h 0.50794 V 61.034618 h -0.50794 m 0.99471,0 v 80.000012 h 0.50793 V 61.034618 h -0.50793 m 0.99471,0 v 80.000012 h 0.50793 V 61.034618 h -0.50793 m 0.99471,0 v 80.000012 h 0.50793 V 61.034618 h -0.50793 m 1.01587,0 v 80.000012 h 0.50794 V 61.034618 h -0.50794 m 0.99471,0 v 80.000012 h 0.50793 V 61.034618 h -0.50793 m 0.99471,0 v 80.000012 h 0.50793 V 61.034618 h -0.50793 m 0.99471,0 v 80.000012 h 0.50793 V 61.034618 h -0.50793 m 1.01587,0 v 80.000012 h 0.50794 V 61.034618 h -0.50794 m 0.99471,0 v 80.000012 h 0.50793 V 61.034618 h -0.50793 m 0.99471,0 v 80.000012 h 0.50793 V 61.034618 h -0.50793 m 0.99471,0 v 80.000012 h 0.50793 V 61.034618 h -0.50793 m 1.01587,0 v 80.000012 h 0.50794 V 61.034618 h -0.50794 m 0.99471,0 v 80.000012 h 0.50793 V 61.034618 h -0.50793 m 0.99471,0 v 80.000012 h 0.50793 V 61.034618 h -0.50793 m 0.99471,0 v 80.000012 h 0.50793 V 61.034618 h -0.50793 m 1.01587,0 v 80.000012 h 0.50794 V 61.034618 h -0.50794 m 0.99471,0 v 80.000012 h 0.50793 V 61.034618 h -0.50793 m 0.99471,0 v 80.000012 h 0.50793 V 61.034618 h -0.50793 m 0.99471,0 v 80.000012 h 0.50793 V 61.034618 h -0.50793 m 1.01587,0 v 80.000012 h 0.50794 V 61.034618 h -0.50794 m 0.99471,0 v 80.000012 h 0.50793 V 61.034618 h -0.50793 m 0.99471,0 v 80.000012 h 0.50793 V 61.034618 h -0.50793 m 0.99471,0 v 80.000012 h 0.50793 V 61.034618 h -0.50793 m 1.01587,0 v 80.000012 h 0.50794 V 61.034618 h -0.50794 m 0.99471,0 v 80.000012 h 0.50793 V 61.034618 h -0.50793 m 0.99471,0 v 80.000012 h 0.50793 V 61.034618 h -0.50793 m 0.99471,0 v 80.000012 h 0.50793 V 61.034618 h -0.50793 m 1.01587,0 v 80.000012 h 0.50794 V 61.034618 h -0.50794 m 0.99471,0 v 80.000012 h 0.50793 V 61.034618 h -0.50793 m 0.99471,0 v 80.000012 h 0.50793 V 61.034618 h -0.50793 m 0.99471,0 v 80.000012 h 0.50793 V 61.034618 h -0.50793 m 1.01587,0 v 80.000012 h 0.50794 V 61.034618 h -0.50794 m 0.99471,0 v 80.000012 h 0.50793 V 61.034618 h -0.50793 m 0.99471,0 v 80.000012 h 0.50793 V 61.034618 h -0.50793 m 0.99471,0 v 80.000012 h 0.50793 V 61.034618 h -0.50793 m 0.99471,0 v 80.000012 h 0.50793 V 61.034618 h -0.50793 m 1.01587,0 v 80.000012 h 0.50793 V 61.034618 h -0.50793 m 0.99471,0 v 80.000012 h 0.50793 V 61.034618 h -0.50793 m 0.99471,0 v 80.000012 h 0.50792 V 61.034618 h -0.50792 m 0.9947,0 v 80.000012 h 0.50793 V 61.034618 h -0.50793 m 1.01587,0 v 80.000012 h 0.50793 V 61.034618 h -0.50793 m 0.99471,0 v 80.000012 h 0.50793 V 61.034618 h -0.50793 m 0.99471,0 v 80.000012 h 0.50793 V 61.034618 h -0.50793 m 0.99471,0 v 80.000012 h 0.50793 V 61.034618 h -0.50793 m 1.01587,0 v 80.000012 h 0.50793 V 61.034618 h -0.50793 m 0.99471,0 v 80.000012 h 0.50793 V 61.034618 h -0.50793 m 0.99471,0 v 80.000012 h 0.50793 V 61.034618 h -0.50793 m 0.99471,0 v 80.000012 h 0.50793 V 61.034618 h -0.50793 m 1.01587,0 v 80.000012 h 0.50793 V 61.034618 h -0.50793 m 0.99471,0 v 80.000012 h 0.50793 V 61.034618 h -0.50793 m 0.99471,0 v 80.000012 h 0.50793 V 61.034618 h -0.50793 m 0.99471,0 v 80.000012 h 0.50793 V 61.034618 h -0.50793 m 1.01587,0 v 80.000012 h 0.50793 V 61.034618 h -0.50793 m 0.99471,0 v 80.000012 h 0.50793 V 61.034618 h -0.50793 m 0.99471,0 v 80.000012 h 0.50793 V 61.034618 h -0.50793 m 0.99471,0 v 80.000012 h 0.50793 V 61.034618 h -0.50793 m 1.01587,0 v 80.000012 h 0.50793 V 61.034618 h -0.50793 m 0.99471,0 v 80.000012 h 0.50793 V 61.034618 h -0.50793 m 0.99471,0 v 80.000012 h 0.50793 V 61.034618 h -0.50793 m 0.99471,0 v 80.000012 h 0.50793 V 61.034618 h -0.50793 m 1.01587,0 v 80.000012 h 0.50793 V 61.034618 h -0.50793 m 0.99471,0 v 80.000012 h 0.50793 V 61.034618 h -0.50793 m 0.99471,0 v 80.000012 h 0.50793 V 61.034618 h -0.50793 m 0.99471,0 v 80.000012 h 0.50793 V 61.034618 h -0.50793 m 1.01587,0 v 80.000012 h 0.50793 V 61.034618 h -0.50793 m 0.99471,0 v 80.000012 h 0.50793 V 61.034618 h -0.50793 m 0.99471,0 v 80.000012 h 0.50793 V 61.034618 h -0.50793 m 0.99471,0 v 80.000012 h 0.50793 V 61.034618 h -0.50793 m 1.01587,0 v 80.000012 h 0.50793 V 61.034618 h -0.50793 m 0.99471,0 v 80.000012 h 0.50793 V 61.034618 h -0.50793 m 0.99471,0 v 80.000012 h 0.50793 V 61.034618 h -0.50793 m 0.99471,0 v 80.000012 h 0.50793 V 61.034618 h -0.50793 m 0.9947,0 v 80.000012 h 0.50794 V 61.034618 h -0.50794 m 1.01588,0 v 80.000012 h 0.50793 V 61.034618 h -0.50793 m 0.99471,0 v 80.000012 h 0.50793 V 61.034618 h -0.50793 m 0.99471,0 v 80.000012 h 0.50793 V 61.034618 h -0.50793 m 0.9947,0 v 80.000012 h 0.50794 V 61.034618 h -0.50794 m 1.01588,0 v 80.000012 h 0.50793 V 61.034618 h -0.50793 m 0.99471,0 v 80.000012 h 0.50793 V 61.034618 h -0.50793 m 0.99471,0 v 80.000012 h 0.50793 V 61.034618 h -0.50793 m 0.9947,0 v 80.000012 h 0.50794 V 61.034618 h -0.50794 m 1.01588,0 v 80.000012 h 0.50793 V 61.034618 h -0.50793 m 0.99471,0 v 80.000012 h 0.50793 V 61.034618 h -0.50793 m 0.99471,0 v 80.000012 h 0.50793 V 61.034618 h -0.50793 m 0.9947,0 v 80.000012 h 0.50794 V 61.034618 h -0.50794 m 1.01588,0 v 80.000012 h 0.50793 V 61.034618 h -0.50793 m 0.99471,0 v 80.000012 h 0.50793 V 61.034618 h -0.50793 m 0.99471,0 v 80.000012 h 0.50793 V 61.034618 h -0.50793 m 0.9947,0 v 80.000012 h 0.50794 V 61.034618 h -0.50794 m 1.01588,0 v 80.000012 h 0.50793 V 61.034618 h -0.50793 m 0.99471,0 v 80.000012 h 0.50793 V 61.034618 h -0.50793 m 0.99471,0 v 80.000012 h 0.50793 V 61.034618 h -0.50793 m 0.9947,0 v 80.000012 h 0.50794 V 61.034618 h -0.50794 m 1.01588,0 v 80.000012 h 0.50793 V 61.034618 h -0.50793 m 0.99471,0 v 80.000012 h 0.50793 V 61.034618 h -0.50793 m 0.99471,0 v 80.000012 h 0.50793 V 61.034618 h -0.50793 m 0.9947,0 v 80.000012 h 0.50794 V 61.034618 h -0.50794 m 1.01588,0 v 80.000012 h 0.50793 V 61.034618 h -0.50793 m 0.99471,0 v 80.000012 h 0.50793 V 61.034618 h -0.50793 m 0.99471,0 v 80.000012 h 0.50793 V 61.034618 h -0.50793 m 0.9947,0 v 80.000012 h 0.50794 V 61.034618 h -0.50794 m 1.01588,0 v 80.000012 h 0.50793 V 61.034618 h -0.50793 m 0.99471,0 v 80.000012 h 0.50793 V 61.034618 h -0.50793 m 0.99471,0 v 80.000012 h 0.50793 V 61.034618 h -0.50793 m 0.9947,0 v 80.000012 h 0.50794 V 61.034618 h -0.50794 m 1.01588,0 v 80.000012 h 0.50793 V 61.034618 h -0.50793 m 0.99471,0 v 80.000012 h 0.50793 V 61.034618 h -0.50793 m 0.99471,0 v 80.000012 h 0.50793 V 61.034618 h -0.50793 m 0.9947,0 v 80.000012 h 0.50794 V 61.034618 h -0.50794 m 0.99471,0 v 80.000012 h 0.50794 V 61.034618 h -0.50794 m 1.01588,0 v 80.000012 h 0.50793 V 61.034618 h -0.50793 m 0.99471,0 v 80.000012 h 0.50793 V 61.034618 h -0.50793 m 0.9947,0 v 80.000012 h 0.50794 V 61.034618 h -0.50794 m 0.99471,0 v 80.000012 h 0.50794 V 61.034618 h -0.50794 m 1.01588,0 v 80.000012 h 0.50793 V 61.034618 h -0.50793 m 0.99471,0 v 80.000012 h 0.50793 V 61.034618 h -0.50793 m 0.9947,0 v 80.000012 h 0.50794 V 61.034618 h -0.50794 m 0.99471,0 v 80.000012 h 0.50794 V 61.034618 h -0.50794 m 1.01588,0 v 80.000012 h 0.50793 V 61.034618 h -0.50793 m 0.99471,0 v 80.000012 h 0.50793 V 61.034618 h -0.50793 m 0.9947,0 v 80.000012 h 0.50794 V 61.034618 h -0.50794 m 0.99471,0 v 80.000012 h 0.50794 V 61.034618 h -0.50794 m 1.01588,0 v 80.000012 h 0.50793 V 61.034618 h -0.50793 m 0.99471,0 v 80.000012 h 0.50793 V 61.034618 h -0.50793 m 0.9947,0 v 80.000012 h 0.50794 V 61.034618 h -0.50794 m 0.99471,0 v 80.000012 h 0.50794 V 61.034618 h -0.50794 m 1.01588,0 v 80.000012 h 0.50793 V 61.034618 Z"
       id="path863" />
    <rect
       style="fill:none;stroke:#0000ff;stroke-width:0.221;stroke-miterlimit:4;stroke-dasharray:none;stroke-opacity:1"
       id="rect865"
       width="215.05217"
       height="121.29102"
       x="42.292263"
       y="41.89328" />
    <path
       id="path863-4"
       d="m 60.422809,61.021808 v 80.000012 h 0.507937 V 61.021808 h -0.507937 m 0.994709,0 v 80.000012 h 0.507937 V 61.021808 h -0.507937 m 1.015873,0 v 80.000012 h 0.507937 V 61.021808 h -0.507937 m 0.994709,0 v 80.000012 h 0.507937 V 61.021808 H 63.4281 m 0.994709,0 v 80.000012 h 0.507937 V 61.021808 h -0.507937 m 0.994709,0 v 80.000012 h 0.507937 V 61.021808 h -0.507937 m 1.015873,0 v 80.000012 h 0.507937 V 61.021808 h -0.507937 m 0.994709,0 v 80.000012 h 0.507935 V 61.021808 H 67.4281 m 0.994705,0 v 80.000012 h 0.50794 V 61.021808 h -0.50794 m 0.99471,0 v 80.000012 h 0.50794 V 61.021808 h -0.50794 m 0.99471,0 v 80.000012 h 0.50794 V 61.021808 h -0.50794 m 1.01588,0 v 80.000012 h 0.50793 V 61.021808 h -0.50793 m 0.9947,0 v 80.000012 h 0.50794 V 61.021808 h -0.50794 m 0.99471,0 v 80.000012 h 0.50794 V 61.021808 h -0.50794 m 0.99471,0 v 80.000012 h 0.50794 V 61.021808 h -0.50794 m 1.01588,0 v 80.000012 h 0.50793 V 61.021808 h -0.50793 m 0.9947,0 v 80.000012 h 0.50794 V 61.021808 h -0.50794 m 0.994707,0 v 80.000012 h 0.50794 V 61.021808 h -0.50794 m 0.99471,0 v 80.000012 h 0.50794 V 61.021808 h -0.50794 m 1.01588,0 v 80.000012 h 0.50793 V 61.021808 h -0.50793 m 0.9947,0 v 80.000012 h 0.50794 V 61.021808 h -0.50794 m 0.99471,0 v 80.000012 h 0.50794 V 61.021808 h -0.50794 m 0.99471,0 v 80.000012 h 0.50794 V 61.021808 h -0.50794 m 1.01588,0 v 80.000012 h 0.50793 V 61.021808 h -0.50793 m 0.9947,0 v 80.000012 h 0.50794 V 61.021808 h -0.50794 m 0.99471,0 v 80.000012 h 0.50794 V 61.021808 h -0.50794 m 0.99472,0 v 80.000012 h 0.50793 V 61.021808 h -0.50793 m 1.01587,0 v 80.000012 h 0.50793 V 61.021808 h -0.50793 m 0.9947,0 v 80.000012 h 0.50795 V 61.021808 h -0.50795 m 0.99472,0 v 80.000012 h 0.50792 V 61.021808 h -0.50792 m 0.99471,0 v 80.000012 h 0.50793 V 61.021808 h -0.50793 m 1.01587,0 v 80.000012 h 0.50793 V 61.021808 h -0.50793 m 0.9947,0 v 80.000012 h 0.50795 V 61.021808 h -0.50795 m 0.99472,0 v 80.000012 h 0.50792 V 61.021808 h -0.50792 m 0.99471,0 v 80.000012 h 0.50793 V 61.021808 h -0.50793 m 1.01587,0 v 80.000012 h 0.507927 V 61.021808 h -0.507927 m 0.994707,0 v 80.000012 h 0.50794 V 61.021808 h -0.50794 m 0.99471,0 v 80.000012 h 0.50793 V 61.021808 h -0.50793 m 0.99471,0 v 80.000012 h 0.507929 V 61.021808 h -0.507929 m 1.015869,0 v 80.000012 h 0.50794 V 61.021808 h -0.50794 m 0.994712,0 v 80.000012 h 0.50794 V 61.021808 h -0.50794 m 0.99471,0 v 80.000012 h 0.50794 V 61.021808 h -0.50794 m 0.99472,0 v 80.000012 h 0.50793 V 61.021808 h -0.50793 m 1.01587,0 v 80.000012 h 0.50794 V 61.021808 h -0.50794 m 0.99471,0 v 80.000012 h 0.50794 V 61.021808 h -0.50794 m 0.99471,0 v 80.000012 h 0.50793 V 61.021808 h -0.50793 m 0.99471,0 v 80.000012 h 0.50793 V 61.021808 h -0.50793 m 0.99471,0 v 80.000012 h 0.50793 V 61.021808 h -0.50793 m 1.01587,0 v 80.000012 h 0.50794 V 61.021808 h -0.50794 m 0.99471,0 v 80.000012 h 0.50793 V 61.021808 h -0.50793 m 0.99471,0 v 80.000012 h 0.50793 V 61.021808 h -0.50793 m 0.99471,0 v 80.000012 h 0.50793 V 61.021808 h -0.50793 m 1.01587,0 v 80.000012 h 0.50794 V 61.021808 h -0.50794 m 0.99471,0 v 80.000012 h 0.50793 V 61.021808 h -0.50793 m 0.99471,0 v 80.000012 h 0.50793 V 61.021808 h -0.50793 m 0.99471,0 v 80.000012 h 0.50793 V 61.021808 h -0.50793 m 1.01587,0 v 80.000012 h 0.50794 V 61.021808 h -0.50794 m 0.99471,0 v 80.000012 h 0.50793 V 61.021808 h -0.50793 m 0.99471,0 v 80.000012 h 0.50793 V 61.021808 h -0.50793 m 0.99471,0 v 80.000012 h 0.50793 V 61.021808 h -0.50793 m 1.01587,0 v 80.000012 h 0.50794 V 61.021808 h -0.50794 m 0.99471,0 v 80.000012 h 0.50793 V 61.021808 h -0.50793 m 0.99471,0 v 80.000012 h 0.50793 V 61.021808 h -0.50793 m 0.99471,0 v 80.000012 h 0.50793 V 61.021808 h -0.50793 m 1.01587,0 v 80.000012 h 0.50794 V 61.021808 h -0.50794 m 0.99471,0 v 80.000012 h 0.50793 V 61.021808 h -0.50793 m 0.99471,0 v 80.000012 h 0.50793 V 61.021808 h -0.50793 m 0.99471,0 v 80.000012 h 0.50793 V 61.021808 h -0.50793 m 1.01587,0 v 80.000012 h 0.50794 V 61.021808 h -0.50794 m 0.99471,0 v 80.000012 h 0.50793 V 61.021808 h -0.50793 m 0.99471,0 v 80.000012 h 0.50793 V 61.021808 h -0.50793 m 0.99471,0 v 80.000012 h 0.50793 V 61.021808 h -0.50793 m 1.01587,0 v 80.000012 h 0.50794 V 61.021808 h -0.50794 m 0.99471,0 v 80.000012 h 0.50793 V 61.021808 h -0.50793 m 0.99471,0 v 80.000012 h 0.50793 V 61.021808 h -0.50793 m 0.99471,0 v 80.000012 h 0.50793 V 61.021808 h -0.50793 m 1.01587,0 v 80.000012 h 0.50794 V 61.021808 h -0.50794 m 0.99471,0 v 80.000012 h 0.50793 V 61.021808 h -0.50793 m 0.99471,0 v 80.000012 h 0.50793 V 61.021808 h -0.50793 m 0.99471,0 v 80.000012 h 0.50793 V 61.021808 h -0.50793 m 1.01587,0 v 80.000012 h 0.50794 V 61.021808 h -0.50794 m 0.99471,0 v 80.000012 h 0.50793 V 61.021808 h -0.50793 m 0.99471,0 v 80.000012 h 0.50793 V 61.021808 h -0.50793 m 0.99471,0 v 80.000012 h 0.50793 V 61.021808 h -0.50793 m 1.01587,0 v 80.000012 h 0.50794 V 61.021808 h -0.50794 m 0.99471,0 v 80.000012 h 0.50793 V 61.021808 h -0.50793 m 0.99471,0 v 80.000012 h 0.50793 V 61.021808 h -0.50793 m 0.99471,0 v 80.000012 h 0.50793 V 61.021808 h -0.50793 m 0.99471,0 v 80.000012 h 0.50793 V 61.021808 h -0.50793 m 1.01587,0 v 80.000012 h 0.50793 V 61.021808 h -0.50793 m 0.99471,0 v 80.000012 h 0.50793 V 61.021808 h -0.50793 m 0.99471,0 v 80.000012 h 0.50792 V 61.021808 h -0.50792 m 0.9947,0 v 80.000012 h 0.50793 V 61.021808 h -0.50793 m 1.01587,0 v 80.000012 h 0.50793 V 61.021808 h -0.50793 m 0.99471,0 v 80.000012 h 0.50793 V 61.021808 h -0.50793 m 0.99471,0 v 80.000012 h 0.50793 V 61.021808 h -0.50793 m 0.99471,0 v 80.000012 h 0.50793 V 61.021808 h -0.50793 m 1.01587,0 v 80.000012 h 0.50793 V 61.021808 h -0.50793 m 0.99471,0 v 80.000012 h 0.50793 V 61.021808 h -0.50793 m 0.99471,0 v 80.000012 h 0.50793 V 61.021808 h -0.50793 m 0.9947,0 v 80.000012 h 0.50793 V 61.021808 h -0.50793 m 1.01587,0 v 80.000012 h 0.50793 V 61.021808 h -0.50793 m 0.99471,0 v 80.000012 h 0.50793 V 61.021808 h -0.50793 m 0.99471,0 v 80.000012 h 0.50794 V 61.021808 h -0.50794 m 0.99471,0 v 80.000012 h 0.50793 V 61.021808 h -0.50793 m 1.01587,0 v 80.000012 h 0.50793 V 61.021808 h -0.50793 m 0.99471,0 v 80.000012 h 0.50793 V 61.021808 h -0.50793 m 0.99471,0 v 80.000012 h 0.50794 V 61.021808 h -0.50794 m 0.99472,0 v 80.000012 h 0.50792 V 61.021808 h -0.50792 m 1.01586,0 v 80.000012 h 0.50793 V 61.021808 h -0.50793 m 0.99471,0 v 80.000012 h 0.50793 V 61.021808 h -0.50793 m 0.99471,0 v 80.000012 h 0.50793 V 61.021808 h -0.50793 m 0.99472,0 v 80.000012 h 0.50792 V 61.021808 h -0.50792 m 1.01586,0 v 80.000012 h 0.50793 V 61.021808 h -0.50793 m 0.99471,0 v 80.000012 h 0.50793 V 61.021808 h -0.50793 m 0.99471,0 v 80.000012 h 0.50793 V 61.021808 h -0.50793 m 0.99472,0 v 80.000012 h 0.50792 V 61.021808 h -0.50792 m 1.01586,0 v 80.000012 h 0.50793 V 61.021808 h -0.50793 m 0.99471,0 v 80.000012 h 0.50793 V 61.021808 h -0.50793 m 0.99471,0 v 80.000012 h 0.50793 V 61.021808 h -0.50793 m 0.99472,0 v 80.000012 h 0.50792 V 61.021808 h -0.50792 m 1.01587,0 v 80.000012 h 0.50792 V 61.021808 h -0.50792 m 0.9947,0 v 80.000012 h 0.50793 V 61.021808 h -0.50793 m 0.99471,0 v 80.000012 h 0.50793 V 61.021808 h -0.50793 m 0.99472,0 v 80.000012 h 0.50792 V 61.021808 h -0.50792 m 0.99469,0 v 80.000012 h 0.50795 V 61.021808 h -0.50795 m 1.01588,0 v 80.000012 h 0.50793 V 61.021808 h -0.50793 m 0.99471,0 v 80.000012 h 0.50793 V 61.021808 h -0.50793 m 0.99472,0 v 80.000012 h 0.50792 V 61.021808 h -0.50792 m 0.99469,0 v 80.000012 h 0.50795 V 61.021808 h -0.50795 m 1.01588,0 v 80.000012 h 0.50794 V 61.021808 h -0.50794 m 0.99471,0 v 80.000012 h 0.50793 V 61.021808 h -0.50793 m 0.99472,0 v 80.000012 h 0.50792 V 61.021808 h -0.50792 m 0.99469,0 v 80.000012 h 0.50795 V 61.021808 h -0.50795 m 1.01588,0 v 80.000012 h 0.50794 V 61.021808 h -0.50794 m 0.99471,0 v 80.000012 h 0.50793 V 61.021808 h -0.50793 m 0.99472,0 v 80.000012 h 0.50792 V 61.021808 h -0.50792 m 0.99469,0 v 80.000012 h 0.50795 V 61.021808 h -0.50795 m 1.01588,0 v 80.000012 h 0.50794 V 61.021808 h -0.50794 m 0.99471,0 v 80.000012 h 0.50793 V 61.021808 h -0.50793 m 0.99471,0 v 80.000012 h 0.50793 V 61.021808 h -0.50793 m 0.9947,0 v 80.000012 h 0.50795 V 61.021808 h -0.50795 m 1.01588,0 v 80.000012 h 0.50794 V 61.021808 h -0.50794 m 0.99471,0 v 80.000012 h 0.50793 V 61.021808 h -0.50793 m 0.99471,0 v 80.000012 h 0.50793 V 61.021808 h -0.50793 m 0.9947,0 v 80.000012 h 0.50795 V 61.021808 h -0.50795 m 1.01588,0 v 80.000012 h 0.50794 V 61.021808 h -0.50794 m 0.99472,0 v 80.000012 h 0.50792 V 61.021808 h -0.50792 m 0.9947,0 v 80.000012 h 0.50793 V 61.021808 h -0.50793 m 0.99471,0 v 80.000012 h 0.50794 V 61.021808 h -0.50794 m 1.01587,0 v 80.000012 h 0.50794 V 61.021808 h -0.50794 m 0.99472,0 v 80.000012 h 0.50792 V 61.021808 h -0.50792 m 0.9947,0 v 80.000012 h 0.50793 V 61.021808 h -0.50793 m 0.99471,0 v 80.000012 h 0.50793 V 61.021808 h -0.50793 m 1.01587,0 v 80.000012 h 0.50794 V 61.021808 h -0.50794 m 0.99472,0 v 80.000012 h 0.50792 V 61.021808 h -0.50792 m 0.9947,0 v 80.000012 h 0.50794 V 61.021808 h -0.50794 m 0.99471,0 v 80.000012 h 0.50793 V 61.021808 h -0.50793 m 1.01587,0 v 80.000012 h 0.50794 V 61.021808 h -0.50794 m 0.99472,0 v 80.000012 h 0.50792 V 61.021808 h -0.50792 m 0.9947,0 v 80.000012 h 0.50794 V 61.021808 h -0.50794 m 0.99471,0 v 80.000012 h 0.50793 V 61.021808 h -0.50793 m 0.9947,0 v 80.000012 h 0.50794 V 61.021808 h -0.50794 m 1.01589,0 v 80.000012 h 0.50792 V 61.021808 h -0.50792 m 0.9947,0 v 80.000012 h 0.50794 V 61.021808 h -0.50794 m 0.99471,0 v 80.000012 h 0.50793 V 61.021808 h -0.50793 m 0.9947,0 v 80.000012 h 0.50794 V 61.021808 h -0.50794 m 1.01589,0 v 80.000012 h 0.50792 V 61.021808 h -0.50792 m 0.9947,0 v 80.000012 h 0.50794 V 61.021808 h -0.50794 m 0.99471,0 v 80.000012 h 0.50793 V 61.021808 h -0.50793 m 0.9947,0 v 80.000012 h 0.50794 V 61.021808 h -0.50794 m 1.01589,0 v 80.000012 h 0.50792 V 61.021808 h -0.50792 m 0.9947,0 v 80.000012 h 0.50794 V 61.021808 h -0.50794 m 0.99471,0 v 80.000012 h 0.50793 V 61.021808 h -0.50793 m 0.9947,0 v 80.000012 h 0.50794 V 61.021808 h -0.50794 m 1.01589,0 v 80.000012 h 0.50792 V 61.021808 h -0.50792 m 0.9947,0 v 80.000012 h 0.50794 V 61.021808 h -0.50794 m 0.99471,0 v 80.000012 h 0.50793 V 61.021808 h -0.50793 m 0.9947,0 V 141.02182 H 238.899 V 61.021808 h -0.50795 m 1.01589,0 v 80.000012 h 0.50792 V 61.021808 Z"
       style="fill:none;stroke:#0000ff;stroke-width:0.221;stroke-miterlimit:4;stroke-dasharray:none;stroke-opacity:1" />
  </g>
</svg>
