<?xml version="1.0" encoding="UTF-8" standalone="no"?>
<svg
   xmlns:dc="http://purl.org/dc/elements/1.1/"
   xmlns:cc="http://creativecommons.org/ns#"
   xmlns:rdf="http://www.w3.org/1999/02/22-rdf-syntax-ns#"
   xmlns:svg="http://www.w3.org/2000/svg"
   xmlns="http://www.w3.org/2000/svg"
   xmlns:sodipodi="http://sodipodi.sourceforge.net/DTD/sodipodi-0.dtd"
   xmlns:inkscape="http://www.inkscape.org/namespaces/inkscape"
   width="297mm"
   height="210mm"
   viewBox="0 0 297 210"
   version="1.1"
   id="svg8"
   inkscape:version="1.0 (4035a4fb49, 2020-05-01)"
   sodipodi:docname="05mm_100percent_uni.svg">
  <defs
     id="defs2" />
  <sodipodi:namedview
     id="base"
     pagecolor="#ffffff"
     bordercolor="#666666"
     borderopacity="1.0"
     inkscape:pageopacity="0.0"
     inkscape:pageshadow="2"
     inkscape:zoom="0.66314337"
     inkscape:cx="611.74371"
     inkscape:cy="446.36695"
     inkscape:document-units="mm"
     inkscape:current-layer="layer1"
     inkscape:document-rotation="0"
     showgrid="false"
     inkscape:window-width="1920"
     inkscape:window-height="1009"
     inkscape:window-x="-8"
     inkscape:window-y="-4"
     inkscape:window-maximized="1" />
  <metadata
     id="metadata5">
    <rdf:RDF>
      <cc:Work
         rdf:about="">
        <dc:format>image/svg+xml</dc:format>
        <dc:type
           rdf:resource="http://purl.org/dc/dcmitype/StillImage" />
        <dc:title />
      </cc:Work>
    </rdf:RDF>
  </metadata>
  <g
     inkscape:label="Layer 1"
     inkscape:groupmode="layer"
     id="layer1">
    <path
       id="path847"
       d="m 61.795551,62.411574 v 0.50794 H 241.77438 v -0.50794 H 61.795551 m 0,1.01587 v 0.48678 H 241.77438 v -0.48678 H 61.795551 m 0,0.99471 v 0.50794 H 241.77438 v -0.50794 H 61.795551 m 0,0.99471 v 0.50794 H 241.77438 v -0.50794 H 61.795551 m 0,0.99471 v 0.50794 H 241.77438 v -0.50794 H 61.795551 m 0,1.01587 v 0.48678 H 241.77438 v -0.48678 H 61.795551 m 0,0.99471 v 0.50794 H 241.77438 v -0.50794 H 61.795551 m 0,0.99471 v 0.50794 H 241.77438 v -0.50794 H 61.795551 m 0,0.99471 v 0.50794 H 241.77438 v -0.50794 H 61.795551 m 0,1.01587 v 0.48678 H 241.77438 v -0.48678 H 61.795551 m 0,0.99471 v 0.48678 H 241.77438 v -0.48678 H 61.795551 m 0,0.99471 v 0.50794 H 241.77438 v -0.50794 H 61.795551 m 0,0.99471 v 0.50794 H 241.77438 v -0.50794 H 61.795551 m 0,0.99471 v 0.50794 H 241.77438 v -0.48678 L 61.795551,75.406284 m 0,1.01588 v 0.48677 H 241.77438 v -0.48678 H 61.795551 m 0,0.99471 v 0.50794 H 241.77438 v -0.50794 H 61.795551 m 0,0.99471 v 0.50794 H 241.77438 v -0.50794 H 61.795551 m 0,0.99471 v 0.50794 H 241.77438 v -0.50794 H 61.795551 m 0,1.01587 v 0.48678 H 241.77438 v -0.48678 H 61.795551 m 0,0.99471 v 0.50794 H 241.77438 v -0.50794 H 61.795551 m 0,0.99471 v 0.50794 H 241.77438 v -0.50794 H 61.795551 m 0,0.99471 v 0.50794 H 241.77438 v -0.50794 H 61.795551 m 0,1.01587 v 0.48678 H 241.77438 v -0.48678 H 61.795551 m 0,0.99471 v 0.50794 H 241.77438 v -0.50794 H 61.795551 m 0,0.99471 v 0.50794 H 241.77438 v -0.50794 H 61.795551 m 0,0.99471 v 0.50794 H 241.77438 v -0.50794 H 61.795551 m 0,1.01587 v 0.48678 H 241.77438 v -0.48678 H 61.795551 m 0,0.99471 v 0.50794 H 241.77438 v -0.50794 H 61.795551 m 0,0.99471 v 0.50794 H 241.77438 v -0.50794 H 61.795551 m 0,0.99471 v 0.50794 H 241.77438 v -0.50794 H 61.795551 m 0,1.01587 v 0.48678 H 241.77438 v -0.48678 H 61.795551 m 0,0.99471 v 0.50794 H 241.77438 v -0.50794 H 61.795551 m 0,0.99471 v 0.50794 H 241.77438 v -0.50794 H 61.795551 m 0,0.99471 v 0.50794 H 241.77438 v -0.50794 H 61.795551 m 0,1.01587 v 0.48678 H 241.77438 v -0.48678 H 61.795551 m 0,0.99471 v 0.50794 H 241.77438 v -0.50794 H 61.795551 m 0,0.99471 v 0.50794 H 241.77438 v -0.50794 H 61.795551 m 0,0.99471 v 0.507944 H 241.77438 V 99.406284 H 61.795551 m 0,1.015886 v 0.48677 H 241.77438 v -0.48677 H 61.795551 m 0,0.9947 v 0.50794 H 241.77438 v -0.50794 H 61.795551 m 0,0.99471 v 0.50794 H 241.77438 v -0.50794 H 61.795551 m 0,0.99471 v 0.50794 H 241.77438 v -0.50794 H 61.795551 m 0,1.01588 v 0.48677 H 241.77438 v -0.48677 H 61.795551 m 0,0.9947 v 0.50794 H 241.77438 v -0.50794 H 61.795551 m 0,0.99471 v 0.50794 H 241.77438 v -0.50794 H 61.795551 m 0,0.99471 v 0.50794 H 241.77438 v -0.50794 H 61.795551 m 0,1.01588 v 0.48677 H 241.77438 v -0.48677 H 61.795551 m 0,0.9947 v 0.50794 H 241.77438 v -0.50794 H 61.795551 m 0,0.99471 v 0.50794 H 241.77438 v -0.50794 H 61.795551 m 0,0.99471 v 0.50794 H 241.77438 v -0.50794 H 61.795551 m 0,1.01588 v 0.48677 H 241.77438 v -0.48677 H 61.795551 m 0,0.9947 v 0.48678 H 241.77438 v -0.48678 H 61.795551 m 0,0.99471 v 0.50794 H 241.77438 v -0.50794 H 61.795551 m 0,0.99471 v 0.50794 H 241.77438 v -0.50794 H 61.795551 m 0,0.99471 v 0.50794 H 241.77438 v -0.48677 l -179.978829,-0.0212 m 0,1.01587 v 0.48678 H 241.77438 v -0.48678 H 61.795551 m 0,0.99471 v 0.50794 H 241.77438 v -0.50794 H 61.795551 m 0,0.99471 v 0.50794 H 241.77438 v -0.50794 H 61.795551 m 0,0.99471 v 0.50794 H 241.77438 v -0.48677 l -179.978829,-0.0212 m 0,1.01587 v 0.48678 H 241.77438 v -0.48678 H 61.795551 m 0,0.99471 v 0.50794 H 241.77438 v -0.50794 H 61.795551 m 0,0.99471 v 0.50794 H 241.77438 v -0.50794 H 61.795551 m 0,0.99471 v 0.50794 H 241.77438 v -0.50794 H 61.795551 m 0,1.01587 v 0.48678 H 241.77438 v -0.48678 H 61.795551 m 0,0.99471 v 0.50794 H 241.77438 v -0.50794 H 61.795551 m 0,0.9947 v 0.50794 H 241.77438 v -0.50794 H 61.795551 m 0,0.99471 v 0.50794 H 241.77438 v -0.50794 H 61.795551 m 0,1.01587 v 0.48678 H 241.77438 V 129.4168 H 61.795551 m 0,0.99471 v 0.50794 H 241.77438 v -0.50794 H 61.795551 m 0,0.99471 v 0.50794 H 241.77438 v -0.50794 H 61.795551 m 0,0.99471 v 0.50794 H 241.77438 v -0.50794 H 61.795551 m 0,1.01587 v 0.48678 H 241.77438 V 133.4168 H 61.795551 m 0,0.99471 v 0.50794 H 241.77438 v -0.50794 H 61.795551 m 0,0.99471 v 0.50794 H 241.77438 v -0.50794 H 61.795551 m 0,0.99471 v 0.50794 H 241.77438 v -0.50794 H 61.795551 m 0,1.01587 v 0.48678 H 241.77438 V 137.4168 H 61.795551 m 0,0.99471 v 0.50794 H 241.77438 v -0.50794 H 61.795551 m 0,0.99471 v 0.50794 H 241.77438 v -0.50794 H 61.795551 m 0,0.99471 v 0.50794 H 241.77438 v -0.50794 H 61.795551 m 0,1.01587 v 0.48678 H 241.77438 v -0.48678 z"
       style="fill:none;stroke:#ff0000;stroke-width:0.221;stroke-miterlimit:4;stroke-dasharray:none;stroke-opacity:1" />
    <path
       id="path863"
       d="m 61.795551,62.411574 v 80.000016 h 0.507937 V 62.411574 h -0.507937 m 0.994709,0 v 80.000016 h 0.507937 V 62.411574 H 62.79026 m 1.015873,0 V 142.41159 H 64.31407 V 62.411574 h -0.507937 m 0.994709,0 v 80.000016 h 0.507937 V 62.411574 h -0.507937 m 0.994709,0 v 80.000016 h 0.507937 V 62.411574 h -0.507937 m 0.994709,0 v 80.000016 h 0.507937 V 62.411574 H 66.79026 m 1.015873,0 V 142.41159 H 68.31407 V 62.411574 h -0.507937 m 0.994709,0 v 80.000016 h 0.507937 V 62.411574 h -0.507937 m 0.994709,0 v 80.000016 h 0.507937 V 62.411574 h -0.507937 m 0.994709,0 v 80.000016 h 0.507937 V 62.411574 H 70.79026 m 0.994709,0 v 80.000016 h 0.507937 V 62.411574 h -0.507937 m 1.015873,0 v 80.000016 h 0.507937 V 62.411574 h -0.507937 m 0.994709,0 v 80.000016 h 0.507937 V 62.411574 h -0.507937 m 0.994709,0 v 80.000016 h 0.507937 V 62.411574 H 74.79026 m 0.994709,0 v 80.000016 h 0.507937 V 62.411574 h -0.507937 m 1.015873,0 v 80.000016 h 0.507937 V 62.411574 h -0.507937 m 0.994709,0 v 80.000016 h 0.507937 V 62.411574 h -0.507937 m 0.994709,0 v 80.000016 h 0.507937 V 62.411574 H 78.79026 m 0.994709,0 v 80.000016 h 0.507937 V 62.411574 h -0.507937 m 1.015873,0 v 80.000016 h 0.507937 V 62.411574 h -0.507937 m 0.994709,0 v 80.000016 h 0.507937 V 62.411574 h -0.507937 m 0.994709,0 v 80.000016 h 0.507937 V 62.411574 H 82.79026 m 0.994709,0 v 80.000016 h 0.507937 V 62.411574 h -0.507937 m 1.015873,0 v 80.000016 h 0.507937 V 62.411574 h -0.507937 m 0.994709,0 v 80.000016 h 0.507937 V 62.411574 h -0.507937 m 0.994709,0 v 80.000016 h 0.507937 V 62.411574 H 86.79026 m 0.994709,0 v 80.000016 h 0.507937 V 62.411574 h -0.507937 m 1.015873,0 v 80.000016 h 0.507937 V 62.411574 h -0.507937 m 0.994709,0 v 80.000016 h 0.507937 V 62.411574 h -0.507937 m 0.994709,0 v 80.000016 h 0.507937 V 62.411574 H 90.79026 m 0.994709,0 v 80.000016 h 0.507937 V 62.411574 h -0.507937 m 1.015873,0 v 80.000016 h 0.507937 V 62.411574 h -0.507937 m 0.994709,0 v 80.000016 h 0.507937 V 62.411574 h -0.507937 m 0.994711,0 v 80.000016 h 0.50793 V 62.411574 h -0.50793 m 0.99471,0 v 80.000016 h 0.50793 V 62.411574 h -0.50793 m 1.01587,0 v 80.000016 h 0.50794 V 62.411574 h -0.50794 m 0.99471,0 v 80.000016 h 0.50794 V 62.411574 h -0.50794 m 0.99471,0 v 80.000016 h 0.50793 V 62.411574 h -0.50793 m 0.99471,0 V 142.41159 H 100.2929 V 62.411574 h -0.507928 m 1.015868,0 v 80.000016 h 0.50794 V 62.411574 h -0.50794 m 0.99471,0 v 80.000016 h 0.50794 V 62.411574 h -0.50794 m 0.99471,0 v 80.000016 h 0.50794 V 62.411574 h -0.50794 m 0.99472,0 v 80.000016 h 0.50793 V 62.411574 h -0.50793 m 1.01587,0 v 80.000016 h 0.50794 V 62.411574 h -0.50794 m 0.99471,0 v 80.000016 h 0.50794 V 62.411574 h -0.50794 m 0.99471,0 v 80.000016 h 0.50793 V 62.411574 h -0.50793 m 0.99471,0 v 80.000016 h 0.50793 V 62.411574 h -0.50793 m 0.99471,0 v 80.000016 h 0.50793 V 62.411574 h -0.50793 m 1.01587,0 v 80.000016 h 0.50794 V 62.411574 h -0.50794 m 0.99471,0 v 80.000016 h 0.50793 V 62.411574 h -0.50793 m 0.99471,0 v 80.000016 h 0.50793 V 62.411574 h -0.50793 m 0.99471,0 v 80.000016 h 0.50793 V 62.411574 h -0.50793 m 1.01587,0 v 80.000016 h 0.50794 V 62.411574 h -0.50794 m 0.99471,0 v 80.000016 h 0.50793 V 62.411574 h -0.50793 m 0.99471,0 v 80.000016 h 0.50793 V 62.411574 h -0.50793 m 0.99471,0 v 80.000016 h 0.50793 V 62.411574 h -0.50793 m 1.01587,0 v 80.000016 h 0.50794 V 62.411574 h -0.50794 m 0.99471,0 v 80.000016 h 0.50793 V 62.411574 h -0.50793 m 0.99471,0 v 80.000016 h 0.50793 V 62.411574 h -0.50793 m 0.99471,0 v 80.000016 h 0.50793 V 62.411574 h -0.50793 m 1.01587,0 v 80.000016 h 0.50794 V 62.411574 h -0.50794 m 0.99471,0 v 80.000016 h 0.50793 V 62.411574 h -0.50793 m 0.99471,0 v 80.000016 h 0.50793 V 62.411574 h -0.50793 m 0.99471,0 v 80.000016 h 0.50793 V 62.411574 h -0.50793 m 1.01587,0 v 80.000016 h 0.50794 V 62.411574 h -0.50794 m 0.99471,0 v 80.000016 h 0.50793 V 62.411574 h -0.50793 m 0.99471,0 v 80.000016 h 0.50793 V 62.411574 h -0.50793 m 0.99471,0 v 80.000016 h 0.50793 V 62.411574 h -0.50793 m 1.01587,0 v 80.000016 h 0.50794 V 62.411574 h -0.50794 m 0.99471,0 v 80.000016 h 0.50793 V 62.411574 h -0.50793 m 0.99471,0 v 80.000016 h 0.50793 V 62.411574 h -0.50793 m 0.99471,0 v 80.000016 h 0.50793 V 62.411574 h -0.50793 m 1.01587,0 v 80.000016 h 0.50794 V 62.411574 h -0.50794 m 0.99471,0 v 80.000016 h 0.50793 V 62.411574 h -0.50793 m 0.99471,0 v 80.000016 h 0.50793 V 62.411574 h -0.50793 m 0.99471,0 v 80.000016 h 0.50793 V 62.411574 h -0.50793 m 1.01587,0 v 80.000016 h 0.50794 V 62.411574 h -0.50794 m 0.99471,0 v 80.000016 h 0.50793 V 62.411574 h -0.50793 m 0.99471,0 v 80.000016 h 0.50793 V 62.411574 h -0.50793 m 0.99471,0 v 80.000016 h 0.50793 V 62.411574 h -0.50793 m 1.01587,0 v 80.000016 h 0.50794 V 62.411574 h -0.50794 m 0.99471,0 v 80.000016 h 0.50793 V 62.411574 h -0.50793 m 0.99471,0 v 80.000016 h 0.50793 V 62.411574 h -0.50793 m 0.99471,0 v 80.000016 h 0.50793 V 62.411574 h -0.50793 m 1.01587,0 v 80.000016 h 0.50794 V 62.411574 h -0.50794 m 0.99471,0 v 80.000016 h 0.50793 V 62.411574 h -0.50793 m 0.99471,0 v 80.000016 h 0.50793 V 62.411574 h -0.50793 m 0.99471,0 v 80.000016 h 0.50793 V 62.411574 h -0.50793 m 0.99471,0 v 80.000016 h 0.50793 V 62.411574 h -0.50793 m 1.01587,0 v 80.000016 h 0.50793 V 62.411574 h -0.50793 m 0.99471,0 v 80.000016 h 0.50793 V 62.411574 h -0.50793 m 0.99471,0 v 80.000016 h 0.50792 V 62.411574 h -0.50792 m 0.9947,0 v 80.000016 h 0.50793 V 62.411574 h -0.50793 m 1.01587,0 v 80.000016 h 0.50793 V 62.411574 h -0.50793 m 0.99471,0 v 80.000016 h 0.50793 V 62.411574 h -0.50793 m 0.99471,0 v 80.000016 h 0.50793 V 62.411574 h -0.50793 m 0.99471,0 v 80.000016 h 0.50793 V 62.411574 h -0.50793 m 1.01587,0 v 80.000016 h 0.50793 V 62.411574 h -0.50793 m 0.99471,0 v 80.000016 h 0.50793 V 62.411574 h -0.50793 m 0.99471,0 v 80.000016 h 0.50793 V 62.411574 h -0.50793 m 0.99471,0 v 80.000016 h 0.50793 V 62.411574 h -0.50793 m 1.01587,0 v 80.000016 h 0.50793 V 62.411574 h -0.50793 m 0.99471,0 v 80.000016 h 0.50793 V 62.411574 h -0.50793 m 0.99471,0 v 80.000016 h 0.50793 V 62.411574 h -0.50793 m 0.99471,0 v 80.000016 h 0.50793 V 62.411574 h -0.50793 m 1.01587,0 v 80.000016 h 0.50793 V 62.411574 h -0.50793 m 0.99471,0 v 80.000016 h 0.50793 V 62.411574 h -0.50793 m 0.99471,0 v 80.000016 h 0.50793 V 62.411574 h -0.50793 m 0.99471,0 v 80.000016 h 0.50793 V 62.411574 h -0.50793 m 1.01587,0 v 80.000016 h 0.50793 V 62.411574 h -0.50793 m 0.99471,0 v 80.000016 h 0.50793 V 62.411574 h -0.50793 m 0.99471,0 v 80.000016 h 0.50793 V 62.411574 h -0.50793 m 0.99471,0 v 80.000016 h 0.50793 V 62.411574 h -0.50793 m 1.01587,0 v 80.000016 h 0.50793 V 62.411574 h -0.50793 m 0.99471,0 v 80.000016 h 0.50793 V 62.411574 h -0.50793 m 0.99471,0 v 80.000016 h 0.50793 V 62.411574 h -0.50793 m 0.99471,0 v 80.000016 h 0.50793 V 62.411574 h -0.50793 m 1.01587,0 v 80.000016 h 0.50793 V 62.411574 h -0.50793 m 0.99471,0 v 80.000016 h 0.50793 V 62.411574 h -0.50793 m 0.99471,0 v 80.000016 h 0.50793 V 62.411574 h -0.50793 m 0.99471,0 v 80.000016 h 0.50793 V 62.411574 h -0.50793 m 1.01587,0 v 80.000016 h 0.50793 V 62.411574 h -0.50793 m 0.99471,0 v 80.000016 h 0.50793 V 62.411574 h -0.50793 m 0.99471,0 v 80.000016 h 0.50793 V 62.411574 h -0.50793 m 0.99471,0 v 80.000016 h 0.50793 V 62.411574 h -0.50793 m 0.9947,0 v 80.000016 h 0.50794 V 62.411574 h -0.50794 m 1.01588,0 v 80.000016 h 0.50793 V 62.411574 h -0.50793 m 0.99471,0 v 80.000016 h 0.50793 V 62.411574 h -0.50793 m 0.99471,0 v 80.000016 h 0.50793 V 62.411574 h -0.50793 m 0.9947,0 v 80.000016 h 0.50794 V 62.411574 h -0.50794 m 1.01588,0 v 80.000016 h 0.50793 V 62.411574 h -0.50793 m 0.99471,0 v 80.000016 h 0.50793 V 62.411574 h -0.50793 m 0.99471,0 v 80.000016 h 0.50793 V 62.411574 h -0.50793 m 0.9947,0 v 80.000016 h 0.50794 V 62.411574 h -0.50794 m 1.01588,0 v 80.000016 h 0.50793 V 62.411574 h -0.50793 m 0.99471,0 v 80.000016 h 0.50793 V 62.411574 h -0.50793 m 0.99471,0 v 80.000016 h 0.50793 V 62.411574 h -0.50793 m 0.9947,0 v 80.000016 h 0.50794 V 62.411574 h -0.50794 m 1.01588,0 v 80.000016 h 0.50793 V 62.411574 h -0.50793 m 0.99471,0 v 80.000016 h 0.50793 V 62.411574 h -0.50793 m 0.99471,0 v 80.000016 h 0.50793 V 62.411574 h -0.50793 m 0.9947,0 v 80.000016 h 0.50794 V 62.411574 h -0.50794 m 1.01588,0 v 80.000016 h 0.50793 V 62.411574 h -0.50793 m 0.99471,0 v 80.000016 h 0.50793 V 62.411574 h -0.50793 m 0.99471,0 v 80.000016 h 0.50793 V 62.411574 h -0.50793 m 0.9947,0 v 80.000016 h 0.50794 V 62.411574 h -0.50794 m 1.01588,0 v 80.000016 h 0.50793 V 62.411574 h -0.50793 m 0.99471,0 v 80.000016 h 0.50793 V 62.411574 h -0.50793 m 0.99471,0 v 80.000016 h 0.50793 V 62.411574 h -0.50793 m 0.9947,0 v 80.000016 h 0.50794 V 62.411574 h -0.50794 m 1.01588,0 v 80.000016 h 0.50793 V 62.411574 h -0.50793 m 0.99471,0 v 80.000016 h 0.50793 V 62.411574 h -0.50793 m 0.99471,0 v 80.000016 h 0.50793 V 62.411574 h -0.50793 m 0.9947,0 v 80.000016 h 0.50794 V 62.411574 h -0.50794 m 1.01588,0 v 80.000016 h 0.50793 V 62.411574 h -0.50793 m 0.99471,0 v 80.000016 h 0.50793 V 62.411574 h -0.50793 m 0.99471,0 v 80.000016 h 0.50793 V 62.411574 h -0.50793 m 0.9947,0 v 80.000016 h 0.50794 V 62.411574 h -0.50794 m 1.01588,0 v 80.000016 h 0.50793 V 62.411574 h -0.50793 m 0.99471,0 v 80.000016 h 0.50793 V 62.411574 h -0.50793 m 0.99471,0 v 80.000016 h 0.50793 V 62.411574 h -0.50793 m 0.9947,0 v 80.000016 h 0.50794 V 62.411574 h -0.50794 m 0.99471,0 v 80.000016 h 0.50794 V 62.411574 h -0.50794 m 1.01588,0 v 80.000016 h 0.50793 V 62.411574 h -0.50793 m 0.99471,0 v 80.000016 h 0.50793 V 62.411574 h -0.50793 m 0.9947,0 v 80.000016 h 0.50794 V 62.411574 h -0.50794 m 0.99471,0 v 80.000016 h 0.50794 V 62.411574 h -0.50794 m 1.01588,0 v 80.000016 h 0.50793 V 62.411574 h -0.50793 m 0.99471,0 v 80.000016 h 0.50793 V 62.411574 h -0.50793 m 0.9947,0 v 80.000016 h 0.50794 V 62.411574 h -0.50794 m 0.99471,0 v 80.000016 h 0.50794 V 62.411574 h -0.50794 m 1.01588,0 v 80.000016 h 0.50793 V 62.411574 h -0.50793 m 0.99471,0 v 80.000016 h 0.50793 V 62.411574 h -0.50793 m 0.9947,0 v 80.000016 h 0.50794 V 62.411574 h -0.50794 m 0.99471,0 v 80.000016 h 0.50794 V 62.411574 h -0.50794 m 1.01588,0 v 80.000016 h 0.50793 V 62.411574 h -0.50793 m 0.99471,0 v 80.000016 h 0.50793 V 62.411574 h -0.50793 m 0.9947,0 v 80.000016 h 0.50794 V 62.411574 h -0.50794 m 0.99471,0 v 80.000016 h 0.50794 V 62.411574 h -0.50794 m 1.01588,0 v 80.000016 h 0.50793 V 62.411574 Z"
       style="fill:none;stroke:#0000ff;stroke-width:0.221;stroke-miterlimit:4;stroke-dasharray:none;stroke-opacity:1" />
    <rect
       y="41.89328"
       x="42.292263"
       height="121.29102"
       width="215.05217"
       id="rect865"
       style="fill:none;stroke:#0000ff;stroke-width:0.221;stroke-miterlimit:4;stroke-dasharray:none;stroke-opacity:1" />
  </g>
</svg>
