<?xml version="1.0" encoding="UTF-8" standalone="no"?>
<svg
   xmlns:dc="http://purl.org/dc/elements/1.1/"
   xmlns:cc="http://creativecommons.org/ns#"
   xmlns:rdf="http://www.w3.org/1999/02/22-rdf-syntax-ns#"
   xmlns:svg="http://www.w3.org/2000/svg"
   xmlns="http://www.w3.org/2000/svg"
   xmlns:sodipodi="http://sodipodi.sourceforge.net/DTD/sodipodi-0.dtd"
   xmlns:inkscape="http://www.inkscape.org/namespaces/inkscape"
   sodipodi:docname="05mm_10percent.svg"
   inkscape:version="1.0 (4035a4fb49, 2020-05-01)"
   id="svg8"
   version="1.1"
   viewBox="0 0 297 210"
   height="210mm"
   width="297mm">
  <defs
     id="defs2" />
  <sodipodi:namedview
     inkscape:window-maximized="1"
     inkscape:window-y="-8"
     inkscape:window-x="-8"
     inkscape:window-height="1009"
     inkscape:window-width="1920"
     showgrid="false"
     inkscape:document-rotation="0"
     inkscape:current-layer="layer1"
     inkscape:document-units="mm"
     inkscape:cy="379.76014"
     inkscape:cx="434.93444"
     inkscape:zoom="0.68132251"
     inkscape:pageshadow="2"
     inkscape:pageopacity="0.0"
     borderopacity="1.0"
     bordercolor="#666666"
     pagecolor="#ffffff"
     id="base" />
  <metadata
     id="metadata5">
    <rdf:RDF>
      <cc:Work
         rdf:about="">
        <dc:format>image/svg+xml</dc:format>
        <dc:type
           rdf:resource="http://purl.org/dc/dcmitype/StillImage" />
        <dc:title></dc:title>
      </cc:Work>
    </rdf:RDF>
  </metadata>
  <g
     id="layer1"
     inkscape:groupmode="layer"
     inkscape:label="Layer 1">
    <path
       id="path847"
       d="m 65.083186,58.762026 v 61.100534 14.24339 3.49206 0.84656 l 0.03393,0.29567 0.347019,0.0218 h 0.95238 3.661376 V 58.762026 h -4.994709 m 10.010582,0 v 80.000004 h 4.994709 V 58.762026 h -4.994709 m 9.989418,0 v 61.100534 14.24339 3.49206 0.84656 l 0.03393,0.29567 0.347027,0.0218 h 0.95238 3.661376 V 58.762026 h -4.994709 m 10.010582,0 v 80.000004 h 3.661376 0.952381 l 0.347095,-0.0218 0.0339,-0.29566 v -0.84656 -3.49206 -14.24339 -61.100534 h -4.994714 m 9.989414,0 v 80.000004 h 4.99471 V 58.762026 h -4.99471 m 10.01059,0 v 80.000004 h 3.66138 0.95238 l 0.34709,-0.0218 0.0339,-0.29566 v -0.84656 -3.49206 -14.24339 -61.100534 h -4.99471 m 9.98942,0 v 80.000004 h 4.99471 V 58.762026 h -4.99471 m 9.98942,0 v 61.100534 14.24339 3.49206 0.84656 l 0.0339,0.29567 0.34709,0.0218 h 0.95238 3.66138 V 58.762026 h -4.99471 m 10.01059,0 v 80.000004 h 4.99471 V 58.762026 h -4.99471 m 9.98942,0 v 61.100534 14.24339 3.49206 0.84656 l 0.0339,0.29567 0.34709,0.0218 h 0.95238 3.66138 V 58.762026 h -4.99471 m 10.01058,0 v 80.000004 h 4.99471 V 58.762026 h -4.99471 m 9.98942,0 v 61.100534 14.24339 3.49206 0.84656 l 0.0339,0.29567 0.34709,0.0218 h 0.95238 3.66138 V 58.762026 h -4.99471 m 10.01058,0 v 80.000004 h 3.66138 0.95238 l 0.34709,-0.0218 0.0339,-0.29566 v -0.84656 -3.49206 -14.24339 -61.100534 h -4.99471 m 9.98942,0 v 80.000004 h 4.99471 V 58.762026 h -4.99471 m 10.01058,0 v 80.000004 h 3.66138 0.95238 l 0.34709,-0.0218 0.0339,-0.29566 v -0.84656 -3.49206 -14.24339 -61.100534 h -4.99471 m 9.98942,0 v 80.000004 h 4.99471 V 58.762026 h -4.99471 m 9.98942,0 v 61.100534 14.24339 3.49206 0.84656 l 0.0339,0.29567 0.34709,0.0218 h 0.95238 3.66138 V 58.762026 h -4.99471 m 10.01058,0 v 80.000004 h 4.99471 V 58.762026 Z"
       style="fill:none;stroke:#ff0000;stroke-width:0.221;stroke-miterlimit:4;stroke-dasharray:none;stroke-opacity:1" />
    <path
       id="path863"
       d="m 60.088729,58.762026 v 4.994711 H 240.06757 V 58.762026 H 60.088729 m 0,10.010581 v 4.994714 H 240.06757 V 68.772607 H 60.088729 m 0,9.989424 v 4.99471 H 240.06757 v -4.99471 H 60.088729 m 0,10.01058 v 4.99471 h 138.052921 31.06878 8.02117 2.07407 0.5291 l 0.19894,-0.0218 0.0339,-0.31682 v -0.91005 -3.74604 H 60.088729 m 0,9.98942 v 4.994709 H 240.06757 V 98.762031 H 60.088729 m 0,10.010589 v 4.99471 h 138.095251 31.04762 8 2.07407 0.5291 l 0.19894,-0.0218 0.0339,-0.31683 v -0.91005 -3.74603 H 60.088729 m 0,9.98941 v 4.99471 H 240.06757 v -4.99471 H 60.088729 m 0,10.01059 v 4.97354 H 240.06757 v -4.97354 z"
       style="fill:none;stroke:#0000ff;stroke-width:0.121;stroke-miterlimit:4;stroke-dasharray:none;stroke-opacity:1" />
    <rect
       y="53.202286"
       x="46.988884"
       height="94.366104"
       width="202.71237"
       id="rect865"
       style="fill:none;stroke:#0000ff;stroke-width:0.121;stroke-miterlimit:4;stroke-dasharray:none;stroke-opacity:1" />
  </g>
</svg>
