<?xml version="1.0" encoding="UTF-8" standalone="no"?>
<svg
   xmlns:dc="http://purl.org/dc/elements/1.1/"
   xmlns:cc="http://creativecommons.org/ns#"
   xmlns:rdf="http://www.w3.org/1999/02/22-rdf-syntax-ns#"
   xmlns:svg="http://www.w3.org/2000/svg"
   xmlns="http://www.w3.org/2000/svg"
   xmlns:sodipodi="http://sodipodi.sourceforge.net/DTD/sodipodi-0.dtd"
   xmlns:inkscape="http://www.inkscape.org/namespaces/inkscape"
   sodipodi:docname="05mm_50percent.svg"
   inkscape:version="1.0 (4035a4fb49, 2020-05-01)"
   id="svg8"
   version="1.1"
   viewBox="0 0 297 210"
   height="210mm"
   width="297mm">
  <defs
     id="defs2" />
  <sodipodi:namedview
     inkscape:window-maximized="1"
     inkscape:window-y="-8"
     inkscape:window-x="-8"
     inkscape:window-height="1009"
     inkscape:window-width="1920"
     showgrid="false"
     inkscape:document-rotation="0"
     inkscape:current-layer="layer1"
     inkscape:document-units="mm"
     inkscape:cy="370.53704"
     inkscape:cx="630.79814"
     inkscape:zoom="0.96353553"
     inkscape:pageshadow="2"
     inkscape:pageopacity="0.0"
     borderopacity="1.0"
     bordercolor="#666666"
     pagecolor="#ffffff"
     id="base" />
  <metadata
     id="metadata5">
    <rdf:RDF>
      <cc:Work
         rdf:about="">
        <dc:format>image/svg+xml</dc:format>
        <dc:type
           rdf:resource="http://purl.org/dc/dcmitype/StillImage" />
        <dc:title></dc:title>
      </cc:Work>
    </rdf:RDF>
  </metadata>
  <g
     id="layer1"
     inkscape:groupmode="layer"
     inkscape:label="Layer 1">
    <path
       id="path861"
       d="m 56.303725,62.27912 v 79.97884 h 0.27514 V 62.27912 h -0.27514 m 1.29101,0 v 79.97884 h 0.9947 V 62.27912 h -0.9947 m 1.98941,0 v 79.97884 h 0.99471 V 62.27912 h -0.99471 m 2.01059,0 v 79.97884 h 0.9947 V 62.27912 h -0.9947 m 1.98941,0 v 79.97884 h 0.99471 V 62.27912 h -0.99471 m 2.01059,0 v 79.97884 h 0.9947 V 62.27912 h -0.9947 m 1.98941,0 v 79.97884 h 0.99471 V 62.27912 h -0.99471 m 2.01059,0 v 79.97884 h 0.9947 V 62.27912 h -0.9947 m 1.98941,0 v 79.97884 h 0.99471 V 62.27912 h -0.99471 m 2.01059,0 v 79.97884 h 0.9947 V 62.27912 h -0.9947 m 1.98941,0 v 79.97884 h 0.99471 V 62.27912 h -0.99471 m 2.01059,0 v 79.97884 h 0.9947 V 62.27912 h -0.9947 m 1.98941,0 v 79.97884 h 0.99471 V 62.27912 h -0.99471 m 2.01059,0 v 79.97884 h 0.9947 V 62.27912 h -0.9947 m 1.98941,0 v 79.97884 h 0.99471 V 62.27912 h -0.99471 m 2.01059,0 v 79.97884 h 0.9947 V 62.27912 h -0.9947 m 1.98941,0 v 79.97884 h 0.99471 V 62.27912 h -0.99471 m 2.01059,0 v 79.97884 h 0.9947 V 62.27912 h -0.9947 m 1.98941,0 v 79.97884 h 0.99471 V 62.27912 h -0.99471 m 2.01059,0 v 79.97884 h 0.9947 V 62.27912 h -0.9947 m 1.98941,0 v 79.97884 h 0.99471 V 62.27912 h -0.99471 m 2.01059,0 v 79.97884 h 0.99471 V 62.27912 h -0.99471 m 1.98942,0 v 79.97884 h 0.994705 V 62.27912 h -0.994705 m 2.010585,0 v 79.97884 h 0.99471 V 62.27912 h -0.99471 m 1.98942,0 v 79.97884 h 0.9947 V 62.27912 h -0.9947 m 2.01058,0 v 79.97884 h 0.99471 V 62.27912 h -0.99471 m 1.98942,0 v 79.97884 h 0.9947 V 62.27912 h -0.9947 m 2.01058,0 v 79.97884 h 0.99471 V 62.27912 h -0.99471 m 1.98942,0 v 79.97884 h 0.9947 V 62.27912 h -0.9947 m 1.98941,0 v 79.97884 h 0.99471 V 62.27912 h -0.99471 m 2.01059,0 v 79.97884 h 0.9947 V 62.27912 h -0.9947 m 1.98941,0 v 79.97884 h 0.99471 V 62.27912 h -0.99471 m 2.01059,0 v 79.97884 h 0.9947 V 62.27912 h -0.9947 m 1.98941,0 v 79.97884 h 0.99471 V 62.27912 h -0.99471 m 2.01059,0 v 79.97884 h 0.9947 V 62.27912 h -0.9947 m 1.98941,0 v 79.97884 h 0.99471 V 62.27912 h -0.99471 m 2.01059,0 v 79.97884 h 0.9947 V 62.27912 h -0.9947 m 1.98941,0 v 79.97884 h 0.99471 V 62.27912 h -0.99471 m 2.01059,0 v 79.97884 h 0.9947 V 62.27912 h -0.9947 m 1.98941,0 v 79.97884 h 0.99471 V 62.27912 h -0.99471 m 2.01059,0 v 79.97884 h 0.9947 V 62.27912 h -0.9947 m 1.98941,0 v 79.97884 h 0.99471 V 62.27912 h -0.99471 m 2.01059,0 v 79.97884 h 0.9947 V 62.27912 h -0.9947 m 1.98941,0 v 79.97884 h 0.99471 V 62.27912 h -0.99471 m 2.01059,0 v 79.97884 h 0.9947 V 62.27912 h -0.9947 m 1.98941,0 v 79.97884 h 0.99471 V 62.27912 h -0.99471 m 2.01059,0 v 79.97884 h 0.9947 V 62.27912 h -0.9947 m 1.98941,0 v 79.97884 h 0.99471 V 62.27912 h -0.99471 m 2.01059,0 v 79.97884 h 0.9947 V 62.27912 h -0.9947 m 1.98941,0 v 79.97884 h 0.99471 V 62.27912 h -0.99471 m 2.01059,0 v 79.97884 h 0.9947 V 62.27912 h -0.9947 m 1.98941,0 v 79.97884 h 0.99471 V 62.27912 h -0.99471 m 2.01059,0 v 79.97884 h 0.9947 V 62.27912 h -0.9947 m 1.98941,0 v 79.97884 h 0.99471 V 62.27912 h -0.99471 m 2.01059,0 v 79.97884 h 0.9947 V 62.27912 h -0.9947 m 1.98941,0 v 79.97884 h 0.99471 V 62.27912 h -0.99471 m 2.01059,0 v 79.97884 h 0.9947 V 62.27912 h -0.9947 m 1.98941,0 v 79.97884 h 0.99471 V 62.27912 h -0.99471 m 2.01059,0 v 79.97884 h 0.9947 V 62.27912 h -0.9947 m 1.98941,0 v 79.97884 h 0.99471 V 62.27912 h -0.99471 m 2.01059,0 v 79.97884 h 0.9947 V 62.27912 h -0.9947 m 1.98941,0 v 79.97884 h 0.99471 V 62.27912 h -0.99471 m 2.01059,0 v 79.97884 h 0.9947 V 62.27912 h -0.9947 m 1.98941,0 v 79.97884 h 0.99471 V 62.27912 h -0.99471 m 2.01059,0 v 79.97884 h 0.9947 V 62.27912 h -0.9947 m 1.98941,0 v 79.97884 h 0.99471 V 62.27912 h -0.99471 m 2.01059,0 v 79.97884 h 0.9947 V 62.27912 h -0.9947 m 1.98941,0 v 79.97884 h 0.99471 V 62.27912 h -0.99471 m 2.01059,0 v 79.97884 h 0.9947 V 62.27912 h -0.9947 m 1.98941,0 v 79.97884 h 0.99471 V 62.27912 h -0.99471 m 1.98942,0 v 79.97884 h 0.99471 V 62.27912 h -0.99471 m 2.01058,0 v 79.97884 h 0.99471 V 62.27912 h -0.99471 m 1.98942,0 v 79.97884 h 0.99471 V 62.27912 h -0.99471 m 2.01058,0 v 79.97884 h 0.99471 V 62.27912 h -0.99471 m 1.98942,0 v 79.97884 h 0.99471 V 62.27912 h -0.99471 m 2.01058,0 v 79.97884 h 0.99471 V 62.27912 h -0.99471 m 1.98942,0 v 79.97884 h 0.99471 V 62.27912 h -0.99471 m 2.01058,0 v 79.97884 h 0.99471 V 62.27912 h -0.99471 m 1.98942,0 v 79.97884 h 0.99471 V 62.27912 h -0.99471 m 2.01058,0 v 79.97884 h 0.99471 V 62.27912 h -0.99471 m 1.98942,0 v 79.97884 h 0.99471 V 62.27912 h -0.99471 m 2.01058,0 v 79.97884 h 0.99471 V 62.27912 h -0.99471 m 1.98942,0 v 79.97884 h 0.99471 V 62.27912 h -0.99471 m 2.01058,0 v 79.97884 h 0.99471 V 62.27912 h -0.99471 m 1.98942,0 v 79.97884 h 0.99471 V 62.27912 h -0.99471 m 2.01058,0 v 79.97884 h 0.99471 V 62.27912 h -0.99471 m 1.98942,0 v 79.97884 h 0.99471 V 62.27912 h -0.99471 m 2.01058,0 v 79.97884 h 0.99471 V 62.27912 h -0.99471 m 1.98942,0 v 79.97884 h 0.99471 V 62.27912 h -0.99471 m 2.01058,0 v 79.97884 h 0.99471 V 62.27912 h -0.99471 m 1.98942,0 v 79.97884 h 0.71958 V 62.27912 Z"
       style="fill:none;stroke:#f60000;stroke-width:0.121;stroke-miterlimit:4;stroke-dasharray:none;stroke-opacity:1" />
    <path
       id="path877"
       d="m 56.303725,62.25796 v 1.01587 H 236.28257 V 62.27912 L 56.303725,62.25792 m 0,2.01058 v 1.01588 H 236.28257 V 64.2685 H 56.303725 m 0,1.98942 v 1.01587 H 236.28257 V 66.27908 L 56.303725,66.25788 m 0,2.01058 v 1.01588 H 236.28257 V 68.26846 H 56.303725 m 0,1.98942 v 1.01587 H 236.28257 V 70.27904 L 56.303725,70.25784 m 0,2.01058 V 73.2843 H 236.28257 V 72.26842 H 56.303725 m 0,1.98942 v 1.01587 H 236.28257 V 74.25784 H 56.303725 m 0,2.01058 v 1.01587 H 236.28257 V 76.26842 H 56.303725 m 0,1.98942 v 1.01587 H 236.28257 V 78.25784 H 56.303725 m 0,2.01058 v 1.01587 H 236.28257 V 80.26842 H 56.303725 m 0,1.98942 v 1.01587 H 236.28257 V 82.25784 H 56.303725 m 0,2.01058 v 1.01587 H 236.28257 V 84.26842 H 56.303725 m 0,1.98942 v 1.01587 H 236.28257 V 86.25784 H 56.303725 m 0,2.01058 v 1.01587 H 236.28257 V 88.26842 H 56.303725 m 0,1.98942 v 1.01587 H 236.28257 V 90.25784 H 56.303725 m 0,2.01058 v 1.01587 H 236.28257 V 92.26842 H 56.303725 m 0,1.98942 v 1.01587 H 236.28257 V 94.25784 H 56.303725 m 0,2.01058 v 1.01587 H 236.28257 V 96.26842 H 56.303725 m 0,1.98942 v 1.01587 H 236.28257 V 98.25784 H 56.303725 m 0,2.01058 v 1.01587 H 236.28257 v -1.01587 H 56.303725 m 0,1.98942 v 1.01587 H 236.28257 v -1.01587 H 56.303725 m 0,2.01058 v 1.01588 H 236.28257 v -1.01588 H 56.303725 m 0,1.98942 v 1.01587 H 236.28257 v -1.01587 H 56.303725 m 0,2.01058 v 1.01588 H 236.28257 v -1.01588 H 56.303725 m 0,1.98942 v 1.01587 H 236.28257 v -1.01587 H 56.303725 m 0,2.01058 v 0.99471 H 236.28257 v -0.99471 H 56.303725 m 0,1.98942 v 1.01587 H 236.28257 v -1.01587 H 56.303725 m 0,2.01058 v 0.99471 H 236.28257 v -0.99471 H 56.303725 m 0,1.98942 v 1.01587 H 236.28257 v -1.01587 H 56.303725 m 0,1.98942 v 1.01587 H 236.28257 v -0.99471 l -179.978845,-0.0212 m 0,2.01058 v 1.01587 H 236.28257 V 122.2578 H 56.303725 m 0,1.98942 v 1.01587 H 236.28257 v -0.99471 l -179.978845,-0.0212 m 0,2.01058 v 1.01588 H 236.28257 v -1.01588 H 56.303725 m 0,1.98942 v 1.01587 H 236.28257 v -0.99471 l -179.978845,-0.0212 m 0,2.01058 v 1.01588 H 236.28257 v -1.01588 H 56.303725 m 0,1.98942 v 1.01587 H 236.28257 V 132.2683 L 56.303725,132.2471 m 0,2.01058 v 1.01588 H 236.28257 v -1.01588 H 56.303725 m 0,1.98942 v 1.01587 H 236.28257 v -0.9947 l -179.978845,-0.0212 m 0,2.01058 v 1.01588 H 236.28257 v -1.01588 H 56.303725 m 0,1.98942 v 1.01587 H 236.28257 v -0.9947 z"
       style="fill:none;stroke:#0000ff;stroke-width:0.121;stroke-miterlimit:4;stroke-dasharray:none;stroke-opacity:1" />
    <rect
       y="50.251133"
       x="46.955975"
       height="102.97363"
       width="197.70937"
       id="rect879"
       style="fill:none;stroke:#0000ff;stroke-width:0.121;stroke-miterlimit:4;stroke-dasharray:none;stroke-opacity:1" />
  </g>
</svg>
