<?xml version="1.0" encoding="UTF-8" standalone="no"?>
<svg
   xmlns:dc="http://purl.org/dc/elements/1.1/"
   xmlns:cc="http://creativecommons.org/ns#"
   xmlns:rdf="http://www.w3.org/1999/02/22-rdf-syntax-ns#"
   xmlns:svg="http://www.w3.org/2000/svg"
   xmlns="http://www.w3.org/2000/svg"
   xmlns:sodipodi="http://sodipodi.sourceforge.net/DTD/sodipodi-0.dtd"
   xmlns:inkscape="http://www.inkscape.org/namespaces/inkscape"
   sodipodi:docname="05mm_90percent.svg"
   inkscape:version="1.0 (4035a4fb49, 2020-05-01)"
   id="svg8"
   version="1.1"
   viewBox="0 0 297 210"
   height="210mm"
   width="297mm">
  <defs
     id="defs2" />
  <sodipodi:namedview
     inkscape:window-maximized="1"
     inkscape:window-y="-8"
     inkscape:window-x="-8"
     inkscape:window-height="1009"
     inkscape:window-width="1920"
     showgrid="false"
     inkscape:document-rotation="0"
     inkscape:current-layer="layer1"
     inkscape:document-units="mm"
     inkscape:cy="478.24062"
     inkscape:cx="784.45064"
     inkscape:zoom="0.68132251"
     inkscape:pageshadow="2"
     inkscape:pageopacity="0.0"
     borderopacity="1.0"
     bordercolor="#666666"
     pagecolor="#ffffff"
     id="base" />
  <metadata
     id="metadata5">
    <rdf:RDF>
      <cc:Work
         rdf:about="">
        <dc:format>image/svg+xml</dc:format>
        <dc:type
           rdf:resource="http://purl.org/dc/dcmitype/StillImage" />
        <dc:title></dc:title>
      </cc:Work>
    </rdf:RDF>
  </metadata>
  <g
     id="layer1"
     inkscape:groupmode="layer"
     inkscape:label="Layer 1">
    <path
       id="path847"
       d="m 58.317951,64.059162 v 79.999998 h 0.486773 V 64.059162 h -0.486773 m 1.058201,0 v 79.999998 h 0.550265 V 64.059162 h -0.550265 m 1.121693,0 V 144.05916 H 61.04811 V 64.059162 h -0.550265 m 1.121693,0 v 79.999998 h 0.550265 V 64.059162 h -0.550265 m 1.121693,0 v 79.999998 h 0.550265 V 64.059162 h -0.550265 m 1.121694,0 v 79.999998 h 0.550264 V 64.059162 h -0.550264 m 1.121693,0 v 79.999998 h 0.550264 V 64.059162 h -0.550264 m 1.121693,0 v 79.999998 h 0.550264 V 64.059162 h -0.550264 m 1.121694,0 v 79.999998 h 0.55026 V 64.059162 h -0.55026 m 1.12169,0 v 79.999998 h 0.55027 V 64.059162 h -0.55027 m 1.1217,0 v 79.999998 h 0.55026 V 64.059162 h -0.55026 m 1.10052,0 v 79.999998 h 0.55027 V 64.059162 h -0.55027 m 1.1217,0 v 79.999998 h 0.55026 V 64.059162 h -0.55026 m 1.12169,0 v 79.999998 h 0.55027 V 64.059162 h -0.55027 m 1.12169,0 v 79.999998 h 0.55027 V 64.059162 h -0.55027 m 1.1217,0 v 79.999998 h 0.55026 V 64.059162 h -0.55026 m 1.12169,0 v 79.999998 h 0.55026 V 64.059162 h -0.55026 m 1.12169,0 v 79.999998 h 0.55027 V 64.059162 h -0.55027 m 1.1217,0 v 79.999998 h 0.55026 V 64.059162 h -0.55026 m 1.12169,0 v 79.999998 h 0.55026 V 64.059162 h -0.55026 m 1.12169,0 v 79.999998 h 0.55027 V 64.059162 h -0.55027 m 1.1217,0 v 79.999998 h 0.55026 V 64.059162 h -0.55026 m 1.12169,0 v 79.999998 h 0.55026 V 64.059162 h -0.55026 m 1.12169,0 v 79.999998 h 0.55027 V 64.059162 h -0.55027 m 1.1217,0 v 79.999998 h 0.55026 V 64.059162 h -0.55026 m 1.12169,0 v 79.999998 h 0.55026 V 64.059162 h -0.55026 m 1.12169,0 v 79.999998 h 0.55027 V 64.059162 h -0.55027 m 1.10053,0 v 79.999998 h 0.55027 V 64.059162 h -0.55027 m 1.12169,0 v 79.999998 h 0.55027 V 64.059162 h -0.55027 m 1.1217,0 v 79.999998 h 0.55026 V 64.059162 h -0.55026 m 1.12169,0 v 79.999998 h 0.55026 V 64.059162 h -0.55026 m 1.12169,0 v 79.999998 h 0.55027 V 64.059162 h -0.55027 m 1.1217,0 v 79.999998 h 0.55026 V 64.059162 h -0.55026 m 1.12169,0 v 79.999998 h 0.55026 V 64.059162 h -0.55026 m 1.12169,0 v 79.999998 h 0.55027 V 64.059162 h -0.55027 m 1.1217,0 v 79.999998 h 0.55026 V 64.059162 h -0.55026 m 1.12169,0 v 79.999998 h 0.55026 V 64.059162 h -0.55026 m 1.12169,0 v 79.999998 h 0.550265 V 64.059162 h -0.550265 m 1.121695,0 v 79.999998 h 0.55026 V 64.059162 h -0.55026 m 1.12169,0 v 79.999998 h 0.55026 V 64.059162 h -0.55026 m 1.12169,0 v 79.999998 h 0.55027 V 64.059162 h -0.55027 m 1.12169,0 v 79.999998 h 0.55027 V 64.059162 h -0.55027 m 1.1217,0 v 79.999998 h 0.55026 V 64.059162 h -0.55026 m 1.10053,0 v 79.999998 h 0.55026 V 64.059162 h -0.55026 m 1.12169,0 v 79.999998 h 0.55026 V 64.059162 h -0.55026 m 1.12169,0 v 79.999998 h 0.55027 V 64.059162 h -0.55027 m 1.1217,0 v 79.999998 h 0.55026 V 64.059162 h -0.55026 m 1.12169,0 v 79.999998 h 0.55026 V 64.059162 h -0.55026 m 1.12169,0 v 79.999998 h 0.55027 V 64.059162 h -0.55027 m 1.1217,0 v 79.999998 h 0.55026 V 64.059162 h -0.55026 m 1.12169,0 v 79.999998 h 0.55026 V 64.059162 h -0.55026 m 1.12169,0 v 79.999998 h 0.55027 V 64.059162 h -0.55027 m 1.12169,0 v 79.999998 h 0.55027 V 64.059162 H 116.519 m 1.1217,0 v 79.999998 h 0.55027 V 64.059162 h -0.55027 m 1.1217,0 v 79.999998 h 0.55026 V 64.059162 h -0.55026 m 1.12169,0 v 79.999998 h 0.55026 V 64.059162 h -0.55026 m 1.12169,0 v 79.999998 h 0.55027 V 64.059162 h -0.55027 m 1.12169,0 v 79.999998 h 0.55027 V 64.059162 h -0.55027 m 1.1217,0 v 79.999998 h 0.55026 V 64.059162 h -0.55026 m 1.10053,0 v 79.999998 h 0.55026 V 64.059162 h -0.55026 m 1.12169,0 v 79.999998 h 0.55026 V 64.059162 h -0.55026 m 1.12169,0 v 79.999998 h 0.55027 V 64.059162 h -0.55027 m 1.1217,0 v 79.999998 h 0.55026 V 64.059162 h -0.55026 m 1.12169,0 v 79.999998 h 0.55026 V 64.059162 h -0.55026 m 1.12169,0 v 79.999998 h 0.55027 V 64.059162 h -0.55027 m 1.1217,0 v 79.999998 h 0.55026 V 64.059162 h -0.55026 m 1.12169,0 v 79.999998 h 0.55026 V 64.059162 h -0.55026 m 1.12169,0 v 79.999998 h 0.55027 V 64.059162 h -0.55027 m 1.1217,0 v 79.999998 h 0.55026 V 64.059162 h -0.55026 m 1.12169,0 v 79.999998 h 0.55026 V 64.059162 h -0.55026 m 1.12169,0 v 79.999998 h 0.55027 V 64.059162 h -0.55027 m 1.12169,0 v 79.999998 h 0.55027 V 64.059162 h -0.55027 m 1.1217,0 v 79.999998 h 0.55026 V 64.059162 h -0.55026 m 1.12169,0 v 79.999998 h 0.55027 V 64.059162 h -0.55027 m 1.12169,0 v 79.999998 h 0.55027 V 64.059162 h -0.55027 m 1.10053,0 v 79.999998 h 0.55027 V 64.059162 h -0.55027 m 1.1217,0 v 79.999998 h 0.55026 V 64.059162 h -0.55026 m 1.12169,0 v 79.999998 h 0.55026 V 64.059162 h -0.55026 m 1.12169,0 v 79.999998 h 0.55027 V 64.059162 h -0.55027 m 1.1217,0 v 79.999998 h 0.55026 V 64.059162 h -0.55026 m 1.12169,0 v 79.999998 h 0.55026 V 64.059162 h -0.55026 m 1.12169,0 v 79.999998 h 0.55027 V 64.059162 h -0.55027 m 1.12169,0 v 79.999998 h 0.55027 V 64.059162 h -0.55027 m 1.1217,0 v 79.999998 h 0.55026 V 64.059162 h -0.55026 m 1.12169,0 v 79.999998 h 0.55027 V 64.059162 h -0.55027 m 1.12169,0 v 79.999998 h 0.55027 V 64.059162 h -0.55027 m 1.1217,0 v 79.999998 h 0.55026 V 64.059162 h -0.55026 m 1.12169,0 v 79.999998 h 0.55026 V 64.059162 h -0.55026 m 1.12169,0 v 79.999998 h 0.55027 V 64.059162 h -0.55027 m 1.1217,0 v 79.999998 h 0.55026 V 64.059162 h -0.55026 m 1.12169,0 v 79.999998 h 0.55026 V 64.059162 h -0.55026 m 1.10053,0 v 79.999998 h 0.55026 V 64.059162 h -0.55026 m 1.12169,0 v 79.999998 h 0.55027 V 64.059162 h -0.55027 m 1.1217,0 v 79.999998 h 0.55026 V 64.059162 h -0.55026 m 1.12169,0 v 79.999998 h 0.55026 V 64.059162 h -0.55026 m 1.12169,0 v 79.999998 h 0.55027 V 64.059162 h -0.55027 m 1.12169,0 v 79.999998 h 0.55027 V 64.059162 h -0.55027 m 1.1217,0 v 79.999998 h 0.55026 V 64.059162 h -0.55026 m 1.12169,0 v 79.999998 h 0.55027 V 64.059162 h -0.55027 m 1.12169,0 v 79.999998 h 0.55027 V 64.059162 h -0.55027 m 1.1217,0 v 79.999998 h 0.55026 V 64.059162 h -0.55026 m 1.12169,0 v 79.999998 h 0.55026 V 64.059162 h -0.55026 m 1.12169,0 v 79.999998 h 0.55027 V 64.059162 h -0.55027 m 1.1217,0 v 79.999998 h 0.55026 V 64.059162 h -0.55026 m 1.12169,0 v 79.999998 h 0.55026 V 64.059162 h -0.55026 m 1.12169,0 v 79.999998 h 0.55027 V 64.059162 h -0.55027 m 1.1217,0 v 79.999998 h 0.55026 V 64.059162 h -0.55026 m 1.10052,0 v 79.999998 h 0.55027 V 64.059162 h -0.55027 m 1.1217,0 v 79.999998 h 0.55026 V 64.059162 h -0.55026 m 1.12169,0 v 79.999998 h 0.55027 V 64.059162 h -0.55027 m 1.12169,0 v 79.999998 h 0.55027 V 64.059162 h -0.55027 m 1.1217,0 v 79.999998 h 0.55026 V 64.059162 h -0.55026 m 1.12169,0 v 79.999998 h 0.55026 V 64.059162 h -0.55026 m 1.12169,0 v 79.999998 h 0.55027 V 64.059162 h -0.55027 m 1.1217,0 v 79.999998 h 0.55026 V 64.059162 h -0.55026 m 1.12169,0 v 79.999998 h 0.55026 V 64.059162 h -0.55026 m 1.12169,0 v 79.999998 h 0.55027 V 64.059162 h -0.55027 m 1.1217,0 v 79.999998 h 0.55026 V 64.059162 h -0.55026 m 1.12169,0 v 79.999998 h 0.55026 V 64.059162 h -0.55026 m 1.12169,0 v 79.999998 h 0.55027 V 64.059162 h -0.55027 m 1.1217,0 v 79.999998 h 0.55026 V 64.059162 h -0.55026 m 1.12169,0 v 79.999998 h 0.55026 V 64.059162 h -0.55026 m 1.12169,0 v 79.999998 h 0.55027 V 64.059162 h -0.55027 m 1.10053,0 v 79.999998 h 0.55027 V 64.059162 h -0.55027 m 1.12169,0 v 79.999998 h 0.55027 V 64.059162 h -0.55027 m 1.1217,0 v 79.999998 h 0.55026 V 64.059162 h -0.55026 m 1.12169,0 v 79.999998 h 0.55026 V 64.059162 h -0.55026 m 1.12169,0 v 79.999998 h 0.55027 V 64.059162 h -0.55027 m 1.1217,0 v 79.999998 h 0.55026 V 64.059162 h -0.55026 m 1.12169,0 v 79.999998 h 0.55026 V 64.059162 h -0.55026 m 1.12169,0 v 79.999998 h 0.55027 V 64.059162 h -0.55027 m 1.1217,0 v 79.999998 h 0.55026 V 64.059162 h -0.55026 m 1.12169,0 v 79.999998 h 0.55026 V 64.059162 h -0.55026 m 1.12169,0 v 79.999998 h 0.55027 V 64.059162 h -0.55027 m 1.1217,0 v 79.999998 h 0.55026 V 64.059162 h -0.55026 m 1.12169,0 v 79.999998 h 0.55026 V 64.059162 h -0.55026 m 1.12169,0 v 79.999998 h 0.55027 V 64.059162 h -0.55027 m 1.12169,0 v 79.999998 h 0.55027 V 64.059162 h -0.55027 m 1.1217,0 v 79.999998 h 0.55026 V 64.059162 h -0.55026 m 1.10053,0 v 79.999998 h 0.55026 V 64.059162 h -0.55026 m 1.12169,0 v 79.999998 h 0.55026 V 64.059162 h -0.55026 m 1.12169,0 v 79.999998 h 0.55027 V 64.059162 h -0.55027 m 1.1217,0 v 79.999998 h 0.55026 V 64.059162 h -0.55026 m 1.12169,0 v 79.999998 h 0.55026 V 64.059162 h -0.55026 m 1.12169,0 v 79.999998 h 0.55027 V 64.059162 h -0.55027 m 1.1217,0 v 79.999998 h 0.55026 V 64.059162 h -0.55026 m 1.12169,0 v 79.999998 h 0.55026 V 64.059162 h -0.55026 m 1.12169,0 v 79.999998 h 0.55027 V 64.059162 h -0.55027 m 1.12169,0 v 79.999998 h 0.55027 V 64.059162 h -0.55027 m 1.1217,0 v 79.999998 h 0.55026 V 64.059162 h -0.55026 m 1.12169,0 v 79.999998 h 0.55027 V 64.059162 h -0.55027 m 1.12169,0 v 79.999998 h 0.55027 V 64.059162 h -0.55027 m 1.1217,0 v 79.999998 h 0.55026 V 64.059162 h -0.55026 m 1.12169,0 v 79.999998 h 0.55026 V 64.059162 h -0.55026 m 1.12169,0 v 79.999998 h 0.55027 V 64.059162 h -0.55027 m 1.10053,0 v 79.999998 h 0.55027 V 64.059162 h -0.55027 m 1.1217,0 v 79.999998 h 0.55026 V 64.059162 h -0.55026 m 1.12169,0 v 79.999998 h 0.55026 V 64.059162 h -0.55026 m 1.12169,0 v 79.999998 h 0.55027 V 64.059162 h -0.55027 m 1.1217,0 v 79.999998 h 0.55026 V 64.059162 h -0.55026 m 1.12169,0 v 79.999998 h 0.55026 V 64.059162 Z"
       style="fill:none;stroke:#ff0000;stroke-width:0.121;fill-opacity:1;stroke-opacity:1;stroke-miterlimit:4;stroke-dasharray:none" />
    <path
       id="path863"
       d="m 58.062641,64.059162 v 0.5715 H 238.06398 v -0.5715 H 58.062641 m 0,1.12184 v 0.55033 H 238.06398 v -0.55033 H 58.062641 m 0,1.12183 v 0.55033 H 238.06398 v -0.55033 H 58.062641 m 0,1.12183 v 0.55034 H 238.06398 v -0.55034 H 58.062641 m 0,1.12184 v 0.55033 H 238.06398 v -0.55033 H 58.062641 m 0,1.10066 v 0.5715 H 238.06398 v -0.55033 L 58.062641,69.647162 m 0,1.12184 v 0.5715 H 238.06398 v -0.5715 H 58.062641 m 0,1.12183 v 0.5715 H 238.06398 v -0.5715 H 58.062641 m 0,1.12183 v 0.5715 H 238.06398 v -0.5715 H 58.062641 m 0,1.12184 v 0.5715 H 238.06398 v -0.5715 H 58.062641 m 0,1.12183 v 0.5715 H 238.06398 v -0.5715 H 58.062641 m 0,1.12183 v 0.5715 H 238.06398 v -0.5715 H 58.062641 m 0,1.12184 v 0.5715 H 238.06398 v -0.5715 H 58.062641 m 0,1.12183 v 0.55033 H 238.06398 v -0.55033 H 58.062641 m 0,1.12183 v 0.55034 H 238.06398 v -0.55034 H 58.062641 m 0,1.12184 v 0.55033 H 238.06398 v -0.55033 H 58.062641 m 0,1.10066 v 0.5715 H 238.06398 v -0.55033 L 58.062641,81.966162 m 0,1.12184 v 0.5715 H 238.06398 v -0.5715 H 58.062641 m 0,1.12183 v 0.5715 H 238.06398 v -0.5715 H 58.062641 m 0,1.12183 v 0.5715 H 238.06398 v -0.5715 H 58.062641 m 0,1.12184 v 0.5715 H 238.06398 v -0.5715 H 58.062641 m 0,1.12183 v 0.5715 H 238.06398 v -0.5715 H 58.062641 m 0,1.12183 v 0.5715 H 238.06398 v -0.5715 H 58.062641 m 0,1.12184 v 0.5715 H 238.06398 v -0.5715 H 58.062641 m 0,1.12183 v 0.5715 H 238.06398 v -0.5715 H 58.062641 m 0,1.12183 v 0.55034 H 238.06398 v -0.55034 H 58.062641 m 0,1.12184 v 0.55033 H 238.06398 v -0.55033 H 58.062641 m 0,1.10066 v 0.5715 H 238.06398 v -0.55033 L 58.062641,94.285162 m 0,1.12184 v 0.5715 H 238.06398 v -0.55034 l -180.001339,-0.0212 m 0,1.12183 v 0.5715 H 238.06398 v -0.5715 H 58.062641 m 0,1.12183 v 0.5715 H 238.06398 v -0.5715 H 58.062641 m 0,1.12184 v 0.5715 H 238.06398 v -0.5715 H 58.062641 m 0,1.12183 v 0.571498 H 238.06398 V 99.894292 H 58.062641 m 0,1.121828 v 0.5715 H 238.06398 v -0.5715 H 58.062641 m 0,1.12184 v 0.5715 H 238.06398 v -0.5715 H 58.062641 m 0,1.12183 v 0.5715 H 238.06398 v -0.5715 H 58.062641 m 0,1.12184 v 0.55033 H 238.06398 v -0.55033 H 58.062641 m 0,1.12183 v 0.55033 H 238.06398 v -0.55033 H 58.062641 m 0,1.12183 v 0.55034 H 238.06398 v -0.55034 H 58.062641 m 0,1.10067 v 0.5715 H 238.06398 v -0.55033 l -180.001339,-0.0212 m 0,1.12183 v 0.5715 H 238.06398 v -0.5715 H 58.062641 m 0,1.12184 v 0.5715 H 238.06398 v -0.5715 H 58.062641 m 0,1.12183 v 0.5715 H 238.06398 v -0.5715 H 58.062641 m 0,1.12183 v 0.5715 H 238.06398 v -0.5715 H 58.062641 m 0,1.12184 v 0.5715 H 238.06398 v -0.5715 H 58.062641 m 0,1.12183 v 0.5715 H 238.06398 v -0.5715 H 58.062641 m 0,1.12183 v 0.5715 H 238.06398 v -0.5715 H 58.062641 m 0,1.12184 v 0.5715 H 238.06398 v -0.5715 H 58.062641 m 0,1.12183 v 0.55033 H 238.06398 v -0.55033 H 58.062641 m 0,1.12183 v 0.55034 H 238.06398 v -0.55034 H 58.062641 m 0,1.12184 v 0.55033 H 238.06398 V 120.0661 H 58.062641 m 0,1.10066 v 0.5715 H 238.06398 v -0.55033 l -180.001339,-0.0212 m 0,1.12184 v 0.5715 H 238.06398 v -0.5715 H 58.062641 m 0,1.12183 v 0.5715 H 238.06398 v -0.5715 H 58.062641 m 0,1.12183 v 0.5715 H 238.06398 v -0.5715 H 58.062641 m 0,1.12184 v 0.5715 H 238.06398 v -0.5715 H 58.062641 m 0,1.12183 v 0.5715 H 238.06398 v -0.5715 H 58.062641 m 0,1.12183 v 0.5715 H 238.06398 v -0.5715 H 58.062641 m 0,1.12184 v 0.5715 H 238.06398 v -0.5715 H 58.062641 m 0,1.12183 v 0.55033 H 238.06398 V 130.1414 H 58.062641 m 0,1.12183 v 0.55034 H 238.06398 v -0.55034 H 58.062641 m 0,1.12184 v 0.55033 H 238.06398 v -0.55033 H 58.062641 m 0,1.10066 v 0.5715 H 238.06398 V 133.5069 L 58.062641,133.4857 m 0,1.12184 v 0.5715 H 238.06398 V 134.6287 L 58.062641,134.6075 m 0,1.12183 v 0.5715 H 238.06398 v -0.5715 H 58.062641 m 0,1.12183 v 0.5715 H 238.06398 v -0.5715 H 58.062641 m 0,1.12184 v 0.5715 H 238.06398 V 137.973 H 58.062641 m 0,1.12183 v 0.5715 H 238.06398 v -0.5715 H 58.062641 m 0,1.12183 v 0.5715 H 238.06398 v -0.5715 H 58.062641 m 0,1.12184 V 141.91 H 238.06398 v -0.5715 H 58.062641 m 0,1.12183 v 0.5715 H 238.06398 v -0.5715 H 58.062641 m 0,1.12183 v 0.35984 h 137.879669 32.30034 7.53533 1.651 c 0.13568,0 0.49298,0.0639 0.60114,-0.0218 0.0703,-0.0557 0.0339,-0.25696 0.0339,-0.33803 z"
       style="fill:none;stroke:#0000ff;stroke-width:0.2;stroke-miterlimit:4;stroke-dasharray:none;stroke-opacity:1" />
    <rect
       y="57.474007"
       x="46.988884"
       height="93.589424"
       width="203.10069"
       id="rect865"
       style="fill:none;fill-opacity:1;stroke:#0000ff;stroke-width:0.2;stroke-miterlimit:4;stroke-dasharray:none;stroke-opacity:1" />
  </g>
</svg>
