<?xml version="1.0" encoding="UTF-8" standalone="no"?>
<svg
   xmlns:dc="http://purl.org/dc/elements/1.1/"
   xmlns:cc="http://creativecommons.org/ns#"
   xmlns:rdf="http://www.w3.org/1999/02/22-rdf-syntax-ns#"
   xmlns:svg="http://www.w3.org/2000/svg"
   xmlns="http://www.w3.org/2000/svg"
   xmlns:sodipodi="http://sodipodi.sourceforge.net/DTD/sodipodi-0.dtd"
   xmlns:inkscape="http://www.inkscape.org/namespaces/inkscape"
   sodipodi:docname="05mm_25percent.svg"
   inkscape:version="1.0 (4035a4fb49, 2020-05-01)"
   id="svg8"
   version="1.1"
   viewBox="0 0 297 210"
   height="210mm"
   width="297mm">
  <defs
     id="defs2" />
  <sodipodi:namedview
     inkscape:window-maximized="1"
     inkscape:window-y="-8"
     inkscape:window-x="-8"
     inkscape:window-height="1009"
     inkscape:window-width="1920"
     showgrid="false"
     inkscape:document-rotation="0"
     inkscape:current-layer="layer1"
     inkscape:document-units="mm"
     inkscape:cy="500.07978"
     inkscape:cx="420.07978"
     inkscape:zoom="0.68132251"
     inkscape:pageshadow="2"
     inkscape:pageopacity="0.0"
     borderopacity="1.0"
     bordercolor="#666666"
     pagecolor="#ffffff"
     id="base" />
  <metadata
     id="metadata5">
    <rdf:RDF>
      <cc:Work
         rdf:about="">
        <dc:format>image/svg+xml</dc:format>
        <dc:type
           rdf:resource="http://purl.org/dc/dcmitype/StillImage" />
        <dc:title></dc:title>
      </cc:Work>
    </rdf:RDF>
  </metadata>
  <g
     id="layer1"
     inkscape:groupmode="layer"
     inkscape:label="Layer 1">
    <path
       id="path862"
       d="m 57.771266,55.485642 v 79.999988 h 1.989418 V 55.485642 h -1.989418 m 4,0 v 79.999988 h 1.989418 V 55.485642 h -1.989418 m 4,0 v 79.999988 h 1.989418 V 55.485642 h -1.989418 m 4,0 v 79.999988 h 1.989418 V 55.485642 h -1.989418 m 4,0 v 79.999988 h 1.989418 V 55.485642 h -1.989418 m 3.999996,0 v 79.999988 h 1.98942 V 55.485642 h -1.98942 m 4,0 v 79.999988 h 1.98942 V 55.485642 h -1.98942 m 4,0 v 79.999988 h 1.98942 V 55.485642 h -1.98942 m 4,0 v 79.999988 h 1.98942 V 55.485642 h -1.98942 m 4,0 v 79.999988 h 1.98942 V 55.485642 h -1.98942 m 4,0 v 79.999988 h 1.98942 V 55.485642 h -1.98942 m 3.999998,0 v 79.999988 h 1.98942 V 55.485642 h -1.98942 m 4,0 v 79.999988 h 1.98942 V 55.485642 h -1.98942 m 4,0 v 79.999988 h 1.98942 V 55.485642 h -1.98942 m 4,0 v 79.999988 h 1.98942 V 55.485642 h -1.98942 m 4,0 v 79.999988 h 1.98942 V 55.485642 h -1.98942 m 4,0 v 79.999988 h 1.98942 V 55.485642 h -1.98942 m 4,0 v 79.999988 h 1.98942 V 55.485642 h -1.98942 m 4,0 v 79.999988 h 1.98942 V 55.485642 h -1.98942 m 4,0 v 79.999988 h 1.98942 V 55.485642 h -1.98942 m 4,0 v 79.999988 h 1.98942 V 55.485642 h -1.98942 m 4,0 v 79.999988 h 1.98942 V 55.485642 h -1.98942 m 4,0 v 79.999988 h 1.98942 V 55.485642 h -1.98942 m 4,0 v 79.999988 h 1.98942 V 55.485642 h -1.98942 m 4,0 v 79.999988 h 1.98942 V 55.485642 h -1.98942 m 4,0 v 79.999988 h 1.98942 V 55.485642 h -1.98942 m 4,0 v 79.999988 h 1.98942 V 55.485642 h -1.98942 m 4,0 v 79.999988 h 1.98942 V 55.485642 h -1.98942 m 4,0 v 79.999988 h 1.98942 V 55.485642 h -1.98942 m 4,0 v 79.999988 h 1.98942 V 55.485642 h -1.98942 m 4,0 v 79.999988 h 1.98942 V 55.485642 h -1.98942 m 4,0 v 79.999988 h 1.98942 V 55.485642 h -1.98942 m 4,0 v 79.999988 h 1.98942 V 55.485642 h -1.98942 m 4,0 v 79.999988 h 1.98942 V 55.485642 h -1.98942 m 4,0 v 79.999988 h 1.98942 V 55.485642 h -1.98942 m 4,0 v 79.999988 h 1.98942 V 55.485642 h -1.98942 m 4,0 v 79.999988 h 1.98942 V 55.485642 h -1.98942 m 4,0 v 79.999988 h 1.98942 V 55.485642 h -1.98942 m 4,0 v 79.999988 h 1.98942 V 55.485642 h -1.98942 m 4,0 v 79.999988 h 1.98942 V 55.485642 h -1.98942 m 4,0 v 79.999988 h 1.98942 V 55.485642 h -1.98942 m 4,0 v 79.999988 h 1.98942 V 55.485642 h -1.98942 m 4,0 v 79.999988 h 1.98942 V 55.485642 h -1.98942 m 4,0 v 79.999988 h 1.98942 V 55.485642 h -1.98942 m 4,0 v 79.999988 h 1.98942 V 55.485642 Z"
       style="fill:none;stroke:#ff0000;stroke-width:0.221;fill-opacity:1;stroke-opacity:1;stroke-miterlimit:4;stroke-dasharray:none" />
    <path
       id="path878"
       d="m 55.781846,55.485642 v 1.65079 H 235.76068 v -1.65079 H 55.781846 m 0,3.64021 v 2.01058 H 235.76068 v -2.01058 H 55.781846 m 0,4 v 2.01058 H 235.76068 v -2.01058 H 55.781846 m 0,4 v 2.01058 H 235.76068 v -2.01058 H 55.781846 m 0,4 v 2.01058 H 235.76068 v -2.01058 H 55.781846 m 0,4 v 2.01058 H 235.76068 v -2.01058 H 55.781846 m 0,4 v 2.01058 H 235.76068 v -2.01058 H 55.781846 m 0,4 v 2.01058 H 235.76068 v -2.01058 H 55.781846 m 0,4 v 2.01058 H 235.76068 v -2.01058 H 55.781846 m 0,4 v 2.01058 H 235.76068 v -2.01058 H 55.781846 m 0,4 v 2.01058 H 235.76068 v -2.01058 H 55.781846 m 0,4 v 2.010578 H 235.76068 V 99.125852 H 55.781846 m 0,3.999998 v 2.01058 H 235.76068 v -2.01058 H 55.781846 m 0,4 v 2.01058 H 235.76068 v -2.01058 H 55.781846 m 0,4 v 2.01058 H 235.76068 v -2.01058 H 55.781846 m 0,4 v 2.01058 H 235.76068 v -2.01058 H 55.781846 m 0,4 v 2.01058 H 235.76068 v -2.01058 H 55.781846 m 0,4 v 2.01058 H 235.76068 v -2.01058 H 55.781846 m 0,4 v 2.01058 H 235.76068 v -2.01058 H 55.781846 m 0,4 v 1.98942 H 235.76068 v -1.98942 H 55.781846 m 0,4 v 0.35979 h 137.862434 32.2963 7.53439 1.65079 c 0.13566,0 0.49291,0.0639 0.60106,-0.0218 0.0703,-0.0557 0.0339,-0.25693 0.0339,-0.33799 z"
       style="fill:none;stroke:#0000ff;stroke-width:0.221;stroke-miterlimit:4;stroke-dasharray:none;stroke-opacity:1" />
    <rect
       y="45.823872"
       x="40.775478"
       height="99.026154"
       width="210.86746"
       id="rect880"
       style="fill:none;fill-opacity:1;stroke:#0000ff;stroke-width:0.221;stroke-miterlimit:4;stroke-dasharray:none;stroke-opacity:1" />
  </g>
</svg>
